<svg width="48" height="48" viewBox="0 0 48 48" fill="none" xmlns="http://www.w3.org/2000/svg">
<path d="M36.6425 6H11.3564C8.45333 6 6 8.45325 6 11.3562V36.6416C6 39.5457 8.45333 42 11.3564 42H36.6425C39.5467 42 42 39.5467 42 36.6427V11.3562C42 8.45325 39.5467 6 36.6425 6ZM38.5378 35.7684C38.5355 36.5019 38.243 37.2047 37.7243 37.7234C37.2057 38.2421 36.5028 38.5345 35.7693 38.5368H12.2307C11.4972 38.5345 10.7943 38.2421 10.2757 37.7234C9.75696 37.2047 9.46454 36.5019 9.46223 35.7684V12.2305C9.46454 11.497 9.75696 10.7942 10.2757 10.2755C10.7943 9.75685 11.4972 9.46444 12.2307 9.46213H35.7682C36.5019 9.46415 37.205 9.75643 37.724 10.2751C38.2429 10.7938 38.5355 11.4968 38.5378 12.2305V35.7673V35.7684Z" fill="#585654"/>
<path d="M21.6428 13.4175L17.6151 17.5675L15.3572 15.2406C15.0978 14.9736 14.7462 14.8237 14.3795 14.8237C14.0128 14.8237 13.6612 14.9736 13.4018 15.2406C13.2739 15.3727 13.1725 15.5295 13.1036 15.702C13.0346 15.8746 12.9994 16.0594 13 16.246C13 16.6239 13.1419 16.9838 13.4018 17.2515L16.639 20.5861C16.8989 20.8538 17.2482 21 17.6151 21C17.9819 21 18.3324 20.8538 18.5912 20.5861L23.5993 15.4273C23.7269 15.2952 23.828 15.1385 23.8967 14.9662C23.9655 14.7939 24.0006 14.6092 24 14.4229C24 14.045 23.8581 13.684 23.5993 13.4175C23.4708 13.2851 23.3183 13.1801 23.1505 13.1085C22.9826 13.0369 22.8027 13 22.621 13C22.4394 13 22.2594 13.0369 22.0916 13.1085C21.9237 13.1801 21.7712 13.2851 21.6428 13.4175Z" fill="#585654"/>
<path d="M26.2988 18.3252H33.7102C34.42 18.3252 35 17.5812 35 16.662C35 15.7428 34.42 15 33.7102 15H26.2988C25.589 15 25.009 15.7428 25.009 16.662C25.009 17.5812 25.5845 18.3252 26.2988 18.3252ZM33.7012 28.6747H26.2898C25.58 28.6747 25 29.4188 25 30.338C25 31.256 25.58 32 26.2898 32H33.7012C34.411 32 34.991 31.256 34.991 30.338C34.991 29.4188 34.411 28.6747 33.7012 28.6747Z" fill="#585654"/>
<path d="M18 25C16.674 25.0009 15.4026 25.5281 14.465 26.4658C13.5275 27.4035 13.0006 28.6751 13 30.0011C13.0012 31.3267 13.5283 32.5977 14.4658 33.535C15.4033 34.4722 16.6744 34.9991 18 35C19.3256 34.9991 20.5967 34.4722 21.5342 33.535C22.4717 32.5977 22.9988 31.3267 23 30.0011C22.9994 28.6749 22.4723 27.4032 21.5346 26.4654C20.5968 25.5277 19.3251 25.0006 17.9989 25H18ZM20.2411 30.0011C20.223 30.5834 19.9789 31.1357 19.5606 31.5412C19.1423 31.9467 18.5826 32.1734 18 32.1734C17.4174 32.1734 16.8577 31.9467 16.4394 31.5412C16.0211 31.1357 15.777 30.5834 15.7589 30.0011C15.777 29.4188 16.0211 28.8665 16.4394 28.461C16.8577 28.0555 17.4174 27.8288 18 27.8288C18.5826 27.8288 19.1423 28.0555 19.5606 28.461C19.9789 28.8665 20.223 29.4188 20.2411 30.0011Z" fill="#585654"/>
</svg>
