<svg width="32" height="32" viewBox="0 0 32 32" fill="none" xmlns="http://www.w3.org/2000/svg">
<path d="M16 27.8653L22.5996 21.2656C26.2445 17.6208 26.2445 11.7112 22.5996 8.06635C18.9548 4.42146 13.0452 4.42146 9.40033 8.06635C5.75544 11.7112 5.75544 17.6208 9.40033 21.2656L16 27.8653ZM16 31.6365L7.51472 23.1514C2.82843 18.4649 2.82843 10.867 7.51472 6.18074C12.201 1.49444 19.7989 1.49444 24.4853 6.18074C29.1716 10.867 29.1716 18.4649 24.4853 23.1514L16 31.6365ZM14.6667 13.3327V9.33268H17.3333V13.3327H21.3333V15.9993H17.3333V19.9993H14.6667V15.9993H10.6667V13.3327H14.6667Z" fill="#2E2008"/>
</svg>
