<svg width="44" height="44" viewBox="0 0 44 44" fill="none" xmlns="http://www.w3.org/2000/svg">
<path fill-rule="evenodd" clip-rule="evenodd" d="M40 22C40 31.9411 31.9411 40 22 40C12.0589 40 4 31.9411 4 22C4 12.0589 12.0589 4 22 4C31.9411 4 40 12.0589 40 22ZM21.9997 13.3273C22.813 13.3273 23.4724 13.9866 23.4724 14.8V20.5298H29.2C30.0134 20.5298 30.6727 21.1892 30.6727 22.0026C30.6727 22.8159 30.0134 23.4753 29.2 23.4753H23.4724V29.2C23.4724 30.0134 22.813 30.6727 21.9997 30.6727C21.1863 30.6727 20.527 30.0134 20.527 29.2V23.4753H14.8C13.9866 23.4753 13.3273 22.8159 13.3273 22.0026C13.3273 21.1892 13.9866 20.5298 14.8 20.5298H20.527V14.8C20.527 13.9866 21.1863 13.3273 21.9997 13.3273Z" fill="white"/>
</svg>
