<svg width="48" height="48" viewBox="0 0 48 48" fill="none" xmlns="http://www.w3.org/2000/svg">
<path d="M24 41.799L33.8994 31.8994C39.3668 26.4322 39.3668 17.5678 33.8994 12.1005C28.4322 6.63316 19.5678 6.63316 14.1005 12.1005C8.63316 17.5678 8.63316 26.4322 14.1005 31.8994L24 41.799ZM24 47.4558L11.2721 34.728C4.24264 27.6984 4.24264 16.3015 11.2721 9.27208C18.3015 2.24264 29.6984 2.24264 36.728 9.27208C43.7574 16.3015 43.7574 27.6984 36.728 34.728L24 47.4558ZM22 20V14H26V20H32V24H26V30H22V24H16V20H22Z" fill="#585654"/>
</svg>
