<?xml version="1.0" encoding="UTF-8"?>
<svg width="16px" height="16px" viewBox="0 0 16 16" version="1.1" xmlns="http://www.w3.org/2000/svg" xmlns:xlink="http://www.w3.org/1999/xlink">
    <title>icon/16pt/添加标签</title>
    <g id="商城" stroke="none" stroke-width="1" fill="none" fill-rule="evenodd">
        <g id="我的订单-标签" transform="translate(-136, -303)" fill-rule="nonzero">
            <g id="订单信息" transform="translate(10, 234)">
                <g id="title" transform="translate(10, 10)">
                    <g id="编组-4" transform="translate(48, 0)">
                        <g id="编组" transform="translate(68, 59)">
                            <rect id="矩形" fill="#000000" opacity="0" x="6.18896956e-06" y="0" width="15.9999938" height="15.9999938"></rect>
                            <path d="M13.5488603,8.0773875 L7.04886284,1.57739001 C6.89291726,1.42060534 6.68073109,1.3327219 6.45959744,1.3333245 L0.833349617,1.3333245 C0.373317361,1.33383567 0.000514250702,1.70663878 3.07860591e-06,2.16667104 L3.07860591e-06,7.79291886 C-0.000599521509,8.01405251 0.0872839149,8.22623868 0.244068595,8.38218426 L6.74406608,14.8821817 C6.9003471,15.0384742 7.11231649,15.1262793 7.33333929,15.1262793 C7.55436209,15.1262793 7.76633148,15.0384742 7.9226125,14.8821817 L13.5488603,9.25593392 C13.8737467,8.93025545 13.8737467,8.40306597 13.5488603,8.0773875 Z M15.5488595,9.25593392 L9.56906499,15.2357285 C9.43887254,15.3659166 9.22779237,15.3659131 9.09760424,15.2357207 C8.96741611,15.1055282 8.9674196,14.8944481 9.09761204,14.7642599 L15.0774066,8.78448098 C15.1424396,8.71940128 15.1424396,8.61393577 15.0774066,8.54885607 L8.43094043,1.90238989 C8.3007523,1.77219744 8.3007558,1.56111727 8.43094825,1.43092914 C8.5611407,1.30074101 8.77222086,1.3007445 8.902409,1.43093695 L15.5488595,8.0773875 C15.8737459,8.40306597 15.8737459,8.93025545 15.5488595,9.25593392 Z" id="形状" fill="#66A6C4"></path>
                            <rect id="矩形" fill="#FFFFFF" x="3" y="6" width="5" height="1" rx="0.5"></rect>
                            <rect id="矩形备份-2" fill="#FFFFFF" transform="translate(5.5, 6.5) rotate(90) translate(-5.5, -6.5)" x="3" y="6" width="5" height="1" rx="0.5"></rect>
                        </g>
                    </g>
                </g>
            </g>
        </g>
    </g>
</svg>