<svg width="48" height="48" viewBox="0 0 48 48" fill="none" xmlns="http://www.w3.org/2000/svg">
<g clip-path="url(#clip0_10316_1434)">
<path d="M28.3555 42.0947V42.0938V42.0947ZM27.2139 41.9541H27.2148H27.2139ZM27.8203 6.36035C27.9357 6.34622 28.0531 6.36529 28.1582 6.41504C28.2632 6.46476 28.3519 6.5435 28.4141 6.6416C28.4762 6.73986 28.5098 6.85446 28.5098 6.9707V41.1221L28.5039 41.21C28.4917 41.2954 28.4605 41.3777 28.4141 41.4512C28.3519 41.5494 28.2633 41.629 28.1582 41.6787C28.0532 41.7284 27.9356 41.7466 27.8203 41.7324C27.7051 41.7182 27.5957 41.6712 27.5059 41.5977L16.1299 32.2871L16.0029 32.1826H7.47754C7.02978 32.1825 6.59982 32.0051 6.2832 31.6885C5.96661 31.3719 5.78913 30.9419 5.78906 30.4941V17.5986C5.78917 17.151 5.96666 16.7209 6.2832 16.4043C6.59981 16.0878 7.02986 15.9102 7.47754 15.9102H16L16.1279 15.8066L27.5059 6.49512L27.5771 6.44531C27.6511 6.40049 27.7339 6.37102 27.8203 6.36035ZM17.2061 19.2871H9.16699V28.8057H17.2051L25.1318 35.292V12.8008L17.2061 19.2871ZM38.0352 33.2178C37.9535 33.2985 37.8709 33.3785 37.7871 33.457L37.5332 33.6885C37.619 33.6122 37.7034 33.5345 37.7871 33.4561L38.0352 33.2178ZM36.6592 14.2734C38.0856 15.3942 39.2508 16.8146 40.0703 18.4365C40.9491 20.1757 41.4069 22.0973 41.4053 24.0459C41.4052 27.7113 39.819 31.0061 37.2939 33.2832L34.9014 30.8916C35.8153 30.1007 36.5645 29.1336 37.0996 28.0459C37.6734 26.8793 37.9883 25.6032 38.0244 24.3057L38.0273 24.0459C38.0271 21.0134 36.5367 18.3296 34.2471 16.6865L36.6592 14.2734ZM34.9355 30.2363C34.7076 30.4558 34.4678 30.6636 34.2158 30.8574C34.4678 30.6637 34.7077 30.4557 34.9355 30.2363ZM35.2764 29.8896C35.2131 29.9578 35.1465 30.0227 35.0811 30.0889C35.1465 30.0227 35.2131 29.9578 35.2764 29.8896ZM35.5928 29.5273C35.5273 29.6064 35.459 29.6831 35.3906 29.7598C35.459 29.6831 35.5273 29.6064 35.5928 29.5273ZM35.8838 29.1543C35.8232 29.2363 35.7607 29.3167 35.6973 29.3965C35.7607 29.3167 35.8232 29.2363 35.8838 29.1543ZM36.1572 28.7627C36.1044 28.8432 36.0496 28.9223 35.9941 29.001C36.0496 28.9223 36.1044 28.8432 36.1572 28.7627ZM36.415 28.3447C36.3673 28.4274 36.318 28.5089 36.2676 28.5898C36.318 28.5089 36.3673 28.4274 36.415 28.3447ZM36.8789 27.418C36.818 27.5609 36.7543 27.7029 36.6855 27.8428L36.5742 28.0625C36.5492 28.1098 36.521 28.1553 36.4951 28.2021C36.5606 28.0836 36.6256 27.9646 36.6855 27.8428C36.7543 27.703 36.818 27.5609 36.8789 27.418ZM37.0586 26.96C37.0275 27.0463 36.9929 27.1314 36.959 27.2168C36.9929 27.1314 37.0275 27.0463 37.0586 26.96ZM37.2051 26.5137C37.1771 26.6072 37.1454 26.6994 37.1143 26.792C37.1454 26.6994 37.1771 26.6072 37.2051 26.5137ZM37.3262 26.0645C37.3081 26.1395 37.2867 26.2136 37.2666 26.2881C37.2867 26.2136 37.3081 26.1395 37.3262 26.0645ZM37.4268 25.583C37.4117 25.666 37.3944 25.7485 37.377 25.8311C37.3944 25.7485 37.4117 25.666 37.4268 25.583ZM37.4971 25.1279C37.4867 25.2102 37.4737 25.2921 37.4609 25.374C37.4737 25.2921 37.4867 25.2102 37.4971 25.1279ZM37.543 24.6621C37.5379 24.7329 37.5312 24.8034 37.5244 24.874C37.5312 24.8034 37.5379 24.7329 37.543 24.6621ZM37.5674 24.0469L37.5635 24.293C37.5625 24.3284 37.5581 24.364 37.5566 24.3994C37.5614 24.282 37.5675 24.1646 37.5674 24.0469ZM34.8008 17.7305V17.7295V17.7305ZM27.2148 6.13965L27.2139 6.13867L27.2148 6.13965Z" fill="#585654"/>
</g>
<defs>
<clipPath id="clip0_10316_1434">
<rect width="48" height="48" fill="white"/>
</clipPath>
</defs>
</svg>
