<svg width="24" height="24" viewBox="0 0 24 24" fill="none" xmlns="http://www.w3.org/2000/svg">
<path d="M14.8781 21.0984L23.3031 12.6984C23.4031 12.5984 23.4741 12.4901 23.5161 12.3734C23.5581 12.2568 23.5788 12.1318 23.5781 11.9984C23.5781 11.8651 23.5571 11.7401 23.5151 11.6234C23.4731 11.5068 23.4024 11.3984 23.3031 11.2984L14.8781 2.87344C14.6448 2.6401 14.3531 2.52344 14.0031 2.52344C13.6531 2.52344 13.3531 2.64844 13.1031 2.89844C12.8531 3.14844 12.7281 3.4401 12.7281 3.77344C12.7281 4.10677 12.8531 4.39844 13.1031 4.64844L20.4531 11.9984L13.1031 19.3484C12.8698 19.5818 12.7531 19.8694 12.7531 20.2114C12.7531 20.5534 12.8781 20.8491 13.1281 21.0984C13.3781 21.3484 13.6698 21.4734 14.0031 21.4734C14.3364 21.4734 14.6281 21.3484 14.8781 21.0984Z" fill="#612600"/>
</svg>
