<svg width="91" height="91" viewBox="0 0 91 91" fill="none" xmlns="http://www.w3.org/2000/svg">
<g id="Frame 1239">
<circle id="Ellipse 43" cx="45.5" cy="45.4141" r="43.3125" fill="#FFD81F" stroke="#68F6FF" stroke-width="3.375"/>
<g id="Group">
<g id="Group_2">
<g id="Group_3">
<path id="Vector" d="M45.4365 67.9981C29.105 67.9981 18.5352 60.7857 18.5352 49.6355C18.5352 45.4905 20.1103 41.5112 23.1361 38.1123C21.8512 31.4802 24.2553 25.5528 28.9392 24.2678C29.561 24.102 30.1827 24.0191 30.8045 24.0191C33.9133 24.0191 37.1464 26.1331 39.3847 29.6149C39.5091 29.5735 39.6334 29.5735 39.7578 29.532L39.8407 28.9517C39.8821 28.5372 40.1308 28.2056 40.5039 27.9984L52.2758 21.9881C52.483 21.8637 52.7318 21.8223 52.9805 21.8223C53.5193 21.8223 54.0167 22.1124 54.3069 22.5684C54.597 23.0243 54.597 23.6046 54.3483 24.0606L51.3639 29.4906C51.4054 29.4906 51.4882 29.4906 51.5297 29.532C53.768 26.0502 57.0012 23.9362 60.1099 23.9362C60.7317 23.9362 61.3535 24.0191 61.9752 24.1849C66.6591 25.5114 69.0632 31.3973 67.7783 38.0294C70.8041 41.4283 72.3793 45.4076 72.3793 49.5526C72.3378 60.8271 61.768 67.9981 45.4365 67.9981Z" fill="#FEFAEE"/>
<g id="Group_4">
<path id="Vector_2" d="M52.9809 23.1077C53.1882 23.1077 53.354 23.3564 53.2711 23.5636L49.4576 30.5273C50.3695 30.6517 51.2815 30.776 52.1519 30.9418C54.183 27.46 57.2089 25.2217 60.1104 25.2217C60.6078 25.2217 61.1467 25.3046 61.6441 25.4289C65.7891 26.5895 67.8616 32.3511 66.4523 38.4858C69.3953 41.636 71.1362 45.4909 71.1362 49.636C71.1362 60.3302 60.5664 66.755 45.4784 66.755C30.349 66.755 19.8206 60.3302 19.8206 49.636C19.8206 45.4909 21.5615 41.636 24.5045 38.4858C23.0952 32.3511 25.1677 26.5895 29.3127 25.4289C29.8101 25.3046 30.349 25.2217 30.8464 25.2217C33.7894 25.2217 36.8153 27.46 38.8049 30.9418C39.4681 30.8175 40.1727 30.6931 40.8774 30.6102L41.0432 29.118L52.8151 23.1077C52.8566 23.1077 52.9395 23.1077 52.9809 23.1077ZM52.9809 20.6621C52.5664 20.6621 52.1105 20.7865 51.7374 20.9523L39.9655 26.9626C39.7168 27.0869 39.5095 27.2527 39.3437 27.4185C36.9811 24.4755 33.9137 22.8175 30.8464 22.8175C30.1003 22.8175 29.3542 22.9004 28.6495 23.1077C23.5097 24.5584 20.7325 30.7346 21.8931 37.7811C18.9501 41.3044 17.375 45.408 17.375 49.636C17.375 55.6877 20.2351 60.7447 25.6651 64.268C30.6391 67.5011 37.4785 69.2006 45.4784 69.2006C53.4783 69.2006 60.3177 67.5011 65.2917 64.268C70.7217 60.7447 73.5818 55.6877 73.5818 49.636C73.5818 45.3666 72.0481 41.3044 69.0637 37.7811C70.2243 30.7346 67.4471 24.5584 62.3073 23.1077C61.6026 22.9004 60.8565 22.8175 60.1104 22.8175C58.6182 22.8175 57.126 23.232 55.6752 23.9781C55.7996 23.3149 55.7167 22.6103 55.3436 22.03C54.8462 21.1595 53.9343 20.6621 52.9809 20.6621Z" fill="black"/>
</g>
</g>
<g id="Group_5">
<path id="Vector_3" d="M43.9495 38.031C43.8666 38.031 43.8251 37.9895 43.7422 37.9481C43.6179 37.8652 43.5765 37.6994 43.6179 37.575L45.4417 33.1398L41.0894 33.5129C41.0065 33.5129 40.9236 33.4714 40.8407 33.43C40.7578 33.3471 40.7578 33.2642 40.7578 33.1398L41.2552 29.2435C41.2552 29.1191 41.3381 29.0362 41.421 28.9948L52.9857 23.1088C53.0271 23.0674 53.0686 23.0674 53.1515 23.0674C53.2344 23.0674 53.3173 23.1088 53.4002 23.1503C53.4831 23.2746 53.5246 23.399 53.4417 23.5233L49.5039 30.7357L50.7888 32.3523C50.9132 32.4766 50.8717 32.7253 50.7474 32.8082L44.1982 37.9066C44.0739 37.9895 43.991 38.031 43.9495 38.031Z" fill="#FFD81F"/>
<path id="Vector_4" d="M53.1087 23.3995L49.0465 30.7777L50.4559 32.6015L43.9481 37.6999L45.9792 32.7673L41.1295 33.1818L41.6269 29.2855L53.1087 23.3995ZM53.1087 22.7363H53.0672C52.9843 22.7363 52.9014 22.7778 52.8185 22.8192L41.2953 28.6637C41.0881 28.7466 40.9637 28.9539 40.9223 29.1611L40.4248 33.0575C40.3834 33.2647 40.4663 33.472 40.5906 33.5963C40.715 33.7207 40.8808 33.8036 41.0881 33.8036H41.1295L44.9015 33.472L43.2849 37.4098C43.1606 37.6999 43.2435 37.9901 43.4922 38.1973C43.6165 38.2802 43.7409 38.3217 43.9067 38.3217C44.031 38.3217 44.1968 38.2802 44.3212 38.1973L50.8704 33.0989C51.1605 32.8917 51.202 32.4772 50.9947 32.187L49.8755 30.7363L53.689 23.7726C53.7304 23.6897 53.7719 23.5653 53.7719 23.441C53.7719 23.0265 53.4817 22.7363 53.1087 22.7363Z" fill="#FFA01F"/>
</g>
<g id="Group_6">
<path id="Vector_5" d="M37.2305 47.806C38.2253 47.806 39.1787 47.9718 40.0077 48.3034C40.1321 47.8474 40.215 47.35 40.215 46.8112C40.215 44.5728 38.8885 42.749 37.2305 42.749C35.5725 42.749 34.2461 44.5728 34.2461 46.8112C34.2461 47.35 34.329 47.8474 34.4533 48.3034C35.3238 47.9718 36.2357 47.806 37.2305 47.806Z" fill="#29180E"/>
<path id="Vector_6" d="M53.6446 47.806C54.6394 47.806 55.5927 47.9718 56.4218 48.3034C56.5461 47.8474 56.629 47.35 56.629 46.8112C56.629 44.5728 55.3026 42.749 53.6446 42.749C51.9866 42.749 50.6602 44.5728 50.6602 46.8112C50.6602 47.35 50.7431 47.8474 50.8674 48.3034C51.6964 47.9718 52.6498 47.806 53.6446 47.806Z" fill="#29180E"/>
</g>
<g id="Group_7">
<path id="Vector_7" d="M45.4384 49.0544C46.3083 49.0544 47.0135 48.4977 47.0135 47.8109C47.0135 47.1241 46.3083 46.5674 45.4384 46.5674C44.5685 46.5674 43.8633 47.1241 43.8633 47.8109C43.8633 48.4977 44.5685 49.0544 45.4384 49.0544Z" fill="#29180E"/>
</g>
<g id="Group_8">
<path id="Vector_8" d="M48.2532 52.1641C47.4242 52.1641 46.4709 51.5838 45.8076 51.1278C45.5589 50.962 45.2688 50.962 45.0201 51.1278C44.3569 51.5838 43.4035 52.1641 42.5745 52.1641C41.8699 52.1641 41.1652 51.9568 40.5849 51.5838C40.4191 51.4594 40.3776 51.2522 40.502 51.0864C40.6263 50.9206 40.8336 50.8791 40.9994 51.0035C41.4139 51.2936 41.9942 51.4594 42.5745 51.4594C43.0719 51.4594 43.7766 51.1278 44.6056 50.5475C45.103 50.2159 45.7662 50.2159 46.2636 50.5475C47.0926 51.1278 47.7973 51.4594 48.2947 51.4594C48.875 51.4594 49.4138 51.2936 49.8698 51.0035C50.0356 50.8791 50.2843 50.9206 50.3672 51.0864C50.4915 51.2522 50.4501 51.5009 50.2843 51.5838C49.704 51.9568 48.9993 52.1641 48.2532 52.1641Z" fill="#29180E"/>
</g>
<g id="Group_9">
<path id="Vector_9" d="M45.4356 51.0117C45.2283 51.0117 45.0625 50.8459 45.0625 50.6386V49.0635C45.0625 48.8562 45.2283 48.6904 45.4356 48.6904C45.6428 48.6904 45.8086 48.8562 45.8086 49.0635V50.6386C45.8086 50.8459 45.6428 51.0117 45.4356 51.0117Z" fill="#29180E"/>
</g>
<g id="Group_10">
<path id="Vector_10" d="M29.4353 35.7102C28.9379 35.7102 28.3162 35.5444 28.1504 34.2594C27.9845 32.8087 29.0208 29.99 30.14 29.5341C30.2643 29.4926 30.4716 29.4512 30.6788 29.4512C32.1296 29.4512 34.3679 30.7361 34.5752 32.0211C34.7824 33.389 34.0778 33.8035 32.0052 34.8397L31.6322 35.0055C30.6788 35.4615 29.9742 35.7102 29.4353 35.7102Z" fill="#FFD81F" stroke="#FFA01F" stroke-width="1.49612" stroke-miterlimit="10"/>
<path id="Vector_11" d="M61.4324 35.7102C60.8935 35.7102 60.1474 35.5029 59.2355 35.0055L58.8624 34.8397C56.7899 33.8035 56.0852 33.389 56.2925 32.0211C56.4997 30.7361 58.7381 29.4512 60.1888 29.4512C60.3961 29.4512 60.5619 29.4926 60.7277 29.5341C61.8469 29.99 62.8831 32.8087 62.7173 34.2594C62.593 35.5444 61.9712 35.7102 61.4324 35.7102Z" fill="#FFD81F" stroke="#FFA01F" stroke-width="1.49612" stroke-miterlimit="10"/>
</g>
<path id="Vector_12" d="M53.1069 23.3984L48.1328 29.5746L49.0862 30.7766L53.1069 23.3984Z" fill="#FFA01F"/>
<g id="Group_11">
<path id="Vector_13" d="M30.308 54.154C32.437 54.154 34.1629 53.2633 34.1629 52.1644C34.1629 51.0656 32.437 50.1748 30.308 50.1748C28.179 50.1748 26.4531 51.0656 26.4531 52.1644C26.4531 53.2633 28.179 54.154 30.308 54.154Z" fill="#FDCDA3"/>
<path id="Vector_14" d="M60.6088 54.154C62.7378 54.154 64.4637 53.2633 64.4637 52.1644C64.4637 51.0656 62.7378 50.1748 60.6088 50.1748C58.4798 50.1748 56.7539 51.0656 56.7539 52.1644C56.7539 53.2633 58.4798 54.154 60.6088 54.154Z" fill="#FDCDA3"/>
</g>
</g>
<g id="Group_12">
<path id="Vector_15" d="M48.3815 29.162C47.967 29.2863 47.6768 29.2449 47.511 28.9547C47.3452 28.6646 47.3867 28.3744 47.6768 28.0428C48.5473 27.1309 49.4592 26.219 50.3297 25.3071C50.4126 25.2242 50.4955 25.1827 50.5784 25.0998C50.9929 24.8097 51.2416 24.8097 51.6146 25.1827C51.739 25.5558 51.6146 25.8459 51.3659 26.0946C50.9514 26.5091 50.5784 26.9236 50.1639 27.3796C49.5421 27.9599 48.9618 28.5402 48.3815 29.162Z" fill="#FEFEFE"/>
<path id="Vector_16" d="M43.9865 30.8614C44.1523 30.8614 44.4424 30.8199 44.6911 30.7785C45.1056 30.7785 45.3543 30.9443 45.4372 31.2759C45.4787 31.6489 45.3129 31.9391 44.8569 32.022C44.5253 32.1049 44.1937 32.1049 43.8621 32.1049C43.572 32.1463 43.2818 32.1463 42.9502 32.1463C42.3699 32.2292 41.9968 31.8562 42.0383 31.2759C42.0797 30.6956 42.1626 30.1153 42.3284 29.5764C42.4528 29.1619 42.7844 28.9546 43.116 29.0375C43.4891 29.1204 43.6549 29.4521 43.572 29.908C43.5305 30.1153 43.4891 30.3225 43.4476 30.4883C43.3647 30.6956 43.4476 30.7785 43.6549 30.7785C43.7378 30.8614 43.8207 30.8614 43.9865 30.8614Z" fill="#FEFEFE"/>
<path id="Vector_17" d="M46.6374 30.9033C47.0104 30.9033 47.2591 31.152 47.2591 31.5251C47.2591 31.8567 46.969 32.1468 46.6374 32.1468C46.3058 32.1468 46.0156 31.8567 46.0156 31.5251C46.0571 31.1935 46.3058 30.9033 46.6374 30.9033Z" fill="#FEFEFC"/>
</g>
</g>
</g>
</svg>
