<svg width="60" height="61" viewBox="0 0 60 61" fill="none" xmlns="http://www.w3.org/2000/svg">
<rect y="0.5" width="60" height="60" rx="30" fill="#F2F0EF"/>
<path d="M29.7333 30.4998C28.1567 30.4998 26.8069 29.9515 25.6842 28.8548C24.5614 27.7581 24 26.4398 24 24.8998C24 23.3598 24.5614 22.0415 25.6842 20.9448C26.8069 19.8481 28.1567 19.2998 29.7333 19.2998C31.31 19.2998 32.6597 19.8481 33.7825 20.9448C34.9053 22.0415 35.4667 23.3598 35.4667 24.8998C35.4667 26.4398 34.9053 27.7581 33.7825 28.8548C32.6597 29.9515 31.31 30.4998 29.7333 30.4998ZM18.2667 41.6998V37.7798C18.2667 36.9865 18.4759 36.2571 18.8945 35.5916C19.313 34.9261 19.8682 34.4189 20.56 34.0698C22.0411 33.3465 23.5461 32.8037 25.075 32.4416C26.6039 32.0795 28.1567 31.8989 29.7333 31.8998C31.31 31.8998 32.8628 32.0809 34.3917 32.443C35.9205 32.8051 37.4255 33.3474 38.9067 34.0698C39.5994 34.4198 40.1551 34.9275 40.5736 35.593C40.9922 36.2585 41.2009 36.9874 41.2 37.7798V41.6998H18.2667Z" fill="#D9D9D9"/>
</svg>
