<svg width="49" height="48" viewBox="0 0 49 48" fill="none" xmlns="http://www.w3.org/2000/svg">
<path d="M24.7579 8.00586C36.9081 8.00586 46.7579 13.3784 46.7579 20.0058V28.0058C46.7579 34.6332 36.9081 40.0058 24.7579 40.0058C12.8245 40.0058 3.11033 34.8234 2.76719 28.3596L2.75781 28.0058V20.0058C2.75781 13.3784 12.6076 8.00586 24.7579 8.00586ZM24.7579 32.0058C17.3169 32.0058 10.7388 29.9908 6.75737 26.9068L6.75781 28.0058C6.75781 31.7702 14.5231 36.0058 24.7579 36.0058C34.7793 36.0058 42.4333 31.9448 42.7479 28.2416L42.7579 28.0058L42.7603 26.9052C38.7791 29.9902 32.2001 32.0058 24.7579 32.0058ZM24.7579 12.0059C14.5231 12.0059 6.75781 16.2415 6.75781 20.0058C6.75781 23.7702 14.5231 28.0058 24.7579 28.0058C34.9927 28.0058 42.7579 23.7702 42.7579 20.0058C42.7579 16.2415 34.9927 12.0059 24.7579 12.0059Z" fill="#585654"/>
</svg>
