<?xml version="1.0" standalone="no"?><!DOCTYPE svg PUBLIC "-//W3C//DTD SVG 1.1//EN" "http://www.w3.org/Graphics/SVG/1.1/DTD/svg11.dtd"><svg t="1713863598891" class="icon" viewBox="0 0 1024 1024" version="1.1" xmlns="http://www.w3.org/2000/svg" p-id="5858" width="220" height="220" data-spm-anchor-id="a313x.search_index.0.i13.65d13a81nzi0Tp" xmlns:xlink="http://www.w3.org/1999/xlink"><path d="M942.545455 779.636364H884.363636V253.672727c0-46.545455-37.236364-83.781818-83.781818-83.781818h-221.090909c-46.545455 0-83.781818 37.236364-83.781818 83.781818v209.454546h-230.4c-46.545455 0-86.109091 39.563636-86.109091 86.109091v230.4H81.454545c-20.945455 0-37.236364 16.290909-37.236363 37.236363s16.290909 37.236364 37.236363 37.236364h861.09091c20.945455 0 37.236364-16.290909 37.236363-37.236364s-16.290909-37.236364-37.236363-37.236363z m-693.527273 0v-230.4c0-6.981818 4.654545-11.636364 11.636363-11.636364h230.4v244.363636H249.018182z m318.836363 0V253.672727c0-6.981818 4.654545-11.636364 11.636364-11.636363h221.090909c6.981818 0 11.636364 4.654545 11.636364 11.636363v525.963637H567.854545z" p-id="5859" fill="#666666"></path><path d="M756.363636 295.563636h-130.327272c-20.945455 0-37.236364 16.290909-37.236364 37.236364s16.290909 37.236364 37.236364 37.236364h130.327272c20.945455 0 37.236364-16.290909 37.236364-37.236364s-16.290909-37.236364-37.236364-37.236364zM756.363636 481.745455h-130.327272c-20.945455 0-37.236364 16.290909-37.236364 37.236363 0 20.945455 16.290909 37.236364 37.236364 37.236364h130.327272c20.945455 0 37.236364-16.290909 37.236364-37.236364 0-20.945455-16.290909-37.236364-37.236364-37.236363zM756.363636 665.6h-130.327272c-20.945455 0-37.236364 16.290909-37.236364 37.236364 0 20.945455 16.290909 37.236364 37.236364 37.236363h130.327272c20.945455 0 37.236364-16.290909 37.236364-37.236363 0-20.945455-16.290909-37.236364-37.236364-37.236364zM290.909091 432.872727c6.981818 6.981818 16.290909 11.636364 25.6 11.636364s18.618182-4.654545 25.6-11.636364c13.963636-13.963636 13.963636-37.236364 0-51.2l-6.981818-9.309091h97.745454c20.945455 0 37.236364-16.290909 37.236364-37.236363 0-20.945455-16.290909-37.236364-37.236364-37.236364h-97.745454l9.309091-9.309091c13.963636-13.963636 13.963636-37.236364 0-51.2-13.963636-13.963636-37.236364-13.963636-51.2 0l-69.818182 69.818182c-9.309091 9.309091-13.963636 18.618182-13.963637 27.927273s4.654545 18.618182 11.636364 25.6l69.818182 72.145454z" p-id="5860" fill="#666666"></path></svg>