<svg width="32" height="32" viewBox="0 0 32 32" fill="none" xmlns="http://www.w3.org/2000/svg">
<path d="M11.016 6.746C11.198 6.928 11.422 7.012 11.66 7.012C11.898 7.012 12.15 6.928 12.304 6.746C12.668 6.382 12.668 5.808 12.304 5.444L10.064 3.19C9.88198 3.008 9.65798 2.924 9.41998 2.924C9.18198 2.924 8.92998 3.008 8.77598 3.19C8.41198 3.554 8.41198 4.142 8.77598 4.492C8.76198 4.492 11.016 6.746 11.016 6.746ZM15.944 7.026C16.462 7.026 16.868 6.62 16.868 6.102V2.924C16.868 2.406 16.462 2 15.944 2C15.426 2 15.02 2.406 15.02 2.924V6.102C15.02 6.592 15.44 7.026 15.944 7.026ZM20.2 7.026C20.438 7.026 20.69 6.942 20.844 6.76L23.098 4.506C23.462 4.142 23.462 3.554 23.098 3.204C22.916 3.022 22.692 2.938 22.454 2.938C22.216 2.938 21.964 3.022 21.81 3.204L19.542 5.444C19.178 5.808 19.178 6.396 19.542 6.746C19.71 6.914 19.962 7.026 20.2 7.026ZM9.23798 7.684H7.38998C6.95598 7.684 6.56398 7.936 6.40998 8.37L3.83398 14.95H11.324C11.31 14.936 9.23798 7.684 9.23798 7.684ZM28.012 14.936L25.436 8.37C25.282 7.964 24.89 7.684 24.456 7.684H22.594L20.522 14.922H28.012V14.936ZM18.604 14.936L20.676 7.698H11.17L13.242 14.936H18.604ZM16.868 27.69L16.294 29.72C16.56 29.65 16.812 29.496 16.994 29.286L17.246 28.992L27.97 16.784C27.984 16.784 27.984 16.77 27.998 16.77H20.004L16.868 27.69ZM11.828 16.77H3.83398L14.586 29.006L14.838 29.3C15.02 29.51 15.258 29.664 15.538 29.734L14.964 27.718C14.964 27.704 11.828 16.77 11.828 16.77ZM13.76 16.77L15.916 24.33L18.072 16.77H13.76Z" fill="#FEA021"/>
</svg>
