<svg width="60" height="60" viewBox="0 0 60 60" fill="none" xmlns="http://www.w3.org/2000/svg">
<path d="M22.5 7.5H37.5L42.5 12.5H52.5C53.8807 12.5 55 13.6193 55 15V50C55 51.3807 53.8807 52.5 52.5 52.5H7.5C6.1193 52.5 5 51.3807 5 50V15C5 13.6193 6.1193 12.5 7.5 12.5H17.5L22.5 7.5ZM30 47.5C38.2842 47.5 45 40.7842 45 32.5C45 24.2157 38.2842 17.5 30 17.5C21.7157 17.5 15 24.2157 15 32.5C15 40.7842 21.7157 47.5 30 47.5ZM30 42.5C24.4771 42.5 20 38.0228 20 32.5C20 26.9772 24.4771 22.5 30 22.5C35.5227 22.5 40 26.9772 40 32.5C40 38.0228 35.5227 42.5 30 42.5Z" fill="#2E2008"/>
</svg>
