<svg width="60" height="60" viewBox="0 0 60 60" fill="none" xmlns="http://www.w3.org/2000/svg">
<path d="M12.5 27.7513L17.5 22.7513L31.25 36.5013L40 27.7513L47.5 35.2513V12.5H12.5V27.7513ZM10 7.5H50C51.3807 7.5 52.5 8.6193 52.5 10V50C52.5 51.3807 51.3807 52.5 50 52.5H10C8.6193 52.5 7.5 51.3807 7.5 50V10C7.5 8.6193 8.6193 7.5 10 7.5ZM38.75 25C36.679 25 35 23.3211 35 21.25C35 19.1789 36.679 17.5 38.75 17.5C40.821 17.5 42.5 19.1789 42.5 21.25C42.5 23.3211 40.821 25 38.75 25Z" fill="#2E2008"/>
</svg>
