<svg width="60" height="60" viewBox="0 0 60 60" fill="none" xmlns="http://www.w3.org/2000/svg">
<path d="M16.2656 5H43.7657C44.5524 5 45.2934 5.37048 45.7657 6L52.5157 15V52.5C52.5157 53.8807 51.3964 55 50.0157 55H10.0156C8.63493 55 7.51562 53.8807 7.51562 52.5V15L14.2656 6C14.7378 5.37048 15.4788 5 16.2656 5ZM46.2657 15L42.5157 10H17.5156L13.7656 15H46.2657ZM22.5156 25H17.5156V30C17.5156 36.9035 23.1121 42.5 30.0157 42.5C36.9192 42.5 42.5157 36.9035 42.5157 30V25H37.5157V30C37.5157 34.1423 34.1577 37.5 30.0157 37.5C25.8734 37.5 22.5156 34.1423 22.5156 30V25Z" fill="#2E2008"/>
</svg>
