<svg width="60" height="60" viewBox="0 0 60 60" fill="none" xmlns="http://www.w3.org/2000/svg">
<path d="M10.0129 16.0425L1.90625 7.93592L5.44178 4.40039L13.5484 12.507H51.6527C53.0335 12.507 54.1527 13.6263 54.1527 15.007C54.1527 15.2503 54.1172 15.4923 54.0475 15.7254L48.0475 35.7254C47.7302 36.7829 46.7567 37.5071 45.6527 37.5071H15.0129V42.5071H42.513V47.5071H12.5129C11.1321 47.5071 10.0129 46.3876 10.0129 45.0071V16.0425ZM13.7629 57.5071C11.6918 57.5071 10.0129 55.8281 10.0129 53.7571C10.0129 51.6859 11.6918 50.0071 13.7629 50.0071C15.8339 50.0071 17.5129 51.6859 17.5129 53.7571C17.5129 55.8281 15.8339 57.5071 13.7629 57.5071ZM43.763 57.5071C41.6917 57.5071 40.013 55.8281 40.013 53.7571C40.013 51.6859 41.6917 50.0071 43.763 50.0071C45.834 50.0071 47.513 51.6859 47.513 53.7571C47.513 55.8281 45.834 57.5071 43.763 57.5071Z" fill="#2E2008"/>
</svg>
