<svg width="60" height="60" viewBox="0 0 60 60" fill="none" xmlns="http://www.w3.org/2000/svg">
<path d="M30.9774 46.1968C30.3705 45.8571 29.6306 45.8571 29.0236 46.1968L16.1505 53.4026C14.6612 54.2362 12.8793 52.9416 13.2119 51.2677L16.087 36.7978C16.2226 36.1156 15.994 35.4119 15.4833 34.9397L4.65219 24.9234C3.39918 23.7647 4.07981 21.6699 5.7746 21.469L20.4246 19.732C21.1154 19.6501 21.7139 19.2152 22.0053 18.5836L28.1844 5.18733C28.8992 3.63759 31.1018 3.6376 31.8166 5.18735L37.9956 18.5836C38.287 19.2152 38.8855 19.6501 39.5763 19.732L54.2262 21.469C55.921 21.6699 56.6016 23.7647 55.3486 24.9234L44.5177 34.9397C44.007 35.4119 43.7784 36.1156 43.9139 36.7978L46.789 51.2677C47.1216 52.9416 45.3397 54.2362 43.8505 53.4026L30.9774 46.1968Z" fill="#2E2008"/>
</svg>
