<svg width="32" height="32" viewBox="0 0 32 32" fill="none" xmlns="http://www.w3.org/2000/svg">
<g clip-path="url(#clip0_465_4209)">
<path d="M16 15.9998C13.85 15.9998 12.0095 15.2521 10.4784 13.7566C8.94735 12.2611 8.18182 10.4634 8.18182 8.36341C8.18182 6.26341 8.94735 4.46569 10.4784 2.97023C12.0095 1.47478 13.85 0.727051 16 0.727051C18.15 0.727051 19.9905 1.47478 21.5216 2.97023C23.0526 4.46569 23.8182 6.26341 23.8182 8.36341C23.8182 10.4634 23.0526 12.2611 21.5216 13.7566C19.9905 15.2521 18.15 15.9998 16 15.9998ZM0.363636 31.2725V25.9271C0.363636 24.8452 0.649 23.8506 1.21973 22.9431C1.79045 22.0357 2.54751 21.344 3.49091 20.868C5.5106 19.8816 7.56288 19.1415 9.64773 18.6477C11.7326 18.1539 13.85 17.9076 16 17.9089C18.15 17.9089 20.2674 18.1558 22.3523 18.6496C24.4371 19.1434 26.4894 19.8829 28.5091 20.868C29.4538 21.3452 30.2115 22.0376 30.7822 22.945C31.353 23.8525 31.6377 24.8465 31.6364 25.9271V31.2725H0.363636Z" fill="#D9D9D9"/>
</g>
<defs>
<clipPath id="clip0_465_4209">
<rect width="32" height="32" fill="white"/>
</clipPath>
</defs>
</svg>
