<svg width="32" height="32" viewBox="0 0 32 32" fill="none" xmlns="http://www.w3.org/2000/svg">
<path d="M11.9993 1.33301V3.99967H19.9993V1.33301H22.666V3.99967H27.9993C28.7357 3.99967 29.3327 4.59663 29.3327 5.33301V26.6663C29.3327 27.4027 28.7357 27.9997 27.9993 27.9997H3.99935C3.26298 27.9997 2.66602 27.4027 2.66602 26.6663V5.33301C2.66602 4.59663 3.26298 3.99967 3.99935 3.99967H9.33268V1.33301H11.9993ZM26.666 14.6663H5.33268V25.333H26.666V14.6663ZM10.666 17.333V19.9997H7.99935V17.333H10.666ZM17.3327 17.333V19.9997H14.666V17.333H17.3327ZM23.9993 17.333V19.9997H21.3327V17.333H23.9993ZM9.33268 6.66634H5.33268V11.9997H26.666V6.66634H22.666V9.33301H19.9993V6.66634H11.9993V9.33301H9.33268V6.66634Z" fill="#585654"/>
</svg>
