<svg width="33" height="26" viewBox="0 0 33 26" fill="none" xmlns="http://www.w3.org/2000/svg">
<path id="Vector" fill-rule="evenodd" clip-rule="evenodd" d="M32.5 6.5V4.875C32.5 3.58207 31.9943 2.34209 31.0941 1.42785C30.1939 0.513614 28.973 0 27.7 0H5.3C4.02696 0 2.80606 0.513614 1.90589 1.42785C1.00571 2.34209 0.5 3.58207 0.5 4.875L0.5 6.5H32.5ZM0.5 21.125V9.75H32.5V21.125C32.5 22.4179 31.9943 23.6579 31.0941 24.5721C30.1939 25.4864 28.973 26 27.7 26H5.3C4.02696 26 2.80606 25.4864 1.90589 24.5721C1.00571 23.6579 0.5 22.4179 0.5 21.125ZM24.5 19.5H21.3C20.8757 19.5 20.4687 19.3288 20.1686 19.024C19.8686 18.7193 19.7 18.306 19.7 17.875C19.7 17.444 19.8686 17.0307 20.1686 16.726C20.4687 16.4212 20.8757 16.25 21.3 16.25H24.5C24.9243 16.25 25.3313 16.4212 25.6314 16.726C25.9314 17.0307 26.1 17.444 26.1 17.875C26.1 18.306 25.9314 18.7193 25.6314 19.024C25.3313 19.3288 24.9243 19.5 24.5 19.5Z" fill="white"/>
</svg>
