<svg width="49" height="51" viewBox="0 0 49 51" fill="none" xmlns="http://www.w3.org/2000/svg">
<path d="M18.2691 40.3002C19.3902 40.3002 20.299 39.3734 20.299 38.2302C20.299 37.0869 19.3902 36.1602 18.2691 36.1602C17.1481 36.1602 16.2393 37.0869 16.2393 38.2302C16.2393 39.3734 17.1481 40.3002 18.2691 40.3002Z" fill="#FEA021"/>
<path d="M32.4781 40.3002C33.5991 40.3002 34.5079 39.3734 34.5079 38.2302C34.5079 37.0869 33.5991 36.1602 32.4781 36.1602C31.357 36.1602 30.4482 37.0869 30.4482 38.2302C30.4482 39.3734 31.357 40.3002 32.4781 40.3002Z" fill="#FEA021"/>
<path d="M14.3807 17.5429L15.9066 31.1133C15.9653 31.6358 16.3991 32.0303 16.9149 32.0303H34.7787C35.2699 32.0303 35.6906 31.6717 35.7776 31.1788L37.9702 18.7614C38.0695 18.1988 37.7029 17.6606 37.1512 17.5593C37.0918 17.5484 37.0317 17.5429 36.9713 17.5429H14.3807ZM14.1479 15.4729H36.9713C37.1523 15.4729 37.3329 15.4894 37.5109 15.5221C39.1659 15.826 40.2659 17.4405 39.9679 19.1282L37.7753 31.5456C37.5142 33.0244 36.2522 34.1003 34.7787 34.1003H16.9149C15.3675 34.1003 14.0662 32.9168 13.8899 31.3491L11.9741 14.3103C11.9153 13.7878 11.4815 13.3932 10.9657 13.3932H8.11942C7.55889 13.3932 7.10449 12.9299 7.10449 12.3582C7.10449 11.7866 7.55889 11.3232 8.11942 11.3232H10.9657C12.5131 11.3232 13.8144 12.5068 13.9907 14.0745L14.1479 15.4729Z" fill="#FEA021"/>
<path d="M25.6175 20.1092H26.7055V23.5972H30.1935V24.6852H26.7055V28.1892H25.6175V24.6852H22.1135V23.5972H25.6175V20.1092Z" fill="#FEA021"/>
</svg>
