<svg width="57" height="56" viewBox="0 0 57 56" fill="none" xmlns="http://www.w3.org/2000/svg">
<path d="M24.8359 51.25C27.0451 51.25 28.8359 49.4591 28.8359 47.25C28.8359 45.0409 27.0451 43.25 24.8359 43.25C22.6268 43.25 20.8359 45.0409 20.8359 47.25C20.8359 49.4591 22.6268 51.25 24.8359 51.25Z" fill="#2E2008"/>
<path d="M44 51C46.2091 51 48 49.2091 48 47C48 44.7909 46.2091 43 44 43C41.7909 43 40 44.7909 40 47C40 49.2091 41.7909 51 44 51Z" fill="#2E2008"/>
<path d="M7.83594 8.25L17.759 14.8929L22.5664 36.133C22.9789 37.9558 24.5987 39.25 26.4677 39.25H42.3267C44.1028 39.25 45.6661 38.0788 46.1654 36.3744L49.335 25.5529C50.0851 22.992 48.1648 20.4286 45.4963 20.4286H29.8872" stroke="#2E2008" stroke-width="4" stroke-linecap="round" stroke-linejoin="round"/>
<path d="M29.8359 30.25H37.5632H46.8359" stroke="#2E2008" stroke-width="4" stroke-linecap="round" stroke-linejoin="round"/>
</svg>
