<svg width="44" height="44" viewBox="0 0 44 44" fill="none" xmlns="http://www.w3.org/2000/svg">
<path d="M28.5068 23.8324C29.8818 23.8324 31.0918 23.0808 31.7151 21.9441L38.2785 10.0458C38.433 9.76788 38.5122 9.45447 38.5084 9.13654C38.5046 8.81861 38.4178 8.50719 38.2567 8.23308C38.0956 7.95898 37.8657 7.7317 37.5897 7.57374C37.3138 7.41577 37.0014 7.3326 36.6835 7.33244H9.55012L7.82679 3.66577H1.83179V7.33244H5.49845L12.0985 21.2474L9.62345 25.7208C8.28512 28.1774 10.0451 31.1658 12.8318 31.1658H34.8318V27.4991H12.8318L14.8485 23.8324H28.5068ZM11.2918 10.9991H33.5668L28.5068 20.1658H15.6368L11.2918 10.9991ZM12.8318 32.9991C10.8151 32.9991 9.18345 34.6491 9.18345 36.6658C9.18345 38.6824 10.8151 40.3324 12.8318 40.3324C14.8485 40.3324 16.4985 38.6824 16.4985 36.6658C16.4985 34.6491 14.8485 32.9991 12.8318 32.9991ZM31.1651 32.9991C29.1485 32.9991 27.5168 34.6491 27.5168 36.6658C27.5168 38.6824 29.1485 40.3324 31.1651 40.3324C33.1818 40.3324 34.8318 38.6824 34.8318 36.6658C34.8318 34.6491 33.1818 32.9991 31.1651 32.9991Z" fill="white"/>
</svg>
