<svg width="28" height="29" viewBox="0 0 28 29" fill="none" xmlns="http://www.w3.org/2000/svg">
<path d="M13.6666 11V7.00004H9.66659V4.33337H13.6666V0.333374H16.3333V4.33337H20.3333V7.00004H16.3333V11H13.6666ZM8.33325 28.3334C7.59992 28.3334 6.97192 28.072 6.44925 27.5494C5.92659 27.0267 5.6657 26.3992 5.66659 25.6667C5.66659 24.9334 5.92792 24.3054 6.45059 23.7827C6.97325 23.26 7.60081 22.9992 8.33325 23C9.06659 23 9.69459 23.2614 10.2173 23.784C10.7399 24.3067 11.0008 24.9343 10.9999 25.6667C10.9999 26.4 10.7386 27.028 10.2159 27.5507C9.69325 28.0734 9.0657 28.3343 8.33325 28.3334ZM21.6666 28.3334C20.9333 28.3334 20.3053 28.072 19.7826 27.5494C19.2599 27.0267 18.999 26.3992 18.9999 25.6667C18.9999 24.9334 19.2613 24.3054 19.7839 23.7827C20.3066 23.26 20.9341 22.9992 21.6666 23C22.3999 23 23.0279 23.2614 23.5506 23.784C24.0733 24.3067 24.3341 24.9343 24.3333 25.6667C24.3333 26.4 24.0719 27.028 23.5493 27.5507C23.0266 28.0734 22.399 28.3343 21.6666 28.3334ZM8.33325 21.6667C7.33325 21.6667 6.56659 21.2276 6.03325 20.3494C5.49992 19.4712 5.48881 18.5992 5.99992 17.7334L7.79992 14.4667L2.99992 4.33337H0.333252V1.66671H4.69992L10.3666 13.6667H19.7333L24.8999 4.33337L27.2333 5.60004L22.0666 14.9334C21.8221 15.3778 21.4999 15.7223 21.0999 15.9667C20.6999 16.2112 20.2444 16.3334 19.7333 16.3334H9.79992L8.33325 19H24.3333V21.6667H8.33325Z" fill="white"/>
</svg>
