<svg width="42" height="48" viewBox="0 0 42 48" fill="none" xmlns="http://www.w3.org/2000/svg">
<path fill-rule="evenodd" clip-rule="evenodd" d="M3.36118 1.13682e-08H9.89202C10.5337 -6.15501e-05 11.1548 0.249906 11.6456 0.705749C12.1363 1.16159 12.4652 1.79398 12.574 2.4912L13.6189 9.2112C13.663 9.49051 13.795 9.74375 13.9917 9.92637C14.1884 10.109 14.4372 10.2093 14.6944 10.2096H37.5871C38.2568 10.2099 38.9176 10.3782 39.5195 10.7017C40.1214 11.0251 40.6487 11.4953 41.0615 12.0766C41.4743 12.6579 41.7617 13.3351 41.902 14.057C42.0423 14.7789 42.0318 15.5265 41.8714 16.2432L39.0196 28.8C38.6732 30.3419 37.8685 31.7114 36.7337 32.6902C35.5989 33.6689 34.1995 34.2005 32.7587 34.2H17.4025C15.8613 34.1966 14.372 33.5855 13.2038 32.4772C12.0356 31.3689 11.2655 29.8364 11.0327 28.1568L7.75426 6.9984C7.71033 6.7199 7.57898 6.46729 7.38318 6.28477C7.18738 6.10226 6.93961 6.00145 6.6832 6H3.36118C2.63948 6 1.94733 5.68393 1.43701 5.12132C0.926693 4.55871 0.639999 3.79565 0.639999 3C0.639999 2.20435 0.926693 1.44129 1.43701 0.87868C1.94733 0.316071 2.63948 1.13682e-08 3.36118 1.13682e-08ZM33.2942 48C32.1395 48 31.032 47.4943 30.2155 46.5941C29.399 45.6939 28.9403 44.473 28.9403 43.2C28.9403 41.927 29.399 40.7061 30.2155 39.8059C31.032 38.9057 32.1395 38.4 33.2942 38.4C34.4489 38.4 35.5563 38.9057 36.3729 39.8059C37.1894 40.7061 37.6481 41.927 37.6481 43.2C37.6481 44.473 37.1894 45.6939 36.3729 46.5941C35.5563 47.4943 34.4489 48 33.2942 48ZM11.5247 43.2C11.5247 44.473 11.9834 45.6939 12.8 46.5941C13.6165 47.4943 14.7239 48 15.8786 48C17.0333 48 18.1408 47.4943 18.9573 46.5941C19.7738 45.6939 20.2325 44.473 20.2325 43.2C20.2325 41.927 19.7738 40.7061 18.9573 39.8059C18.1408 38.9057 17.0333 38.4 15.8786 38.4C14.7239 38.4 13.6165 38.9057 12.8 39.8059C11.9834 40.7061 11.5247 41.927 11.5247 43.2Z" fill="white"/>
</svg>
