<svg width="48" height="48" viewBox="0 0 48 48" fill="none" xmlns="http://www.w3.org/2000/svg">
<path d="M25.324 7.928V20.528C25.324 21.6335 26.152 22.608 27.394 22.608H39.95C41.0528 22.608 42.022 21.7747 42.022 20.528V7.928C42.022 6.81766 41.0593 5.85 39.95 5.85H27.394C26.2932 5.85 25.324 6.68327 25.324 7.928ZM28.226 19.822V8.636H39.376V19.822H28.226ZM5.85 7.928V20.528C5.85 21.6336 6.67808 22.608 7.922 22.608H20.476C21.5788 22.608 22.548 21.7747 22.548 20.528V7.928C22.548 6.82432 21.7198 5.85 20.476 5.85H7.922C6.81266 5.85 5.85 6.81766 5.85 7.928ZM8.752 19.822V8.636H19.902V19.822H8.752ZM5.85 27.472V40.072C5.85 41.1823 6.81266 42.15 7.922 42.15H20.476C21.5787 42.15 22.548 41.3168 22.548 40.072V27.472C22.548 26.3664 21.7199 25.392 20.476 25.392H7.922C6.81916 25.392 5.85 26.2253 5.85 27.472ZM8.752 39.236V28.05H19.902V39.236H8.752ZM28.35 40.734V26.466C28.35 25.6209 27.6806 25.05 27 25.05C26.3194 25.05 25.65 25.6209 25.65 26.466V40.734C25.65 41.4814 26.2201 42.15 27 42.15C27.381 42.15 27.7208 42.0088 27.9651 41.7563C28.2093 41.5038 28.35 41.1486 28.35 40.734ZM42.15 40.734V26.466C42.15 25.6209 41.4806 25.05 40.8 25.05C40.1194 25.05 39.45 25.6209 39.45 26.466V40.734C39.45 41.4814 40.0201 42.15 40.8 42.15C41.181 42.15 41.5208 42.0088 41.7651 41.7563C42.0093 41.5038 42.15 41.1486 42.15 40.734ZM32.85 26.184V30.216C32.85 30.5667 33.0295 30.8537 33.2838 31.0484C33.5366 31.2418 33.8691 31.35 34.2 31.35C34.5309 31.35 34.8634 31.2418 35.1162 31.0484C35.3705 30.8537 35.55 30.5667 35.55 30.216V26.184C35.55 25.5541 34.9437 25.05 34.2 25.05C33.4634 25.05 32.85 25.4823 32.85 26.184ZM32.85 34.584V41.016C32.85 41.3667 33.0295 41.6537 33.2838 41.8484C33.5366 42.0419 33.8691 42.15 34.2 42.15C34.5309 42.15 34.8634 42.0419 35.1162 41.8484C35.3705 41.6537 35.55 41.3667 35.55 41.016V34.584C35.55 33.9541 34.9437 33.45 34.2 33.45C33.4634 33.45 32.85 33.8823 32.85 34.584Z" fill="#585654" stroke="#585654" stroke-width="0.3"/>
</svg>
