<svg width="36" height="36" viewBox="0 0 36 36" fill="none" xmlns="http://www.w3.org/2000/svg">
<path d="M17.2909 2.70711C17.6815 2.31658 18.3146 2.31658 18.7052 2.70711L32.2909 16.2929C32.9209 16.9229 32.4747 18 31.5838 18L29 18C28.4477 18 28 18.4477 28 19L28 33C28 33.5523 27.5523 34 27 34L9 34C8.44772 34 8 33.5523 8 33L8 19C8 18.4477 7.55229 18 7 18L4.41226 18C3.52136 18 3.07519 16.9229 3.70516 16.2929L17.2909 2.70711Z" fill="white"/>
<path d="M17.125 21.6364L11 21.6364L18.875 11L18.875 18.3636L25 18.3636L17.125 29L17.125 21.6364Z" fill="#07C160"/>
</svg>
