<svg width="32" height="32" viewBox="0 0 32 32" fill="none" xmlns="http://www.w3.org/2000/svg">
<path d="M22.6665 7.99935H29.3332V10.666H26.6665V27.9993C26.6665 28.7357 26.0696 29.3327 25.3332 29.3327H6.6665C5.93013 29.3327 5.33317 28.7357 5.33317 27.9993V10.666H2.6665V7.99935H9.33317V3.99935C9.33317 3.26298 9.93013 2.66602 10.6665 2.66602H21.3332C22.0696 2.66602 22.6665 3.26298 22.6665 3.99935V7.99935ZM23.9998 10.666H7.99984V26.666H23.9998V10.666ZM11.9998 14.666H14.6665V22.666H11.9998V14.666ZM17.3332 14.666H19.9998V22.666H17.3332V14.666ZM11.9998 5.33268V7.99935H19.9998V5.33268H11.9998Z" fill="#999999"/>
</svg>
