<svg width="40" height="40" viewBox="0 0 40 40" fill="none" xmlns="http://www.w3.org/2000/svg">
<path d="M13.332 33.334V25.0007H16.6654V33.334H31.6654V21.6673H8.33203V33.334H13.332ZM6.66536 18.334H33.332V13.334H23.332V6.66732H16.6654V13.334H6.66536V18.334ZM4.9987 35.0007V21.6673H3.33203V11.6673C3.33203 11.2253 3.50763 10.8014 3.82019 10.4888C4.13275 10.1762 4.55667 10.0007 4.9987 10.0007H13.332V5.00065C13.332 4.55862 13.5076 4.1347 13.8202 3.82214C14.1327 3.50958 14.5567 3.33398 14.9987 3.33398H24.9987C25.4407 3.33398 25.8646 3.50958 26.1772 3.82214C26.4898 4.1347 26.6654 4.55862 26.6654 5.00065V10.0007H34.9987C35.4407 10.0007 35.8647 10.1762 36.1772 10.4888C36.4898 10.8014 36.6654 11.2253 36.6654 11.6673V21.6673H34.9987V35.0007C34.9987 35.4427 34.8231 35.8666 34.5105 36.1792C34.198 36.4917 33.7741 36.6673 33.332 36.6673H6.66536C6.22334 36.6673 5.79941 36.4917 5.48685 36.1792C5.17429 35.8666 4.9987 35.4427 4.9987 35.0007Z" fill="#585654"/>
</svg>
