<svg width="40" height="40" viewBox="0 0 40 40" fill="none" xmlns="http://www.w3.org/2000/svg">
<path d="M13.3359 33.334V25.0007H16.6693V33.334H31.6693V21.6673H8.33594V33.334H13.3359ZM6.66927 18.334H33.3359V13.334H23.3359V6.66732H16.6693V13.334H6.66927V18.334ZM5.0026 35.0007V21.6673H3.33594V11.6673C3.33594 11.2253 3.51153 10.8014 3.82409 10.4888C4.13665 10.1762 4.56058 10.0007 5.0026 10.0007H13.3359V5.00065C13.3359 4.55862 13.5115 4.1347 13.8241 3.82214C14.1367 3.50958 14.5606 3.33398 15.0026 3.33398H25.0026C25.4446 3.33398 25.8686 3.50958 26.1811 3.82214C26.4937 4.1347 26.6693 4.55862 26.6693 5.00065V10.0007H35.0026C35.4446 10.0007 35.8686 10.1762 36.1811 10.4888C36.4937 10.8014 36.6693 11.2253 36.6693 11.6673V21.6673H35.0026V35.0007C35.0026 35.4427 34.827 35.8666 34.5145 36.1792C34.2019 36.4917 33.778 36.6673 33.3359 36.6673H6.66927C6.22724 36.6673 5.80332 36.4917 5.49076 36.1792C5.1782 35.8666 5.0026 35.4427 5.0026 35.0007Z" fill="#585654"/>
</svg>
