<svg width="49" height="48" viewBox="0 0 49 48" fill="none" xmlns="http://www.w3.org/2000/svg">
<path d="M33.6632 41.4152C34.4464 41.79 35.3238 42 36.25 42C39.5638 42 42.25 39.3138 42.25 36C42.25 35.0738 42.04 34.1964 41.6652 33.4132L33.6632 41.4152ZM30.8348 38.5868L38.8368 30.5848C38.0536 30.21 37.1762 30 36.25 30C32.9362 30 30.25 32.6862 30.25 36C30.25 36.9262 30.46 37.8036 30.8348 38.5868ZM36.25 46C30.7272 46 26.25 41.5228 26.25 36C26.25 30.4772 30.7272 26 36.25 26C41.7728 26 46.25 30.4772 46.25 36C46.25 41.5228 41.7728 46 36.25 46Z" fill="#585654"/>
<path d="M42.25 4C43.3546 4 44.25 4.89544 44.25 6V18C44.25 20.0288 43.4948 21.8818 42.25 23.292V23.3477C40.4315 22.4837 38.3973 22 36.25 22C34.1169 22 32.0955 22.4778 30.2861 23.3311C30.2743 23.3178 30.2617 23.3053 30.25 23.292C30.2195 23.3265 30.1863 23.3586 30.1553 23.3926C28.9918 23.9561 27.9185 24.6765 26.9619 25.5254C26.1148 25.8307 25.2023 26 24.25 26C21.8607 26 19.7159 24.9527 18.25 23.292C16.7841 24.9527 14.6393 26 12.25 26C11.5594 26 10.8892 25.9124 10.25 25.748V40H22.8311C23.2611 41.445 23.918 42.7919 24.7607 44H8.25C7.14544 44 6.25 43.1046 6.25 42V23.292C5.00528 21.8818 4.25 20.0288 4.25 18V6C4.25 4.89544 5.14544 4 6.25 4H42.25ZM8.25 18C8.25 20.2092 10.0409 22 12.25 22C14.4591 22 16.25 20.2092 16.25 18C16.25 16.8954 17.1454 16 18.25 16C19.3546 16 20.25 16.8954 20.25 18C20.25 20.2092 22.0408 22 24.25 22C26.4592 22 28.25 20.2092 28.25 18C28.25 16.8954 29.1454 16 30.25 16C31.3546 16 32.25 16.8954 32.25 18C32.25 20.2092 34.0408 22 36.25 22C38.4592 22 40.25 20.2092 40.25 18V8H8.25V18Z" fill="#585654"/>
</svg>
