<svg width="21" height="21" viewBox="0 0 21 21" fill="none" xmlns="http://www.w3.org/2000/svg">
<path fill-rule="evenodd" clip-rule="evenodd" d="M0.675281 17.0882C-0.080247 17.8437 -0.0802467 19.0687 0.675282 19.8242C1.43081 20.5797 2.65576 20.5797 3.41129 19.8242L10.2487 12.9867L17.0911 19.8291C17.8466 20.5846 19.0716 20.5846 19.8271 19.8291C20.5826 19.0736 20.5826 17.8486 19.8271 17.0931L12.9847 10.2507L19.8274 3.40813C20.5829 2.6526 20.5829 1.42764 19.8274 0.672116C19.0718 -0.0834122 17.8469 -0.0834144 17.0913 0.672114L10.2487 7.51472L3.41105 0.677037C2.65553 -0.0784912 1.43057 -0.0784909 0.675045 0.677037C-0.0804827 1.43257 -0.0804844 2.65752 0.675044 3.41304L7.51273 10.2507L0.675281 17.0882Z" fill="#4B4B4D"/>
</svg>
