<svg width="32" height="24" viewBox="0 0 32 24" fill="none" xmlns="http://www.w3.org/2000/svg">
<g clip-path="url(#clip0_7409_2476)">
<path d="M0 0H37.3333V28H0V0Z" fill="#EE1C25"/>
<path d="M5.12115 11.8402L8.00111 3.2002L10.8811 11.8402L3.20117 6.5602H12.8011L5.12115 11.8402Z" fill="#FFFF00"/>
<path d="M17.6122 3.36525L14.6483 4.02206L16.6253 1.71828L16.4314 4.81886L14.7867 2.07392L17.6122 3.36525Z" fill="#FFFF00"/>
<path d="M20.6027 7.1564L17.6161 6.61229L20.3318 5.2556L18.9506 8.03829L18.4992 4.87029L20.6027 7.1564Z" fill="#FFFF00"/>
<path d="M20.1676 12.4754L17.6626 10.7605L20.6955 10.6294L18.2995 12.6068L19.1794 9.53014L20.1676 12.4754Z" fill="#FFFF00"/>
<path d="M16.4002 15.9497L14.7519 13.4004L17.6001 14.4509L14.6263 15.3494L16.6261 12.8513L16.4002 15.9497Z" fill="#FFFF00"/>
</g>
<defs>
<clipPath id="clip0_7409_2476">
<rect width="32" height="24" fill="white"/>
</clipPath>
</defs>
</svg>
