<svg width="32" height="33" viewBox="0 0 32 33" fill="none" xmlns="http://www.w3.org/2000/svg">
<g id="mingcute:coin-2-fill" clip-path="url(#clip0_153_1826)">
<g id="Group">
<path id="Vector" d="M28 22.024V23.8333C28 24.9187 27.492 25.8467 26.7867 26.576C26.0893 27.2987 25.1427 27.888 24.0773 28.3547C21.9413 29.288 19.0853 29.8333 16 29.8333C12.9147 29.8333 10.0587 29.2893 7.92267 28.3547C6.85733 27.888 5.91067 27.2987 5.21333 26.576C4.56667 25.9093 4.08667 25.072 4.01067 24.1013L4 23.8333V22.024C4.62 22.376 5.28267 22.688 5.992 22.9507C8.69867 23.952 12.2387 24.5107 16 24.5107C19.7613 24.5107 23.3013 23.952 26.008 22.9507C26.54 22.7533 27.0453 22.5293 27.5267 22.28L28 22.024ZM4 14.6907C4.62 15.0427 5.28267 15.3547 5.992 15.6173C8.69867 16.6187 12.2387 17.1773 16 17.1773C19.7613 17.1773 23.3013 16.6187 26.008 15.6173C26.6962 15.3633 27.3624 15.0534 28 14.6907V18.8307C27.1146 19.5141 26.1311 20.0598 25.0827 20.4493C22.7427 21.316 19.5307 21.8453 16 21.8453C12.4707 21.8453 9.25867 21.316 6.91733 20.4493C5.86892 20.0598 4.88538 19.5141 4 18.8307V14.6907ZM16 4.5C19.0853 4.5 21.9413 5.044 24.0773 5.97867C25.1427 6.44533 26.0893 7.03467 26.7867 7.75733C27.4333 8.424 27.9133 9.26133 27.9893 10.232L28 10.5V11.4973C27.1146 12.1808 26.1311 12.7265 25.0827 13.116C22.7427 13.9827 19.5307 14.512 16 14.512C12.4707 14.512 9.25867 13.9827 6.91733 13.116C6.01579 12.7816 5.16187 12.3307 4.37733 11.7747L4 11.4973V10.5C4 9.41467 4.508 8.48667 5.21333 7.75733C5.91067 7.03467 6.85733 6.44533 7.92267 5.97867C10.0587 5.04533 12.9147 4.5 16 4.5Z" fill="#FBB43F"/>
</g>
</g>
<defs>
<clipPath id="clip0_153_1826">
<rect width="32" height="32" fill="white" transform="translate(0 0.5)"/>
</clipPath>
</defs>
</svg>
