<svg width="32" height="33" viewBox="0 0 32 33" fill="none" xmlns="http://www.w3.org/2000/svg">
<path d="M16 13.8333C21.3013 13.8333 26.6666 12.0013 26.6666 8.49999C26.6666 4.99866 21.3013 3.16666 16 3.16666C10.6986 3.16666 5.33331 4.99866 5.33331 8.49999C5.33331 12.0013 10.6986 13.8333 16 13.8333Z" fill="#FBB43F"/>
<path d="M5.33331 13.8333C5.33331 17.3347 10.6986 19.1667 16 19.1667C21.3013 19.1667 26.6666 17.3347 26.6666 13.8333V11.1667C26.6666 14.668 21.3013 16.5 16 16.5C10.6986 16.5 5.33331 14.668 5.33331 11.1667V13.8333Z" fill="#FBB43F"/>
<path d="M5.33331 19.1667C5.33331 22.668 10.6986 24.5 16 24.5C21.3013 24.5 26.6666 22.668 26.6666 19.1667V16.5C26.6666 20.0013 21.3013 21.8333 16 21.8333C10.6986 21.8333 5.33331 20.0013 5.33331 16.5V19.1667Z" fill="#FBB43F"/>
<path d="M5.33331 24.5C5.33331 28.0013 10.6986 29.8333 16 29.8333C21.3013 29.8333 26.6666 28.0013 26.6666 24.5V21.8333C26.6666 25.3347 21.3013 27.1667 16 27.1667C10.6986 27.1667 5.33331 25.3347 5.33331 21.8333V24.5Z" fill="#FBB43F"/>
</svg>
