<svg width="40" height="40" viewBox="0 0 40 40" fill="none" xmlns="http://www.w3.org/2000/svg">
<path d="M20.9746 30.9808C20.3677 30.6411 19.6278 30.6411 19.0209 30.9808L12.0255 34.8965C10.5363 35.7301 8.75441 34.4354 9.08702 32.7615L10.6494 24.8985C10.7849 24.2163 10.5563 23.5126 10.0456 23.0404L4.16 17.5976C2.90699 16.4388 3.58762 14.3441 5.28241 14.1431L13.2432 13.1992C13.934 13.1173 14.5325 12.6825 14.8239 12.0508L18.1816 4.77132C18.8964 3.22158 21.099 3.22158 21.8138 4.77133L25.1715 12.0508C25.4628 12.6824 26.0614 13.1173 26.7521 13.1992L34.7129 14.1431C36.4077 14.3441 37.0884 16.4388 35.8354 17.5976L29.9498 23.0404C29.4392 23.5126 29.2105 24.2163 29.3461 24.8985L30.9084 32.7615C31.241 34.4354 29.4591 35.73 27.9699 34.8964L20.9746 30.9808Z" fill="#FF8812"/>
</svg>
