<svg width="57" height="56" viewBox="0 0 57 56" fill="none" xmlns="http://www.w3.org/2000/svg">
<path d="M30.0489 9.4651C29.3117 7.97969 27.1909 7.98513 26.4613 9.47432L21.5783 19.4413C21.2877 20.0345 20.723 20.4459 20.0693 20.5407L8.91861 22.1576C7.27917 22.3954 6.62294 24.409 7.80748 25.567L15.8951 33.4738C16.3672 33.9354 16.5811 34.6001 16.4668 35.2503L14.5549 46.1236C14.2662 47.7653 15.9946 49.019 17.4655 48.2348L27.305 42.9893C27.893 42.6758 28.5985 42.6758 29.1866 42.9892L39.035 48.2384C40.5049 49.0219 42.2324 47.7704 41.946 46.1296L40.0467 35.2479C39.9334 34.599 40.1469 33.936 40.6175 33.4751L48.6958 25.5636C49.8783 24.4056 49.2227 22.3945 47.585 22.1557L36.5076 20.5404C35.8581 20.4457 35.2965 20.0384 35.0047 19.4505L30.0489 9.4651Z" stroke="#2E2008" stroke-width="4" stroke-linejoin="round"/>
</svg>
