<svg width="48" height="48" viewBox="0 0 48 48" fill="none" xmlns="http://www.w3.org/2000/svg">
<path d="M33.4463 29.1482L41.3549 20.2994L29.7542 17.788L23.7802 7.53394L17.8062 17.788L6.20547 20.2994L14.1141 29.1482L12.9184 40.9543L23.7802 36.1692L34.642 40.9543L33.4463 29.1482ZM23.7802 39.0479L11.9111 44.2768C11.2452 44.5702 10.4676 44.2683 10.1742 43.6027C10.0823 43.3942 10.0461 43.1655 10.069 42.9389L11.3756 30.0377L2.73349 20.3683C2.24869 19.8259 2.29552 18.9932 2.8381 18.5085C3.00801 18.3568 3.2144 18.2516 3.43709 18.2034L16.1137 15.459L22.6418 4.25404C23.008 3.62546 23.8145 3.41269 24.4433 3.77881C24.6402 3.89346 24.804 4.0572 24.9186 4.25404L31.4467 15.459L44.1233 18.2034C44.8344 18.3574 45.2861 19.0585 45.1321 19.7695C45.0839 19.9921 44.9787 20.1984 44.8269 20.3683L36.1848 30.0377L37.4914 42.9389C37.5647 43.6626 37.0372 44.3087 36.3133 44.382C36.0866 44.4049 35.8578 44.3687 35.6493 44.2768L23.7802 39.0479Z" fill="#585654"/>
</svg>
