<svg width="40" height="40" viewBox="0 0 40 40" fill="none" xmlns="http://www.w3.org/2000/svg">
<path d="M19.9977 30.434L12.0255 34.8965C10.5363 35.7301 8.75441 34.4354 9.08702 32.7615L10.8675 23.8005L4.16 17.5976C2.90699 16.4388 3.58762 14.3441 5.28241 14.1431L14.355 13.0674L18.1816 4.77132C18.8964 3.22158 21.099 3.22158 21.8138 4.77133L25.6404 13.0674L34.7129 14.1431C36.4077 14.3441 37.0884 16.4388 35.8354 17.5976L29.1279 23.8005L30.9084 32.7615C31.241 34.4354 29.4591 35.7301 27.9699 34.8965L19.9977 30.434ZM19.9977 26.614L27.0756 30.5758L25.4947 22.6202L31.4499 17.113L23.3951 16.1579L19.9977 8.79235L16.6003 16.1579L8.54543 17.113L14.5006 22.6202L12.9198 30.5758L19.9977 26.614Z" fill="#585654"/>
</svg>
