<svg width="49" height="48" viewBox="0 0 49 48" fill="none" xmlns="http://www.w3.org/2000/svg">
<path d="M34.25 12C33.1454 12 32.25 11.1046 32.25 10C32.25 8.89544 33.1454 8 34.25 8C35.3546 8 36.25 8.89544 36.25 10C36.25 11.1046 35.3546 12 34.25 12ZM34.25 16C37.5638 16 40.25 13.3137 40.25 10C40.25 6.6863 37.5638 4 34.25 4C30.9362 4 28.25 6.6863 28.25 10C28.25 13.3137 30.9362 16 34.25 16ZM14.25 6C9.83172 6 6.25 9.58172 6.25 14V18H10.25V14C10.25 11.7909 12.0409 10 14.25 10H20.25V6H14.25ZM34.25 42C38.6682 42 42.25 38.4182 42.25 34V30H38.25V34C38.25 36.2092 36.4592 38 34.25 38H28.25V42H34.25ZM16.25 26C16.25 24.8954 15.3546 24 14.25 24C13.1454 24 12.25 24.8954 12.25 26C12.25 27.1046 13.1454 28 14.25 28C15.3546 28 16.25 27.1046 16.25 26ZM20.25 26C20.25 29.3138 17.5637 32 14.25 32C10.9363 32 8.25 29.3138 8.25 26C8.25 22.6862 10.9363 20 14.25 20C17.5637 20 20.25 22.6862 20.25 26ZM34.25 22C32.0408 22 30.25 23.7908 30.25 26H26.25C26.25 21.5818 29.8318 18 34.25 18C38.6682 18 42.25 21.5818 42.25 26H38.25C38.25 23.7908 36.4592 22 34.25 22ZM10.25 42C10.25 39.7908 12.0409 38 14.25 38C16.4591 38 18.25 39.7908 18.25 42H22.25C22.25 37.5818 18.6683 34 14.25 34C9.83172 34 6.25 37.5818 6.25 42H10.25Z" fill="#585654"/>
</svg>
