<svg width="32" height="32" viewBox="0 0 32 32" fill="none" xmlns="http://www.w3.org/2000/svg">
<path d="M6.66667 29.3332C5.93334 29.3332 5.30534 29.0718 4.78267 28.5492C4.26 28.0265 3.99911 27.399 4 26.6665V7.99984H6.66667V26.6665H21.3333V29.3332H6.66667ZM12 23.9998C11.2667 23.9998 10.6387 23.7385 10.116 23.2158C9.59334 22.6932 9.33245 22.0656 9.33334 21.3332V5.33317C9.33334 4.59984 9.59467 3.97184 10.1173 3.44917C10.64 2.92651 11.2676 2.66562 12 2.66651H24C24.7333 2.66651 25.3613 2.92784 25.884 3.45051C26.4067 3.97317 26.6676 4.60073 26.6667 5.33317V21.3332C26.6667 22.0665 26.4053 22.6945 25.8827 23.2172C25.36 23.7398 24.7324 24.0007 24 23.9998H12ZM12 21.3332H24V5.33317H12V21.3332Z" fill="#FEA021"/>
</svg>
