<svg width="40" height="40" viewBox="0 0 40 40" fill="none" xmlns="http://www.w3.org/2000/svg">
<path d="M11.6663 10.0007V5.00065C11.6663 4.08018 12.4125 3.33398 13.333 3.33398H33.333C34.2535 3.33398 34.9997 4.08018 34.9997 5.00065V28.334C34.9997 29.2545 34.2535 30.0007 33.333 30.0007H28.333V34.9991C28.333 35.9205 27.5832 36.6673 26.655 36.6673H6.67777C5.75098 36.6673 5 35.9263 5 34.9991L5.00433 11.6688C5.0045 10.7475 5.7544 10.0007 6.68237 10.0007H11.6663ZM8.33737 13.334L8.33365 33.334H24.9997V13.334H8.33737ZM14.9997 10.0007H28.333V26.6673H31.6663V6.66732H14.9997V10.0007Z" fill="#FF8812"/>
</svg>
