<svg width="24" height="27" viewBox="0 0 24 27" fill="none" xmlns="http://www.w3.org/2000/svg">
<path d="M5.33307 5.33333V1.33333C5.33307 0.59696 5.93003 0 6.6664 0H22.6664C23.4028 0 23.9997 0.59696 23.9997 1.33333V20C23.9997 20.7364 23.4028 21.3333 22.6664 21.3333H18.6664V25.3321C18.6664 26.0692 18.0665 26.6667 17.324 26.6667H1.34221C0.600787 26.6667 0 26.0739 0 25.3321L0.00346661 6.66783C0.00359994 5.93081 0.60352 5.33333 1.34589 5.33333H5.33307ZM2.66989 8L2.66692 24H15.9997V8H2.66989ZM7.99973 5.33333H18.6664V18.6667H21.3331V2.66667H7.99973V5.33333ZM5.33333 12H13.3333V14.6667H5.33333V12ZM5.33333 17.3333H13.3333V20H5.33333V17.3333Z" fill="#FF8812"/>
</svg>
