<svg width="40" height="40" viewBox="0 0 40 40" fill="none" xmlns="http://www.w3.org/2000/svg">
<path d="M11.6663 9.99967V4.99967C11.6663 4.07921 12.4125 3.33301 13.333 3.33301H33.333C34.2535 3.33301 34.9997 4.07921 34.9997 4.99967V28.333C34.9997 29.2535 34.2535 29.9997 33.333 29.9997H28.333V34.9982C28.333 35.9195 27.5832 36.6663 26.655 36.6663H6.67777C5.75098 36.6663 5 35.9253 5 34.9982L5.00433 11.6678C5.0045 10.7465 5.7544 9.99967 6.68237 9.99967H11.6663ZM8.33737 13.333L8.33365 33.333H24.9997V13.333H8.33737ZM14.9997 9.99967H28.333V26.6663H31.6663V6.66634H14.9997V9.99967Z" fill="#FF8812"/>
</svg>
