<svg width="49" height="48" viewBox="0 0 49 48" fill="none" xmlns="http://www.w3.org/2000/svg">
<path d="M12.2406 29.46C13.4574 29.0628 14.7246 29.0103 15.8705 29.1152C17.0383 29.2223 18.2265 29.5057 19.3696 29.9033C20.5192 30.3033 21.6618 30.8325 22.7436 31.457C23.3278 31.7943 23.8963 32.163 24.4418 32.5547C24.9875 32.163 25.5562 31.7951 26.1401 31.458C27.2198 30.8347 28.3623 30.3041 29.5141 29.9033C30.6599 29.5047 31.8479 29.2231 33.0131 29.1162C34.083 29.0182 35.2642 29.0566 36.4125 29.3897L36.642 29.46L36.8784 29.542C37.9811 29.9468 39.1068 30.6815 39.8901 31.8828L40.0522 32.1475C40.8889 33.5964 40.948 35.1517 40.6752 36.4444C40.4104 37.6992 39.8205 38.8226 39.1586 39.7598C38.4828 40.7165 37.6431 41.6043 36.726 42.3965C35.8032 43.1935 34.7733 43.9177 33.6938 44.541C32.614 45.1645 31.4716 45.695 30.3198 46.0957C29.1738 46.4944 27.986 46.776 26.8207 46.8828C26.0636 46.9522 25.2544 46.9492 24.4418 46.8272C23.63 46.949 22.8211 46.9522 22.0639 46.8828C20.8993 46.776 19.7106 46.4947 18.5639 46.0957C17.5562 45.7451 16.5557 45.295 15.5981 44.7705L15.1899 44.541C14.1078 43.9164 13.0786 43.1909 12.1576 42.3955C11.24 41.603 10.4016 40.7152 9.72598 39.7588C9.06467 38.8226 8.4736 37.7004 8.2084 36.4453V36.4444C7.93661 35.1569 7.99181 33.5993 8.83047 32.1465V32.1455C9.66943 30.6932 10.9912 29.8681 12.2406 29.46ZM15.5053 33.0987C14.7208 33.0268 14.0327 33.0829 13.4818 33.2627C12.9315 33.4425 12.5276 33.7427 12.2943 34.1465C12.0611 34.5507 12.0028 35.0513 12.1225 35.6182C12.2422 36.1851 12.5382 36.8079 12.9926 37.4512C13.4471 38.0946 14.0518 38.7462 14.7719 39.3682C15.4921 39.9901 16.3137 40.5714 17.1899 41.0772C18.0659 41.583 18.9797 42.0047 19.8783 42.3174C20.777 42.6301 21.6446 42.8275 22.4291 42.8994C23.2089 42.9709 23.8927 42.9156 24.4418 42.7383C24.9911 42.9158 25.6753 42.9709 26.4555 42.8994C27.2399 42.8275 28.1067 42.63 29.0053 42.3174C29.904 42.0047 30.8177 41.583 31.6938 41.0772C32.5698 40.5714 33.3917 39.9911 34.1118 39.3692C34.8318 38.7472 35.4366 38.0955 35.8911 37.4522C36.3456 36.8087 36.6415 36.1852 36.7612 35.6182C36.8808 35.0513 36.8217 34.5516 36.5883 34.1475C36.355 33.7434 35.9516 33.4425 35.4008 33.2627C34.8501 33.083 34.1626 33.0278 33.3784 33.0996C32.594 33.1716 31.7271 33.3691 30.8286 33.6817C29.9299 33.9943 29.0161 34.4161 28.1401 34.9219C27.2641 35.4277 26.4421 36.008 25.7221 36.6299C25.2401 37.0462 24.8099 37.4768 24.4418 37.9082C24.0737 37.4768 23.6445 37.0462 23.1625 36.6299C22.4423 36.0079 21.6197 35.4267 20.7436 34.9209C19.8676 34.4152 18.9537 33.9943 18.0551 33.6817C17.1564 33.369 16.2898 33.1706 15.5053 33.0987ZM24.4506 2C26.469 2 28.4067 2.80204 29.8354 4.23047C30.1446 4.53971 30.4217 4.87498 30.6703 5.22754C31.4328 5.29751 32.1812 5.48037 32.8891 5.77344C33.6994 6.10909 34.4436 6.58174 35.0893 7.167L35.3598 7.42481L35.6186 7.69629C36.2055 8.34421 36.6761 9.08813 37.0102 9.89454V9.89551C37.3919 10.8173 37.5902 11.8069 37.5903 12.8086C37.5903 13.8093 37.3925 14.7996 37.0102 15.7227V15.7236C36.9712 15.8178 36.9289 15.9106 36.8862 16.0029C36.9289 16.0953 36.9712 16.1881 37.0102 16.2822V16.2832C37.3919 17.2049 37.5903 18.1945 37.5903 19.1963C37.5903 20.197 37.3925 21.1873 37.0102 22.1104V22.1113C36.6286 23.0321 36.0686 23.8722 35.3598 24.5811V24.582C34.6517 25.2899 33.8109 25.8496 32.8891 26.2315C32.1802 26.525 31.4309 26.7086 30.6674 26.7783C30.4199 27.1285 30.1436 27.4612 29.8364 27.7686H29.8354C28.4067 29.1971 26.469 29.999 24.4506 29.999H24.4496C22.4314 29.9985 20.4949 29.1966 19.0668 27.7686H19.0658C18.7588 27.4614 18.4822 27.1293 18.2348 26.7793C17.468 26.7104 16.7143 26.5267 16.0014 26.2315H16.0004C15.0795 25.8498 14.2393 25.2897 13.5307 24.5811C12.8222 23.8725 12.2619 23.0324 11.8803 22.1113V22.1104C11.4981 21.1874 11.3002 20.197 11.3002 19.1963L11.309 18.8213C11.3521 17.9481 11.5465 17.0894 11.8803 16.2832L12.0043 16.0029C11.9616 15.9106 11.9193 15.8178 11.8803 15.7236V15.7227C11.4981 14.7997 11.3002 13.8093 11.3002 12.8086L11.309 12.4336C11.3521 11.5604 11.5464 10.7018 11.8803 9.89551L12.0317 9.55372C12.4044 8.76551 12.9104 8.04437 13.5297 7.42481H13.5307C14.236 6.71945 15.0751 6.15689 16.0004 5.77344H16.0014C16.7131 5.47867 17.4654 5.29578 18.2309 5.22656C18.4795 4.8741 18.7577 4.53962 19.0668 4.23047L19.3403 3.96973C20.7369 2.70519 22.5575 2.0005 24.4496 2H24.4506ZM24.4506 6C23.4923 6.00027 22.5726 6.38099 21.8949 7.0586C21.2172 7.73649 20.8363 8.65666 20.8363 9.61524C20.8364 9.65993 20.8376 9.70453 20.8393 9.74903C20.6677 9.64116 20.4864 9.54668 20.2983 9.46875C19.86 9.28737 19.3898 9.19338 18.9154 9.19336C18.4409 9.19345 17.97 9.28717 17.5317 9.46875C17.0933 9.65041 16.6943 9.91743 16.3588 10.2529C16.0234 10.5885 15.7571 10.9875 15.5756 11.4258C15.3941 11.8642 15.3002 12.3341 15.3002 12.8086C15.3002 13.2832 15.394 13.7539 15.5756 14.1924C15.7572 14.6307 16.0233 15.0297 16.3588 15.3652C16.6136 15.62 16.9059 15.8338 17.2231 16.002C16.9057 16.1702 16.6137 16.3857 16.3588 16.6406C16.0235 16.9762 15.7571 17.3752 15.5756 17.8135C15.3941 18.2519 15.3002 18.7218 15.3002 19.1963C15.3002 19.6709 15.394 20.1416 15.5756 20.5801C15.7572 21.0184 16.0234 21.4174 16.3588 21.7529C16.6943 22.0884 17.0934 22.3545 17.5317 22.5361C17.97 22.7177 18.4409 22.8115 18.9154 22.8115C19.3898 22.8115 19.86 22.7176 20.2983 22.5361C20.4863 22.4582 20.6668 22.3627 20.8383 22.2549C20.8368 22.298 20.8363 22.3415 20.8363 22.3848C20.8364 23.3432 21.2173 24.2626 21.8949 24.9404C22.5726 25.6181 23.4923 25.9988 24.4506 25.999C25.4092 25.999 26.3294 25.6182 27.0073 24.9404C27.685 24.2626 28.0658 23.3434 28.0659 22.3848C28.0659 22.3441 28.0643 22.3033 28.0629 22.2627C28.2312 22.3676 28.4082 22.4599 28.5922 22.5361C29.0306 22.7177 29.5015 22.8115 29.976 22.8115C30.4503 22.8115 30.9206 22.7176 31.3588 22.5361C31.7972 22.3546 32.1961 22.0884 32.5317 21.7529C32.8672 21.4174 33.1332 21.0184 33.3149 20.5801C33.4965 20.1415 33.5903 19.671 33.5903 19.1963C33.5903 18.7217 33.4965 18.252 33.3149 17.8135C33.1333 17.3751 32.8672 16.9762 32.5317 16.6406C32.2766 16.3857 31.985 16.1702 31.6674 16.002C31.9847 15.8338 32.2768 15.62 32.5317 15.3652C32.8672 15.0297 33.1332 14.6307 33.3149 14.1924C33.4965 13.7538 33.5903 13.2833 33.5903 12.8086C33.5903 12.334 33.4965 11.8643 33.3149 11.4258C33.1332 10.9874 32.8672 10.5885 32.5317 10.2529C32.1961 9.91741 31.7973 9.65036 31.3588 9.46875C30.9206 9.28734 30.4503 9.19342 29.976 9.19336C29.5015 9.19345 29.0306 9.28719 28.5922 9.46875C28.4084 9.54494 28.231 9.63641 28.0629 9.74122C28.0644 9.6993 28.0658 9.65732 28.0659 9.61524C28.0659 8.65651 27.6852 7.73652 27.0073 7.0586C26.3294 6.38089 25.4092 6 24.4506 6ZM24.4506 13.002C25.2461 13.002 26.0091 13.3185 26.5717 13.8809C27.1343 14.4434 27.4506 15.2064 27.4506 16.002C27.4506 16.7976 27.1343 17.5604 26.5717 18.1231C26.0091 18.6855 25.2462 19.002 24.4506 19.002C23.6552 19.0018 22.892 18.6855 22.3295 18.1231C21.7671 17.5605 21.4506 16.7974 21.4506 16.002C21.4506 15.2065 21.7671 14.4434 22.3295 13.8809C22.892 13.3184 23.6552 13.0021 24.4506 13.002Z" fill="#585654"/>
</svg>
