<?xml version="1.0" encoding="UTF-8"?>
<svg width="24px" height="24px" viewBox="0 0 24 24" version="1.1" xmlns="http://www.w3.org/2000/svg" xmlns:xlink="http://www.w3.org/1999/xlink">
    <title>编组 12</title>
    <g id="商城" stroke="none" stroke-width="1" fill="none" fill-rule="evenodd">
        <g id="商家端" transform="translate(-314, -589)">
            <g id="编组-12" transform="translate(308, 589)">
                <g id="信用收" transform="translate(6, 0)">
                    <rect id="矩形" x="0" y="0" width="24" height="24"></rect>
                    <g id="编组-5" transform="translate(4.5, 2)" fill="#5D5A56" fill-rule="nonzero">
                        <path d="M1.5,19.25 C1.49987203,19.5179436 2.59578785,19.7655409 4.3748966,19.8995175 C6.15400534,20.0334942 8.34599466,20.0334942 10.1251034,19.8995175 C11.9042122,19.7655409 13.000128,19.5179436 13,19.25 C13.000128,18.9820564 11.9042122,18.7344591 10.1251034,18.6004825 C8.34599466,18.4665058 6.15400534,18.4665058 4.3748966,18.6004825 C2.59578785,18.7344591 1.49987203,18.9820564 1.5,19.25 Z" id="路径"></path>
                        <path d="M7.25000001,19.5 C11.256579,19.5 14.5,16.1447368 14.5,12 C10.493421,12 7.25000001,15.3552632 7.25000001,19.5 Z M0,12 C0,16.1447368 3.24342106,19.5 7.25000001,19.5 C7.25000001,15.3552632 4.00657895,12 0,12 L0,12 Z" id="形状"></path>
                        <path d="M0.5,9.25555556 C0.5,10.6166667 1.64589665,11.7444445 3.02887538,11.7444445 C3.58206687,11.7444445 4.056231,11.5888889 4.49088147,11.3166667 L4.45136778,11.5111111 C4.45136778,12.8722222 5.59726443,14 6.98024317,14 C8.40273557,14 9.50911855,12.8722222 9.50911853,11.5111111 L9.50911853,11.3166667 C9.90425532,11.5888889 10.4179331,11.7444444 10.9711246,11.7444445 C12.393617,11.7444445 13.5,10.6166667 13.5,9.25555556 C13.5,8.24444446 12.9072948,7.3888889 12.0379939,7 C12.9072948,6.6111111 13.5,5.75555556 13.5,4.74444446 C13.5,3.34444446 12.3541034,2.25555556 10.9711246,2.25555556 C10.4179331,2.25555556 9.943769,2.41111113 9.50911853,2.68333333 L9.50911853,2.4888889 C9.50911853,1.12777779 8.36322188,0 6.98024317,0 C5.55775077,0 4.45136778,1.12777777 4.45136778,2.4888889 L4.49088147,2.68333333 C4.09574468,2.4111111 3.58206689,2.25555556 3.02887538,2.25555556 C1.60638299,2.25555556 0.5,3.38333333 0.5,4.74444446 C0.5,5.75555556 1.09270517,6.61111113 1.96200609,7 C1.09270517,7.3888889 0.5,8.24444444 0.5,9.25555556 L0.5,9.25555556 Z M7.01975683,4.66666667 C8.44224923,4.66666667 9.5881459,5.79444444 9.5881459,7.19444446 C9.5881459,8.59444448 8.44224923,9.72222223 7.01975683,9.72222223 C5.59726443,9.72222223 4.45136778,8.59444446 4.45136778,7.19444446 C4.45136778,5.79444446 5.59726443,4.66666667 7.01975683,4.66666667 L7.01975683,4.66666667 Z" id="形状"></path>
                    </g>
                </g>
            </g>
        </g>
    </g>
</svg>