<svg width="40" height="40" viewBox="0 0 40 40" fill="none" xmlns="http://www.w3.org/2000/svg">
<path d="M28.3359 10.0007H36.6693V13.334H33.3359V35.0007C33.3359 35.9212 32.5898 36.6673 31.6693 36.6673H8.33594C7.41547 36.6673 6.66927 35.9212 6.66927 35.0007V13.334H3.33594V10.0007H11.6693V5.00065C11.6693 4.08018 12.4155 3.33398 13.3359 3.33398H26.6693C27.5898 3.33398 28.3359 4.08018 28.3359 5.00065V10.0007ZM30.0026 13.334H10.0026V33.334H30.0026V13.334ZM15.0026 18.334H18.3359V28.334H15.0026V18.334ZM21.6693 18.334H25.0026V28.334H21.6693V18.334ZM15.0026 6.66732V10.0007H25.0026V6.66732H15.0026Z" fill="#585654"/>
</svg>
