<svg width="32" height="32" viewBox="0 0 32 32" fill="none" xmlns="http://www.w3.org/2000/svg">
<path d="M11.9993 1.33398V4.00065H19.9993V1.33398H22.666V4.00065H27.9993C28.7357 4.00065 29.3327 4.59761 29.3327 5.33398V26.6673C29.3327 27.4037 28.7357 28.0006 27.9993 28.0006H3.99935C3.26298 28.0006 2.66602 27.4037 2.66602 26.6673V5.33398C2.66602 4.59761 3.26298 4.00065 3.99935 4.00065H9.33268V1.33398H11.9993ZM26.666 14.6673H5.33268V25.334H26.666V14.6673ZM10.666 17.334V20.0007H7.99935V17.334H10.666ZM17.3327 17.334V20.0007H14.666V17.334H17.3327ZM23.9993 17.334V20.0007H21.3327V17.334H23.9993ZM9.33268 6.66732H5.33268V12.0007H26.666V6.66732H22.666V9.33398H19.9993V6.66732H11.9993V9.33398H9.33268V6.66732Z" fill="#585654"/>
</svg>
