<svg width="40" height="40" viewBox="0 0 40 40" fill="none" xmlns="http://www.w3.org/2000/svg">
<path d="M28.332 9.99967H36.6654V13.333H33.332V34.9997C33.332 35.9202 32.5859 36.6663 31.6654 36.6663H8.33203C7.41156 36.6663 6.66536 35.9202 6.66536 34.9997V13.333H3.33203V9.99967H11.6654V4.99967C11.6654 4.07921 12.4116 3.33301 13.332 3.33301H26.6654C27.5859 3.33301 28.332 4.07921 28.332 4.99967V9.99967ZM29.9987 13.333H9.9987V33.333H29.9987V13.333ZM14.9987 18.333H18.332V28.333H14.9987V18.333ZM21.6654 18.333H24.9987V28.333H21.6654V18.333ZM14.9987 6.66634V9.99967H24.9987V6.66634H14.9987Z" fill="white"/>
</svg>
