<svg width="36" height="36" viewBox="0 0 36 36" fill="none" xmlns="http://www.w3.org/2000/svg">
<g id="delete-o 1">
<g id="delete-o">
<path id="Fill-1" fill-rule="evenodd" clip-rule="evenodd" d="M5.07604 15.6588C5.07604 15.6597 5.07532 15.6604 5.07442 15.6604H4.71766C4.71676 15.6604 4.71604 15.6597 4.71604 15.6588V15.3004H5.07604V15.6588ZM5.13004 15.2644H5.11204H4.68004H4.66204C4.65211 15.2644 4.64404 15.2725 4.64404 15.2824C4.64404 15.2923 4.65211 15.3004 4.66204 15.3004H4.68004V15.6588C4.68004 15.6795 4.69689 15.6964 4.71766 15.6964H5.07442C5.0952 15.6964 5.11204 15.6795 5.11204 15.6588V15.3004H5.13004C5.13998 15.3004 5.14804 15.2923 5.14804 15.2824C5.14804 15.2725 5.13998 15.2644 5.13004 15.2644ZM4.98604 15.5884C4.99598 15.5884 5.00404 15.5803 5.00404 15.5704V15.3904C5.00404 15.3804 4.99598 15.3724 4.98604 15.3724C4.97611 15.3724 4.96804 15.3804 4.96804 15.3904V15.5704C4.96804 15.5803 4.97611 15.5884 4.98604 15.5884ZM4.80604 15.5884C4.81598 15.5884 4.82404 15.5803 4.82404 15.5704V15.3904C4.82404 15.3804 4.81598 15.3724 4.80604 15.3724C4.79611 15.3724 4.78804 15.3804 4.78804 15.3904V15.5704C4.78804 15.5803 4.79611 15.5884 4.80604 15.5884ZM4.89604 15.5884C4.90598 15.5884 4.91404 15.5803 4.91404 15.5704V15.3904C4.91404 15.3804 4.90598 15.3724 4.89604 15.3724C4.88611 15.3724 4.87804 15.3804 4.87804 15.3904V15.5704C4.87804 15.5803 4.88611 15.5884 4.89604 15.5884ZM4.77004 15.2284H5.02204C5.03198 15.2284 5.04004 15.2203 5.04004 15.2104C5.04004 15.2004 5.03198 15.1924 5.02204 15.1924H4.77004C4.76011 15.1924 4.75204 15.2004 4.75204 15.2104C4.75204 15.2203 4.76011 15.2284 4.77004 15.2284Z" fill="#87837E"/>
<g id="&#229;&#156;&#134;&#232;&#167;&#146;-&#229;&#136;&#160;&#233;&#153;&#164;-&#231;&#186;&#191;">
<path id="Fill-1_2" fill-rule="evenodd" clip-rule="evenodd" d="M28 29.9102C28 29.9602 27.96 30.0002 27.91 30.0002H8.09C8.04 30.0002 8 29.9602 8 29.9102V10.0002H28V29.9102ZM31 8.0002H30H6H5C4.448 8.0002 4 8.4482 4 9.0002C4 9.5522 4.448 10.0002 5 10.0002H6V29.9102C6 31.0642 6.936 32.0002 8.09 32.0002H27.91C29.064 32.0002 30 31.0642 30 29.9102V10.0002H31C31.552 10.0002 32 9.5522 32 9.0002C32 8.4482 31.552 8.0002 31 8.0002ZM23 26C23.552 26 24 25.552 24 25V15C24 14.448 23.552 14 23 14C22.448 14 22 14.448 22 15V25C22 25.552 22.448 26 23 26ZM13 26C13.552 26 14 25.552 14 25V15C14 14.448 13.552 14 13 14C12.448 14 12 14.448 12 15V25C12 25.552 12.448 26 13 26ZM18 26C18.552 26 19 25.552 19 25V15C19 14.448 18.552 14 18 14C17.448 14 17 14.448 17 15V25C17 25.552 17.448 26 18 26ZM11 6H25C25.552 6 26 5.552 26 5C26 4.448 25.552 4 25 4H11C10.448 4 10 4.448 10 5C10 5.552 10.448 6 11 6Z" fill="#87837E"/>
</g>
</g>
</g>
</svg>
