<svg width="36" height="36" viewBox="0 0 36 36" fill="none" xmlns="http://www.w3.org/2000/svg">
<path d="M18.7091 33.2929C18.3185 33.6834 17.6854 33.6834 17.2948 33.2929L3.70906 19.7071C3.07909 19.0771 3.52526 18 4.41617 18H7C7.55228 18 8 17.5523 8 17L8 3C8 2.44772 8.44772 2 9 2L27 2C27.5523 2 28 2.44772 28 3L28 17C28 17.5523 28.4477 18 29 18H31.5877C32.4786 18 32.9248 19.0771 32.2948 19.7071L18.7091 33.2929Z" fill="white"/>
<path d="M18.875 14.3636L25 14.3636L17.125 25V17.6364H11L18.875 7V14.3636Z" fill="#FF4444"/>
</svg>
