<svg width="44" height="45" viewBox="0 0 44 45" fill="none" xmlns="http://www.w3.org/2000/svg">
<path d="M43.9979 17.4263C43.9979 19.8548 43.4677 22.1717 42.5189 24.2653C38.5004 5.19991 8.4456 8.43796 12.7431 25.2423C10.3432 20.8877 10.1479 15.1373 12.2129 10.6432C19.1336 -5.43538 44.277 -0.215435 43.9979 17.4263Z" fill="url(#paint0_linear_1694_5888)"/>
<path d="M24.8538 31.746C15.3658 36.3518 3.22664 30.0991 1.58018 19.6034C-0.987172 7.15366 12.324 -3.70495 23.9887 1.20794C15.1146 2.96653 9.17063 12.2061 11.2078 20.9711C12.5473 27.5868 17.4029 33.7837 24.8538 31.746Z" fill="url(#paint1_radial_1694_5888)"/>
<path d="M33.1701 26.6933C31.2167 53.6863 -8.2145 44.8096 1.55262 19.5752C3.05954 28.6752 12.3801 34.9001 21.338 32.8902C27.5889 31.7178 33.198 27.3632 31.9423 20.3847C32.7515 22.3945 33.1701 24.5439 33.1701 26.6933Z" fill="url(#paint2_linear_1694_5888)"/>
<path d="M42.9091 27.8101C43.1882 39.5341 30.2397 47.9083 19.6634 43.0234C27.4491 41.5997 33.2257 34.5933 33.1699 26.6936C33.0862 18.9335 28.5096 10.3359 19.5518 12.6249C30.0723 7.60032 43.2161 16.1141 42.9091 27.8101Z" fill="url(#paint3_linear_1694_5888)"/>
<defs>
<linearGradient id="paint0_linear_1694_5888" x1="12.4996" y1="20.5" x2="42.001" y2="1.00203" gradientUnits="userSpaceOnUse">
<stop offset="0.279462" stop-color="#F99C05"/>
<stop offset="0.804164" stop-color="#FFE3BD"/>
</linearGradient>
<radialGradient id="paint1_radial_1694_5888" cx="0" cy="0" r="1" gradientUnits="userSpaceOnUse" gradientTransform="translate(14.5001 31.5) rotate(-138.289) scale(30.8099 61.0365)">
<stop offset="0.279462" stop-color="#F99C05"/>
<stop offset="0.804164" stop-color="#FFE3BD"/>
</radialGradient>
<linearGradient id="paint2_linear_1694_5888" x1="31.5" y1="25" x2="12.3589" y2="17.2883" gradientUnits="userSpaceOnUse">
<stop offset="0.279462" stop-color="#F99C05"/>
<stop offset="0.804164" stop-color="#FFE3BD"/>
</linearGradient>
<linearGradient id="paint3_linear_1694_5888" x1="24" y1="13" x2="24.3209" y2="41.2125" gradientUnits="userSpaceOnUse">
<stop offset="0.279462" stop-color="#F99C05"/>
<stop offset="0.804164" stop-color="#FFE3BD"/>
</linearGradient>
</defs>
</svg>
