<svg width="49" height="48" viewBox="0 0 49 48" fill="none" xmlns="http://www.w3.org/2000/svg">
<path d="M40.75 6L44.75 14V24.5098C43.542 23.6672 42.1948 23.0111 40.75 22.5811V18H8.75V38H22.8926C23.0946 39.4124 23.5078 40.7565 24.0986 42H6.75C5.64544 42 4.75 41.1046 4.75 40V14.0068L8.75 6H40.75ZM11.2217 10L9.22363 14H40.2783L38.2783 10H11.2217Z" fill="#585654"/>
<path d="M18.75 22H30.75V26H18.75V22Z" fill="#585654"/>
<path d="M42.75 35H44.75V45H28.75V35H30.75V33C30.75 29.6862 33.4362 27 36.75 27C40.0638 27 42.75 29.6862 42.75 33V35ZM38.75 35V33C38.75 31.8954 37.8546 31 36.75 31C35.6454 31 34.75 31.8954 34.75 33V35H38.75Z" fill="#585654"/>
</svg>
