<svg width="34" height="34" viewBox="0 0 34 34" fill="none" xmlns="http://www.w3.org/2000/svg">
<path d="M17 34C7.6109 34 0 26.3891 0 17C0 7.6109 7.6109 0 17 0C26.3891 0 34 7.6109 34 17C34 26.3891 26.3891 34 17 34ZM17 11.2625C17 11.6146 16.7146 11.9 16.3625 11.9H10.8375C10.4854 11.9 10.2 12.1854 10.2 12.5375V14.6625C10.2 15.0146 10.4854 15.3 10.8375 15.3H23.9609C24.5289 15.3 24.8133 14.6133 24.4117 14.2117L18.0883 7.88828C17.6867 7.48668 17 7.77111 17 8.33906V11.2625ZM10.0391 18.7C9.47111 18.7 9.18668 19.3867 9.58828 19.7883L15.9117 26.1117C16.3133 26.5133 17 26.2289 17 25.6609V22.7375C17 22.3854 17.2854 22.1 17.6375 22.1H23.1625C23.5146 22.1 23.8 21.8146 23.8 21.4625V19.3375C23.8 18.9854 23.5146 18.7 23.1625 18.7H10.0391Z" fill="#2E2008"/>
</svg>
