<svg width="127" height="127" viewBox="0 0 127 127" fill="none" xmlns="http://www.w3.org/2000/svg">
<g filter="url(#filter0_dii_2229_7853)">
<circle cx="56.5" cy="56" r="41" fill="#FED73A"/>
</g>
<path d="M60.4987 68.0003C61.0291 68.0003 61.5378 67.7896 61.9129 67.4145C62.2879 67.0394 62.4987 66.5307 62.4987 66.0003L62.4987 42.8203L67.0787 47.4203C67.4553 47.7969 67.966 48.0085 68.4987 48.0085C69.0313 48.0085 69.542 47.7969 69.9187 47.4203C70.2953 47.0437 70.5068 46.5329 70.5068 46.0003C70.5068 45.4677 70.2953 44.9569 69.9187 44.5803L61.9187 36.5803C61.6374 36.3028 61.2803 36.1148 60.8923 36.04C60.5043 35.9653 60.1029 36.0071 59.7387 36.1603C59.3734 36.3103 59.0608 36.5651 58.8401 36.8926C58.6194 37.22 58.5006 37.6054 58.4987 38.0003L58.4987 66.0003C58.4987 66.5307 58.7094 67.0394 59.0844 67.4145C59.4595 67.7896 59.9682 68.0003 60.4987 68.0003ZM53.2586 75.8403C53.6239 75.6902 53.9365 75.4354 54.1572 75.108C54.3779 74.7806 54.4967 74.3951 54.4987 74.0003L54.4987 46.0003C54.4987 45.4698 54.2879 44.9611 53.9129 44.5861C53.5378 44.211 53.0291 44.0003 52.4987 44.0003C51.9682 44.0003 51.4595 44.211 51.0844 44.5861C50.7094 44.9611 50.4987 45.4698 50.4987 46.0003L50.4987 69.1803L45.9187 64.5803C45.7327 64.3928 45.5115 64.244 45.2678 64.1425C45.0241 64.041 44.7627 63.9887 44.4987 63.9887C44.2346 63.9887 43.9732 64.041 43.7295 64.1425C43.4858 64.244 43.2646 64.3928 43.0787 64.5803C42.8912 64.7662 42.7424 64.9874 42.6409 65.2311C42.5393 65.4748 42.4871 65.7363 42.4871 66.0003C42.4871 66.2643 42.5393 66.5257 42.6409 66.7694C42.7424 67.0131 42.8912 67.2343 43.0787 67.4203L51.0786 75.4203C51.3599 75.6978 51.717 75.8858 52.105 75.9605C52.493 76.0353 52.8944 75.9934 53.2586 75.8403Z" fill="#2E2008"/>
<defs>
<filter id="filter0_dii_2229_7853" x="0.954547" y="0.454547" width="125.636" height="125.636" filterUnits="userSpaceOnUse" color-interpolation-filters="sRGB">
<feFlood flood-opacity="0" result="BackgroundImageFix"/>
<feColorMatrix in="SourceAlpha" type="matrix" values="0 0 0 0 0 0 0 0 0 0 0 0 0 0 0 0 0 0 127 0" result="hardAlpha"/>
<feOffset dx="7.27273" dy="7.27273"/>
<feGaussianBlur stdDeviation="10.9091"/>
<feComposite in2="hardAlpha" operator="out"/>
<feColorMatrix type="matrix" values="0 0 0 0 0.8625 0 0 0 0 0.497173 0 0 0 0 0.00359374 0 0 0 0.2 0"/>
<feBlend mode="normal" in2="BackgroundImageFix" result="effect1_dropShadow_2229_7853"/>
<feBlend mode="normal" in="SourceGraphic" in2="effect1_dropShadow_2229_7853" result="shape"/>
<feColorMatrix in="SourceAlpha" type="matrix" values="0 0 0 0 0 0 0 0 0 0 0 0 0 0 0 0 0 0 127 0" result="hardAlpha"/>
<feOffset dx="11" dy="23"/>
<feGaussianBlur stdDeviation="2"/>
<feComposite in2="hardAlpha" operator="arithmetic" k2="-1" k3="1"/>
<feColorMatrix type="matrix" values="0 0 0 0 1 0 0 0 0 0.984314 0 0 0 0 0.933333 0 0 0 0.2 0"/>
<feBlend mode="normal" in2="shape" result="effect2_innerShadow_2229_7853"/>
<feColorMatrix in="SourceAlpha" type="matrix" values="0 0 0 0 0 0 0 0 0 0 0 0 0 0 0 0 0 0 127 0" result="hardAlpha"/>
<feOffset dx="-7" dy="-7.27273"/>
<feGaussianBlur stdDeviation="10.9091"/>
<feComposite in2="hardAlpha" operator="arithmetic" k2="-1" k3="1"/>
<feColorMatrix type="matrix" values="0 0 0 0 1 0 0 0 0 0.54 0 0 0 0 0 0 0 0 1 0"/>
<feBlend mode="normal" in2="effect2_innerShadow_2229_7853" result="effect3_innerShadow_2229_7853"/>
</filter>
</defs>
</svg>
