<svg width="35" height="34" viewBox="0 0 35 34" fill="none" xmlns="http://www.w3.org/2000/svg">
<path d="M17.5 34C8.1109 34 0.5 26.3891 0.5 17C0.5 7.6109 8.1109 0 17.5 0C26.8891 0 34.5 7.6109 34.5 17C34.5 26.3891 26.8891 34 17.5 34ZM17.5 11.2625C17.5 11.6146 17.2146 11.9 16.8625 11.9H11.3375C10.9854 11.9 10.7 12.1854 10.7 12.5375V14.6625C10.7 15.0146 10.9854 15.3 11.3375 15.3H24.4609C25.0289 15.3 25.3133 14.6133 24.9117 14.2117L18.5883 7.88828C18.1867 7.48668 17.5 7.77111 17.5 8.33906V11.2625ZM10.5391 18.7C9.97111 18.7 9.68668 19.3867 10.0883 19.7883L16.4117 26.1117C16.8133 26.5133 17.5 26.2289 17.5 25.6609V22.7375C17.5 22.3854 17.7854 22.1 18.1375 22.1H23.6625C24.0146 22.1 24.3 21.8146 24.3 21.4625V19.3375C24.3 18.9854 24.0146 18.7 23.6625 18.7H10.5391Z" fill="white"/>
</svg>
