<svg width="95" height="95" viewBox="0 0 95 95" fill="none" xmlns="http://www.w3.org/2000/svg">
<g filter="url(#filter0_di_714_10759)">
<circle cx="40.5" cy="40" r="25" fill="#FED73A"/>
</g>
<path d="M42.938 47.3172C43.2614 47.3172 43.5716 47.1888 43.8003 46.9601C44.029 46.7314 44.1575 46.4212 44.1575 46.0977L44.1575 31.9636L46.9502 34.7685C47.1798 34.9981 47.4913 35.1271 47.816 35.1271C48.1408 35.1271 48.4522 34.9981 48.6819 34.7685C48.9115 34.5388 49.0405 34.2274 49.0405 33.9026C49.0405 33.5779 48.9115 33.2664 48.6819 33.0368L43.8038 28.1587C43.6323 27.9895 43.4146 27.8749 43.178 27.8293C42.9414 27.7837 42.6966 27.8092 42.4746 27.9026C42.2519 27.9941 42.0612 28.1495 41.9267 28.3491C41.7921 28.5488 41.7197 28.7838 41.7185 29.0246L41.7185 46.0977C41.7185 46.4212 41.8469 46.7314 42.0757 46.9601C42.3044 47.1888 42.6145 47.3172 42.938 47.3172ZM38.5233 52.0977C38.746 52.0062 38.9367 51.8509 39.0712 51.6512C39.2058 51.4516 39.2782 51.2165 39.2794 50.9758L39.2794 33.9026C39.2794 33.5792 39.151 33.269 38.9223 33.0403C38.6935 32.8116 38.3834 32.6831 38.0599 32.6831C37.7365 32.6831 37.4263 32.8116 37.1976 33.0403C36.9689 33.269 36.8404 33.5792 36.8404 33.9026L36.8404 48.0368L34.0477 45.2319C33.9344 45.1176 33.7995 45.0269 33.6509 44.9649C33.5023 44.903 33.3429 44.8712 33.1819 44.8712C33.0209 44.8712 32.8615 44.903 32.7129 44.9649C32.5643 45.0269 32.4294 45.1176 32.316 45.2319C32.2017 45.3453 32.111 45.4801 32.0491 45.6287C31.9872 45.7773 31.9553 45.9367 31.9553 46.0977C31.9553 46.2587 31.9872 46.4181 32.0491 46.5667C32.111 46.7153 32.2017 46.8502 32.316 46.9636L37.1941 51.8416C37.3656 52.0109 37.5833 52.1255 37.8199 52.1711C38.0565 52.2166 38.3013 52.1911 38.5233 52.0977Z" fill="#2E2008"/>
<defs>
<filter id="filter0_di_714_10759" x="0.954547" y="0.454547" width="93.6364" height="93.6364" filterUnits="userSpaceOnUse" color-interpolation-filters="sRGB">
<feFlood flood-opacity="0" result="BackgroundImageFix"/>
<feColorMatrix in="SourceAlpha" type="matrix" values="0 0 0 0 0 0 0 0 0 0 0 0 0 0 0 0 0 0 127 0" result="hardAlpha"/>
<feOffset dx="7.27273" dy="7.27273"/>
<feGaussianBlur stdDeviation="10.9091"/>
<feComposite in2="hardAlpha" operator="out"/>
<feColorMatrix type="matrix" values="0 0 0 0 0.8625 0 0 0 0 0.497173 0 0 0 0 0.00359374 0 0 0 0.2 0"/>
<feBlend mode="normal" in2="BackgroundImageFix" result="effect1_dropShadow_714_10759"/>
<feBlend mode="normal" in="SourceGraphic" in2="effect1_dropShadow_714_10759" result="shape"/>
<feColorMatrix in="SourceAlpha" type="matrix" values="0 0 0 0 0 0 0 0 0 0 0 0 0 0 0 0 0 0 127 0" result="hardAlpha"/>
<feOffset dx="11" dy="23"/>
<feGaussianBlur stdDeviation="2"/>
<feComposite in2="hardAlpha" operator="arithmetic" k2="-1" k3="1"/>
<feColorMatrix type="matrix" values="0 0 0 0 1 0 0 0 0 0.984314 0 0 0 0 0.933333 0 0 0 0.2 0"/>
<feBlend mode="normal" in2="shape" result="effect2_innerShadow_714_10759"/>
</filter>
</defs>
</svg>
