<svg width="68" height="68" viewBox="0 0 68 68" fill="none" xmlns="http://www.w3.org/2000/svg">
<rect width="68" height="68" rx="34" fill="#FF8812"/>
<path fill-rule="evenodd" clip-rule="evenodd" d="M30.5 22.5C30.5 20.567 32.067 19 34 19C35.933 19 37.5 20.567 37.5 22.5C37.5 24.433 35.933 26 34 26C32.067 26 30.5 24.433 30.5 22.5Z" fill="white"/>
<path fill-rule="evenodd" clip-rule="evenodd" d="M37.5 44.5C37.5 46.433 35.933 48 34 48C32.067 48 30.5 46.433 30.5 44.5L30.5 32.5C30.5 30.567 32.067 29 34 29C35.933 29 37.5 30.567 37.5 32.5L37.5 44.5Z" fill="white"/>
</svg>
