<svg width="40" height="41" viewBox="0 0 40 41" fill="none" xmlns="http://www.w3.org/2000/svg">
<path d="M10.2852 30.4997C10.9716 28.5577 12.8236 27.1663 15.0007 27.1663C17.1777 27.1663 19.0298 28.5577 19.7162 30.4997H36.6673V33.833H19.7162C19.0298 35.775 17.1777 37.1663 15.0007 37.1663C12.8236 37.1663 10.9716 35.775 10.2852 33.833H3.33398V30.4997H10.2852ZM20.2852 18.833C20.9715 16.891 22.8237 15.4997 25.0007 15.4997C27.1777 15.4997 29.0298 16.891 29.7162 18.833H36.6673V22.1663H29.7162C29.0298 24.1083 27.1777 25.4997 25.0007 25.4997C22.8237 25.4997 20.9715 24.1083 20.2852 22.1663H3.33398V18.833H20.2852ZM10.2852 7.16634C10.9716 5.22436 12.8236 3.83301 15.0007 3.83301C17.1777 3.83301 19.0298 5.22436 19.7162 7.16634H36.6673V10.4997H19.7162C19.0298 12.4417 17.1777 13.833 15.0007 13.833C12.8236 13.833 10.9716 12.4417 10.2852 10.4997H3.33398V7.16634H10.2852ZM15.0007 10.4997C15.9211 10.4997 16.6673 9.75347 16.6673 8.83301C16.6673 7.91254 15.9211 7.16634 15.0007 7.16634C14.0802 7.16634 13.334 7.91254 13.334 8.83301C13.334 9.75347 14.0802 10.4997 15.0007 10.4997ZM25.0007 22.1663C25.9212 22.1663 26.6673 21.4202 26.6673 20.4997C26.6673 19.5792 25.9212 18.833 25.0007 18.833C24.0802 18.833 23.334 19.5792 23.334 20.4997C23.334 21.4202 24.0802 22.1663 25.0007 22.1663ZM15.0007 33.833C15.9211 33.833 16.6673 33.0868 16.6673 32.1663C16.6673 31.2458 15.9211 30.4997 15.0007 30.4997C14.0802 30.4997 13.334 31.2458 13.334 32.1663C13.334 33.0868 14.0802 33.833 15.0007 33.833Z" fill="black"/>
</svg>
