<svg width="40" height="40" viewBox="0 0 40 40" fill="none" xmlns="http://www.w3.org/2000/svg">
<path d="M10.2842 30C10.9706 28.058 12.8226 26.6667 14.9997 26.6667C17.1767 26.6667 19.0288 28.058 19.7152 30H36.6663V33.3334H19.7152C19.0288 35.2754 17.1767 36.6667 14.9997 36.6667C12.8226 36.6667 10.9706 35.2754 10.2842 33.3334H3.33301V30H10.2842ZM20.2842 18.3334C20.9705 16.3914 22.8227 15 24.9997 15C27.1767 15 29.0288 16.3914 29.7152 18.3334H36.6663V21.6667H29.7152C29.0288 23.6087 27.1767 25 24.9997 25C22.8227 25 20.9705 23.6087 20.2842 21.6667H3.33301V18.3334H20.2842ZM10.2842 6.66671C10.9706 4.72472 12.8226 3.33337 14.9997 3.33337C17.1767 3.33337 19.0288 4.72472 19.7152 6.66671H36.6663V10H19.7152C19.0288 11.942 17.1767 13.3334 14.9997 13.3334C12.8226 13.3334 10.9706 11.942 10.2842 10H3.33301V6.66671H10.2842ZM14.9997 10C15.9201 10 16.6663 9.25384 16.6663 8.33337C16.6663 7.41291 15.9201 6.66671 14.9997 6.66671C14.0792 6.66671 13.333 7.41291 13.333 8.33337C13.333 9.25384 14.0792 10 14.9997 10ZM24.9997 21.6667C25.9202 21.6667 26.6663 20.9205 26.6663 20C26.6663 19.0795 25.9202 18.3334 24.9997 18.3334C24.0792 18.3334 23.333 19.0795 23.333 20C23.333 20.9205 24.0792 21.6667 24.9997 21.6667ZM14.9997 33.3334C15.9201 33.3334 16.6663 32.5872 16.6663 31.6667C16.6663 30.7462 15.9201 30 14.9997 30C14.0792 30 13.333 30.7462 13.333 31.6667C13.333 32.5872 14.0792 33.3334 14.9997 33.3334Z" fill="black"/>
</svg>
