<svg width="40" height="40" viewBox="0 0 40 40" fill="none" xmlns="http://www.w3.org/2000/svg">
<path d="M10.2832 30.0007C10.9696 28.0587 12.8217 26.6673 14.9987 26.6673C17.1757 26.6673 19.0279 28.0587 19.7142 30.0007H36.6654V33.334H19.7142C19.0279 35.276 17.1757 36.6673 14.9987 36.6673C12.8217 36.6673 10.9696 35.276 10.2832 33.334H3.33203V30.0007H10.2832ZM20.2832 18.334C20.9695 16.392 22.8217 15.0007 24.9987 15.0007C27.1757 15.0007 29.0279 16.392 29.7142 18.334H36.6654V21.6673H29.7142C29.0279 23.6093 27.1757 25.0007 24.9987 25.0007C22.8217 25.0007 20.9695 23.6093 20.2832 21.6673H3.33203V18.334H20.2832ZM10.2832 6.66732C10.9696 4.72533 12.8217 3.33398 14.9987 3.33398C17.1757 3.33398 19.0279 4.72533 19.7142 6.66732H36.6654V10.0007H19.7142C19.0279 11.9426 17.1757 13.334 14.9987 13.334C12.8217 13.334 10.9696 11.9426 10.2832 10.0007H3.33203V6.66732H10.2832ZM14.9987 10.0007C15.9192 10.0007 16.6654 9.25445 16.6654 8.33398C16.6654 7.41352 15.9192 6.66732 14.9987 6.66732C14.0782 6.66732 13.332 7.41352 13.332 8.33398C13.332 9.25445 14.0782 10.0007 14.9987 10.0007ZM24.9987 21.6673C25.9192 21.6673 26.6654 20.9212 26.6654 20.0007C26.6654 19.0802 25.9192 18.334 24.9987 18.334C24.0782 18.334 23.332 19.0802 23.332 20.0007C23.332 20.9212 24.0782 21.6673 24.9987 21.6673ZM14.9987 33.334C15.9192 33.334 16.6654 32.5878 16.6654 31.6673C16.6654 30.7468 15.9192 30.0007 14.9987 30.0007C14.0782 30.0007 13.332 30.7468 13.332 31.6673C13.332 32.5878 14.0782 33.334 14.9987 33.334Z" fill="black"/>
</svg>
