<svg width="32" height="33" viewBox="0 0 32 33" fill="none" xmlns="http://www.w3.org/2000/svg">
<path opacity="0.6" d="M20.0002 27.0067C20.0535 27.4067 19.9202 27.8333 19.6135 28.1133C19.4902 28.2369 19.3436 28.335 19.1823 28.4019C19.021 28.4688 18.8481 28.5033 18.6735 28.5033C18.4989 28.5033 18.326 28.4688 18.1647 28.4019C18.0034 28.335 17.8569 28.2369 17.7335 28.1133L12.3868 22.7667C12.2414 22.6245 12.1308 22.4506 12.0638 22.2587C11.9967 22.0667 11.9749 21.8618 12.0002 21.66V14.8333L5.61351 6.66C5.39699 6.38204 5.29929 6.02968 5.34176 5.67991C5.38423 5.33014 5.56342 5.0114 5.84017 4.79333C6.09351 4.60667 6.37351 4.5 6.66684 4.5H25.3335C25.6268 4.5 25.9068 4.60667 26.1602 4.79333C26.4369 5.0114 26.6161 5.33014 26.6586 5.67991C26.7011 6.02968 26.6034 6.38204 26.3868 6.66L20.0002 14.8333V27.0067ZM9.38684 7.16667L14.6668 13.9133V21.2733L17.3335 23.94V13.9L22.6135 7.16667H9.38684Z" fill="#2E2008"/>
</svg>
