<svg width="34" height="35" viewBox="0 0 34 35" fill="none" xmlns="http://www.w3.org/2000/svg">
<path d="M7.28517 27.4997C7.97155 25.5577 9.82362 24.1663 12.0007 24.1663C14.1777 24.1663 16.0298 25.5577 16.7162 27.4997H33.6673V30.833H16.7162C16.0298 32.775 14.1777 34.1663 12.0007 34.1663C9.82362 34.1663 7.97155 32.775 7.28517 30.833H0.333984V27.4997H7.28517ZM17.2852 15.833C17.9715 13.891 19.8237 12.4997 22.0007 12.4997C24.1777 12.4997 26.0298 13.891 26.7162 15.833H33.6673V19.1663H26.7162C26.0298 21.1083 24.1777 22.4997 22.0007 22.4997C19.8237 22.4997 17.9715 21.1083 17.2852 19.1663H0.333984V15.833H17.2852ZM7.28517 4.16634C7.97155 2.22436 9.82362 0.833008 12.0007 0.833008C14.1777 0.833008 16.0298 2.22436 16.7162 4.16634H33.6673V7.49967H16.7162C16.0298 9.44166 14.1777 10.833 12.0007 10.833C9.82362 10.833 7.97155 9.44166 7.28517 7.49967H0.333984V4.16634H7.28517ZM12.0007 7.49967C12.9211 7.49967 13.6673 6.75347 13.6673 5.83301C13.6673 4.91254 12.9211 4.16634 12.0007 4.16634C11.0802 4.16634 10.334 4.91254 10.334 5.83301C10.334 6.75347 11.0802 7.49967 12.0007 7.49967ZM22.0007 19.1663C22.9212 19.1663 23.6673 18.4202 23.6673 17.4997C23.6673 16.5792 22.9212 15.833 22.0007 15.833C21.0802 15.833 20.334 16.5792 20.334 17.4997C20.334 18.4202 21.0802 19.1663 22.0007 19.1663ZM12.0007 30.833C12.9211 30.833 13.6673 30.0868 13.6673 29.1663C13.6673 28.2458 12.9211 27.4997 12.0007 27.4997C11.0802 27.4997 10.334 28.2458 10.334 29.1663C10.334 30.0868 11.0802 30.833 12.0007 30.833Z" fill="black"/>
</svg>
