<svg width="36" height="36" viewBox="0 0 36 36" fill="none" xmlns="http://www.w3.org/2000/svg">
<path d="M9.75109 6.34653C9.75109 5.60362 9.13447 5 8.37555 5C7.61662 5 7 5.60362 7 6.34653V30.8386C7 30.8386 7.12605 32 8.43857 32C9.75109 32 9.75109 30.8386 9.75109 30.8386V19.8058H27.6249C27.8591 19.8057 28.0894 19.7471 28.294 19.6356C28.4985 19.524 28.6706 19.3631 28.7939 19.1682C28.9172 18.9734 28.9876 18.7509 28.9985 18.5219C29.0094 18.2929 28.9604 18.065 28.8561 17.8597L26.4123 13.0752L28.8561 8.29467C28.9603 8.08927 29.0092 7.86127 28.9983 7.63221C28.9873 7.40315 28.9169 7.1806 28.7937 6.98559C28.6705 6.79059 28.4984 6.62956 28.2939 6.51774C28.0894 6.40592 27.8592 6.34699 27.6249 6.34653H9.75109Z" fill="#FF8812"/>
</svg>
