<svg width="48" height="48" viewBox="0 0 48 48" fill="none" xmlns="http://www.w3.org/2000/svg">
<path d="M31 34H43" stroke="#666666" stroke-width="3" stroke-linecap="round" stroke-linejoin="round"/>
<path d="M43 26V10C43 8.34315 41.6569 7 40 7H8C6.34315 7 5 8.34315 5 10V38C5 39.6569 6.34315 41 8 41H28.4706" stroke="#666666" stroke-width="3" stroke-linecap="round" stroke-linejoin="round"/>
<path d="M36 39L31 34L35.9996 29" stroke="#666666" stroke-width="3" stroke-linecap="round" stroke-linejoin="round"/>
<path d="M14.4087 28.4278C14.0556 28.4278 13.8 28.3304 13.6052 28.1357C13.4226 27.9409 13.3252 27.6609 13.3252 27.32V16.12C13.3252 15.7548 13.4226 15.487 13.6174 15.2922C13.8122 15.0974 14.0922 15 14.433 15C14.7374 15 14.993 15.0609 15.1635 15.1826C15.3461 15.3043 15.5043 15.4991 15.6626 15.7913L20.2643 24.3009H19.6678L24.2695 15.7913C24.4156 15.5113 24.5739 15.3043 24.7565 15.1826C24.9269 15.0609 25.1704 15 25.4869 15C25.84 15 26.0956 15.0974 26.2904 15.2922C26.473 15.487 26.5704 15.767 26.5704 16.12V27.32C26.5704 27.673 26.4852 27.9409 26.3026 28.1357C26.12 28.3304 25.8522 28.4278 25.4869 28.4278C25.1339 28.4278 24.8782 28.3304 24.6835 28.1357C24.5008 27.9409 24.4035 27.6609 24.4035 27.32V18.6887H24.8174L20.9095 25.8226C20.7878 26.0296 20.6539 26.1878 20.52 26.2852C20.3861 26.3826 20.1913 26.4313 19.96 26.4313C19.7287 26.4313 19.5339 26.3826 19.3878 26.273C19.2417 26.1635 19.1078 26.0174 18.9982 25.8226L15.0417 18.6643H15.4922V27.3078C15.4922 27.6609 15.4069 27.9287 15.2243 28.1235C15.0295 28.3304 14.7617 28.4278 14.4087 28.4278Z" fill="#666666" stroke="#666666"/>
<path d="M14.287 21.7216C14.287 22.2208 13.873 22.6347 13.3739 22.6347H11.913C11.4139 22.6347 11 22.2208 11 21.7216C11 21.2225 11.4139 20.8086 11.913 20.8086H13.3739C13.873 20.8086 14.287 21.2103 14.287 21.7216Z" fill="#666666" stroke="#666666"/>
<path d="M28.8954 21.7216C28.8954 22.2208 28.4814 22.6347 27.9823 22.6347H26.5214C26.0223 22.6347 25.6084 22.2208 25.6084 21.7216C25.6084 21.2225 26.0223 20.8086 26.5214 20.8086H27.9823C28.4814 20.8086 28.8954 21.2103 28.8954 21.7216Z" fill="#666666" stroke="#666666"/>
</svg>
