<svg width="49" height="48" viewBox="0 0 49 48" fill="none" xmlns="http://www.w3.org/2000/svg">
<path d="M38.75 44H10.75C7.4363 44 4.75 41.3138 4.75 38V6C4.75 4.89544 5.64544 4 6.75 4H34.75C35.8546 4 36.75 4.89544 36.75 6V30H44.75V38C44.75 41.3138 42.0638 44 38.75 44ZM36.75 34V38C36.75 39.1046 37.6454 40 38.75 40C39.8546 40 40.75 39.1046 40.75 38V34H36.75ZM32.75 40V8H8.75V38C8.75 39.1046 9.64544 40 10.75 40H32.75ZM12.75 14H28.75V18H12.75V14ZM12.75 22H28.75V26H12.75V22ZM12.75 30H22.75V34H12.75V30Z" fill="#585654"/>
</svg>
