<svg width="40" height="40" viewBox="0 0 40 40" fill="none" xmlns="http://www.w3.org/2000/svg">
<path d="M24.1771 3.33984C27.3988 3.33984 30.0105 5.95151 30.0105 9.17318C30.0105 10.0685 29.8088 10.9167 29.4483 11.6749L35.0105 11.6732C35.931 11.6732 36.6771 12.4194 36.6771 13.3398V20.0065C36.6771 20.927 35.931 21.6732 35.0105 21.6732H33.3438V35.0065C33.3438 35.927 32.5976 36.6732 31.6771 36.6732H8.34375C7.42328 36.6732 6.67708 35.927 6.67708 35.0065V21.6732H5.01042C4.08995 21.6732 3.34375 20.927 3.34375 20.0065V13.3398C3.34375 12.4194 4.08995 11.6732 5.01042 11.6732L10.5726 11.6749C10.2121 10.9167 10.0104 10.0685 10.0104 9.17318C10.0104 5.95151 12.6221 3.33984 15.8438 3.33984C17.4771 3.33984 18.9536 4.01111 20.0125 5.09281C21.0673 4.01111 22.5438 3.33984 24.1771 3.33984ZM30.0105 21.6732H10.0104V33.3398H30.0105V21.6732ZM33.3438 15.0065H6.67708V18.3398H33.3438V15.0065ZM15.8438 6.67318C14.4631 6.67318 13.3438 7.79246 13.3438 9.17318C13.3438 10.4727 14.3352 11.5406 15.603 11.6617L15.8438 11.6732H18.3438V9.17318C18.3438 7.87368 17.3523 6.80576 16.0845 6.68461L15.8438 6.67318ZM24.1771 6.67318L23.9363 6.68461C22.7478 6.79819 21.8021 7.74389 21.6884 8.93241L21.6771 9.17318V11.6732H24.1771L24.4178 11.6617C25.6856 11.5406 26.6771 10.4727 26.6771 9.17318C26.6771 7.87368 25.6856 6.80576 24.4178 6.68461L24.1771 6.67318Z" fill="#585654"/>
</svg>
