<svg width="288" height="120" viewBox="0 0 288 120" fill="none" xmlns="http://www.w3.org/2000/svg" xmlns:xlink="http://www.w3.org/1999/xlink">
<g filter="url(#filter0_dd_7651_1743)">
<rect x="6" y="6" width="256" height="88" rx="12" fill="#F8B811"/>
<rect x="6" y="6" width="256" height="88" rx="12" fill="url(#pattern0_7651_1743)" fill-opacity="0.32"/>
<rect x="7" y="7" width="254" height="86" rx="11" stroke="white" stroke-opacity="0.64" stroke-width="2"/>
</g>
<defs>
<filter id="filter0_dd_7651_1743" x="0" y="0" width="288" height="120" filterUnits="userSpaceOnUse" color-interpolation-filters="sRGB">
<feFlood flood-opacity="0" result="BackgroundImageFix"/>
<feColorMatrix in="SourceAlpha" type="matrix" values="0 0 0 0 0 0 0 0 0 0 0 0 0 0 0 0 0 0 127 0" result="hardAlpha"/>
<feOffset dx="10" dy="10"/>
<feGaussianBlur stdDeviation="8"/>
<feComposite in2="hardAlpha" operator="out"/>
<feColorMatrix type="matrix" values="0 0 0 0 0.9 0 0 0 0 0.670317 0 0 0 0 0.36 0 0 0 0.2 0"/>
<feBlend mode="normal" in2="BackgroundImageFix" result="effect1_dropShadow_7651_1743"/>
<feColorMatrix in="SourceAlpha" type="matrix" values="0 0 0 0 0 0 0 0 0 0 0 0 0 0 0 0 0 0 127 0" result="hardAlpha"/>
<feOffset dy="4"/>
<feComposite in2="hardAlpha" operator="out"/>
<feColorMatrix type="matrix" values="0 0 0 0 1 0 0 0 0 1 0 0 0 0 1 0 0 0 0.48 0"/>
<feBlend mode="normal" in2="effect1_dropShadow_7651_1743" result="effect2_dropShadow_7651_1743"/>
<feBlend mode="normal" in="SourceGraphic" in2="effect2_dropShadow_7651_1743" result="shape"/>
</filter>
<pattern id="pattern0_7651_1743" patternUnits="userSpaceOnUse" viewBox="-20529 -1506 328 228" width="92.250003665685654%" height="186.54546195810491%" x="9.92" y="-38.08" patternContentUnits="objectBoundingBox">
<path d="M-20507 -1485C-20507 -1484.45 -20506.6 -1484 -20506 -1484H-20494.9C-20494.1 -1484 -20493.6 -1483.09 -20494.1 -1482.43L-20509.2 -1460.63C-20509.7 -1459.83 -20511 -1460.22 -20511 -1461.2V-1475C-20511 -1475.55 -20511.4 -1476 -20512 -1476H-20523.1C-20523.9 -1476 -20524.4 -1476.91 -20523.9 -1477.57L-20508.8 -1499.37C-20508.3 -1500.17 -20507 -1499.78 -20507 -1498.8V-1485Z" fill="#FCD900"/>
<path d="M-20507 -1441C-20507 -1440.45 -20506.6 -1440 -20506 -1440H-20494.9C-20494.1 -1440 -20493.6 -1439.09 -20494.1 -1438.43L-20509.2 -1416.63C-20509.7 -1415.83 -20511 -1416.22 -20511 -1417.2V-1431C-20511 -1431.55 -20511.4 -1432 -20512 -1432H-20523.1C-20523.9 -1432 -20524.4 -1432.91 -20523.9 -1433.57L-20508.8 -1455.37C-20508.3 -1456.17 -20507 -1455.78 -20507 -1454.8V-1441Z" fill="#FCD900"/>
<path d="M-20507 -1397C-20507 -1396.45 -20506.6 -1396 -20506 -1396H-20494.9C-20494.1 -1396 -20493.6 -1395.09 -20494.1 -1394.43L-20509.2 -1372.63C-20509.7 -1371.83 -20511 -1372.22 -20511 -1373.2V-1387C-20511 -1387.55 -20511.4 -1388 -20512 -1388H-20523.1C-20523.9 -1388 -20524.4 -1388.91 -20523.9 -1389.57L-20508.8 -1411.37C-20508.3 -1412.17 -20507 -1411.78 -20507 -1410.8V-1397Z" fill="#FCD900"/>
<path d="M-20507 -1353C-20507 -1352.45 -20506.6 -1352 -20506 -1352H-20494.9C-20494.1 -1352 -20493.6 -1351.09 -20494.1 -1350.43L-20509.2 -1328.63C-20509.7 -1327.83 -20511 -1328.22 -20511 -1329.2V-1343C-20511 -1343.55 -20511.4 -1344 -20512 -1344H-20523.1C-20523.9 -1344 -20524.4 -1344.91 -20523.9 -1345.57L-20508.8 -1367.37C-20508.3 -1368.17 -20507 -1367.78 -20507 -1366.8V-1353Z" fill="#FCD900"/>
<path d="M-20507 -1309C-20507 -1308.45 -20506.6 -1308 -20506 -1308H-20494.9C-20494.1 -1308 -20493.6 -1307.09 -20494.1 -1306.43L-20509.2 -1284.63C-20509.7 -1283.83 -20511 -1284.22 -20511 -1285.2V-1299C-20511 -1299.55 -20511.4 -1300 -20512 -1300H-20523.1C-20523.9 -1300 -20524.4 -1300.91 -20523.9 -1301.57L-20508.8 -1323.37C-20508.3 -1324.17 -20507 -1323.78 -20507 -1322.8V-1309Z" fill="#FCD900"/>
<path d="M-20475 -1463C-20475 -1462.45 -20474.6 -1462 -20474 -1462H-20462.9C-20462.1 -1462 -20461.6 -1461.09 -20462.1 -1460.43L-20477.2 -1438.63C-20477.7 -1437.83 -20479 -1438.22 -20479 -1439.2V-1453C-20479 -1453.55 -20479.4 -1454 -20480 -1454H-20491.1C-20491.9 -1454 -20492.4 -1454.91 -20491.9 -1455.57L-20476.8 -1477.37C-20476.3 -1478.17 -20475 -1477.78 -20475 -1476.8V-1463Z" fill="#FCD900"/>
<path d="M-20475 -1419C-20475 -1418.45 -20474.6 -1418 -20474 -1418H-20462.9C-20462.1 -1418 -20461.6 -1417.09 -20462.1 -1416.43L-20477.2 -1394.63C-20477.7 -1393.83 -20479 -1394.22 -20479 -1395.2V-1409C-20479 -1409.55 -20479.4 -1410 -20480 -1410H-20491.1C-20491.9 -1410 -20492.4 -1410.91 -20491.9 -1411.57L-20476.8 -1433.37C-20476.3 -1434.17 -20475 -1433.78 -20475 -1432.8V-1419Z" fill="#FCD900"/>
<path d="M-20475 -1375C-20475 -1374.45 -20474.6 -1374 -20474 -1374H-20462.9C-20462.1 -1374 -20461.6 -1373.09 -20462.1 -1372.43L-20477.2 -1350.63C-20477.7 -1349.83 -20479 -1350.22 -20479 -1351.2V-1365C-20479 -1365.55 -20479.4 -1366 -20480 -1366H-20491.1C-20491.9 -1366 -20492.4 -1366.91 -20491.9 -1367.57L-20476.8 -1389.37C-20476.3 -1390.17 -20475 -1389.78 -20475 -1388.8V-1375Z" fill="#FCD900"/>
<path d="M-20475 -1331C-20475 -1330.45 -20474.6 -1330 -20474 -1330H-20462.9C-20462.1 -1330 -20461.6 -1329.09 -20462.1 -1328.43L-20477.2 -1306.63C-20477.7 -1305.83 -20479 -1306.22 -20479 -1307.2V-1321C-20479 -1321.55 -20479.4 -1322 -20480 -1322H-20491.1C-20491.9 -1322 -20492.4 -1322.91 -20491.9 -1323.57L-20476.8 -1345.37C-20476.3 -1346.17 -20475 -1345.78 -20475 -1344.8V-1331Z" fill="#FCD900"/>
<path d="M-20443 -1485C-20443 -1484.45 -20442.6 -1484 -20442 -1484H-20430.9C-20430.1 -1484 -20429.6 -1483.09 -20430.1 -1482.43L-20445.2 -1460.63C-20445.7 -1459.83 -20447 -1460.22 -20447 -1461.2V-1475C-20447 -1475.55 -20447.4 -1476 -20448 -1476H-20459.1C-20459.9 -1476 -20460.4 -1476.91 -20459.9 -1477.57L-20444.8 -1499.37C-20444.3 -1500.17 -20443 -1499.78 -20443 -1498.8V-1485Z" fill="#FCD900"/>
<path d="M-20443 -1441C-20443 -1440.45 -20442.6 -1440 -20442 -1440H-20430.9C-20430.1 -1440 -20429.6 -1439.09 -20430.1 -1438.43L-20445.2 -1416.63C-20445.7 -1415.83 -20447 -1416.22 -20447 -1417.2V-1431C-20447 -1431.55 -20447.4 -1432 -20448 -1432H-20459.1C-20459.9 -1432 -20460.4 -1432.91 -20459.9 -1433.57L-20444.8 -1455.37C-20444.3 -1456.17 -20443 -1455.78 -20443 -1454.8V-1441Z" fill="#FCD900"/>
<path d="M-20443 -1397C-20443 -1396.45 -20442.6 -1396 -20442 -1396H-20430.9C-20430.1 -1396 -20429.6 -1395.09 -20430.1 -1394.43L-20445.2 -1372.63C-20445.7 -1371.83 -20447 -1372.22 -20447 -1373.2V-1387C-20447 -1387.55 -20447.4 -1388 -20448 -1388H-20459.1C-20459.9 -1388 -20460.4 -1388.91 -20459.9 -1389.57L-20444.8 -1411.37C-20444.3 -1412.17 -20443 -1411.78 -20443 -1410.8V-1397Z" fill="#FCD900"/>
<path d="M-20443 -1353C-20443 -1352.45 -20442.6 -1352 -20442 -1352H-20430.9C-20430.1 -1352 -20429.6 -1351.09 -20430.1 -1350.43L-20445.2 -1328.63C-20445.7 -1327.83 -20447 -1328.22 -20447 -1329.2V-1343C-20447 -1343.55 -20447.4 -1344 -20448 -1344H-20459.1C-20459.9 -1344 -20460.4 -1344.91 -20459.9 -1345.57L-20444.8 -1367.37C-20444.3 -1368.17 -20443 -1367.78 -20443 -1366.8V-1353Z" fill="#FCD900"/>
<path d="M-20443 -1309C-20443 -1308.45 -20442.6 -1308 -20442 -1308H-20430.9C-20430.1 -1308 -20429.6 -1307.09 -20430.1 -1306.43L-20445.2 -1284.63C-20445.7 -1283.83 -20447 -1284.22 -20447 -1285.2V-1299C-20447 -1299.55 -20447.4 -1300 -20448 -1300H-20459.1C-20459.9 -1300 -20460.4 -1300.91 -20459.9 -1301.57L-20444.8 -1323.37C-20444.3 -1324.17 -20443 -1323.78 -20443 -1322.8V-1309Z" fill="#FCD900"/>
<path d="M-20411 -1463C-20411 -1462.45 -20410.6 -1462 -20410 -1462H-20398.9C-20398.1 -1462 -20397.6 -1461.09 -20398.1 -1460.43L-20413.2 -1438.63C-20413.7 -1437.83 -20415 -1438.22 -20415 -1439.2V-1453C-20415 -1453.55 -20415.4 -1454 -20416 -1454H-20427.1C-20427.9 -1454 -20428.4 -1454.91 -20427.9 -1455.57L-20412.8 -1477.37C-20412.3 -1478.17 -20411 -1477.78 -20411 -1476.8V-1463Z" fill="#FCD900"/>
<path d="M-20411 -1419C-20411 -1418.45 -20410.6 -1418 -20410 -1418H-20398.9C-20398.1 -1418 -20397.6 -1417.09 -20398.1 -1416.43L-20413.2 -1394.63C-20413.7 -1393.83 -20415 -1394.22 -20415 -1395.2V-1409C-20415 -1409.55 -20415.4 -1410 -20416 -1410H-20427.1C-20427.9 -1410 -20428.4 -1410.91 -20427.9 -1411.57L-20412.8 -1433.37C-20412.3 -1434.17 -20411 -1433.78 -20411 -1432.8V-1419Z" fill="#FCD900"/>
<path d="M-20411 -1375C-20411 -1374.45 -20410.6 -1374 -20410 -1374H-20398.9C-20398.1 -1374 -20397.6 -1373.09 -20398.1 -1372.43L-20413.2 -1350.63C-20413.7 -1349.83 -20415 -1350.22 -20415 -1351.2V-1365C-20415 -1365.55 -20415.4 -1366 -20416 -1366H-20427.1C-20427.9 -1366 -20428.4 -1366.91 -20427.9 -1367.57L-20412.8 -1389.37C-20412.3 -1390.17 -20411 -1389.78 -20411 -1388.8V-1375Z" fill="#FCD900"/>
<path d="M-20411 -1331C-20411 -1330.45 -20410.6 -1330 -20410 -1330H-20398.9C-20398.1 -1330 -20397.6 -1329.09 -20398.1 -1328.43L-20413.2 -1306.63C-20413.7 -1305.83 -20415 -1306.22 -20415 -1307.2V-1321C-20415 -1321.55 -20415.4 -1322 -20416 -1322H-20427.1C-20427.9 -1322 -20428.4 -1322.91 -20427.9 -1323.57L-20412.8 -1345.37C-20412.3 -1346.17 -20411 -1345.78 -20411 -1344.8V-1331Z" fill="#FCD900"/>
<path d="M-20379 -1485C-20379 -1484.45 -20378.6 -1484 -20378 -1484H-20366.9C-20366.1 -1484 -20365.6 -1483.09 -20366.1 -1482.43L-20381.2 -1460.63C-20381.7 -1459.83 -20383 -1460.22 -20383 -1461.2V-1475C-20383 -1475.55 -20383.4 -1476 -20384 -1476H-20395.1C-20395.9 -1476 -20396.4 -1476.91 -20395.9 -1477.57L-20380.8 -1499.37C-20380.3 -1500.17 -20379 -1499.78 -20379 -1498.8V-1485Z" fill="#FCD900"/>
<path d="M-20379 -1441C-20379 -1440.45 -20378.6 -1440 -20378 -1440H-20366.9C-20366.1 -1440 -20365.6 -1439.09 -20366.1 -1438.43L-20381.2 -1416.63C-20381.7 -1415.83 -20383 -1416.22 -20383 -1417.2V-1431C-20383 -1431.55 -20383.4 -1432 -20384 -1432H-20395.1C-20395.9 -1432 -20396.4 -1432.91 -20395.9 -1433.57L-20380.8 -1455.37C-20380.3 -1456.17 -20379 -1455.78 -20379 -1454.8V-1441Z" fill="#FCD900"/>
<path d="M-20379 -1397C-20379 -1396.45 -20378.6 -1396 -20378 -1396H-20366.9C-20366.1 -1396 -20365.6 -1395.09 -20366.1 -1394.43L-20381.2 -1372.63C-20381.7 -1371.83 -20383 -1372.22 -20383 -1373.2V-1387C-20383 -1387.55 -20383.4 -1388 -20384 -1388H-20395.1C-20395.9 -1388 -20396.4 -1388.91 -20395.9 -1389.57L-20380.8 -1411.37C-20380.3 -1412.17 -20379 -1411.78 -20379 -1410.8V-1397Z" fill="#FCD900"/>
<path d="M-20379 -1353C-20379 -1352.45 -20378.6 -1352 -20378 -1352H-20366.9C-20366.1 -1352 -20365.6 -1351.09 -20366.1 -1350.43L-20381.2 -1328.63C-20381.7 -1327.83 -20383 -1328.22 -20383 -1329.2V-1343C-20383 -1343.55 -20383.4 -1344 -20384 -1344H-20395.1C-20395.9 -1344 -20396.4 -1344.91 -20395.9 -1345.57L-20380.8 -1367.37C-20380.3 -1368.17 -20379 -1367.78 -20379 -1366.8V-1353Z" fill="#FCD900"/>
<path d="M-20379 -1309C-20379 -1308.45 -20378.6 -1308 -20378 -1308H-20366.9C-20366.1 -1308 -20365.6 -1307.09 -20366.1 -1306.43L-20381.2 -1284.63C-20381.7 -1283.83 -20383 -1284.22 -20383 -1285.2V-1299C-20383 -1299.55 -20383.4 -1300 -20384 -1300H-20395.1C-20395.9 -1300 -20396.4 -1300.91 -20395.9 -1301.57L-20380.8 -1323.37C-20380.3 -1324.17 -20379 -1323.78 -20379 -1322.8V-1309Z" fill="#FCD900"/>
<path d="M-20347 -1463C-20347 -1462.45 -20346.6 -1462 -20346 -1462H-20334.9C-20334.1 -1462 -20333.6 -1461.09 -20334.1 -1460.43L-20349.2 -1438.63C-20349.7 -1437.83 -20351 -1438.22 -20351 -1439.2V-1453C-20351 -1453.55 -20351.4 -1454 -20352 -1454H-20363.1C-20363.9 -1454 -20364.4 -1454.91 -20363.9 -1455.57L-20348.8 -1477.37C-20348.3 -1478.17 -20347 -1477.78 -20347 -1476.8V-1463Z" fill="#FCD900"/>
<path d="M-20347 -1419C-20347 -1418.45 -20346.6 -1418 -20346 -1418H-20334.9C-20334.1 -1418 -20333.6 -1417.09 -20334.1 -1416.43L-20349.2 -1394.63C-20349.7 -1393.83 -20351 -1394.22 -20351 -1395.2V-1409C-20351 -1409.55 -20351.4 -1410 -20352 -1410H-20363.1C-20363.9 -1410 -20364.4 -1410.91 -20363.9 -1411.57L-20348.8 -1433.37C-20348.3 -1434.17 -20347 -1433.78 -20347 -1432.8V-1419Z" fill="#FCD900"/>
<path d="M-20347 -1375C-20347 -1374.45 -20346.6 -1374 -20346 -1374H-20334.9C-20334.1 -1374 -20333.6 -1373.09 -20334.1 -1372.43L-20349.2 -1350.63C-20349.7 -1349.83 -20351 -1350.22 -20351 -1351.2V-1365C-20351 -1365.55 -20351.4 -1366 -20352 -1366H-20363.1C-20363.9 -1366 -20364.4 -1366.91 -20363.9 -1367.57L-20348.8 -1389.37C-20348.3 -1390.17 -20347 -1389.78 -20347 -1388.8V-1375Z" fill="#FCD900"/>
<path d="M-20347 -1331C-20347 -1330.45 -20346.6 -1330 -20346 -1330H-20334.9C-20334.1 -1330 -20333.6 -1329.09 -20334.1 -1328.43L-20349.2 -1306.63C-20349.7 -1305.83 -20351 -1306.22 -20351 -1307.2V-1321C-20351 -1321.55 -20351.4 -1322 -20352 -1322H-20363.1C-20363.9 -1322 -20364.4 -1322.91 -20363.9 -1323.57L-20348.8 -1345.37C-20348.3 -1346.17 -20347 -1345.78 -20347 -1344.8V-1331Z" fill="#FCD900"/>
<path d="M-20315 -1485C-20315 -1484.45 -20314.6 -1484 -20314 -1484H-20302.9C-20302.1 -1484 -20301.6 -1483.09 -20302.1 -1482.43L-20317.2 -1460.63C-20317.7 -1459.83 -20319 -1460.22 -20319 -1461.2V-1475C-20319 -1475.55 -20319.4 -1476 -20320 -1476H-20331.1C-20331.9 -1476 -20332.4 -1476.91 -20331.9 -1477.57L-20316.8 -1499.37C-20316.3 -1500.17 -20315 -1499.78 -20315 -1498.8V-1485Z" fill="#FCD900"/>
<path d="M-20315 -1441C-20315 -1440.45 -20314.6 -1440 -20314 -1440H-20302.9C-20302.1 -1440 -20301.6 -1439.09 -20302.1 -1438.43L-20317.2 -1416.63C-20317.7 -1415.83 -20319 -1416.22 -20319 -1417.2V-1431C-20319 -1431.55 -20319.4 -1432 -20320 -1432H-20331.1C-20331.9 -1432 -20332.4 -1432.91 -20331.9 -1433.57L-20316.8 -1455.37C-20316.3 -1456.17 -20315 -1455.78 -20315 -1454.8V-1441Z" fill="#FCD900"/>
<path d="M-20315 -1397C-20315 -1396.45 -20314.6 -1396 -20314 -1396H-20302.9C-20302.1 -1396 -20301.6 -1395.09 -20302.1 -1394.43L-20317.2 -1372.63C-20317.7 -1371.83 -20319 -1372.22 -20319 -1373.2V-1387C-20319 -1387.55 -20319.4 -1388 -20320 -1388H-20331.1C-20331.9 -1388 -20332.4 -1388.91 -20331.9 -1389.57L-20316.8 -1411.37C-20316.3 -1412.17 -20315 -1411.78 -20315 -1410.8V-1397Z" fill="#FCD900"/>
<path d="M-20315 -1353C-20315 -1352.45 -20314.6 -1352 -20314 -1352H-20302.9C-20302.1 -1352 -20301.6 -1351.09 -20302.1 -1350.43L-20317.2 -1328.63C-20317.7 -1327.83 -20319 -1328.22 -20319 -1329.2V-1343C-20319 -1343.55 -20319.4 -1344 -20320 -1344H-20331.1C-20331.9 -1344 -20332.4 -1344.91 -20331.9 -1345.57L-20316.8 -1367.37C-20316.3 -1368.17 -20315 -1367.78 -20315 -1366.8V-1353Z" fill="#FCD900"/>
<path d="M-20315 -1309C-20315 -1308.45 -20314.6 -1308 -20314 -1308H-20302.9C-20302.1 -1308 -20301.6 -1307.09 -20302.1 -1306.43L-20317.2 -1284.63C-20317.7 -1283.83 -20319 -1284.22 -20319 -1285.2V-1299C-20319 -1299.55 -20319.4 -1300 -20320 -1300H-20331.1C-20331.9 -1300 -20332.4 -1300.91 -20331.9 -1301.57L-20316.8 -1323.37C-20316.3 -1324.17 -20315 -1323.78 -20315 -1322.8V-1309Z" fill="#FCD900"/>
<path d="M-20283 -1463C-20283 -1462.45 -20282.6 -1462 -20282 -1462H-20270.9C-20270.1 -1462 -20269.6 -1461.09 -20270.1 -1460.43L-20285.2 -1438.63C-20285.7 -1437.83 -20287 -1438.22 -20287 -1439.2V-1453C-20287 -1453.55 -20287.4 -1454 -20288 -1454H-20299.1C-20299.9 -1454 -20300.4 -1454.91 -20299.9 -1455.57L-20284.8 -1477.37C-20284.3 -1478.17 -20283 -1477.78 -20283 -1476.8V-1463Z" fill="#FCD900"/>
<path d="M-20283 -1419C-20283 -1418.45 -20282.6 -1418 -20282 -1418H-20270.9C-20270.1 -1418 -20269.6 -1417.09 -20270.1 -1416.43L-20285.2 -1394.63C-20285.7 -1393.83 -20287 -1394.22 -20287 -1395.2V-1409C-20287 -1409.55 -20287.4 -1410 -20288 -1410H-20299.1C-20299.9 -1410 -20300.4 -1410.91 -20299.9 -1411.57L-20284.8 -1433.37C-20284.3 -1434.17 -20283 -1433.78 -20283 -1432.8V-1419Z" fill="#FCD900"/>
<path d="M-20283 -1375C-20283 -1374.45 -20282.6 -1374 -20282 -1374H-20270.9C-20270.1 -1374 -20269.6 -1373.09 -20270.1 -1372.43L-20285.2 -1350.63C-20285.7 -1349.83 -20287 -1350.22 -20287 -1351.2V-1365C-20287 -1365.55 -20287.4 -1366 -20288 -1366H-20299.1C-20299.9 -1366 -20300.4 -1366.91 -20299.9 -1367.57L-20284.8 -1389.37C-20284.3 -1390.17 -20283 -1389.78 -20283 -1388.8V-1375Z" fill="#FCD900"/>
<path d="M-20283 -1331C-20283 -1330.45 -20282.6 -1330 -20282 -1330H-20270.9C-20270.1 -1330 -20269.6 -1329.09 -20270.1 -1328.43L-20285.2 -1306.63C-20285.7 -1305.83 -20287 -1306.22 -20287 -1307.2V-1321C-20287 -1321.55 -20287.4 -1322 -20288 -1322H-20299.1C-20299.9 -1322 -20300.4 -1322.91 -20299.9 -1323.57L-20284.8 -1345.37C-20284.3 -1346.17 -20283 -1345.78 -20283 -1344.8V-1331Z" fill="#FCD900"/>
<path d="M-20251 -1485C-20251 -1484.45 -20250.6 -1484 -20250 -1484H-20238.9C-20238.1 -1484 -20237.6 -1483.09 -20238.1 -1482.43L-20253.2 -1460.63C-20253.7 -1459.83 -20255 -1460.22 -20255 -1461.2V-1475C-20255 -1475.55 -20255.4 -1476 -20256 -1476H-20267.1C-20267.9 -1476 -20268.4 -1476.91 -20267.9 -1477.57L-20252.8 -1499.37C-20252.3 -1500.17 -20251 -1499.78 -20251 -1498.8V-1485Z" fill="#FCD900"/>
<path d="M-20251 -1441C-20251 -1440.45 -20250.6 -1440 -20250 -1440H-20238.9C-20238.1 -1440 -20237.6 -1439.09 -20238.1 -1438.43L-20253.2 -1416.63C-20253.7 -1415.83 -20255 -1416.22 -20255 -1417.2V-1431C-20255 -1431.55 -20255.4 -1432 -20256 -1432H-20267.1C-20267.9 -1432 -20268.4 -1432.91 -20267.9 -1433.57L-20252.8 -1455.37C-20252.3 -1456.17 -20251 -1455.78 -20251 -1454.8V-1441Z" fill="#FCD900"/>
<path d="M-20251 -1397C-20251 -1396.45 -20250.6 -1396 -20250 -1396H-20238.9C-20238.1 -1396 -20237.6 -1395.09 -20238.1 -1394.43L-20253.2 -1372.63C-20253.7 -1371.83 -20255 -1372.22 -20255 -1373.2V-1387C-20255 -1387.55 -20255.4 -1388 -20256 -1388H-20267.1C-20267.9 -1388 -20268.4 -1388.91 -20267.9 -1389.57L-20252.8 -1411.37C-20252.3 -1412.17 -20251 -1411.78 -20251 -1410.8V-1397Z" fill="#FCD900"/>
<path d="M-20251 -1353C-20251 -1352.45 -20250.6 -1352 -20250 -1352H-20238.9C-20238.1 -1352 -20237.6 -1351.09 -20238.1 -1350.43L-20253.2 -1328.63C-20253.7 -1327.83 -20255 -1328.22 -20255 -1329.2V-1343C-20255 -1343.55 -20255.4 -1344 -20256 -1344H-20267.1C-20267.9 -1344 -20268.4 -1344.91 -20267.9 -1345.57L-20252.8 -1367.37C-20252.3 -1368.17 -20251 -1367.78 -20251 -1366.8V-1353Z" fill="#FCD900"/>
<path d="M-20251 -1309C-20251 -1308.45 -20250.6 -1308 -20250 -1308H-20238.9C-20238.1 -1308 -20237.6 -1307.09 -20238.1 -1306.43L-20253.2 -1284.63C-20253.7 -1283.83 -20255 -1284.22 -20255 -1285.2V-1299C-20255 -1299.55 -20255.4 -1300 -20256 -1300H-20267.1C-20267.9 -1300 -20268.4 -1300.91 -20267.9 -1301.57L-20252.8 -1323.37C-20252.3 -1324.17 -20251 -1323.78 -20251 -1322.8V-1309Z" fill="#FCD900"/>
<path d="M-20219 -1463C-20219 -1462.45 -20218.6 -1462 -20218 -1462H-20206.9C-20206.1 -1462 -20205.6 -1461.09 -20206.1 -1460.43L-20221.2 -1438.63C-20221.7 -1437.83 -20223 -1438.22 -20223 -1439.2V-1453C-20223 -1453.55 -20223.4 -1454 -20224 -1454H-20235.1C-20235.9 -1454 -20236.4 -1454.91 -20235.9 -1455.57L-20220.8 -1477.37C-20220.3 -1478.17 -20219 -1477.78 -20219 -1476.8V-1463Z" fill="#FCD900"/>
<path d="M-20219 -1419C-20219 -1418.45 -20218.6 -1418 -20218 -1418H-20206.9C-20206.1 -1418 -20205.6 -1417.09 -20206.1 -1416.43L-20221.2 -1394.63C-20221.7 -1393.83 -20223 -1394.22 -20223 -1395.2V-1409C-20223 -1409.55 -20223.4 -1410 -20224 -1410H-20235.1C-20235.9 -1410 -20236.4 -1410.91 -20235.9 -1411.57L-20220.8 -1433.37C-20220.3 -1434.17 -20219 -1433.78 -20219 -1432.8V-1419Z" fill="#FCD900"/>
<path d="M-20219 -1375C-20219 -1374.45 -20218.6 -1374 -20218 -1374H-20206.9C-20206.1 -1374 -20205.6 -1373.09 -20206.1 -1372.43L-20221.2 -1350.63C-20221.7 -1349.83 -20223 -1350.22 -20223 -1351.2V-1365C-20223 -1365.55 -20223.4 -1366 -20224 -1366H-20235.1C-20235.9 -1366 -20236.4 -1366.91 -20235.9 -1367.57L-20220.8 -1389.37C-20220.3 -1390.17 -20219 -1389.78 -20219 -1388.8V-1375Z" fill="#FCD900"/>
<path d="M-20219 -1331C-20219 -1330.45 -20218.6 -1330 -20218 -1330H-20206.9C-20206.1 -1330 -20205.6 -1329.09 -20206.1 -1328.43L-20221.2 -1306.63C-20221.7 -1305.83 -20223 -1306.22 -20223 -1307.2V-1321C-20223 -1321.55 -20223.4 -1322 -20224 -1322H-20235.1C-20235.9 -1322 -20236.4 -1322.91 -20235.9 -1323.57L-20220.8 -1345.37C-20220.3 -1346.17 -20219 -1345.78 -20219 -1344.8V-1331Z" fill="#FCD900"/>
</pattern></defs>
</svg>
