<svg width="44" height="45" viewBox="0 0 44 45" fill="none" xmlns="http://www.w3.org/2000/svg">
<g id="Frame">
<path id="Vector" d="M22.1884 7.59231L27.4586 9.58881L22.0001 11.6861L16.5417 9.58881L21.8119 7.59231C21.9329 7.54525 22.0674 7.54525 22.1951 7.59231H22.1884ZM11.7824 10.5434V18.0857C11.695 18.1126 11.6076 18.1395 11.5202 18.1731L5.06686 20.62C3.60814 21.1712 2.64014 22.5761 2.64014 24.1357V32.1486C2.64014 33.6409 3.52075 34.9921 4.89208 35.5971L11.3454 38.4339C12.3134 38.8574 13.4091 38.8574 14.3771 38.4339L22.0001 35.0795L29.6299 38.4339C30.5979 38.8574 31.6936 38.8574 32.6616 38.4339L39.1149 35.5971C40.4795 34.9988 41.3669 33.6409 41.3669 32.1486V24.1357C41.3669 22.5694 40.3989 21.1712 38.9401 20.6133L32.4868 18.1664C32.3994 18.1328 32.312 18.1059 32.2246 18.079V10.5434C32.2246 8.97709 31.2566 7.57887 29.7979 7.02092L23.3446 4.57403C22.4841 4.25136 21.5363 4.25136 20.6759 4.57403L14.2225 7.02092C12.7504 7.57887 11.7824 8.98381 11.7824 10.5434ZM28.9912 18.4823L23.4521 20.5796V14.5834L28.9912 12.4592V18.4823ZM13.0461 21.1914L18.3164 23.1879L12.8579 25.2785L7.39947 23.1879L12.6697 21.1914C12.7907 21.1443 12.9251 21.1443 13.0529 21.1914H13.0461ZM14.3099 34.9316V28.1758L19.849 26.0515V32.4981L14.3099 34.9316ZM30.9541 21.1914C31.0751 21.1443 31.2096 21.1443 31.3373 21.1914L36.6075 23.1879L31.1424 25.2785L25.6839 23.1879L30.9541 21.1914ZM37.8108 32.6393L32.5944 34.9316V28.1758L38.1335 26.0515V32.1486C38.1335 32.3637 38.0057 32.5519 37.8108 32.6393Z" fill="url(#paint0_linear_5266_5794)" stroke="black" stroke-width="1.76"/>
<path id="Rectangle 626" d="M3.52002 24.1738L12.32 27.6938V37.8138L11.22 37.352L10.12 36.8902L7.92002 35.9665L3.52002 34.1192V24.1738Z" fill="#FFED91"/>
<path id="Rectangle 625" d="M22 24.1738L30.8 27.6938V37.8138L29.7 37.352L28.6 36.8902L26.4 35.9665L22 34.1192V24.1738Z" fill="#FFED91"/>
<path id="Rectangle 628" d="M40.2266 23.8062L31.4266 27.3262V37.4462L32.5266 36.9843L33.6266 36.5225L35.8266 35.5988L40.2266 33.7515V23.8062Z" fill="url(#paint1_linear_5266_5794)"/>
<path id="Rectangle 629" d="M22 23.8062L13.2 27.3262V37.4462L14.3 36.9843L15.4 36.5225L17.6 35.5988L22 33.7515V23.8062Z" fill="url(#paint2_linear_5266_5794)"/>
<path id="Rectangle 630" d="M30.8037 10.166L22.0037 13.686V23.806L23.1037 23.3442L24.2037 22.8823L26.4037 21.9587L30.8037 20.1113V10.166Z" fill="url(#paint3_linear_5266_5794)"/>
<path id="Rectangle 631" d="M22.5982 6.11717C22.0694 5.89018 21.4683 5.90204 20.9488 6.1497L13.8188 9.5487L21.0531 12.4787C21.5121 12.6646 22.0237 12.6736 22.489 12.504L30.5938 9.5487L22.5982 6.11717Z" fill="white"/>
<path id="Rectangle 634" d="M31.5982 20.1172C31.0694 19.8902 30.4683 19.902 29.9488 20.1497L22.8188 23.5487L30.0531 26.4787C30.5121 26.6646 31.0237 26.6736 31.489 26.504L39.5938 23.5487L31.5982 20.1172Z" fill="white"/>
<path id="Rectangle 635" d="M12.5982 20.1172C12.0694 19.8902 11.4683 19.902 10.9488 20.1497L3.8188 23.5487L11.0531 26.4787C11.5121 26.6646 12.0237 26.6736 12.489 26.504L20.5938 23.5487L12.5982 20.1172Z" fill="white"/>
<path id="Rectangle 627" d="M12.6533 10.166L21.4533 13.686V23.806L20.3533 23.3442L19.2533 22.8823L17.0533 21.9587L12.6533 20.1113V10.166Z" fill="#FFED91"/>
</g>
<defs>
<linearGradient id="paint0_linear_5266_5794" x1="22.0035" y1="4.33203" x2="22.0035" y2="38.7515" gradientUnits="userSpaceOnUse">
<stop stop-color="#FBB43F"/>
<stop offset="1" stop-color="#FFD81F"/>
</linearGradient>
<linearGradient id="paint1_linear_5266_5794" x1="35.8266" y1="23.8062" x2="35.8266" y2="37.4462" gradientUnits="userSpaceOnUse">
<stop stop-color="#F99705"/>
<stop offset="1" stop-color="#FEA021"/>
</linearGradient>
<linearGradient id="paint2_linear_5266_5794" x1="17.6" y1="23.8062" x2="17.6" y2="37.4462" gradientUnits="userSpaceOnUse">
<stop stop-color="#F99705"/>
<stop offset="1" stop-color="#FEA021"/>
</linearGradient>
<linearGradient id="paint3_linear_5266_5794" x1="26.4037" y1="10.166" x2="26.4037" y2="23.806" gradientUnits="userSpaceOnUse">
<stop stop-color="#F99705"/>
<stop offset="1" stop-color="#FEA021"/>
</linearGradient>
</defs>
</svg>
