<svg width="32" height="32" viewBox="0 0 32 32" fill="none" xmlns="http://www.w3.org/2000/svg">
<g clip-path="url(#clip0_348_2579)">
<path fill-rule="evenodd" clip-rule="evenodd" d="M21.6026 2.76532C22.9893 2.83199 24.2133 3.12799 25.1666 3.47866C26.0666 3.81066 26.8733 4.24532 27.3133 4.68666C27.7533 5.12666 28.1893 5.93332 28.5199 6.83332C28.9368 7.97842 29.1777 9.18005 29.2346 10.3973C29.3479 12.784 28.7746 15.6333 26.6746 18.356L26.6506 18.4187L24.7346 22.2533C24.6147 22.4933 24.4251 22.6914 24.1908 22.822C23.9564 22.9525 23.6882 23.0093 23.421 22.985C23.1539 22.9606 22.9003 22.8563 22.6934 22.6855C22.4865 22.5148 22.3359 22.2857 22.2613 22.028C20.5341 22.8882 18.6625 23.4207 16.7413 23.5987L16.0613 23.6547L15.2839 23.7067L13.9826 23.7773L12.5799 23.844C11.9093 23.876 11.2279 23.908 10.5693 23.9427C10.5162 24.6802 10.4344 25.4155 10.3239 26.1467C10.2626 26.5787 10.1594 27.0038 10.0159 27.416C9.76127 28.0853 9.21994 28.6467 8.45727 28.6467C7.4546 28.6467 6.5426 27.94 5.79994 27.2373L5.4426 26.8907L4.93594 26.3827C4.18394 25.6093 3.35327 24.6293 3.35327 23.5427C3.35327 22.9293 3.70927 22.532 3.9346 22.3467C4.3306 22.02 4.8426 21.8667 5.3506 21.764L5.85194 21.676C6.58358 21.5656 7.31925 21.4837 8.05727 21.4307L8.24394 17.5693L8.29327 16.716L8.34394 15.9387C8.3626 15.6947 8.38127 15.4667 8.40127 15.2587C8.58527 13.32 9.1226 11.4187 9.97194 9.73866C9.71435 9.66388 9.48531 9.51316 9.31472 9.30618C9.14413 9.09919 9.03994 8.84557 9.01574 8.57844C8.99155 8.31132 9.04849 8.04311 9.17911 7.80884C9.30973 7.57458 9.50798 7.38516 9.74794 7.26532L13.5186 5.37866C13.5592 5.35816 13.601 5.34034 13.6439 5.32532C16.3653 3.22532 19.2146 2.65066 21.6026 2.76532ZM22.5999 9.39999C22.4142 9.21421 22.1938 9.06683 21.9511 8.96625C21.7085 8.86568 21.4484 8.81388 21.1857 8.81382C20.9231 8.81376 20.663 8.86543 20.4203 8.96589C20.1776 9.06635 19.957 9.21363 19.7713 9.39932C19.5855 9.58501 19.4381 9.80547 19.3375 10.0481C19.237 10.2908 19.1852 10.5509 19.1851 10.8135C19.185 11.0762 19.2367 11.3363 19.3372 11.579C19.4376 11.8217 19.5849 12.0422 19.7706 12.228C20.1476 12.5925 20.6527 12.7943 21.1771 12.79C21.7015 12.7857 22.2033 12.5756 22.5743 12.205C22.9453 11.8343 23.1558 11.3328 23.1606 10.8084C23.1654 10.284 22.9641 9.77737 22.5999 9.39999Z" fill="#FEA021"/>
</g>
<defs>
<clipPath id="clip0_348_2579">
<rect width="32" height="32" fill="white"/>
</clipPath>
</defs>
</svg>
