<svg width="32" height="32" viewBox="0 0 32 32" fill="none" xmlns="http://www.w3.org/2000/svg">
<g clip-path="url(#clip0_465_4224)">
<path fill-rule="evenodd" clip-rule="evenodd" d="M21.6027 2.76532C22.9893 2.83199 24.2133 3.12799 25.1667 3.47866C26.0667 3.81066 26.8733 4.24532 27.3133 4.68666C27.7533 5.12666 28.1893 5.93332 28.52 6.83332C28.9368 7.97842 29.1778 9.18005 29.2347 10.3973C29.348 12.784 28.7747 15.6333 26.6747 18.356L26.6507 18.4187L24.7347 22.2533C24.6147 22.4933 24.4252 22.6914 24.1908 22.822C23.9565 22.9525 23.6882 23.0093 23.4211 22.985C23.1539 22.9606 22.9003 22.8563 22.6934 22.6855C22.4865 22.5148 22.3359 22.2857 22.2613 22.028C20.5342 22.8882 18.6626 23.4207 16.7413 23.5987L16.0613 23.6547L15.284 23.7067L13.9827 23.7773L12.58 23.844C11.9093 23.876 11.228 23.908 10.5693 23.9427C10.5163 24.6802 10.4344 25.4155 10.324 26.1467C10.2627 26.5787 10.1595 27.0038 10.016 27.416C9.76133 28.0853 9.22 28.6467 8.45733 28.6467C7.45467 28.6467 6.54267 27.94 5.8 27.2373L5.44267 26.8907L4.936 26.3827C4.184 25.6093 3.35333 24.6293 3.35333 23.5427C3.35333 22.9293 3.70933 22.532 3.93467 22.3467C4.33067 22.02 4.84267 21.8667 5.35067 21.764L5.852 21.676C6.58364 21.5656 7.31931 21.4837 8.05733 21.4307L8.244 17.5693L8.29333 16.716L8.344 15.9387C8.36267 15.6947 8.38133 15.4667 8.40133 15.2587C8.58533 13.32 9.12267 11.4187 9.972 9.73866C9.71441 9.66388 9.48537 9.51316 9.31478 9.30618C9.14419 9.09919 9.04 8.84557 9.01581 8.57844C8.99161 8.31132 9.04855 8.04311 9.17917 7.80884C9.3098 7.57458 9.50804 7.38516 9.748 7.26532L13.5187 5.37866C13.5592 5.35816 13.6011 5.34034 13.644 5.32532C16.3653 3.22532 19.2147 2.65066 21.6027 2.76532ZM22.6 9.39999C22.4143 9.21421 22.1938 9.06683 21.9512 8.96625C21.7086 8.86568 21.4485 8.81388 21.1858 8.81382C20.9231 8.81376 20.663 8.86543 20.4203 8.96589C20.1776 9.06635 19.9571 9.21363 19.7713 9.39932C19.5856 9.58501 19.4382 9.80547 19.3376 10.0481C19.237 10.2908 19.1852 10.5509 19.1852 10.8135C19.1851 11.0762 19.2368 11.3363 19.3372 11.579C19.4377 11.8217 19.585 12.0422 19.7707 12.228C20.1477 12.5925 20.6528 12.7943 21.1772 12.79C21.7016 12.7857 22.2033 12.5756 22.5743 12.205C22.9453 11.8343 23.1559 11.3328 23.1607 10.8084C23.1655 10.284 22.9641 9.77736 22.6 9.39999Z" fill="#D9D9D9"/>
</g>
<defs>
<clipPath id="clip0_465_4224">
<rect width="32" height="32" fill="white"/>
</clipPath>
</defs>
</svg>
