<svg width="49" height="48" viewBox="0 0 49 48" fill="none" xmlns="http://www.w3.org/2000/svg">
<path d="M13.2578 4H35.2579C35.8873 4 36.4801 4.29638 36.8579 4.8L42.2579 12V42C42.2579 43.1046 41.3624 44 40.2579 44H8.25781C7.15325 44 6.25781 43.1046 6.25781 42V12L11.6578 4.8C12.0355 4.29638 12.6283 4 13.2578 4ZM38.2579 16H10.2578V40H38.2579V16ZM37.2579 12L34.2579 8H14.2578L11.2578 12H37.2579ZM18.2578 20V24C18.2578 27.3138 20.9441 30 24.2579 30C27.5715 30 30.2579 27.3138 30.2579 24V20H34.2579V24C34.2579 29.5228 29.7807 34 24.2579 34C18.735 34 14.2578 29.5228 14.2578 24V20H18.2578Z" fill="#585654"/>
</svg>
