<svg width="49" height="48" viewBox="0 0 49 48" fill="none" xmlns="http://www.w3.org/2000/svg">
<path d="M13.7578 4H35.7579C36.3873 4 36.9801 4.29638 37.3579 4.8L42.7579 12V42C42.7579 43.1046 41.8624 44 40.7579 44H8.75781C7.65325 44 6.75781 43.1046 6.75781 42V12L12.1578 4.8C12.5355 4.29638 13.1283 4 13.7578 4ZM38.7579 16H10.7578V40H38.7579V16ZM37.7579 12L34.7579 8H14.7578L11.7578 12H37.7579ZM18.7578 20V24C18.7578 27.3138 21.4441 30 24.7579 30C28.0715 30 30.7579 27.3138 30.7579 24V20H34.7579V24C34.7579 29.5228 30.2807 34 24.7579 34C19.235 34 14.7578 29.5228 14.7578 24V20H18.7578Z" fill="#585654"/>
</svg>
