<svg width="32" height="32" viewBox="0 0 32 32" fill="none" xmlns="http://www.w3.org/2000/svg">
<path d="M16 27.8653L22.5996 21.2656C26.2445 17.6208 26.2445 11.7112 22.5996 8.06635C18.9548 4.42146 13.0452 4.42146 9.40033 8.06635C5.75544 11.7112 5.75544 17.6208 9.40033 21.2656L16 27.8653ZM16 31.6365L7.51472 23.1513C2.82843 18.4649 2.82843 10.867 7.51472 6.18074C12.201 1.49444 19.7989 1.49444 24.4853 6.18074C29.1716 10.867 29.1716 18.4649 24.4853 23.1513L16 31.6365ZM16 17.3327C17.4728 17.3327 18.6667 16.1388 18.6667 14.666C18.6667 13.1933 17.4728 11.9993 16 11.9993C14.5272 11.9993 13.3333 13.1933 13.3333 14.666C13.3333 16.1388 14.5272 17.3327 16 17.3327ZM16 19.9993C13.0545 19.9993 10.6667 17.6115 10.6667 14.666C10.6667 11.7205 13.0545 9.33268 16 9.33268C18.9455 9.33268 21.3333 11.7205 21.3333 14.666C21.3333 17.6115 18.9455 19.9993 16 19.9993Z" fill="#FF8812"/>
</svg>
