<svg width="38" height="38" viewBox="0 0 38 38" fill="none" xmlns="http://www.w3.org/2000/svg">
<g id="_&#229;&#155;&#190;&#229;&#177;&#130;_1" clip-path="url(#clip0_577_48025)">
<path id="Vector" d="M12.3048 17.3478H4.79524C2.17143 17.3478 0 15.1449 0 12.4831V4.86473C0 2.2029 2.17143 0 4.79524 0H12.3048C14.9286 0 17.1 2.2029 17.1 4.86473V12.4831C17.1 15.1449 14.9286 17.3478 12.3048 17.3478ZM4.79524 2.75362C3.61905 2.75362 2.71429 3.6715 2.71429 4.86473V12.4831C2.71429 13.6763 3.61905 14.5942 4.79524 14.5942H12.3048C13.481 14.5942 14.3857 13.6763 14.3857 12.4831V4.86473C14.3857 3.6715 13.481 2.75362 12.3048 2.75362H4.79524ZM12.3048 38H4.79524C2.17143 38 0 35.7971 0 33.1353V25.5169C0 22.8551 2.17143 20.6522 4.79524 20.6522H12.3048C14.9286 20.6522 17.1 22.8551 17.1 25.5169V33.1353C17.1 35.7971 14.9286 38 12.3048 38ZM4.79524 23.4058C3.61905 23.4058 2.71429 24.3237 2.71429 25.5169V33.1353C2.71429 34.3285 3.61905 35.2464 4.79524 35.2464H12.3048C13.481 35.2464 14.3857 34.3285 14.3857 33.1353V25.5169C14.3857 24.3237 13.481 23.4058 12.3048 23.4058H4.79524ZM33.2048 17.3478H25.6952C23.0714 17.3478 20.9 15.1449 20.9 12.4831V4.86473C20.9 2.2029 23.0714 0 25.6952 0H33.2048C35.8286 0 38 2.2029 38 4.86473V12.4831C38 15.1449 35.8286 17.3478 33.2048 17.3478ZM25.6952 2.75362C24.519 2.75362 23.6143 3.6715 23.6143 4.86473V12.4831C23.6143 13.6763 24.519 14.5942 25.6952 14.5942H33.2048C34.381 14.5942 35.2857 13.6763 35.2857 12.4831V4.86473C35.2857 3.6715 34.381 2.75362 33.2048 2.75362H25.6952ZM30.7619 38H28.1381C24.1571 38 20.9 34.6957 20.9 30.657V27.9952C20.9 23.9565 24.1571 20.6522 28.1381 20.6522H30.7619C34.7429 20.6522 38 23.9565 38 27.9952V30.657C38 34.6957 34.7429 38 30.7619 38ZM28.1381 23.4058C25.6048 23.4058 23.6143 25.4251 23.6143 27.9952V30.657C23.6143 33.2271 25.6048 35.2464 28.1381 35.2464H30.7619C33.2952 35.2464 35.2857 33.2271 35.2857 30.657V27.9952C35.2857 25.4251 33.2952 23.4058 30.7619 23.4058H28.1381Z" fill="black"/>
</g>
<defs>
<clipPath id="clip0_577_48025">
<rect width="38" height="38" fill="white"/>
</clipPath>
</defs>
</svg>
