<svg width="590" height="595" viewBox="0 0 590 595" fill="none" xmlns="http://www.w3.org/2000/svg">
<path d="M592 -7.0107L546.462 -7.0107M592 -7.0107L592 -56L546.462 -56M592 -7.0107L592 41.9786M546.462 -7.0107L500.923 -7.01071M546.462 -7.0107L546.462 -56M546.462 -7.0107L546.462 41.9786M500.923 -7.01071L455.385 -7.01071M500.923 -7.01071L500.923 -56M500.923 -7.01071L500.923 41.9786M455.385 -7.01071L409.846 -7.01072M455.385 -7.01071L455.385 -56M455.385 -7.01071L455.385 41.9786M409.846 -7.01072L364.308 -7.01072M409.846 -7.01072L409.846 -56M409.846 -7.01072L409.846 41.9786M364.308 -7.01072L318.769 -7.01072M364.308 -7.01072L364.308 -56M364.308 -7.01072L364.308 41.9786M318.769 -7.01072L273.231 -7.01073M318.769 -7.01072L318.769 -56M318.769 -7.01072L318.769 41.9786M273.231 -7.01073L227.692 -7.01073M273.231 -7.01073L273.231 -56M273.231 -7.01073L273.231 41.9785M227.692 -7.01073L182.154 -7.01073M227.692 -7.01073L227.692 -56M227.692 -7.01073L227.692 41.9785M182.154 -7.01073L136.615 -7.01074M182.154 -7.01073L182.154 -56M182.154 -7.01073L182.154 41.9785M136.615 -7.01074L91.077 -7.01074M136.615 -7.01074L136.616 -56M136.615 -7.01074L136.615 41.9785M91.077 -7.01074L45.5386 -7.01075M91.077 -7.01074L91.077 -56M91.077 -7.01074L91.077 41.9785M45.5386 -7.01075L0.000116185 -7.01075M45.5386 -7.01075L45.5386 -56M45.5386 -7.01075L45.5386 41.9785M0.000116185 -7.01075L7.58171e-05 -56L45.5386 -56M0.000116185 -7.01075L0.000114044 41.9785M546.462 -56L500.923 -56M500.923 -56L455.385 -56M455.385 -56L409.846 -56M409.846 -56L364.308 -56M364.308 -56L318.769 -56M318.769 -56L273.231 -56M273.231 -56L227.692 -56M227.692 -56L182.154 -56M182.154 -56L136.616 -56M136.616 -56L91.077 -56M91.077 -56L45.5386 -56M592 41.9786L546.462 41.9786M592 41.9786L592 90.9678M546.462 41.9786L500.923 41.9786M546.462 41.9786L546.462 90.9678M500.923 41.9786L455.385 41.9786M500.923 41.9786L500.923 90.9678M455.385 41.9786L409.846 41.9786M455.385 41.9786L455.385 90.9678M409.846 41.9786L364.308 41.9786M409.846 41.9786L409.846 90.9678M364.308 41.9786L318.769 41.9786M364.308 41.9786L364.308 90.9678M318.769 41.9786L273.231 41.9785M318.769 41.9786L318.769 90.9678M273.231 41.9785L227.692 41.9785M273.231 41.9785L273.231 90.9678M227.692 41.9785L182.154 41.9785M227.692 41.9785L227.692 90.9678M182.154 41.9785L136.615 41.9785M182.154 41.9785L182.154 90.9678M136.615 41.9785L91.077 41.9785M136.615 41.9785L136.615 90.9678M91.077 41.9785L45.5386 41.9785M91.077 41.9785L91.077 90.9678M45.5386 41.9785L0.000114044 41.9785M45.5386 41.9785L45.5386 90.9678M0.000114044 41.9785L0.000111902 90.9678M592 90.9678L546.462 90.9678M592 90.9678L592 139.957M546.462 90.9678L500.923 90.9678M546.462 90.9678L546.462 139.957M500.923 90.9678L455.385 90.9678M500.923 90.9678L500.923 139.957M455.385 90.9678L409.846 90.9678M455.385 90.9678L455.385 139.957M409.846 90.9678L364.308 90.9678M409.846 90.9678L409.846 139.957M364.308 90.9678L318.769 90.9678M364.308 90.9678L364.308 139.957M318.769 90.9678L273.231 90.9678M318.769 90.9678L318.769 139.957M273.231 90.9678L227.692 90.9678M273.231 90.9678L273.231 139.957M227.692 90.9678L182.154 90.9678M227.692 90.9678L227.692 139.957M182.154 90.9678L136.615 90.9678M182.154 90.9678L182.154 139.957M136.615 90.9678L91.077 90.9678M136.615 90.9678L136.615 139.957M91.077 90.9678L45.5386 90.9678M91.077 90.9678L91.077 139.957M45.5386 90.9678L0.000111902 90.9678M45.5386 90.9678L45.5386 139.957M0.000111902 90.9678L0.000109761 139.957M592 139.957L546.462 139.957M592 139.957L592 188.946M546.462 139.957L500.923 139.957M546.462 139.957L546.462 188.946M500.923 139.957L455.385 139.957M500.923 139.957L500.923 188.946M455.385 139.957L409.846 139.957M455.385 139.957L455.385 188.946M409.846 139.957L364.308 139.957M409.846 139.957L409.846 188.946M364.308 139.957L318.769 139.957M364.308 139.957L364.308 188.946M318.769 139.957L273.231 139.957M318.769 139.957L318.769 188.946M273.231 139.957L227.692 139.957M273.231 139.957L273.231 188.946M227.692 139.957L182.154 139.957M227.692 139.957L227.692 188.946M182.154 139.957L136.615 139.957M182.154 139.957L182.154 188.946M136.615 139.957L91.077 139.957M136.615 139.957L136.615 188.946M91.077 139.957L45.5386 139.957M91.077 139.957L91.077 188.946M45.5386 139.957L0.000109761 139.957M45.5386 139.957L45.5386 188.946M0.000109761 139.957L0.000107619 188.946M592 286.925L546.462 286.925M592 286.925L592 237.936M592 286.925L592 335.914M546.462 286.925L500.923 286.925M546.462 286.925L546.462 237.936M546.462 286.925L546.462 335.914M500.923 286.925L455.385 286.925M500.923 286.925L500.923 237.936M500.923 286.925L500.923 335.914M455.385 286.925L409.846 286.925M455.385 286.925L455.385 237.936M455.385 286.925L455.385 335.914M409.846 286.925L364.308 286.925M409.846 286.925L409.846 237.936M409.846 286.925L409.846 335.914M364.308 286.925L318.769 286.925M364.308 286.925L364.308 237.936M364.308 286.925L364.308 335.914M318.769 286.925L273.231 286.925M318.769 286.925L318.769 237.936M318.769 286.925L318.769 335.914M273.231 286.925L227.692 286.925M273.231 286.925L273.231 237.936M273.231 286.925L273.231 335.914M227.692 286.925L182.154 286.925M227.692 286.925L227.692 237.936M227.692 286.925L227.692 335.914M182.154 286.925L136.615 286.925M182.154 286.925L182.154 237.936M182.154 286.925L182.154 335.914M136.615 286.925L91.077 286.925M136.615 286.925L136.615 237.936M136.615 286.925L136.615 335.914M91.077 286.925L45.5385 286.925M91.077 286.925L91.077 237.936M91.077 286.925L91.077 335.914M45.5385 286.925L0.000103337 286.925M45.5385 286.925L45.5386 237.936M45.5385 286.925L45.5385 335.914M0.000103337 286.925L0.000105478 237.936M0.000103337 286.925L0.000101195 335.914M592 433.893L546.462 433.893M592 433.893L592 384.903M592 433.893L592 482.882M546.462 433.893L500.923 433.893M546.462 433.893L546.462 384.903M546.462 433.893L546.462 482.882M500.923 433.893L455.385 433.893M500.923 433.893L500.923 384.903M500.923 433.893L500.923 482.882M455.385 433.893L409.846 433.893M455.385 433.893L455.385 384.903M455.385 433.893L455.385 482.882M409.846 433.893L364.308 433.893M409.846 433.893L409.846 384.903M409.846 433.893L409.846 482.882M364.308 433.893L318.769 433.893M364.308 433.893L364.308 384.903M364.308 433.893L364.308 482.882M318.769 433.893L273.231 433.893M318.769 433.893L318.769 384.903M318.769 433.893L318.769 482.882M273.231 433.893L227.692 433.893M273.231 433.893L273.231 384.903M273.231 433.893L273.231 482.882M227.692 433.893L182.154 433.893M227.692 433.893L227.692 384.903M227.692 433.893L227.692 482.882M182.154 433.893L136.615 433.893M182.154 433.893L182.154 384.903M182.154 433.893L182.154 482.882M136.615 433.893L91.077 433.893M136.615 433.893L136.615 384.903M136.615 433.893L136.615 482.882M91.077 433.893L45.5385 433.893M91.077 433.893L91.077 384.903M91.077 433.893L91.077 482.882M45.5385 433.893L9.69124e-05 433.893M45.5385 433.893L45.5385 384.903M45.5385 433.893L45.5385 482.882M9.69124e-05 433.893L9.90538e-05 384.903M9.69124e-05 433.893L9.4771e-05 482.882M592 188.946L546.462 188.946M592 188.946L592 237.936M546.462 188.946L500.923 188.946M546.462 188.946L546.462 237.936M500.923 188.946L455.385 188.946M500.923 188.946L500.923 237.936M455.385 188.946L409.846 188.946M455.385 188.946L455.385 237.936M409.846 188.946L364.308 188.946M409.846 188.946L409.846 237.936M364.308 188.946L318.769 188.946M364.308 188.946L364.308 237.936M318.769 188.946L273.231 188.946M318.769 188.946L318.769 237.936M273.231 188.946L227.692 188.946M273.231 188.946L273.231 237.936M227.692 188.946L182.154 188.946M227.692 188.946L227.692 237.936M182.154 188.946L136.615 188.946M182.154 188.946L182.154 237.936M136.615 188.946L91.077 188.946M136.615 188.946L136.615 237.936M91.077 188.946L45.5386 188.946M91.077 188.946L91.077 237.936M45.5386 188.946L0.000107619 188.946M45.5386 188.946L45.5386 237.936M0.000107619 188.946L0.000105478 237.936M592 335.914L546.462 335.914M592 335.914L592 384.903M546.462 335.914L500.923 335.914M546.462 335.914L546.462 384.903M500.923 335.914L455.385 335.914M500.923 335.914L500.923 384.903M455.385 335.914L409.846 335.914M455.385 335.914L455.385 384.903M409.846 335.914L364.308 335.914M409.846 335.914L409.846 384.903M364.308 335.914L318.769 335.914M364.308 335.914L364.308 384.903M318.769 335.914L273.231 335.914M318.769 335.914L318.769 384.903M273.231 335.914L227.692 335.914M273.231 335.914L273.231 384.903M227.692 335.914L182.154 335.914M227.692 335.914L227.692 384.903M182.154 335.914L136.615 335.914M182.154 335.914L182.154 384.903M136.615 335.914L91.077 335.914M136.615 335.914L136.615 384.903M91.077 335.914L45.5385 335.914M91.077 335.914L91.077 384.903M45.5385 335.914L0.000101195 335.914M45.5385 335.914L45.5385 384.903M0.000101195 335.914L9.90538e-05 384.903M592 482.882L546.462 482.882M592 482.882L592 531.871M546.462 482.882L500.923 482.882M546.462 482.882L546.461 531.871M500.923 482.882L455.385 482.882M500.923 482.882L500.923 531.871M455.385 482.882L409.846 482.882M455.385 482.882L455.385 531.871M409.846 482.882L364.308 482.882M409.846 482.882L409.846 531.871M364.308 482.882L318.769 482.882M364.308 482.882L364.308 531.871M318.769 482.882L273.231 482.882M318.769 482.882L318.769 531.871M273.231 482.882L227.692 482.882M273.231 482.882L273.231 531.871M227.692 482.882L182.154 482.882M227.692 482.882L227.692 531.871M182.154 482.882L136.615 482.882M182.154 482.882L182.154 531.871M136.615 482.882L91.077 482.882M136.615 482.882L136.615 531.871M91.077 482.882L45.5385 482.882M91.077 482.882L91.077 531.871M45.5385 482.882L9.4771e-05 482.882M45.5385 482.882L45.5385 531.871M9.4771e-05 482.882L9.26296e-05 531.871M592 237.936L546.462 237.936M546.462 237.936L500.923 237.936M500.923 237.936L455.385 237.936M455.385 237.936L409.846 237.936M409.846 237.936L364.308 237.936M364.308 237.936L318.769 237.936M318.769 237.936L273.231 237.936M273.231 237.936L227.692 237.936M227.692 237.936L182.154 237.936M182.154 237.936L136.615 237.936M136.615 237.936L91.077 237.936M91.077 237.936L45.5386 237.936M45.5386 237.936L0.000105478 237.936M592 384.903L546.462 384.903M546.462 384.903L500.923 384.903M500.923 384.903L455.385 384.903M455.385 384.903L409.846 384.903M409.846 384.903L364.308 384.903M364.308 384.903L318.769 384.903M318.769 384.903L273.231 384.903M273.231 384.903L227.692 384.903M227.692 384.903L182.154 384.903M182.154 384.903L136.615 384.903M136.615 384.903L91.077 384.903M91.077 384.903L45.5385 384.903M45.5385 384.903L9.90538e-05 384.903M592 531.871L546.461 531.871M592 531.871L592 580.861L9.04882e-05 580.861L9.26296e-05 531.871M546.461 531.871L500.923 531.871M546.461 531.871L546.461 580.86M500.923 531.871L455.385 531.871M500.923 531.871L500.923 580.86M455.385 531.871L409.846 531.871M455.385 531.871L455.385 580.86M409.846 531.871L364.308 531.871M409.846 531.871L409.846 580.86M364.308 531.871L318.769 531.871M364.308 531.871L364.308 580.86M318.769 531.871L273.231 531.871M318.769 531.871L318.769 580.86M273.231 531.871L227.692 531.871M273.231 531.871L273.231 580.86M227.692 531.871L182.154 531.871M227.692 531.871L227.692 580.86M182.154 531.871L136.615 531.871M182.154 531.871L182.154 580.86M136.615 531.871L91.077 531.871M136.615 531.871L136.615 580.86M91.077 531.871L45.5385 531.871M91.077 531.871L91.077 580.86M45.5385 531.871L9.26296e-05 531.871M45.5385 531.871L45.5385 580.86M592 336.129L546.462 336.129M592 336.129L592 287.139L546.462 287.139M592 336.129L592 385.118M546.462 336.129L500.923 336.129M546.462 336.129L546.462 287.139M546.462 336.129L546.462 385.118M500.923 336.129L455.385 336.129M500.923 336.129L500.923 287.139M500.923 336.129L500.923 385.118M455.385 336.129L409.846 336.129M455.385 336.129L455.385 287.139M455.385 336.129L455.385 385.118M409.846 336.129L364.308 336.129M409.846 336.129L409.846 287.139M409.846 336.129L409.846 385.118M364.308 336.129L318.769 336.129M364.308 336.129L364.308 287.139M364.308 336.129L364.308 385.118M318.769 336.129L273.231 336.129M318.769 336.129L318.769 287.139M318.769 336.129L318.769 385.118M273.231 336.129L227.692 336.129M273.231 336.129L273.231 287.139M273.231 336.129L273.231 385.118M227.692 336.129L182.154 336.129M227.692 336.129L227.692 287.139M227.692 336.129L227.692 385.118M182.154 336.129L136.615 336.129M182.154 336.129L182.154 287.139M182.154 336.129L182.154 385.118M136.615 336.129L91.077 336.129M136.615 336.129L136.615 287.139M136.615 336.129L136.615 385.118M91.077 336.129L45.5386 336.129M91.077 336.129L91.077 287.139M91.077 336.129L91.077 385.118M45.5386 336.129L0.000101186 336.129M45.5386 336.129L45.5386 287.139M45.5386 336.129L45.5386 385.118M0.000101186 336.129L6.0818e-05 287.139L45.5386 287.139M0.000101186 336.129L9.90444e-05 385.118M546.462 287.139L500.923 287.139M500.923 287.139L455.385 287.139M455.385 287.139L409.846 287.139M409.846 287.139L364.308 287.139M364.308 287.139L318.769 287.139M318.769 287.139L273.231 287.139M273.231 287.139L227.692 287.139M227.692 287.139L182.154 287.139M182.154 287.139L136.615 287.139M136.615 287.139L91.077 287.139M91.077 287.139L45.5386 287.139M592 385.118L546.462 385.118M592 385.118L592 434.107M546.462 385.118L500.923 385.118M546.462 385.118L546.462 434.107M500.923 385.118L455.385 385.118M500.923 385.118L500.923 434.107M455.385 385.118L409.846 385.118M455.385 385.118L455.385 434.107M409.846 385.118L364.308 385.118M409.846 385.118L409.846 434.107M364.308 385.118L318.769 385.118M364.308 385.118L364.308 434.107M318.769 385.118L273.231 385.118M318.769 385.118L318.769 434.107M273.231 385.118L227.692 385.118M273.231 385.118L273.231 434.107M227.692 385.118L182.154 385.118M227.692 385.118L227.692 434.107M182.154 385.118L136.615 385.118M182.154 385.118L182.154 434.107M136.615 385.118L91.077 385.118M136.615 385.118L136.615 434.107M91.077 385.118L45.5386 385.118M91.077 385.118L91.077 434.107M45.5386 385.118L9.90444e-05 385.118M45.5386 385.118L45.5386 434.107M9.90444e-05 385.118L9.6903e-05 434.107M592 434.107L546.462 434.107M592 434.107L592 483.097M546.462 434.107L500.923 434.107M546.462 434.107L546.462 483.097M500.923 434.107L455.385 434.107M500.923 434.107L500.923 483.097M455.385 434.107L409.846 434.107M455.385 434.107L455.385 483.097M409.846 434.107L364.308 434.107M409.846 434.107L409.846 483.097M364.308 434.107L318.769 434.107M364.308 434.107L364.308 483.097M318.769 434.107L273.231 434.107M318.769 434.107L318.769 483.097M273.231 434.107L227.692 434.107M273.231 434.107L273.231 483.096M227.692 434.107L182.154 434.107M227.692 434.107L227.692 483.096M182.154 434.107L136.615 434.107M182.154 434.107L182.154 483.096M136.615 434.107L91.077 434.107M136.615 434.107L136.615 483.096M91.077 434.107L45.5386 434.107M91.077 434.107L91.077 483.096M45.5386 434.107L9.6903e-05 434.107M45.5386 434.107L45.5386 483.096M9.6903e-05 434.107L9.47616e-05 483.096M592 483.097L546.462 483.097M592 483.097L592 532.086M546.462 483.097L500.923 483.097M546.462 483.097L546.462 532.086M500.923 483.097L455.385 483.097M500.923 483.097L500.923 532.086M455.385 483.097L409.846 483.097M455.385 483.097L455.385 532.086M409.846 483.097L364.308 483.097M409.846 483.097L409.846 532.086M364.308 483.097L318.769 483.097M364.308 483.097L364.308 532.086M318.769 483.097L273.231 483.096M318.769 483.097L318.769 532.086M273.231 483.096L227.692 483.096M273.231 483.096L273.231 532.086M227.692 483.096L182.154 483.096M227.692 483.096L227.692 532.086M182.154 483.096L136.615 483.096M182.154 483.096L182.154 532.086M136.615 483.096L91.077 483.096M136.615 483.096L136.615 532.086M91.077 483.096L45.5386 483.096M91.077 483.096L91.077 532.086M45.5386 483.096L9.47616e-05 483.096M45.5386 483.096L45.5386 532.086M9.47616e-05 483.096L9.26202e-05 532.086M592 630.064L546.462 630.064M592 630.064L592 581.075M592 630.064L592 679.054M546.462 630.064L500.923 630.064M546.462 630.064L546.462 581.075M546.462 630.064L546.461 679.054M500.923 630.064L455.385 630.064M500.923 630.064L500.923 581.075M500.923 630.064L500.923 679.054M455.385 630.064L409.846 630.064M455.385 630.064L455.385 581.075M455.385 630.064L455.385 679.054M409.846 630.064L364.308 630.064M409.846 630.064L409.846 581.075M409.846 630.064L409.846 679.054M364.308 630.064L318.769 630.064M364.308 630.064L364.308 581.075M364.308 630.064L364.308 679.054M318.769 630.064L273.231 630.064M318.769 630.064L318.769 581.075M318.769 630.064L318.769 679.054M273.231 630.064L227.692 630.064M273.231 630.064L273.231 581.075M273.231 630.064L273.231 679.054M227.692 630.064L182.154 630.064M227.692 630.064L227.692 581.075M227.692 630.064L227.692 679.054M182.154 630.064L136.615 630.064M182.154 630.064L182.154 581.075M182.154 630.064L182.154 679.054M136.615 630.064L91.077 630.064M136.615 630.064L136.615 581.075M136.615 630.064L136.615 679.054M91.077 630.064L45.5385 630.064M91.077 630.064L91.077 581.075M91.077 630.064L91.077 679.054M45.5385 630.064L8.83375e-05 630.064M45.5385 630.064L45.5386 581.075M45.5385 630.064L45.5385 679.054M8.83375e-05 630.064L9.04789e-05 581.075M8.83375e-05 630.064L8.61961e-05 679.054M592 777.032L546.461 777.032M592 777.032L592 728.043M592 777.032L592 826.022M546.461 777.032L500.923 777.032M546.461 777.032L546.461 728.043M546.461 777.032L546.461 826.022M500.923 777.032L455.385 777.032M500.923 777.032L500.923 728.043M500.923 777.032L500.923 826.022M455.385 777.032L409.846 777.032M455.385 777.032L455.385 728.043M455.385 777.032L455.385 826.022M409.846 777.032L364.308 777.032M409.846 777.032L409.846 728.043M409.846 777.032L409.846 826.022M364.308 777.032L318.769 777.032M364.308 777.032L364.308 728.043M364.308 777.032L364.308 826.021M318.769 777.032L273.231 777.032M318.769 777.032L318.769 728.043M318.769 777.032L318.769 826.021M273.231 777.032L227.692 777.032M273.231 777.032L273.231 728.043M273.231 777.032L273.231 826.021M227.692 777.032L182.154 777.032M227.692 777.032L227.692 728.043M227.692 777.032L227.692 826.021M182.154 777.032L136.615 777.032M182.154 777.032L182.154 728.043M182.154 777.032L182.154 826.021M136.615 777.032L91.0769 777.032M136.615 777.032L136.615 728.043M136.615 777.032L136.615 826.021M91.0769 777.032L45.5385 777.032M91.0769 777.032L91.0769 728.043M91.0769 777.032L91.0769 826.021M45.5385 777.032L8.19133e-05 777.032M45.5385 777.032L45.5385 728.043M45.5385 777.032L45.5385 826.021M8.19133e-05 777.032L8.40547e-05 728.043M8.19133e-05 777.032L7.97719e-05 826.021M592 532.086L546.462 532.086M592 532.086L592 581.075M546.462 532.086L500.923 532.086M546.462 532.086L546.462 581.075M500.923 532.086L455.385 532.086M500.923 532.086L500.923 581.075M455.385 532.086L409.846 532.086M455.385 532.086L455.385 581.075M409.846 532.086L364.308 532.086M409.846 532.086L409.846 581.075M364.308 532.086L318.769 532.086M364.308 532.086L364.308 581.075M318.769 532.086L273.231 532.086M318.769 532.086L318.769 581.075M273.231 532.086L227.692 532.086M273.231 532.086L273.231 581.075M227.692 532.086L182.154 532.086M227.692 532.086L227.692 581.075M182.154 532.086L136.615 532.086M182.154 532.086L182.154 581.075M136.615 532.086L91.077 532.086M136.615 532.086L136.615 581.075M91.077 532.086L45.5386 532.086M91.077 532.086L91.077 581.075M45.5386 532.086L9.26202e-05 532.086M45.5386 532.086L45.5386 581.075M9.26202e-05 532.086L9.04789e-05 581.075M592 679.054L546.461 679.054M592 679.054L592 728.043M546.461 679.054L500.923 679.054M546.461 679.054L546.461 728.043M500.923 679.054L455.385 679.054M500.923 679.054L500.923 728.043M455.385 679.054L409.846 679.054M455.385 679.054L455.385 728.043M409.846 679.054L364.308 679.054M409.846 679.054L409.846 728.043M364.308 679.054L318.769 679.054M364.308 679.054L364.308 728.043M318.769 679.054L273.231 679.054M318.769 679.054L318.769 728.043M273.231 679.054L227.692 679.054M273.231 679.054L273.231 728.043M227.692 679.054L182.154 679.054M227.692 679.054L227.692 728.043M182.154 679.054L136.615 679.054M182.154 679.054L182.154 728.043M136.615 679.054L91.077 679.054M136.615 679.054L136.615 728.043M91.077 679.054L45.5385 679.054M91.077 679.054L91.0769 728.043M45.5385 679.054L8.61961e-05 679.054M45.5385 679.054L45.5385 728.043M8.61961e-05 679.054L8.40547e-05 728.043M592 826.022L546.461 826.022M592 826.022L592 875.011M546.461 826.022L500.923 826.022M546.461 826.022L546.461 875.011M500.923 826.022L455.385 826.022M500.923 826.022L500.923 875.011M455.385 826.022L409.846 826.022M455.385 826.022L455.385 875.011M409.846 826.022L364.308 826.021M409.846 826.022L409.846 875.011M364.308 826.021L318.769 826.021M364.308 826.021L364.308 875.011M318.769 826.021L273.231 826.021M318.769 826.021L318.769 875.011M273.231 826.021L227.692 826.021M273.231 826.021L273.231 875.011M227.692 826.021L182.154 826.021M227.692 826.021L227.692 875.011M182.154 826.021L136.615 826.021M182.154 826.021L182.154 875.011M136.615 826.021L91.0769 826.021M136.615 826.021L136.615 875.011M91.0769 826.021L45.5385 826.021M91.0769 826.021L91.0769 875.011M45.5385 826.021L7.97719e-05 826.021M45.5385 826.021L45.5385 875.011M7.97719e-05 826.021L7.76305e-05 875.011M592 581.075L546.462 581.075M546.462 581.075L500.923 581.075M500.923 581.075L455.385 581.075M455.385 581.075L409.846 581.075M409.846 581.075L364.308 581.075M364.308 581.075L318.769 581.075M318.769 581.075L273.231 581.075M273.231 581.075L227.692 581.075M227.692 581.075L182.154 581.075M182.154 581.075L136.615 581.075M136.615 581.075L91.077 581.075M91.077 581.075L45.5386 581.075M45.5386 581.075L9.04789e-05 581.075M592 728.043L546.461 728.043M546.461 728.043L500.923 728.043M500.923 728.043L455.385 728.043M455.385 728.043L409.846 728.043M409.846 728.043L364.308 728.043M364.308 728.043L318.769 728.043M318.769 728.043L273.231 728.043M273.231 728.043L227.692 728.043M227.692 728.043L182.154 728.043M182.154 728.043L136.615 728.043M136.615 728.043L91.0769 728.043M91.0769 728.043L45.5385 728.043M45.5385 728.043L8.40547e-05 728.043M592 875.011L546.461 875.011M592 875.011L592 924L7.54891e-05 924L7.76305e-05 875.011M546.461 875.011L500.923 875.011M546.461 875.011L546.461 923.999M500.923 875.011L455.385 875.011M500.923 875.011L500.923 923.999M455.385 875.011L409.846 875.011M455.385 875.011L455.385 923.999M409.846 875.011L364.308 875.011M409.846 875.011L409.846 923.999M364.308 875.011L318.769 875.011M364.308 875.011L364.308 923.999M318.769 875.011L273.231 875.011M318.769 875.011L318.769 923.999M273.231 875.011L227.692 875.011M273.231 875.011L273.231 923.999M227.692 875.011L182.154 875.011M227.692 875.011L227.692 923.999M182.154 875.011L136.615 875.011M182.154 875.011L182.154 923.999M136.615 875.011L91.0769 875.011M136.615 875.011L136.615 923.999M91.0769 875.011L45.5385 875.011M91.0769 875.011L91.0769 923.999M45.5385 875.011L7.76305e-05 875.011M45.5385 875.011L45.5385 923.999" stroke="url(#paint0_linear_131_1067)" stroke-opacity="0.8"/>
<defs>
<linearGradient id="paint0_linear_131_1067" x1="296" y1="590" x2="296.006" y2="2.5" gradientUnits="userSpaceOnUse">
<stop stop-color="white" stop-opacity="0.15"/>
<stop offset="0.298407" stop-color="white" stop-opacity="0.05"/>
<stop offset="0.724954" stop-color="white" stop-opacity="0.05"/>
<stop offset="1" stop-color="white" stop-opacity="0.15"/>
</linearGradient>
</defs>
</svg>
