<svg width="651" height="260" viewBox="0 0 651 260" fill="none" xmlns="http://www.w3.org/2000/svg">
<path d="M32.5429 -2V28.2308M32.5429 -2H0V28.2308M32.5429 -2H65.0858M32.5429 28.2308L32.5429 58.4615M32.5429 28.2308H0M32.5429 28.2308L65.0858 28.2308M32.5429 58.4615V88.6923M32.5429 58.4615H0M32.5429 58.4615L65.0858 58.4615M32.5429 88.6923L32.5429 118.923M32.5429 88.6923H0M32.5429 88.6923H65.0858M32.5429 118.923V149.154M32.5429 118.923H0M32.5429 118.923H65.0858M32.5429 149.154V179.385M32.5429 149.154H0M32.5429 149.154H65.0858M32.5429 179.385L32.5429 209.615M32.5429 179.385H0M32.5429 179.385H65.0858M32.5429 209.615V239.846M32.5429 209.615H0M32.5429 209.615H65.0858M32.5429 239.846V270.077M32.5429 239.846H0M32.5429 239.846H65.0858M32.5429 270.077L32.5429 300.308M32.5429 270.077H0M32.5429 270.077H65.0858M32.5429 300.308V330.538M32.5429 300.308H0M32.5429 300.308H65.0858M32.5429 330.538L32.5429 360.769M32.5429 330.538H0M32.5429 330.538H65.0857M32.5429 360.769V391M32.5429 360.769H0M32.5429 360.769H65.0857M32.5429 391L0 391V360.769M32.5429 391H65.0857M0 28.2308V58.4615M0 58.4615V88.6923M0 88.6923V118.923M0 118.923V149.154M0 149.154V179.385M0 179.385V209.615M0 209.615V239.846M0 239.846V270.077M0 270.077V300.308M0 300.308V330.538M0 330.538V360.769M65.0858 -2V28.2308M65.0858 -2H97.6286M65.0858 28.2308V58.4615M65.0858 28.2308H97.6286M65.0858 58.4615L65.0858 88.6923M65.0858 58.4615H97.6286M65.0858 88.6923V118.923M65.0858 88.6923L97.6286 88.6923M65.0858 118.923V149.154M65.0858 118.923H97.6286M65.0858 149.154V179.385M65.0858 149.154H97.6286M65.0858 179.385L65.0858 209.615M65.0858 179.385H97.6286M65.0858 209.615V239.846M65.0858 209.615H97.6286M65.0858 239.846V270.077M65.0858 239.846H97.6286M65.0858 270.077V300.308M65.0858 270.077H97.6286M65.0858 300.308L65.0857 330.538M65.0858 300.308H97.6286M65.0857 330.538V360.769M65.0857 330.538H97.6286M65.0857 360.769V391M65.0857 360.769H97.6286M65.0857 391H97.6286M97.6286 -2V28.2308M97.6286 -2H130.171M97.6286 28.2308V58.4615M97.6286 28.2308L130.171 28.2308M97.6286 58.4615L97.6286 88.6923M97.6286 58.4615H130.171M97.6286 88.6923V118.923M97.6286 88.6923H130.171M97.6286 118.923V149.154M97.6286 118.923L130.171 118.923M97.6286 149.154V179.385M97.6286 149.154L130.171 149.154M97.6286 179.385L97.6286 209.615M97.6286 179.385H130.171M97.6286 209.615V239.846M97.6286 209.615H130.171M97.6286 239.846V270.077M97.6286 239.846H130.171M97.6286 270.077V300.308M97.6286 270.077H130.171M97.6286 300.308L97.6286 330.538M97.6286 300.308H130.171M97.6286 330.538V360.769M97.6286 330.538H130.171M97.6286 360.769V391M97.6286 360.769H130.171M97.6286 391H130.171M130.171 -2V28.2308M130.171 -2H162.714M130.171 28.2308V58.4615M130.171 28.2308H162.714M130.171 58.4615V88.6923M130.171 58.4615L162.714 58.4615M130.171 88.6923V118.923M130.171 88.6923H162.714M130.171 118.923V149.154M130.171 118.923H162.714M130.171 149.154V179.385M130.171 149.154H162.714M130.171 179.385L130.171 209.615M130.171 179.385H162.714M130.171 209.615V239.846M130.171 209.615H162.714M130.171 239.846V270.077M130.171 239.846H162.714M130.171 270.077V300.308M130.171 270.077H162.714M130.171 300.308V330.538M130.171 300.308H162.714M130.171 330.538V360.769M130.171 330.538H162.714M130.171 360.769V391M130.171 360.769H162.714M130.171 391H162.714M227.8 -2V28.2308M227.8 -2H195.257M227.8 -2H260.343M227.8 28.2308V58.4615M227.8 28.2308H195.257M227.8 28.2308L260.343 28.2308M227.8 58.4615V88.6923M227.8 58.4615H195.257M227.8 58.4615H260.343M227.8 88.6923V118.923M227.8 88.6923L195.257 88.6923M227.8 88.6923H260.343M227.8 118.923V149.154M227.8 118.923H195.257M227.8 118.923H260.343M227.8 149.154V179.385M227.8 149.154H195.257M227.8 149.154H260.343M227.8 179.385L227.8 209.615M227.8 179.385L195.257 179.385M227.8 179.385H260.343M227.8 209.615V239.846M227.8 209.615L195.257 209.615M227.8 209.615H260.343M227.8 239.846V270.077M227.8 239.846L195.257 239.846M227.8 239.846H260.343M227.8 270.077V300.308M227.8 270.077H195.257M227.8 270.077H260.343M227.8 300.308V330.538M227.8 300.308L195.257 300.308M227.8 300.308H260.343M227.8 330.538V360.769M227.8 330.538L195.257 330.538M227.8 330.538H260.343M227.8 360.769V391M227.8 360.769L195.257 360.769M227.8 360.769H260.343M227.8 391H195.257M227.8 391H260.343M325.429 -2V28.2308M325.429 -2H292.886M325.429 -2H357.972M325.429 28.2308V58.4615M325.429 28.2308L292.886 28.2308M325.429 28.2308H357.972M325.429 58.4615V88.6923M325.429 58.4615H292.886M325.429 58.4615H357.972M325.429 88.6923V118.923M325.429 88.6923H292.886M325.429 88.6923L357.972 88.6923M325.429 118.923V149.154M325.429 118.923L292.886 118.923M325.429 118.923H357.972M325.429 149.154V179.385M325.429 149.154L292.886 149.154M325.429 149.154H357.972M325.429 179.385L325.429 209.615M325.429 179.385H292.886M325.429 179.385H357.972M325.429 209.615V239.846M325.429 209.615H292.886M325.429 209.615H357.972M325.429 239.846V270.077M325.429 239.846H292.886M325.429 239.846H357.972M325.429 270.077V300.308M325.429 270.077H292.886M325.429 270.077H357.972M325.429 300.308V330.538M325.429 300.308H292.886M325.429 300.308H357.972M325.429 330.538V360.769M325.429 330.538H292.886M325.429 330.538H357.972M325.429 360.769V391M325.429 360.769H292.886M325.429 360.769H357.972M325.429 391H292.886M325.429 391H357.972M162.714 -2V28.2308M162.714 -2H195.257M162.714 28.2308V58.4615M162.714 28.2308L195.257 28.2308M162.714 58.4615V88.6923M162.714 58.4615H195.257M162.714 88.6923V118.923M162.714 88.6923H195.257M162.714 118.923V149.154M162.714 118.923H195.257M162.714 149.154V179.385M162.714 149.154H195.257M162.714 179.385L162.714 209.615M162.714 179.385H195.257M162.714 209.615V239.846M162.714 209.615H195.257M162.714 239.846V270.077M162.714 239.846H195.257M162.714 270.077V300.308M162.714 270.077H195.257M162.714 300.308V330.538M162.714 300.308H195.257M162.714 330.538V360.769M162.714 330.538H195.257M162.714 360.769V391M162.714 360.769H195.257M162.714 391H195.257M260.343 -2V28.2308M260.343 -2H292.886M260.343 28.2308V58.4615M260.343 28.2308H292.886M260.343 58.4615V88.6923M260.343 58.4615L292.886 58.4615M260.343 88.6923V118.923M260.343 88.6923H292.886M260.343 118.923V149.154M260.343 118.923H292.886M260.343 149.154V179.385M260.343 149.154H292.886M260.343 179.385L260.343 209.615M260.343 179.385H292.886M260.343 209.615V239.846M260.343 209.615H292.886M260.343 239.846V270.077M260.343 239.846H292.886M260.343 270.077V300.308M260.343 270.077H292.886M260.343 300.308V330.538M260.343 300.308H292.886M260.343 330.538V360.769M260.343 330.538H292.886M260.343 360.769V391M260.343 360.769H292.886M260.343 391H292.886M357.972 -2V28.2308M357.972 -2H390.515M357.972 28.2308V58.4615M357.972 28.2308L390.515 28.2308M357.972 58.4615V88.6923M357.972 58.4615L390.515 58.4616M357.972 88.6923V118.923M357.972 88.6923H390.515M357.972 118.923V149.154M357.972 118.923H390.515M357.972 149.154V179.385M357.972 149.154H390.515M357.972 179.385V209.615M357.972 179.385H390.515M357.972 209.615V239.846M357.972 209.615H390.515M357.972 239.846V270.077M357.972 239.846H390.515M357.972 270.077V300.308M357.972 270.077H390.515M357.972 300.308V330.538M357.972 300.308H390.515M357.972 330.538V360.769M357.972 330.538H390.515M357.972 360.769V391M357.972 360.769H390.515M357.972 391H390.515M195.257 -2V28.2308M195.257 28.2308V58.4615M195.257 58.4615V88.6923M195.257 88.6923L195.257 118.923M195.257 118.923V149.154M195.257 149.154V179.385M195.257 179.385V209.615M195.257 209.615V239.846M195.257 239.846V270.077M195.257 270.077L195.257 300.308M195.257 300.308V330.538M195.257 330.538V360.769M195.257 360.769V391M292.886 -2V28.2308M292.886 28.2308V58.4615M292.886 58.4615V88.6923M292.886 88.6923V118.923M292.886 118.923V149.154M292.886 149.154V179.385M292.886 179.385V209.615M292.886 209.615V239.846M292.886 239.846V270.077M292.886 270.077V300.308M292.886 300.308V330.538M292.886 330.538V360.769M292.886 360.769V391M390.515 -2V28.2308M390.515 -2H423.057V391H390.515M390.515 28.2308V58.4616M390.515 28.2308H423.057M390.515 58.4616V88.6923M390.515 58.4616H423.057M390.515 88.6923V118.923M390.515 88.6923H423.057M390.515 118.923V149.154M390.515 118.923H423.057M390.515 149.154V179.385M390.515 149.154H423.057M390.515 179.385V209.615M390.515 179.385H423.057M390.515 209.615V239.846M390.515 209.615H423.057M390.515 239.846V270.077M390.515 239.846H423.057M390.515 270.077V300.308M390.515 270.077H423.057M390.515 300.308V330.538M390.515 300.308H423.057M390.515 330.538V360.769M390.515 330.538H423.057M390.515 360.769V391M390.515 360.769H423.057M260.486 -2V28.2308M260.486 -2H227.943V28.2308M260.486 -2H293.028M260.486 28.2308V58.4615M260.486 28.2308H227.943M260.486 28.2308L293.028 28.2308M260.486 58.4615V88.6923M260.486 58.4615H227.943M260.486 58.4615L293.028 58.4615M260.486 88.6923V118.923M260.486 88.6923H227.943M260.486 88.6923H293.028M260.486 118.923V149.154M260.486 118.923H227.943M260.486 118.923H293.028M260.486 149.154V179.385M260.486 149.154H227.943M260.486 149.154H293.028M260.486 179.385V209.615M260.486 179.385H227.943M260.486 179.385H293.028M260.486 209.615V239.846M260.486 209.615H227.943M260.486 209.615H293.028M260.486 239.846V270.077M260.486 239.846H227.943M260.486 239.846H293.028M260.486 270.077V300.308M260.486 270.077H227.943M260.486 270.077H293.028M260.486 300.308V330.538M260.486 300.308H227.943M260.486 300.308H293.028M260.486 330.538L260.485 360.769M260.486 330.538H227.943M260.486 330.538H293.028M260.485 360.769V391M260.485 360.769H227.943M260.485 360.769H293.028M260.485 391L227.943 391V360.769M260.485 391H293.028M227.943 28.2308V58.4615M227.943 58.4615V88.6923M227.943 88.6923V118.923M227.943 118.923V149.154M227.943 149.154V179.385M227.943 179.385V209.615M227.943 209.615V239.846M227.943 239.846V270.077M227.943 270.077V300.308M227.943 300.308V330.538M227.943 330.538V360.769M293.028 -2V28.2308M293.028 -2H325.571M293.028 28.2308V58.4615M293.028 28.2308H325.571M293.028 58.4615V88.6923M293.028 58.4615H325.571M293.028 88.6923V118.923M293.028 88.6923L325.571 88.6923M293.028 118.923V149.154M293.028 118.923H325.571M293.028 149.154V179.385M293.028 149.154H325.571M293.028 179.385V209.615M293.028 179.385H325.571M293.028 209.615V239.846M293.028 209.615H325.571M293.028 239.846V270.077M293.028 239.846H325.571M293.028 270.077V300.308M293.028 270.077H325.571M293.028 300.308V330.538M293.028 300.308H325.571M293.028 330.538V360.769M293.028 330.538H325.571M293.028 360.769V391M293.028 360.769H325.571M293.028 391H325.571M325.571 -2V28.2308M325.571 -2H358.114M325.571 28.2308V58.4615M325.571 28.2308L358.114 28.2308M325.571 58.4615L325.571 88.6923M325.571 58.4615H358.114M325.571 88.6923V118.923M325.571 88.6923H358.114M325.571 118.923V149.154M325.571 118.923L358.114 118.923M325.571 149.154V179.385M325.571 149.154L358.114 149.154M325.571 179.385V209.615M325.571 179.385H358.114M325.571 209.615V239.846M325.571 209.615H358.114M325.571 239.846V270.077M325.571 239.846H358.114M325.571 270.077V300.308M325.571 270.077H358.114M325.571 300.308V330.538M325.571 300.308H358.114M325.571 330.538V360.769M325.571 330.538H358.114M325.571 360.769V391M325.571 360.769H358.114M325.571 391H358.114M358.114 -2V28.2308M358.114 -2H390.657M358.114 28.2308V58.4615M358.114 28.2308H390.657M358.114 58.4615V88.6923M358.114 58.4615L390.657 58.4615M358.114 88.6923V118.923M358.114 88.6923H390.657M358.114 118.923V149.154M358.114 118.923H390.657M358.114 149.154V179.385M358.114 149.154H390.657M358.114 179.385L358.114 209.615M358.114 179.385H390.657M358.114 209.615V239.846M358.114 209.615H390.657M358.114 239.846V270.077M358.114 239.846H390.657M358.114 270.077V300.308M358.114 270.077H390.657M358.114 300.308V330.538M358.114 300.308H390.657M358.114 330.538V360.769M358.114 330.538H390.657M358.114 360.769V391M358.114 360.769H390.657M358.114 391H390.657M455.743 -2V28.2308M455.743 -2H423.2M455.743 -2H488.286M455.743 28.2308V58.4615M455.743 28.2308H423.2M455.743 28.2308L488.286 28.2308M455.743 58.4615V88.6923M455.743 58.4615H423.2M455.743 58.4615H488.286M455.743 88.6923V118.923M455.743 88.6923L423.2 88.6923M455.743 88.6923H488.286M455.743 118.923V149.154M455.743 118.923H423.2M455.743 118.923H488.286M455.743 149.154V179.385M455.743 149.154H423.2M455.743 149.154H488.286M455.743 179.385V209.615M455.743 179.385L423.2 179.385M455.743 179.385H488.286M455.743 209.615V239.846M455.743 209.615L423.2 209.615M455.743 209.615H488.286M455.743 239.846V270.077M455.743 239.846L423.2 239.846M455.743 239.846H488.286M455.743 270.077V300.308M455.743 270.077H423.2M455.743 270.077H488.286M455.743 300.308V330.538M455.743 300.308L423.2 300.308M455.743 300.308H488.286M455.743 330.538V360.769M455.743 330.538L423.2 330.538M455.743 330.538H488.286M455.743 360.769V391M455.743 360.769L423.2 360.769M455.743 360.769H488.286M455.743 391H423.2M455.743 391H488.286M553.371 -2V28.2308M553.371 -2H520.828M553.371 -2H585.914M553.371 28.2308V58.4615M553.371 28.2308L520.828 28.2308M553.371 28.2308H585.914M553.371 58.4615V88.6923M553.371 58.4615H520.828M553.371 58.4615H585.914M553.371 88.6923V118.923M553.371 88.6923H520.828M553.371 88.6923L585.914 88.6923M553.371 118.923V149.154M553.371 118.923L520.828 118.923M553.371 118.923H585.914M553.371 149.154V179.385M553.371 149.154L520.828 149.154M553.371 149.154H585.914M553.371 179.385L553.371 209.615M553.371 179.385H520.828M553.371 179.385H585.914M553.371 209.615V239.846M553.371 209.615H520.828M553.371 209.615H585.914M553.371 239.846V270.077M553.371 239.846H520.828M553.371 239.846H585.914M553.371 270.077V300.308M553.371 270.077H520.828M553.371 270.077H585.914M553.371 300.308V330.538M553.371 300.308H520.828M553.371 300.308H585.914M553.371 330.538V360.769M553.371 330.538H520.828M553.371 330.538H585.914M553.371 360.769V391M553.371 360.769H520.828M553.371 360.769H585.914M553.371 391H520.828M553.371 391H585.914M390.657 -2V28.2308M390.657 -2H423.2M390.657 28.2308V58.4615M390.657 28.2308L423.2 28.2308M390.657 58.4615V88.6923M390.657 58.4615H423.2M390.657 88.6923V118.923M390.657 88.6923H423.2M390.657 118.923V149.154M390.657 118.923H423.2M390.657 149.154V179.385M390.657 149.154H423.2M390.657 179.385V209.615M390.657 179.385H423.2M390.657 209.615V239.846M390.657 209.615H423.2M390.657 239.846V270.077M390.657 239.846H423.2M390.657 270.077V300.308M390.657 270.077H423.2M390.657 300.308V330.538M390.657 300.308H423.2M390.657 330.538V360.769M390.657 330.538H423.2M390.657 360.769V391M390.657 360.769H423.2M390.657 391H423.2M488.286 -2V28.2308M488.286 -2H520.828M488.286 28.2308V58.4615M488.286 28.2308H520.828M488.286 58.4615V88.6923M488.286 58.4615L520.828 58.4615M488.286 88.6923V118.923M488.286 88.6923H520.828M488.286 118.923V149.154M488.286 118.923H520.828M488.286 149.154V179.385M488.286 149.154H520.828M488.286 179.385V209.615M488.286 179.385H520.828M488.286 209.615V239.846M488.286 209.615H520.828M488.286 239.846V270.077M488.286 239.846H520.828M488.286 270.077V300.308M488.286 270.077H520.828M488.286 300.308V330.538M488.286 300.308H520.828M488.286 330.538V360.769M488.286 330.538H520.828M488.286 360.769V391M488.286 360.769H520.828M488.286 391H520.828M585.914 -2V28.2308M585.914 -2H618.457M585.914 28.2308V58.4615M585.914 28.2308L618.457 28.2308M585.914 58.4615V88.6923M585.914 58.4615L618.457 58.4616M585.914 88.6923V118.923M585.914 88.6923H618.457M585.914 118.923V149.154M585.914 118.923H618.457M585.914 149.154V179.385M585.914 149.154H618.457M585.914 179.385V209.615M585.914 179.385H618.457M585.914 209.615V239.846M585.914 209.615H618.457M585.914 239.846V270.077M585.914 239.846H618.457M585.914 270.077V300.308M585.914 270.077H618.457M585.914 300.308V330.538M585.914 300.308H618.457M585.914 330.538V360.769M585.914 330.538H618.457M585.914 360.769V391M585.914 360.769H618.457M585.914 391H618.457M423.2 -2V28.2308M423.2 28.2308V58.4615M423.2 58.4615V88.6923M423.2 88.6923V118.923M423.2 118.923V149.154M423.2 149.154V179.385M423.2 179.385V209.615M423.2 209.615V239.846M423.2 239.846V270.077M423.2 270.077L423.2 300.308M423.2 300.308V330.538M423.2 330.538V360.769M423.2 360.769V391M520.828 -2V28.2308M520.828 28.2308V58.4615M520.828 58.4615V88.6923M520.828 88.6923V118.923M520.828 118.923V149.154M520.828 149.154V179.385M520.828 179.385V209.615M520.828 209.615V239.846M520.828 239.846V270.077M520.828 270.077V300.308M520.828 300.308V330.538M520.828 330.538V360.769M520.828 360.769V391M618.457 -2V28.2308M618.457 -2H651V391H618.457M618.457 28.2308V58.4616M618.457 28.2308H651M618.457 58.4616V88.6923M618.457 58.4616H651M618.457 88.6923V118.923M618.457 88.6923H651M618.457 118.923V149.154M618.457 118.923H651M618.457 149.154V179.385M618.457 149.154H651M618.457 179.385V209.615M618.457 179.385H651M618.457 209.615V239.846M618.457 209.615H651M618.457 239.846V270.077M618.457 239.846H651M618.457 270.077V300.308M618.457 270.077H651M618.457 300.308V330.538M618.457 300.308H651M618.457 330.538V360.769M618.457 330.538H651M618.457 360.769V391M618.457 360.769H651" stroke="url(#paint0_linear_101_5155)" stroke-opacity="0.8"/>
<defs>
<linearGradient id="paint0_linear_101_5155" x1="325" y1="-2" x2="324.997" y2="261" gradientUnits="userSpaceOnUse">
<stop stop-color="white" stop-opacity="0.15"/>
<stop offset="0.298407" stop-color="white" stop-opacity="0.05"/>
<stop offset="0.724954" stop-color="white" stop-opacity="0.05"/>
<stop offset="1" stop-color="white" stop-opacity="0.15"/>
</linearGradient>
</defs>
</svg>
