<svg width="36" height="28" viewBox="0 0 36 28" fill="none" xmlns="http://www.w3.org/2000/svg">
<path d="M19.369 0.500006C18.6084 -0.199994 17.4929 -0.199994 16.7831 0.500006C16.276 1.00001 16.1239 1.75001 16.3774 2.40001L16.0732 2.10001C15.3633 1.40001 14.1464 1.35001 13.4366 2.05001C12.7267 2.75001 12.7267 3.90001 13.4873 4.65001L12.5239 3.70001C11.6619 2.85001 10.3436 2.85001 9.48166 3.70001C8.67039 4.50001 8.67039 5.85001 9.48166 6.70001L3.75208 1.00001C2.83941 0.150006 1.47039 0.100006 0.608421 0.950006C-0.202846 1.80001 -0.202846 3.15001 0.659125 4.00001L10.8 14C10.8 14 9.02532 13.45 6.28729 13.4C4.05631 13.35 3.39715 15.4 3.24504 16.15C3.19434 16.3 3.29575 16.5 3.44786 16.55C4.05631 16.8 5.67884 17.45 8.51828 18.05C11.2056 18.6 15.8197 20.1 18.2028 20.9C19.1155 21.2 19.9774 21.75 20.6873 22.45L21.5493 23.3L31.2338 13.75L24.9972 6.05001L22.0056 3.10001L19.369 0.500006Z" fill="#FFE7D8"/>
<path d="M4.05633 2.25001C4.10703 2.20001 3.65069 1.75001 3.49858 1.60001C2.73802 0.85001 1.47041 0.60001 0.861959 1.25001C0.253508 1.90001 0.456325 3.10001 1.26759 3.90001C1.41971 4.05001 1.82534 4.45001 1.87604 4.40001L4.05633 2.25001Z" fill="#FFF9F9"/>
<path d="M7.19996 17.65L7.55489 16.35C7.30136 16.25 7.04784 16.15 6.69291 16.05C5.17179 15.65 3.80277 15.85 3.34644 16.45C3.90418 16.7 5.17179 17.2 7.19996 17.65Z" fill="#FFF9F9"/>
<path d="M32.3662 12.5899L20.4271 24.3631L22.7934 26.6966L34.7325 14.9233L32.3662 12.5899Z" fill="black"/>
<path d="M34.3267 23.65L31.5887 26.35C29.3577 28.55 25.7577 28.55 23.5267 26.35L23.3746 26.2L34.1746 15.5L34.3267 15.65C36.5577 17.9 36.5577 21.45 34.3267 23.65Z" fill="#FFDD00"/>
<path d="M32.6028 14.7C32.9577 15.05 32.9577 15.6 32.6028 16C32.2479 16.35 31.6901 16.35 31.2845 16C30.9296 15.65 30.9296 15.1 31.2845 14.7C31.6901 14.35 32.2479 14.35 32.6028 14.7Z" fill="white"/>
</svg>
