<svg width="52" height="52" viewBox="0 0 52 52" fill="none" xmlns="http://www.w3.org/2000/svg">
<g filter="url(#filter0_i_1_492)">
<circle cx="26" cy="26" r="19" fill="white"/>
</g>
<circle cx="26" cy="26" r="19" stroke="black" stroke-width="1.8"/>
<g filter="url(#filter1_d_1_492)">
<path d="M18.1403 36.1053C17.5228 36.1053 16.9939 35.8856 16.5538 35.4462C16.1144 35.0061 15.8947 34.4772 15.8947 33.8597V29.593C16.793 29.593 17.5789 29.3078 18.2526 28.7374C18.9263 28.1663 19.2631 27.441 19.2631 26.5615C19.2631 25.6819 18.9263 24.9566 18.2526 24.3855C17.5789 23.8151 16.793 23.5299 15.8947 23.5299V19.2632C15.8947 18.6457 16.1144 18.1172 16.5538 17.6778C16.9939 17.2377 17.5228 17.0176 18.1403 17.0176H22.6316C22.6316 16.2316 22.9029 15.5673 23.4456 15.0246C23.9883 14.4819 24.6526 14.2106 25.4386 14.2106C26.2245 14.2106 26.8889 14.4819 27.4316 15.0246C27.9742 15.5673 28.2456 16.2316 28.2456 17.0176H32.7368C33.3544 17.0176 33.8832 17.2377 34.3233 17.6778C34.7627 18.1172 34.9824 18.6457 34.9824 19.2632V23.7544C35.7684 23.7544 36.4327 24.0258 36.9754 24.5685C37.5181 25.1112 37.7895 25.7755 37.7895 26.5615C37.7895 27.3474 37.5181 28.0117 36.9754 28.5544C36.4327 29.0971 35.7684 29.3685 34.9824 29.3685V33.8597C34.9824 34.4772 34.7627 35.0061 34.3233 35.4462C33.8832 35.8856 33.3544 36.1053 32.7368 36.1053H28.4702C28.4702 35.2071 28.185 34.4211 27.6146 33.7474C27.0434 33.0737 26.3181 32.7369 25.4386 32.7369C24.559 32.7369 23.8337 33.0737 23.2626 33.7474C22.6922 34.4211 22.407 35.2071 22.407 36.1053H18.1403Z" fill="url(#paint0_linear_1_492)"/>
</g>
<defs>
<filter id="filter0_i_1_492" x="6.09998" y="6.09998" width="39.8" height="39.8" filterUnits="userSpaceOnUse" color-interpolation-filters="sRGB">
<feFlood flood-opacity="0" result="BackgroundImageFix"/>
<feBlend mode="normal" in="SourceGraphic" in2="BackgroundImageFix" result="shape"/>
<feColorMatrix in="SourceAlpha" type="matrix" values="0 0 0 0 0 0 0 0 0 0 0 0 0 0 0 0 0 0 127 0" result="hardAlpha"/>
<feOffset dx="-3" dy="-4"/>
<feComposite in2="hardAlpha" operator="arithmetic" k2="-1" k3="1"/>
<feColorMatrix type="matrix" values="0 0 0 0 0.5 0 0 0 0 0.5 0 0 0 0 0.5 0 0 0 0.25 0"/>
<feBlend mode="normal" in2="shape" result="effect1_innerShadow_1_492"/>
</filter>
<filter id="filter1_d_1_492" x="15.8947" y="14.2106" width="22.8947" height="22.8948" filterUnits="userSpaceOnUse" color-interpolation-filters="sRGB">
<feFlood flood-opacity="0" result="BackgroundImageFix"/>
<feColorMatrix in="SourceAlpha" type="matrix" values="0 0 0 0 0 0 0 0 0 0 0 0 0 0 0 0 0 0 127 0" result="hardAlpha"/>
<feOffset dx="1" dy="1"/>
<feComposite in2="hardAlpha" operator="out"/>
<feColorMatrix type="matrix" values="0 0 0 0 0.758333 0 0 0 0 0.8125 0 0 0 0 0.643229 0 0 0 1 0"/>
<feBlend mode="normal" in2="BackgroundImageFix" result="effect1_dropShadow_1_492"/>
<feBlend mode="normal" in="SourceGraphic" in2="effect1_dropShadow_1_492" result="shape"/>
</filter>
<linearGradient id="paint0_linear_1_492" x1="26.8421" y1="14.2106" x2="26.8421" y2="36.1053" gradientUnits="userSpaceOnUse">
<stop stop-color="#04FC65"/>
<stop offset="0.505208" stop-color="#CC64F6"/>
<stop offset="1" stop-color="#4A94E6"/>
</linearGradient>
</defs>
</svg>
