<svg width="32" height="32" viewBox="0 0 32 32" fill="none" xmlns="http://www.w3.org/2000/svg">
<g id="&#233;&#154;&#144;&#232;&#151;&#143;">
<path id="Vector" d="M6.57223 12C4.15938 14 2.66699 16 2.66699 16C2.66699 16 8.63653 24 16.0003 24C16.9136 24 17.8054 23.8769 18.667 23.6614M13.3549 8.33333C14.2099 8.12107 15.0946 8 16.0003 8C23.3641 8 29.3337 16 29.3337 16C29.3337 16 27.8413 18 25.4284 20" stroke="#9D9D9D" stroke-width="2" stroke-linecap="round" stroke-linejoin="round"/>
<path id="Vector_2" d="M13.5431 13.7471C12.9991 14.3403 12.667 15.1311 12.667 15.9995C12.667 17.8405 14.1594 19.3329 16.0003 19.3329C16.9088 19.3329 17.7324 18.9694 18.3337 18.38" stroke="#9D9D9D" stroke-width="2" stroke-linecap="round" stroke-linejoin="round"/>
<path id="Vector_3" d="M24.5717 24.5717L6.85742 6.85742" stroke="#9D9D9D" stroke-width="2" stroke-linecap="round" stroke-linejoin="round"/>
</g>
</svg>
