<svg width="60" height="60" viewBox="0 0 60 60" fill="none" xmlns="http://www.w3.org/2000/svg">
<path d="M15.0003 52.5001C13.6253 52.5001 12.4478 52.0101 11.4678 51.0301C10.4878 50.0501 9.99864 48.8734 10.0003 47.5001V25.0001C10.0003 24.2084 10.1778 23.4584 10.5328 22.7501C10.8878 22.0417 11.377 21.4584 12.0003 21.0001L27.0003 9.75006C27.4586 9.41673 27.9378 9.16673 28.4378 9.00006C28.9378 8.83339 29.4586 8.75006 30.0003 8.75006C30.542 8.75006 31.0628 8.83339 31.5628 9.00006C32.0628 9.16673 32.542 9.41673 33.0003 9.75006L48.0003 21.0001C48.6253 21.4584 49.1153 22.0417 49.4703 22.7501C49.8253 23.4584 50.002 24.2084 50.0003 25.0001V47.5001C50.0003 48.8751 49.5103 50.0526 48.5303 51.0326C47.5503 52.0126 46.3736 52.5017 45.0003 52.5001H35.0003V35.0001H25.0003V52.5001H15.0003Z" fill="#FEA021"/>
</svg>
