<svg width="49" height="48" viewBox="0 0 49 48" fill="none" xmlns="http://www.w3.org/2000/svg">
<mask id="mask0_848_5752" style="mask-type:luminance" maskUnits="userSpaceOnUse" x="4" y="4" width="41" height="40">
<path d="M39.5 6H9.5C8.70435 6 7.94129 6.31607 7.37868 6.87868C6.81607 7.44129 6.5 8.20435 6.5 9V39C6.5 39.7957 6.81607 40.5587 7.37868 41.1213C7.94129 41.6839 8.70435 42 9.5 42H39.5C40.2957 42 41.0587 41.6839 41.6213 41.1213C42.1839 40.5587 42.5 39.7957 42.5 39V9C42.5 8.20435 42.1839 7.44129 41.6213 6.87868C41.0587 6.31607 40.2957 6 39.5 6Z" fill="white" stroke="white" stroke-width="4" stroke-linecap="round" stroke-linejoin="round"/>
<path d="M21.4995 31L26.4995 35L34.4995 25M14.4995 15H34.4995M14.4995 23H22.4995" stroke="black" stroke-width="4" stroke-linecap="round" stroke-linejoin="round"/>
</mask>
<g mask="url(#mask0_848_5752)">
<path d="M0.5 0H48.5V48H0.5V0Z" fill="url(#paint0_linear_848_5752)"/>
</g>
<defs>
<linearGradient id="paint0_linear_848_5752" x1="24.5" y1="0" x2="24.5" y2="48" gradientUnits="userSpaceOnUse">
<stop stop-color="#6485F7"/>
<stop offset="1" stop-color="#13AAFF"/>
</linearGradient>
</defs>
</svg>
