<svg width="49" height="48" viewBox="0 0 49 48" fill="none" xmlns="http://www.w3.org/2000/svg">
<path d="M44.9492 33.1191V8.79989C44.9492 6.70127 43.2495 5 41.1529 5H7.74551C5.64889 5 3.94922 6.70127 3.94922 8.79989V33.1191C3.94922 35.2178 5.64882 36.9191 7.74551 36.919H18.7756L21.1521 41.0837L21.171 41.1164C22.6448 43.6423 26.2977 43.6242 27.7463 41.0837L30.1228 36.919H41.1529C43.2496 36.9191 44.9492 35.2178 44.9492 33.1191Z" fill="url(#paint0_linear_9557_4817)"/>
<path d="M18.2154 14.1992C16.8623 14.1992 15.7654 15.2961 15.7654 16.6492C15.7654 18.0023 16.8623 19.0992 18.2154 19.0992H31.282C32.1573 19.0992 32.9661 18.6323 33.4038 17.8743C34.3468 16.241 33.168 14.1993 31.282 14.1992H18.2154Z" fill="white"/>
<path d="M31.282 27.2659H18.2154C17.3401 27.2659 16.5313 26.7989 16.0936 26.0409C15.1506 24.4076 16.3294 22.3659 18.2154 22.3659H31.282C32.1573 22.3659 32.9661 22.8329 33.4038 23.5909C34.3468 25.2242 33.168 27.2659 31.282 27.2659Z" fill="white"/>
<defs>
<linearGradient id="paint0_linear_9557_4817" x1="24.4492" y1="5" x2="24.4492" y2="43" gradientUnits="userSpaceOnUse">
<stop stop-color="#B31AFF"/>
<stop offset="1" stop-color="#BF80FF"/>
</linearGradient>
</defs>
</svg>
