<svg width="49" height="48" viewBox="0 0 49 48" fill="none" xmlns="http://www.w3.org/2000/svg">
<path d="M12.25 16H36.25V8H40.2637C41.3597 8 42.25 8.89033 42.25 9.98633V42.0137C42.25 43.1097 41.3597 44 40.2637 44H8.23633C7.14033 44 6.25 43.1097 6.25 42.0137V9.98633C6.25 8.89033 7.14033 8 8.23633 8H12.25V16ZM29.8496 24.3994C29.0763 23.6267 27.8228 23.6273 27.0498 24.4004L24.25 27.2002L21.4502 24.4004C20.6772 23.6273 19.4236 23.6267 18.6504 24.3994C17.8772 25.1725 17.8763 26.427 18.6494 27.2002L21.4502 30L18.6504 32.7998C17.8771 33.573 17.8772 34.8264 18.6504 35.5996C19.4235 36.3727 20.677 36.3727 21.4502 35.5996L24.25 32.7998L27.0498 35.5996C27.823 36.3727 29.0765 36.3727 29.8496 35.5996C30.6227 34.8264 30.6228 33.5729 29.8496 32.7998L27.0498 30L29.8506 27.2002C30.6237 26.4269 30.6228 25.1725 29.8496 24.3994ZM32.25 12H16.25V4H32.25V12Z" fill="url(#paint0_linear_9557_4811)"/>
<defs>
<linearGradient id="paint0_linear_9557_4811" x1="24.25" y1="4" x2="24.25" y2="44" gradientUnits="userSpaceOnUse">
<stop stop-color="#33CC66"/>
<stop offset="1" stop-color="#36D987"/>
</linearGradient>
</defs>
</svg>
