<svg width="48" height="48" viewBox="0 0 48 48" fill="none" xmlns="http://www.w3.org/2000/svg">
<rect width="48" height="48" rx="24" fill="url(#paint0_linear_6318_9240)" fill-opacity="0.6"/>
<path d="M32.5326 11.5117C32.4731 11.5117 32.4171 11.5152 32.3611 11.5187H14.9661C14.9101 11.5152 14.8541 11.5117 14.7946 11.5117C12.7086 11.5117 11.0181 13.2022 11.0181 15.2847L11.0251 15.6837H11.0146V32.6867H11.0251L11.0216 33.0682V33.1032C11.0216 35.1612 12.6946 36.8342 14.7526 36.8342C14.8156 36.8342 14.8786 36.8307 14.9416 36.8272H32.2701L32.2876 36.8307C32.3681 36.8412 32.4556 36.8447 32.5501 36.8447C34.6081 36.8447 36.2811 35.1717 36.2811 33.1207V33.0717L36.2776 32.6902H36.3021V15.5157C36.3091 15.4387 36.3126 15.3652 36.3126 15.2882C36.3126 13.2057 34.6186 11.5117 32.5326 11.5117ZM22.8236 30.8212C22.6731 30.9717 22.4701 31.0557 22.2566 31.0557C22.0536 31.0557 21.8471 30.9787 21.6896 30.8212L17.2901 26.4462C16.4816 25.5432 16.9051 24.6892 17.2201 24.3777C17.5351 24.0627 18.4941 23.9507 19.1311 24.5877L22.2566 27.7202L28.6126 21.3642C29.2216 20.7587 30.0336 20.4052 30.8106 21.1122C31.3216 21.5742 31.3146 22.2322 30.8421 22.9042C30.5166 23.3697 22.8236 30.8212 22.8236 30.8212ZM34.3001 15.8097H13.0201V15.1867L13.0341 15.1482C13.0446 15.1167 13.0516 15.0852 13.0516 15.0572C13.0516 14.1437 14.0176 13.4017 15.2111 13.4017C15.2181 13.4017 15.2286 13.3982 15.2426 13.3982L15.2601 13.3947H32.0321L32.0566 13.3982C32.0706 13.4017 32.0881 13.4017 32.1056 13.4017C33.2991 13.4017 34.2686 14.1437 34.2686 15.0572C34.2686 15.0817 34.2757 15.1062 34.2826 15.1342L34.2931 15.1692V15.8097H34.3001Z" fill="url(#paint1_linear_6318_9240)"/>
<defs>
<linearGradient id="paint0_linear_6318_9240" x1="24" y1="0" x2="24" y2="48" gradientUnits="userSpaceOnUse">
<stop stop-color="#E6FFF6"/>
<stop offset="1" stop-color="#82FFBB"/>
</linearGradient>
<linearGradient id="paint1_linear_6318_9240" x1="23.6636" y1="11.5117" x2="23.6636" y2="36.8447" gradientUnits="userSpaceOnUse">
<stop stop-color="#7BFFDF"/>
<stop offset="1" stop-color="#2AD8AE"/>
</linearGradient>
</defs>
</svg>
