<svg width="48" height="48" viewBox="0 0 48 48" fill="none" xmlns="http://www.w3.org/2000/svg">
<rect width="48" height="48" rx="24" fill="url(#paint0_linear_6318_9224)"/>
<path d="M33.518 37.2492H14.6348C12.438 37.2492 10.6572 35.4684 10.6572 33.2716V18.5516C10.6572 17.998 10.774 17.4508 11.0012 16.9468L12.8876 12.7468C13.2078 12.0332 13.7276 11.4274 14.3842 11.0025C15.0408 10.5775 15.8063 10.3514 16.5884 10.3516H31.5916C33.1948 10.3516 34.6492 11.2956 35.2988 12.7628L37.1596 16.9532C37.382 17.454 37.4972 17.9948 37.4972 18.5436V33.2732C37.4956 35.4684 35.7148 37.2492 33.518 37.2492Z" fill="#FFAC3E"/>
<path d="M31.5924 10.3516H16.5892C14.9924 10.3516 13.5428 11.2892 12.8884 12.7468L11.002 16.9468C10.8071 17.3817 10.6932 17.8485 10.666 18.3244H37.4916C37.466 17.8508 37.354 17.3868 37.1604 16.9532L35.2996 12.7628C34.9811 12.0454 34.4613 11.4358 33.8033 11.0078C33.1453 10.5798 32.3773 10.3519 31.5924 10.3516Z" fill="#FF7C0E"/>
<path d="M27.563 31.3696C27.2334 31.3696 26.9038 31.2432 26.6542 30.9904C26.5359 30.8711 26.4422 30.7297 26.3785 30.5741C26.3149 30.4186 26.2825 30.252 26.2832 30.084C26.284 29.9159 26.3178 29.7497 26.3828 29.5947C26.4479 29.4397 26.5428 29.2991 26.6622 29.1808L29.2686 26.5968L26.6622 24.0128C26.1598 23.5152 26.1566 22.704 26.6542 22.2032C27.1518 21.7008 27.963 21.6976 28.4638 22.1952L31.9886 25.688C32.2318 25.928 32.3678 26.256 32.3678 26.5968C32.3678 26.9376 32.2318 27.2656 31.9886 27.5056L28.4638 30.9984C28.2246 31.2366 27.9006 31.3701 27.563 31.3696Z" fill="#F7F8F8"/>
<path d="M30.352 27.8764H17.7888C17.0816 27.8764 16.5088 27.3036 16.5088 26.5964C16.5088 25.8892 17.0816 25.3164 17.7888 25.3164H30.3504C31.0576 25.3164 31.6304 25.8892 31.6304 26.5964C31.6304 27.3036 31.0576 27.8764 30.352 27.8764Z" fill="#F7F8F8"/>
<defs>
<linearGradient id="paint0_linear_6318_9224" x1="24" y1="0" x2="24" y2="48" gradientUnits="userSpaceOnUse">
<stop stop-color="#FFF7EB"/>
<stop offset="1" stop-color="#FEC167"/>
</linearGradient>
</defs>
</svg>
