<svg width="49" height="48" viewBox="0 0 49 48" fill="none" xmlns="http://www.w3.org/2000/svg">
<path d="M42.2281 9.70778C42.8403 10.4256 43.1992 11.3333 43.1992 12.3889V38.7778C43.1992 39.8976 42.7544 40.9715 41.9626 41.7633C41.1707 42.5552 40.0968 43 38.977 43H9.42144C8.30164 43 7.2277 42.5552 6.43588 41.7633C5.64406 40.9715 5.19922 39.8976 5.19922 38.7778V12.3889C5.19922 11.3333 5.55811 10.4256 6.17033 9.70778L9.08366 6.16111C9.67477 5.44333 10.5403 5 11.5326 5H36.8659C37.8581 5 38.7237 5.44333 39.2937 6.16111L42.2281 9.70778ZM9.67477 9.22222H38.7026L36.7181 7.11111H11.3848L9.67477 9.22222ZM24.1992 18.7222L12.5881 30.3333H19.977V34.5556H28.4214V30.3333H35.8103L24.1992 18.7222Z" fill="url(#paint0_linear_6499_6199)"/>
<defs>
<linearGradient id="paint0_linear_6499_6199" x1="24.1992" y1="5" x2="24.1992" y2="43" gradientUnits="userSpaceOnUse">
<stop stop-color="#FF661A"/>
<stop offset="1" stop-color="#FFBF80"/>
</linearGradient>
</defs>
</svg>
