<svg width="49" height="48" viewBox="0 0 49 48" fill="none" xmlns="http://www.w3.org/2000/svg">
<g clip-path="url(#clip0_6499_6193)">
<path d="M44.3984 12H30.3984C27.2158 12 24.1636 13.2643 21.9132 15.5147C19.6627 17.7652 18.3984 20.8174 18.3984 24C18.3984 27.1826 19.6627 30.2348 21.9132 32.4853C24.1636 34.7357 27.2158 36 30.3984 36H44.3984V40C44.3984 40.5304 44.1877 41.0391 43.8127 41.4142C43.4376 41.7893 42.9289 42 42.3984 42H6.39844C5.868 42 5.3593 41.7893 4.98422 41.4142C4.60915 41.0391 4.39844 40.5304 4.39844 40V8C4.39844 7.46957 4.60915 6.96086 4.98422 6.58579C5.3593 6.21071 5.868 6 6.39844 6H42.3984C42.9289 6 43.4376 6.21071 43.8127 6.58579C44.1877 6.96086 44.3984 7.46957 44.3984 8V12ZM30.3984 16H46.3984V32H30.3984C28.2767 32 26.2419 31.1571 24.7416 29.6569C23.2413 28.1566 22.3984 26.1217 22.3984 24C22.3984 21.8783 23.2413 19.8434 24.7416 18.3431C26.2419 16.8429 28.2767 16 30.3984 16ZM30.3984 22V26H36.3984V22H30.3984Z" fill="url(#paint0_linear_6499_6193)"/>
</g>
<defs>
<linearGradient id="paint0_linear_6499_6193" x1="25.3984" y1="6" x2="25.3984" y2="42" gradientUnits="userSpaceOnUse">
<stop stop-color="#FF211A"/>
<stop offset="1" stop-color="#FF9980"/>
</linearGradient>
<clipPath id="clip0_6499_6193">
<rect width="48" height="48" fill="white" transform="translate(0.398438)"/>
</clipPath>
</defs>
</svg>
