<svg width="49" height="48" viewBox="0 0 49 48" fill="none" xmlns="http://www.w3.org/2000/svg">
<path d="M24.75 44C13.7043 44 4.75 35.0456 4.75 24C4.75 12.9543 13.7043 4 24.75 4C35.7956 4 44.75 12.9543 44.75 24C44.75 35.0456 35.7956 44 24.75 44ZM26.75 24V16C26.75 14.8954 25.8546 14 24.75 14C23.6454 14 22.75 14.8954 22.75 16V26C22.75 27.1046 23.6454 28 24.75 28H32.75C33.8546 28 34.75 27.1046 34.75 26C34.75 24.8954 33.8546 24 32.75 24H26.75Z" fill="url(#paint0_linear_9557_4826)"/>
<defs>
<linearGradient id="paint0_linear_9557_4826" x1="24.75" y1="4" x2="24.75" y2="44" gradientUnits="userSpaceOnUse">
<stop stop-color="#FF211A"/>
<stop offset="1" stop-color="#FF9980"/>
</linearGradient>
</defs>
</svg>
