<svg width="49" height="48" viewBox="0 0 49 48" fill="none" xmlns="http://www.w3.org/2000/svg">
<path d="M44.9961 33.1191V8.79989C44.9961 6.70127 43.2964 5 41.1998 5H7.79239C5.69576 5 3.99609 6.70127 3.99609 8.79989V33.1191C3.99609 35.2178 5.69569 36.9191 7.79239 36.919H18.8225L21.199 41.0837L21.2179 41.1164C22.6916 43.6423 26.3446 43.6242 27.7932 41.0837L30.1697 36.919H41.1998C43.2965 36.9191 44.9961 35.2178 44.9961 33.1191Z" fill="url(#paint0_linear_6499_6207)"/>
<path d="M18.2622 14.1992C16.9092 14.1992 15.8122 15.2961 15.8122 16.6492C15.8122 18.0023 16.9092 19.0992 18.2622 19.0992H31.3289C32.2042 19.0992 33.013 18.6323 33.4506 17.8743C34.3937 16.241 33.2149 14.1993 31.3289 14.1992H18.2622Z" fill="white"/>
<path d="M31.3289 27.2659H18.2622C17.3869 27.2659 16.5781 26.7989 16.1405 26.0409C15.1975 24.4076 16.3762 22.3659 18.2622 22.3659H31.3289C32.2042 22.3659 33.013 22.8329 33.4507 23.5909C34.3937 25.2242 33.2149 27.2659 31.3289 27.2659Z" fill="white"/>
<defs>
<linearGradient id="paint0_linear_6499_6207" x1="24.4961" y1="5" x2="24.4961" y2="43" gradientUnits="userSpaceOnUse">
<stop stop-color="#B31AFF"/>
<stop offset="1" stop-color="#BF80FF"/>
</linearGradient>
</defs>
</svg>
