<svg width="48" height="48" viewBox="0 0 48 48" fill="none" xmlns="http://www.w3.org/2000/svg">
<path d="M44.0093 14H4.00928V8C4.00928 7.46957 4.21999 6.96086 4.59506 6.58579C4.97014 6.21071 5.47884 6 6.00928 6H42.0093C42.5397 6 43.0484 6.21071 43.4235 6.58579C43.7986 6.96086 44.0093 7.46957 44.0093 8V14ZM44.0093 18V40C44.0093 40.5304 43.7986 41.0391 43.4235 41.4142C43.0484 41.7893 42.5397 42 42.0093 42H6.00928C5.47884 42 4.97014 41.7893 4.59506 41.4142C4.21999 41.0391 4.00928 40.5304 4.00928 40V18H44.0093ZM22.0093 28V23L13.0093 32H34.0093V28H22.0093Z" fill="url(#paint0_linear_848_5761)"/>
<defs>
<linearGradient id="paint0_linear_848_5761" x1="24.0093" y1="6" x2="24.0093" y2="42" gradientUnits="userSpaceOnUse">
<stop stop-color="#00CF3A"/>
<stop offset="1" stop-color="#00E016"/>
</linearGradient>
</defs>
</svg>
