<svg width="49" height="48" viewBox="0 0 49 48" fill="none" xmlns="http://www.w3.org/2000/svg">
<rect x="0.5" width="48" height="48" rx="24" fill="url(#paint0_linear_6318_9245)"/>
<path d="M34.4419 37.2492H15.5587C13.3619 37.2492 11.5811 35.4684 11.5811 33.2716V18.5516C11.5811 17.998 11.6979 17.4508 11.9251 16.9468L13.8115 12.7468C14.1317 12.0332 14.6514 11.4274 15.308 11.0025C15.9646 10.5775 16.7301 10.3514 17.5123 10.3516H32.5155C34.1187 10.3516 35.5731 11.2956 36.2227 12.7628L38.0835 16.9532C38.3059 17.454 38.4211 17.9948 38.4211 18.5436V33.2732C38.4195 35.4684 36.6387 37.2492 34.4419 37.2492Z" fill="#5297FF"/>
<path d="M32.5137 10.3516H17.5105C15.9137 10.3516 14.4641 11.2892 13.8097 12.7468L11.9249 16.9468C11.7299 17.3817 11.616 17.8485 11.5889 18.3244H38.4145C38.3889 17.8508 38.2769 17.3868 38.0833 16.9532L36.2225 12.7628C35.9038 12.0452 35.3838 11.4354 34.7255 11.0074C34.0672 10.5794 33.2989 10.3516 32.5137 10.3516Z" fill="#0E60FF"/>
<path d="M21.83 28.3547C21.6628 28.3551 21.4972 28.3225 21.3427 28.2588C21.1881 28.1951 21.0476 28.1016 20.9292 27.9836L18.1116 25.1915C17.8684 24.9515 17.7324 24.6235 17.7324 24.2828C17.7324 23.942 17.8684 23.6139 18.1116 23.3739L20.9292 20.5819C21.4316 20.0843 22.2428 20.0875 22.7388 20.5899C22.8572 20.7093 22.9509 20.8507 23.0145 21.0063C23.0782 21.1618 23.1106 21.3284 23.1098 21.4964C23.1091 21.6645 23.0752 21.8307 23.0102 21.9857C22.9452 22.1407 22.8502 22.2813 22.7308 22.3995L20.8316 24.2828L22.7308 26.1659C23.2332 26.6635 23.2364 27.4747 22.7388 27.9755C22.6201 28.0959 22.4786 28.1915 22.3226 28.2566C22.1665 28.3217 21.9991 28.3551 21.83 28.3547Z" fill="#F7F8F8"/>
<path d="M28.1245 33.0512H20.3901C19.6829 33.0512 19.1101 32.4784 19.1101 31.7712C19.1101 31.064 19.6829 30.4912 20.3901 30.4912H28.1261C29.4861 30.4912 30.5917 29.3856 30.5917 28.0256C30.5917 26.6656 29.4861 25.56 28.1261 25.56H18.9821C18.2749 25.56 17.7021 24.9872 17.7021 24.28C17.7021 23.5728 18.2749 23 18.9821 23H28.1261C30.8973 23 33.1517 25.2544 33.1517 28.0256C33.1501 30.7968 30.8957 33.0512 28.1245 33.0512Z" fill="#F7F8F8"/>
<defs>
<linearGradient id="paint0_linear_6318_9245" x1="24.5" y1="0" x2="24.5" y2="48" gradientUnits="userSpaceOnUse">
<stop stop-color="#EBF5FF"/>
<stop offset="1" stop-color="#93D1FF"/>
</linearGradient>
</defs>
</svg>
