<svg width="49" height="48" viewBox="0 0 49 48" fill="none" xmlns="http://www.w3.org/2000/svg">
<path d="M6.4 7C4.66094 7 3.25 8.42773 3.25 10.1875V31.4375C3.25 33.1973 4.66094 34.625 6.4 34.625H7.45C7.45 38.1445 10.2719 41 13.75 41C17.2281 41 20.05 38.1445 20.05 34.625H28.45C28.45 38.1445 31.2719 41 34.75 41C38.2281 41 41.05 38.1445 41.05 34.625H43.15C44.3116 34.625 45.25 33.6754 45.25 32.5C45.25 31.3246 44.3116 30.375 43.15 30.375V22.7582C43.15 21.6293 42.7103 20.5469 41.9228 19.75L36.85 14.6168C36.0625 13.8199 34.9928 13.375 33.8772 13.375H30.55V10.1875C30.55 8.42773 29.1391 7 27.4 7H6.4ZM30.55 17.625H33.8772L38.95 22.7582V24H30.55V17.625ZM10.6 34.625C10.6 33.7796 10.9319 32.9689 11.5226 32.3711C12.1134 31.7733 12.9146 31.4375 13.75 31.4375C14.5854 31.4375 15.3866 31.7733 15.9774 32.3711C16.5681 32.9689 16.9 33.7796 16.9 34.625C16.9 35.4704 16.5681 36.2811 15.9774 36.8789C15.3866 37.4767 14.5854 37.8125 13.75 37.8125C12.9146 37.8125 12.1134 37.4767 11.5226 36.8789C10.9319 36.2811 10.6 35.4704 10.6 34.625ZM34.75 31.4375C35.5854 31.4375 36.3866 31.7733 36.9774 32.3711C37.5681 32.9689 37.9 33.7796 37.9 34.625C37.9 35.4704 37.5681 36.2811 36.9774 36.8789C36.3866 37.4767 35.5854 37.8125 34.75 37.8125C33.9146 37.8125 33.1134 37.4767 32.5226 36.8789C31.9319 36.2811 31.6 35.4704 31.6 34.625C31.6 33.7796 31.9319 32.9689 32.5226 32.3711C33.1134 31.7733 33.9146 31.4375 34.75 31.4375Z" fill="url(#paint0_linear_6733_2162)"/>
<defs>
<linearGradient id="paint0_linear_6733_2162" x1="24.25" y1="7" x2="24.25" y2="41" gradientUnits="userSpaceOnUse">
<stop stop-color="#1A9FFF"/>
<stop offset="1" stop-color="#80DFFF"/>
</linearGradient>
</defs>
</svg>
