<svg width="48" height="48" viewBox="0 0 48 48" fill="none" xmlns="http://www.w3.org/2000/svg">
<path d="M6.15 7C4.41094 7 3 8.42773 3 10.1875V31.4375C3 33.1973 4.41094 34.625 6.15 34.625H7.2C7.2 38.1445 10.0219 41 13.5 41C16.9781 41 19.8 38.1445 19.8 34.625H28.2C28.2 38.1445 31.0219 41 34.5 41C37.9781 41 40.8 38.1445 40.8 34.625H42.9C44.0616 34.625 45 33.6754 45 32.5C45 31.3246 44.0616 30.375 42.9 30.375V22.7582C42.9 21.6293 42.4603 20.5469 41.6728 19.75L36.6 14.6168C35.8125 13.8199 34.7428 13.375 33.6272 13.375H30.3V10.1875C30.3 8.42773 28.8891 7 27.15 7H6.15ZM30.3 17.625H33.6272L38.7 22.7582V24H30.3V17.625ZM10.35 34.625C10.35 33.7796 10.6819 32.9689 11.2726 32.3711C11.8634 31.7733 12.6646 31.4375 13.5 31.4375C14.3354 31.4375 15.1366 31.7733 15.7274 32.3711C16.3181 32.9689 16.65 33.7796 16.65 34.625C16.65 35.4704 16.3181 36.2811 15.7274 36.8789C15.1366 37.4767 14.3354 37.8125 13.5 37.8125C12.6646 37.8125 11.8634 37.4767 11.2726 36.8789C10.6819 36.2811 10.35 35.4704 10.35 34.625ZM34.5 31.4375C35.3354 31.4375 36.1366 31.7733 36.7274 32.3711C37.3181 32.9689 37.65 33.7796 37.65 34.625C37.65 35.4704 37.3181 36.2811 36.7274 36.8789C36.1366 37.4767 35.3354 37.8125 34.5 37.8125C33.6646 37.8125 32.8634 37.4767 32.2726 36.8789C31.6819 36.2811 31.35 35.4704 31.35 34.625C31.35 33.7796 31.6819 32.9689 32.2726 32.3711C32.8634 31.7733 33.6646 31.4375 34.5 31.4375Z" fill="url(#paint0_linear_6499_6203)"/>
<defs>
<linearGradient id="paint0_linear_6499_6203" x1="24" y1="7" x2="24" y2="41" gradientUnits="userSpaceOnUse">
<stop stop-color="#1A9FFF"/>
<stop offset="1" stop-color="#80DFFF"/>
</linearGradient>
</defs>
</svg>
