<svg width="30" height="30" viewBox="0 0 30 30" fill="none" xmlns="http://www.w3.org/2000/svg">
<g clip-path="url(#clip0_10754_1686)">
<rect opacity="0.4" width="30" height="30" rx="15" fill="black"/>
<path d="M15 16.2776L10.5285 20.749C10.3612 20.9163 10.1483 21 9.88973 21C9.63118 21 9.41825 20.9163 9.25095 20.749C9.08365 20.5817 9 20.3688 9 20.1103C9 19.8517 9.08365 19.6388 9.25095 19.4715L13.7224 15L9.25095 10.5285C9.08365 10.3612 9 10.1483 9 9.88973C9 9.63118 9.08365 9.41825 9.25095 9.25095C9.41825 9.08365 9.63118 9 9.88973 9C10.1483 9 10.3612 9.08365 10.5285 9.25095L15 13.7224L19.4715 9.25095C19.6388 9.08365 19.8517 9 20.1103 9C20.3688 9 20.5817 9.08365 20.749 9.25095C20.9163 9.41825 21 9.63118 21 9.88973C21 10.1483 20.9163 10.3612 20.749 10.5285L16.2776 15L20.749 19.4715C20.9163 19.6388 21 19.8517 21 20.1103C21 20.3688 20.9163 20.5817 20.749 20.749C20.5817 20.9163 20.3688 21 20.1103 21C19.8517 21 19.6388 20.9163 19.4715 20.749L15 16.2776Z" fill="white"/>
</g>
<defs>
<clipPath id="clip0_10754_1686">
<rect width="30" height="30" fill="white"/>
</clipPath>
</defs>
</svg>
