<svg width="100" height="100" viewBox="0 0 100 100" fill="none" xmlns="http://www.w3.org/2000/svg">
<circle cx="50" cy="50" r="49" fill="#FEA021" stroke="black" stroke-width="2"/>
<path d="M49.8367 79.9371C47.0546 79.9371 44.8011 77.6839 44.8011 74.9013C44.8011 72.1196 47.0546 69.8663 49.8367 69.8663C52.619 69.8663 54.8726 72.1196 54.8726 74.9013C54.8726 77.6839 52.619 79.9371 49.8367 79.9371ZM49.8367 63.4805C47.9929 63.4805 46.4969 60.4914 46.4969 56.8006L43.1567 26.742C43.1567 23.0514 46.146 20.0623 49.8367 20.0623C53.5275 20.0623 56.5167 23.0513 56.5167 26.742L53.176 56.8006C53.176 60.4914 51.6804 63.4805 49.8367 63.4805Z" fill="white"/>
</svg>
