<svg width="49" height="48" viewBox="0 0 49 48" fill="none" xmlns="http://www.w3.org/2000/svg">
<g clip-path="url(#clip0_6499_6904)">
<path d="M10.4941 6H39.0021C39.3177 5.99996 39.6288 6.07459 39.91 6.2178C40.1912 6.36102 40.4346 6.56874 40.6201 6.824L48.2661 17.336C48.402 17.523 48.469 17.7514 48.4555 17.9822C48.442 18.2131 48.3489 18.4321 48.1921 18.602L25.4821 43.204C25.3022 43.3985 25.0524 43.5136 24.7877 43.5241C24.523 43.5346 24.2649 43.4396 24.0701 43.26C24.0561 43.248 16.4701 35.03 1.30411 18.602C1.14732 18.4321 1.05426 18.2131 1.04077 17.9822C1.02728 17.7514 1.09419 17.523 1.23011 17.336L8.87611 6.824C9.06167 6.56874 9.305 6.36102 9.58622 6.2178C9.86743 6.07459 10.1785 5.99996 10.4941 6ZM11.5141 10L5.91411 17.7L24.7481 38.1L43.5821 17.7L37.9821 10H11.5141Z" fill="#585654"/>
</g>
<defs>
<clipPath id="clip0_6499_6904">
<rect width="48" height="48" fill="white" transform="translate(0.75)"/>
</clipPath>
</defs>
</svg>
