<svg width="27" height="27" viewBox="0 0 27 27" fill="none" xmlns="http://www.w3.org/2000/svg">
<path d="M13.3333 26.6667C5.96953 26.6667 0 20.6971 0 13.3333C0 5.96953 5.96953 0 13.3333 0C20.6971 0 26.6667 5.96953 26.6667 13.3333C26.6667 20.6971 20.6971 26.6667 13.3333 26.6667ZM13.3333 24C19.2244 24 24 19.2244 24 13.3333C24 7.44229 19.2244 2.66667 13.3333 2.66667C7.44229 2.66667 2.66667 7.44229 2.66667 13.3333C2.66667 19.2244 7.44229 24 13.3333 24ZM12 6.66667H14.6667V9.33333H12V6.66667ZM12 12H14.6667V20H12V12Z" fill="white"/>
</svg>
