<svg width="49" height="48" viewBox="0 0 49 48" fill="none" xmlns="http://www.w3.org/2000/svg">
<path d="M4.75 44C4.75 35.1634 11.9134 28 20.75 28C29.5866 28 36.75 35.1634 36.75 44H32.75C32.75 37.3726 27.3774 32 20.75 32C14.1226 32 8.75 37.3726 8.75 44H4.75ZM20.75 26C14.12 26 8.75 20.63 8.75 14C8.75 7.37 14.12 2 20.75 2C27.38 2 32.75 7.37 32.75 14C32.75 20.63 27.38 26 20.75 26ZM20.75 22C25.17 22 28.75 18.42 28.75 14C28.75 9.58 25.17 6 20.75 6C16.33 6 12.75 9.58 12.75 14C12.75 18.42 16.33 22 20.75 22ZM37.3174 29.4056C42.8788 31.9122 46.75 37.504 46.75 44H42.75C42.75 39.128 39.8466 34.9342 35.6756 33.0542L37.3174 29.4056ZM35.9424 6.82642C39.9388 8.47406 42.75 12.4072 42.75 17C42.75 22.7404 38.3584 27.4504 32.75 27.9552V23.9292C36.1434 23.4444 38.75 20.528 38.75 17C38.75 14.2387 37.1532 11.8521 34.832 10.7127L35.9424 6.82642Z" fill="#585654"/>
</svg>
