<svg width="40" height="40" viewBox="0 0 40 40" fill="none" xmlns="http://www.w3.org/2000/svg">
<path d="M10.1523 19.9985V13.5243C10.1716 12.2517 10.4417 10.9954 10.9473 9.82739C11.4529 8.65937 12.184 7.6026 13.0987 6.7176C14.0134 5.83263 15.0938 5.13682 16.2779 4.67008C17.4619 4.20334 18.7265 3.97483 19.999 3.99765C21.2716 3.97483 22.5362 4.20334 23.7202 4.67008C24.9043 5.13682 25.9847 5.83263 26.8994 6.7176C27.8141 7.6026 28.5453 8.65937 29.0509 9.82739C29.5563 10.9954 29.8266 12.2517 29.8458 13.5243V19.9985" stroke="#585654" stroke-width="3.5" stroke-linecap="round" stroke-linejoin="round"/>
<path d="M6.4607 16.3066H8.92238C9.24882 16.3066 9.56189 16.4363 9.7927 16.6672C10.0235 16.898 10.1532 17.211 10.1532 17.5375V24.9225C10.1532 25.249 10.0235 25.562 9.7927 25.7928C9.56189 26.0237 9.24882 26.1533 8.92238 26.1533H6.4607C5.80781 26.1533 5.18169 25.894 4.72003 25.4323C4.25838 24.9707 3.99902 24.3446 3.99902 23.6917V18.7683C3.99902 18.1154 4.25838 17.4893 4.72003 17.0276C5.18169 16.566 5.80781 16.3066 6.4607 16.3066Z" stroke="#585654" stroke-width="3.5" stroke-linecap="round" stroke-linejoin="round"/>
<path d="M33.5387 26.1533H31.077C30.7506 26.1533 30.4375 26.0237 30.2066 25.7928C29.9759 25.562 29.8462 25.249 29.8462 24.9225V17.5375C29.8462 17.211 29.9759 16.898 30.2066 16.6672C30.4375 16.4363 30.7506 16.3066 31.077 16.3066H33.5387C34.1915 16.3066 34.8178 16.566 35.2794 17.0276C35.7409 17.4893 36.0004 18.1154 36.0004 18.7683V23.6917C36.0004 24.3446 35.7409 24.9707 35.2794 25.4323C34.8178 25.894 34.1915 26.1533 33.5387 26.1533Z" stroke="#585654" stroke-width="3.5" stroke-linecap="round" stroke-linejoin="round"/>
<path d="M24.9229 32.9231C26.2286 32.9231 27.4808 32.4044 28.4042 31.481C29.3275 30.5576 29.8462 29.3054 29.8462 27.9997V22.4609" stroke="#585654" stroke-width="3.5" stroke-linecap="round" stroke-linejoin="round"/>
<path d="M24.9239 32.9228C24.9239 33.7388 24.5997 34.5217 24.0226 35.0987C23.4455 35.6757 22.6629 35.9999 21.8468 35.9999H18.1542C17.3381 35.9999 16.5555 35.6757 15.9784 35.0987C15.4014 34.5217 15.0771 33.7388 15.0771 32.9228C15.0771 32.1068 15.4014 31.3239 15.9784 30.7469C16.5555 30.1699 17.3381 29.8457 18.1542 29.8457H21.8468C22.6629 29.8457 23.4455 30.1699 24.0226 30.7469C24.5997 31.3239 24.9239 32.1068 24.9239 32.9228Z" stroke="#585654" stroke-width="3.5" stroke-linecap="round" stroke-linejoin="round"/>
</svg>
