<svg width="48" height="48" viewBox="0 0 48 48" fill="none" xmlns="http://www.w3.org/2000/svg">
<path d="M11.9062 23.5638V15.8993C11.929 14.3927 12.2488 12.9054 12.8474 11.5226C13.4459 10.1398 14.3115 8.88875 15.3944 7.84103C16.4772 6.79335 17.7562 5.96961 19.158 5.41705C20.5598 4.8645 22.0569 4.59397 23.5634 4.62098C25.0699 4.59397 26.567 4.8645 27.9687 5.41705C29.3705 5.96961 30.6495 6.79335 31.7324 7.84103C32.8154 8.88875 33.6809 10.1398 34.2795 11.5226C34.8778 12.9054 35.1978 14.3927 35.2205 15.8993V23.5638" stroke="#585654" stroke-width="2.5" stroke-linecap="round" stroke-linejoin="round"/>
<path d="M7.53538 19.1924H10.4497C10.8361 19.1924 11.2068 19.3459 11.48 19.6192C11.7533 19.8924 11.9068 20.2631 11.9068 20.6495V29.3924C11.9068 29.7788 11.7533 30.1495 11.48 30.4227C11.2068 30.696 10.8361 30.8495 10.4497 30.8495H7.53538C6.76245 30.8495 6.0212 30.5425 5.47467 29.996C4.92813 29.4494 4.62109 28.7082 4.62109 27.9352V22.1067C4.62109 21.3337 4.92813 20.5925 5.47467 20.0459C6.0212 19.4994 6.76245 19.1924 7.53538 19.1924Z" stroke="#585654" stroke-width="2.5" stroke-linecap="round" stroke-linejoin="round"/>
<path d="M39.5941 30.8495H36.6798C36.2934 30.8495 35.9227 30.696 35.6493 30.4227C35.3762 30.1495 35.2227 29.7788 35.2227 29.3924V20.6495C35.2227 20.2631 35.3762 19.8924 35.6493 19.6192C35.9227 19.3459 36.2934 19.1924 36.6798 19.1924H39.5941C40.367 19.1924 41.1083 19.4994 41.6548 20.0459C42.2012 20.5925 42.5084 21.3337 42.5084 22.1067V27.9352C42.5084 28.7082 42.2012 29.4494 41.6548 29.996C41.1083 30.5425 40.367 30.8495 39.5941 30.8495Z" stroke="#585654" stroke-width="2.5" stroke-linecap="round" stroke-linejoin="round"/>
<path d="M29.3945 38.8642C30.9404 38.8642 32.4228 38.2502 33.5159 37.157C34.6091 36.0639 35.2231 34.5814 35.2231 33.0357V26.4785" stroke="#585654" stroke-width="2.5" stroke-linecap="round" stroke-linejoin="round"/>
<path d="M29.3915 38.8645C29.3915 39.8306 29.0077 40.7574 28.3245 41.4405C27.6414 42.1236 26.7148 42.5074 25.7487 42.5074H21.3772C20.4111 42.5074 19.4845 42.1236 18.8014 41.4405C18.1182 40.7574 17.7344 39.8306 17.7344 38.8645C17.7344 37.8985 18.1182 36.9717 18.8014 36.2886C19.4845 35.6055 20.4111 35.2217 21.3772 35.2217H25.7487C26.7148 35.2217 27.6414 35.6055 28.3245 36.2886C29.0077 36.9717 29.3915 37.8985 29.3915 38.8645Z" stroke="#585654" stroke-width="2.5" stroke-linecap="round" stroke-linejoin="round"/>
</svg>
