<svg width="60" height="60" viewBox="0 0 60 60" fill="none" xmlns="http://www.w3.org/2000/svg">
<circle cx="30" cy="30" r="30" fill="white"/>
<g clip-path="url(#clip0_142_727)">
<path d="M30.1935 12.6758L33.4433 13.4226C33.0396 15.1182 33.8268 16.6927 36.128 18.3277C41.4771 22.1428 42.7286 24.3026 41.2147 29.0866C40.3266 31.8924 41.3964 32.9218 45.1509 32.9218V36.2322C39.398 36.2322 36.35 33.3659 38.0456 28.0975C39.0347 25.0293 38.4897 24.121 34.1902 21.0326C30.8798 18.6709 29.4466 15.8247 30.1935 12.6758Z" fill="#505050"/>
<path d="M15.1334 26.6841C13.5791 34.8996 18.9686 42.8325 27.1841 44.3868C29.6871 44.8712 32.2507 44.7098 34.6729 43.9225C33.7444 41.7627 32.7351 41.2984 30.8377 41.3388C30.6157 41.3388 30.4138 41.359 29.9899 41.3792C26.74 41.581 25.105 41.1773 23.5709 38.8358C21.8552 36.2319 22.4002 34.3546 24.4591 31.9727L24.7013 31.6901C26.2354 29.9138 26.3767 29.3688 25.2665 27.754C24.015 25.9574 23.3287 25.8565 20.7046 26.6034C18.242 27.3099 16.6675 27.4714 15.1334 26.6841ZM16.1628 23.3535C17.0106 23.9995 17.7575 23.9591 19.7761 23.3939C23.6113 22.3039 25.751 22.5865 28.0319 25.8565C30.2321 29.0256 29.6669 31.1249 27.2447 33.9105L27.0025 34.1931C25.8115 35.5657 25.6904 35.9694 26.3767 36.9989C27.0428 38.0284 27.608 38.1697 29.7679 38.0284C30.2321 38.0082 30.4542 37.988 30.7368 37.988C33.9463 37.8871 36.1667 39.0982 37.7209 42.5499C44.907 38.2908 47.2889 29.0055 43.0297 21.7992C38.7706 14.593 29.4651 12.2313 22.2791 16.4905C19.5742 18.0851 17.4345 20.4872 16.1628 23.3535ZM30.0101 48C19.776 48 11.5 39.7239 11.5 29.5101C11.5 19.2962 19.776 11 30.0101 11C40.2441 11 48.5202 19.276 48.5202 29.5101C48.5202 39.7441 40.2239 48 30.0101 48Z" fill="#505050"/>
</g>
<defs>
<clipPath id="clip0_142_727">
<rect width="37" height="37" fill="white" transform="translate(11.5 11)"/>
</clipPath>
</defs>
</svg>
