<svg width="96" height="96" viewBox="0 0 96 96" fill="none" xmlns="http://www.w3.org/2000/svg">
<g filter="url(#filter0_bd_5207_9023)">
<path d="M65.502 38.4138C65.502 45.7073 62.6046 52.702 57.4474 57.8593C52.2901 63.0165 45.2954 65.9138 38.002 65.9138C34.3906 65.9138 30.8146 65.2025 27.4782 63.8205C24.1417 62.4385 21.1101 60.4129 18.5565 57.8593C13.3993 52.702 10.502 45.7073 10.502 38.4138C10.502 31.1204 13.3993 24.1256 18.5565 18.9684C23.7138 13.8111 30.7085 10.9138 38.002 10.9138C41.6133 10.9138 45.1893 11.6251 48.5257 13.0071C51.8622 14.3891 54.8938 16.4148 57.4474 18.9684C60.001 21.522 62.0266 24.5536 63.4086 27.89C64.7906 31.2265 65.502 34.8025 65.502 38.4138ZM43.502 27.078C43.502 26.1871 42.4248 25.741 41.7948 26.3709L30.4591 37.7067C30.0685 38.0972 30.0685 38.7304 30.4591 39.1209L41.7948 50.4567C42.4248 51.0867 43.502 50.6405 43.502 49.7496V27.078Z" fill="#F5F8FF" fill-opacity="0.6" shape-rendering="crispEdges"/>
</g>
<defs>
<filter id="filter0_bd_5207_9023" x="-9.49805" y="-9.08618" width="105" height="105" filterUnits="userSpaceOnUse" color-interpolation-filters="sRGB">
<feFlood flood-opacity="0" result="BackgroundImageFix"/>
<feGaussianBlur in="BackgroundImageFix" stdDeviation="10"/>
<feComposite in2="SourceAlpha" operator="in" result="effect1_backgroundBlur_5207_9023"/>
<feColorMatrix in="SourceAlpha" type="matrix" values="0 0 0 0 0 0 0 0 0 0 0 0 0 0 0 0 0 0 127 0" result="hardAlpha"/>
<feOffset dx="10" dy="10"/>
<feGaussianBlur stdDeviation="10"/>
<feComposite in2="hardAlpha" operator="out"/>
<feColorMatrix type="matrix" values="0 0 0 0 0.470833 0 0 0 0 0.470833 0 0 0 0 0.470833 0 0 0 0.1 0"/>
<feBlend mode="normal" in2="effect1_backgroundBlur_5207_9023" result="effect2_dropShadow_5207_9023"/>
<feBlend mode="normal" in="SourceGraphic" in2="effect2_dropShadow_5207_9023" result="shape"/>
</filter>
</defs>
</svg>
