<svg width="60" height="32" viewBox="0 0 60 32" fill="none" xmlns="http://www.w3.org/2000/svg">
<path opacity="0.48" d="M6.75 13.5455C6.75 14.0977 7.19772 14.5455 7.75 14.5455H10.0574C10.8706 14.5455 11.3438 15.4646 10.8712 16.1265L7.06386 21.4594C6.49852 22.2512 5.25 21.8513 5.25 20.8783V18.4545C5.25 17.9023 4.80228 17.4545 4.25 17.4545H1.94265C1.12938 17.4545 0.656229 16.5354 1.12878 15.8735L4.93614 10.5406C5.50148 9.74878 6.75 10.1487 6.75 11.1217V13.5455Z" fill="white"/>
<path opacity="0.64" d="M25.5625 12.8182C25.5625 13.3705 26.0102 13.8182 26.5625 13.8182H31.1196C31.9207 13.8182 32.3966 14.7131 31.9488 15.3772L25.2666 25.2873C24.715 26.1054 23.4375 25.7149 23.4375 24.7282V19.1818C23.4375 18.6295 22.9898 18.1818 22.4375 18.1818H17.8804C17.0793 18.1818 16.6034 17.2869 17.0512 16.6228L23.7334 6.71271C24.285 5.89462 25.5625 6.28508 25.5625 7.27178V12.8182Z" fill="white"/>
<path opacity="0.72" d="M49.9375 12.0909C49.9375 12.6432 50.3852 13.0909 50.9375 13.0909H58.1041C58.9083 13.0909 59.3835 13.9919 58.9295 14.6556L48.8878 29.3322C48.3326 30.1436 47.0625 29.7507 47.0625 28.7675V19.9091C47.0625 19.3568 46.6148 18.9091 46.0625 18.9091H38.8959C38.0917 18.9091 37.6165 18.0081 38.0705 17.3444L48.1122 2.66782C48.6674 1.85638 49.9375 2.2493 49.9375 3.2325V12.0909Z" fill="white"/>
</svg>
