<svg width="32" height="32" viewBox="0 0 32 32" fill="none" xmlns="http://www.w3.org/2000/svg">
<g clip-path="url(#clip0_1_202)">
<path fill-rule="evenodd" clip-rule="evenodd" d="M23.2267 4C23.6596 3.99996 24.086 4.10531 24.469 4.30695C24.8521 4.50859 25.1803 4.80045 25.4253 5.15733L25.5413 5.344L29.9867 13.12C30.2581 13.5946 30.377 14.1412 30.3274 14.6857C30.2778 15.2302 30.062 15.7462 29.7093 16.164L29.5573 16.328L17.18 28.7053C16.8897 28.9956 16.5025 29.1685 16.0926 29.1909C15.6826 29.2132 15.2789 29.0836 14.9587 28.8267L14.8227 28.7067L2.44535 16.328C2.05871 15.9415 1.80019 15.4456 1.7048 14.9073C1.6094 14.369 1.68174 13.8145 1.91201 13.3187L2.01601 13.1187L6.46001 5.34267C6.6748 4.96677 6.97787 4.64881 7.34306 4.41628C7.70824 4.18374 8.12455 4.04361 8.55601 4.008L8.77335 4H23.2267ZM9.72401 12.3907C9.47405 12.6407 9.33363 12.9798 9.33363 13.3333C9.33363 13.6869 9.47405 14.026 9.72401 14.276L14.8213 19.3733C14.9761 19.5281 15.1599 19.651 15.3621 19.7347C15.5643 19.8185 15.7811 19.8616 16 19.8616C16.2189 19.8616 16.4357 19.8185 16.6379 19.7347C16.8402 19.651 17.0239 19.5281 17.1787 19.3733L22.276 14.276C22.4034 14.153 22.5049 14.0059 22.5748 13.8432C22.6447 13.6805 22.6815 13.5056 22.683 13.3285C22.6846 13.1515 22.6508 12.9759 22.5838 12.8121C22.5167 12.6482 22.4177 12.4993 22.2925 12.3741C22.1673 12.249 22.0185 12.1499 21.8546 12.0829C21.6908 12.0159 21.5152 11.9821 21.3381 11.9837C21.1611 11.9852 20.9861 12.022 20.8235 12.0919C20.6608 12.1617 20.5137 12.2633 20.3907 12.3907L16 16.7813L11.6093 12.3907C11.3593 12.1407 11.0202 12.0003 10.6667 12.0003C10.3131 12.0003 9.97405 12.1407 9.72401 12.3907Z" fill="black"/>
</g>
<defs>
<clipPath id="clip0_1_202">
<rect width="32" height="32" fill="white"/>
</clipPath>
</defs>
</svg>
