<svg width="272" height="194" viewBox="0 0 272 194" fill="none" xmlns="http://www.w3.org/2000/svg">
<g clip-path="url(#clip0_419_1584)">
<g opacity="0.6">
<path d="M22.8586 237.959C22.8586 231.499 17.6423 226.262 11.2076 226.262C4.77295 226.262 -0.443364 231.499 -0.443364 237.959C-0.443363 244.419 4.77295 249.656 11.2077 249.656C17.6423 249.656 22.8586 244.419 22.8586 237.959Z" fill="#FFF1D9"/>
<path d="M21.4841 190.356C18.5016 185.688 12.5332 183.681 7.24465 185.869C1.29508 188.329 -1.54108 195.166 0.909955 201.139C3.36099 207.112 10.171 209.96 16.1206 207.499C20.2606 205.787 22.8931 201.955 23.2856 197.771C23.3288 197.399 23.3529 197.024 23.3569 196.645C23.3805 194.357 22.6827 192.179 21.4841 190.356Z" fill="#FFF1D9"/>
<path d="M72.1738 200.264C69.9755 210.092 61.2263 216.596 51.671 215.551C41.8959 214.477 34.5243 206.296 34.5243 196.512C34.5243 186.728 41.8959 178.547 51.671 177.473C61.2263 176.414 69.9755 182.932 72.1738 192.76C72.3204 192.907 72.4707 193.055 72.621 193.202C72.7712 193.349 72.9213 193.496 73.0678 193.643L73.0678 193.671L73.0825 193.643C74.4454 184.668 79.5748 178.812 88.0603 175.428C77.0541 170.19 71.7342 161.804 74.548 149.577C76.5265 140.97 83.6783 135.143 92.6034 133.966C101.558 132.775 108.827 137.292 115.114 148.091C118.133 140.043 123.878 135.188 132.29 133.113C121.606 129.964 115.759 121.357 117.151 111.308C118.455 101.906 126.692 94.9029 136.335 94.9617C145.802 95.0205 153.965 102.156 155.152 111.426C156.457 121.49 150.521 130.185 139.955 133.084C148.382 135.246 154.127 139.984 157.146 148.135C162.143 137.586 169.998 132.318 181.605 134.319C190.076 135.776 196.422 142.412 198.166 150.872C199.25 156.139 198.371 161.083 195.762 165.717C193.212 170.264 189.285 173.28 184.141 175.355C192.421 178.488 197.199 184.197 199.309 192.746C200.701 187.346 203.325 183.344 207.56 180.504C211.795 177.665 216.485 176.723 221.438 177.547C230.92 179.136 237.515 187.39 237.31 197.145C237.12 206.355 230.071 214.345 221.014 215.61C210.989 217.008 202.445 211.137 199.294 200.426C197.213 208.798 192.48 214.565 184.302 217.64C195.528 223.172 200.862 231.75 197.492 244.095C195.059 252.996 188.567 258.146 179.524 258.999C168.884 259.985 161.586 254.673 157.204 244.683C153.804 253.276 147.942 258.469 138.988 259.823C139.063 259.899 139.138 259.975 139.213 260.052L139.412 260.256C139.558 260.407 139.706 260.559 139.852 260.706C149.642 262.913 156.12 271.697 155.079 281.29C154.009 291.103 145.861 298.504 136.115 298.504C126.369 298.504 118.221 291.103 117.151 281.29C116.096 271.697 122.588 262.913 132.378 260.706L132.437 260.647C132.503 260.58 132.568 260.513 132.634 260.446L132.817 260.258C132.964 260.107 133.111 259.955 133.257 259.808C124.332 258.455 118.499 253.29 115.099 244.757C109.633 256.189 100.913 261.574 88.4559 257.999C79.78 255.512 75.0609 248.965 73.8592 239.99C72.6868 231.221 76.9368 224.511 87.987 217.596C79.6334 214.271 74.4308 208.386 73.0825 199.381L73.0678 199.353L73.0678 199.381C72.9212 199.528 72.7709 199.676 72.6207 199.823C72.4705 199.97 72.3203 200.117 72.1738 200.264Z" fill="#FFF1D9"/>
<path d="M159.549 113.809C159.813 103.922 168.049 95.9769 177.736 96.227C187.585 96.4919 195.499 104.761 195.249 114.486C194.986 124.373 186.749 132.318 177.062 132.068C167.214 131.804 159.3 123.535 159.549 113.809Z" fill="#FFF1D9"/>
<path d="M200.306 154.727C200.056 164.452 207.97 172.721 217.819 172.986C227.506 173.236 235.742 165.291 236.006 155.403C236.255 145.678 228.341 137.409 218.493 137.144C208.806 136.894 200.569 144.839 200.306 154.727Z" fill="#FFF1D9"/>
<path d="M235.903 237.915C235.933 247.758 227.931 255.806 218.126 255.792C208.307 255.777 200.32 247.699 200.393 237.871C200.467 228.101 208.307 220.215 218.038 220.127C227.828 220.039 235.874 228.057 235.903 237.915Z" fill="#FFF1D9"/>
<path d="M112.593 114.118C112.564 104.26 104.518 96.2418 94.7284 96.33C84.88 96.4036 76.9368 104.511 77.0687 114.324C77.2006 124.123 85.0852 131.965 94.8017 131.98C104.621 132.01 112.623 123.961 112.593 114.118Z" fill="#FFF1D9"/>
<path d="M71.0747 155.109C71.0601 164.967 63.2341 172.721 53.371 172.662C43.6985 172.603 36.0045 164.791 36.0191 155.021C36.0338 145.163 43.8597 137.409 53.7228 137.468C63.3953 137.527 71.0893 145.34 71.0747 155.109Z" fill="#FFF1D9"/>
<path d="M177.179 297.003C187.057 297.077 194.898 289.338 194.927 279.495C194.956 269.71 187.277 261.883 177.619 261.809C167.741 261.736 159.901 269.475 159.871 279.318C159.842 289.102 167.522 296.93 177.179 297.003Z" fill="#FFF1D9"/>
<path d="M53.3124 255.512C43.6985 255.438 36.0045 247.537 36.0631 237.783C36.1217 228.013 44.0649 220.274 53.928 220.392C63.5125 220.509 71.148 228.484 71.0454 238.253C70.9428 247.891 63.0436 255.586 53.3124 255.512Z" fill="#FFF1D9"/>
<path d="M112.329 279.406C112.329 269.696 104.577 261.868 94.919 261.839C85.2171 261.809 77.3912 269.563 77.3472 279.244C77.3032 288.985 84.9973 296.871 94.6258 296.944C104.46 297.018 112.329 289.22 112.329 279.406Z" fill="#FFF1D9"/>
<path d="M217.921 127.198C222.291 127.198 226.157 125.034 228.514 121.714C229.622 120.208 230.407 118.445 230.759 116.517C230.819 116.202 230.846 115.907 230.838 115.624C230.893 115.14 230.92 114.647 230.92 114.148C230.92 106.94 225.101 101.097 217.921 101.097C210.742 101.097 204.922 106.94 204.922 114.148C204.922 121.355 210.742 127.198 217.921 127.198Z" fill="#FFF1D9"/>
<path d="M228.502 272.3C226.011 268.71 222.494 267.018 218.522 266.782L218.522 266.797C214.007 266.765 210.076 268.959 207.778 272.405C205.991 274.64 204.922 277.479 204.922 280.569C204.922 287.776 210.742 293.619 217.921 293.619C225.101 293.619 230.92 287.776 230.92 280.569C230.92 279.345 230.753 278.16 230.439 277.037C230.475 275.672 229.819 274.217 228.502 272.3Z" fill="#FFF1D9"/>
<path d="M260.626 185.143C260.24 185.08 259.856 185.037 259.474 185.013C259.289 184.987 259.082 184.979 258.848 184.991C253.193 184.944 248.195 189.044 247.264 194.821C246.236 201.199 250.552 207.205 256.904 208.236C263.256 209.268 269.239 204.935 270.266 198.558C271.294 192.181 266.978 186.174 260.626 185.143Z" fill="#FFF1D9"/>
<path d="M144.057 66.6931C145.44 68.0808 146.402 69.7305 146.944 71.4829C147.625 71.8713 147.678 72.645 147.443 74.1679C147.663 77.421 146.534 80.7485 144.057 83.2351C139.507 87.8031 132.13 87.8031 127.58 83.2352C123.03 78.6672 123.03 71.2611 127.58 66.6931C132.13 62.1252 139.507 62.1252 144.057 66.6931Z" fill="#FFF1D9"/>
<path d="M146.769 317.47C148.855 323.315 146.013 329.832 140.235 332.222C134.286 334.683 127.475 331.835 125.024 325.862C122.573 319.889 125.41 313.052 131.359 310.592C132.804 309.994 134.299 309.71 135.771 309.707C135.9 309.702 136.029 309.7 136.159 309.701C140.99 309.713 145.37 313.091 146.769 317.47Z" fill="#FFF1D9"/>
<path d="M11.2076 143.368C17.6423 143.368 22.8586 148.605 22.8586 155.065C22.8586 161.525 17.6423 166.762 11.2076 166.762C4.77295 166.762 -0.443367 161.525 -0.443367 155.065C-0.443367 148.605 4.77295 143.368 11.2076 143.368Z" fill="#FFF1D9"/>
<path d="M263.014 226.568C256.752 225.078 250.474 228.967 248.99 235.253C247.507 241.539 251.38 247.842 257.641 249.331C263.903 250.821 270.181 246.932 271.665 240.646C273.148 234.36 269.275 228.057 263.014 226.568Z" fill="#FFF1D9"/>
<path d="M248.987 152.359C250.471 146.073 256.749 142.185 263.011 143.674C269.272 145.163 273.145 151.467 271.662 157.753C270.178 164.039 263.899 167.927 257.638 166.438C251.377 164.948 247.504 158.645 248.987 152.359Z" fill="#FFF1D9"/>
<path d="M104.474 74.9665C104.474 68.5064 99.2579 63.2695 92.8232 63.2695C86.3885 63.2695 81.1722 68.5064 81.1722 74.9665C81.1722 81.4266 86.3885 86.6635 92.8232 86.6635C99.2579 86.6635 104.474 81.4266 104.474 74.9665Z" fill="#FFF1D9"/>
<path d="M177.399 63.2695C183.834 63.2695 189.05 68.5064 189.05 74.9665C189.05 81.4266 183.834 86.6635 177.399 86.6635C170.965 86.6635 165.748 81.4266 165.748 74.9665C165.748 68.5064 170.964 63.2695 177.399 63.2695Z" fill="#FFF1D9"/>
<path d="M92.8233 309.715C99.2579 309.715 104.474 314.952 104.474 321.412C104.474 327.872 99.2579 333.109 92.8233 333.109C86.3886 333.109 81.1722 327.872 81.1722 321.412C81.1722 314.952 86.3886 309.715 92.8233 309.715Z" fill="#FFF1D9"/>
<path d="M189.05 321.412C189.05 314.952 183.834 309.715 177.399 309.715C170.965 309.715 165.748 314.952 165.748 321.412C165.748 327.872 170.965 333.109 177.399 333.109C183.834 333.109 189.05 327.872 189.05 321.412Z" fill="#FFF1D9"/>
<path d="M53.7081 101.097C60.8874 101.097 66.7074 106.94 66.7074 114.148C66.7074 121.355 60.8874 127.198 53.7081 127.198C46.5288 127.198 40.7088 121.355 40.7088 114.148C40.7088 106.94 46.5288 101.097 53.7081 101.097Z" fill="#FFF1D9"/>
<path d="M66.7074 279.23C66.7074 272.022 60.8874 266.179 53.7081 266.179C46.5288 266.179 40.7088 272.022 40.7088 279.23C40.7088 286.437 46.5288 292.28 53.7081 292.28C60.8874 292.28 66.7074 286.437 66.7074 279.23Z" fill="#FFF1D9"/>
</g>
</g>
<defs>
<clipPath id="clip0_419_1584">
<rect width="272" height="194" fill="white"/>
</clipPath>
</defs>
</svg>
