<svg width="32" height="32" viewBox="0 0 32 32" fill="none" xmlns="http://www.w3.org/2000/svg">
<path d="M14.667 22.029C14.667 22.3811 14.9524 22.6665 15.3045 22.6665H16.6962C17.0482 22.6665 17.3337 22.3811 17.3337 22.029V15.304C17.3337 14.9519 17.0482 14.6665 16.6962 14.6665H15.3045C14.9524 14.6665 14.667 14.9519 14.667 15.304V22.029ZM16.0003 11.9998C16.3781 11.9998 16.695 11.8718 16.951 11.6158C17.207 11.3598 17.3345 11.0434 17.3337 10.6665C17.3337 10.2887 17.2057 9.97184 16.9497 9.71584C16.6937 9.45984 16.3772 9.33228 16.0003 9.33317C15.6225 9.33317 15.3057 9.46117 15.0497 9.71717C14.7937 9.97317 14.6661 10.2896 14.667 10.6665C14.667 11.0443 14.795 11.3612 15.051 11.6172C15.307 11.8732 15.6234 12.0007 16.0003 11.9998ZM16.0003 29.3332C14.1559 29.3332 12.4225 28.9829 10.8003 28.2825C9.1781 27.5821 7.76699 26.6323 6.56699 25.4332C5.36699 24.2332 4.41721 22.8221 3.71766 21.1998C3.0181 19.5776 2.66788 17.8443 2.66699 15.9998C2.66699 14.1554 3.01721 12.4221 3.71766 10.7998C4.4181 9.17762 5.36788 7.7665 6.56699 6.5665C7.76699 5.3665 9.1781 4.41673 10.8003 3.71717C12.4225 3.01762 14.1559 2.66739 16.0003 2.6665C17.8448 2.6665 19.5781 3.01673 21.2003 3.71717C22.8225 4.41762 24.2337 5.36739 25.4337 6.5665C26.6337 7.7665 27.5839 9.17762 28.2843 10.7998C28.9848 12.4221 29.3345 14.1554 29.3337 15.9998C29.3337 17.8443 28.9834 19.5776 28.283 21.1998C27.5825 22.8221 26.6328 24.2332 25.4337 25.4332C24.2337 26.6332 22.8225 27.5834 21.2003 28.2838C19.5781 28.9843 17.8448 29.3341 16.0003 29.3332ZM16.0003 26.6665C18.9781 26.6665 21.5003 25.6332 23.567 23.5665C25.6337 21.4998 26.667 18.9776 26.667 15.9998C26.667 13.0221 25.6337 10.4998 23.567 8.43317C21.5003 6.3665 18.9781 5.33317 16.0003 5.33317C13.0225 5.33317 10.5003 6.3665 8.43366 8.43317C6.36699 10.4998 5.33366 13.0221 5.33366 15.9998C5.33366 18.9776 6.36699 21.4998 8.43366 23.5665C10.5003 25.6332 13.0225 26.6665 16.0003 26.6665Z" fill="white"/>
</svg>
