<svg xmlns="http://www.w3.org/2000/svg" width="32" height="32" viewBox="0 0 32 32" fill="none">
  <path d="M14.6665 22.029C14.6665 22.3811 14.9519 22.6665 15.304 22.6665H16.6957C17.0478 22.6665 17.3332 22.3811 17.3332 22.029V15.304C17.3332 14.9519 17.0478 14.6665 16.6957 14.6665H15.304C14.9519 14.6665 14.6665 14.9519 14.6665 15.304V22.029ZM15.9998 11.9998C16.3776 11.9998 16.6945 11.8718 16.9505 11.6158C17.2065 11.3598 17.3341 11.0434 17.3332 10.6665C17.3332 10.2887 17.2052 9.97184 16.9492 9.71584C16.6932 9.45984 16.3767 9.33228 15.9998 9.33317C15.6221 9.33317 15.3052 9.46117 15.0492 9.71717C14.7932 9.97317 14.6656 10.2896 14.6665 10.6665C14.6665 11.0443 14.7945 11.3612 15.0505 11.6172C15.3065 11.8732 15.6229 12.0007 15.9998 11.9998ZM15.9998 29.3332C14.1554 29.3332 12.4221 28.9829 10.7998 28.2825C9.17762 27.5821 7.7665 26.6323 6.5665 25.4332C5.3665 24.2332 4.41673 22.8221 3.71717 21.1998C3.01762 19.5776 2.66739 17.8443 2.6665 15.9998C2.6665 14.1554 3.01673 12.4221 3.71717 10.7998C4.41762 9.17762 5.36739 7.7665 6.5665 6.5665C7.7665 5.3665 9.17762 4.41673 10.7998 3.71717C12.4221 3.01762 14.1554 2.66739 15.9998 2.6665C17.8443 2.6665 19.5776 3.01673 21.1998 3.71717C22.8221 4.41762 24.2332 5.36739 25.4332 6.5665C26.6332 7.7665 27.5834 9.17762 28.2838 10.7998C28.9843 12.4221 29.3341 14.1554 29.3332 15.9998C29.3332 17.8443 28.9829 19.5776 28.2825 21.1998C27.5821 22.8221 26.6323 24.2332 25.4332 25.4332C24.2332 26.6332 22.8221 27.5834 21.1998 28.2838C19.5776 28.9843 17.8443 29.3341 15.9998 29.3332ZM15.9998 26.6665C18.9776 26.6665 21.4998 25.6332 23.5665 23.5665C25.6332 21.4998 26.6665 18.9776 26.6665 15.9998C26.6665 13.0221 25.6332 10.4998 23.5665 8.43317C21.4998 6.3665 18.9776 5.33317 15.9998 5.33317C13.0221 5.33317 10.4998 6.3665 8.43317 8.43317C6.3665 10.4998 5.33317 13.0221 5.33317 15.9998C5.33317 18.9776 6.3665 21.4998 8.43317 23.5665C10.4998 25.6332 13.0221 26.6665 15.9998 26.6665Z" fill="#FF8812"/>
</svg>