<svg width="32" height="32" viewBox="0 0 32 32" fill="none" xmlns="http://www.w3.org/2000/svg">
<path d="M21.9974 4C26.0475 4 29.3307 7.33333 29.3307 12C29.3307 21.3333 19.3307 26.6667 15.9974 28.6667C12.6641 26.6667 2.66406 21.3333 2.66406 12C2.66406 7.33333 5.9974 4 9.9974 4C12.4774 4 14.6641 5.33333 15.9974 6.66667C17.3307 5.33333 19.5174 4 21.9974 4ZM17.2426 24.8051C18.4181 24.0647 19.4774 23.3273 20.4706 22.5372C24.4423 19.3773 26.6641 15.9247 26.6641 12C26.6641 8.85435 24.6147 6.66667 21.9974 6.66667C20.5629 6.66667 19.0098 7.42548 17.883 8.55228L15.9974 10.4379L14.1118 8.55228C12.985 7.42548 11.4319 6.66667 9.9974 6.66667C7.40948 6.66667 5.33073 8.87533 5.33073 12C5.33073 15.9247 7.55242 19.3773 11.5242 22.5372C12.5174 23.3273 13.5767 24.0647 14.7522 24.8051C15.1502 25.0559 15.5455 25.2972 15.9974 25.5669C16.4493 25.2972 16.8446 25.0559 17.2426 24.8051Z" fill="#999999"/>
</svg>
