<svg width="32" height="32" viewBox="0 0 32 32" fill="none" xmlns="http://www.w3.org/2000/svg">
<path d="M22.0001 4C26.0502 4 29.3334 7.33333 29.3334 12C29.3334 21.3333 19.3334 26.6667 16.0001 28.6667C12.6667 26.6667 2.66675 21.3333 2.66675 12C2.66675 7.33333 6.00008 4 10.0001 4C12.48 4 14.6667 5.33333 16.0001 6.66667C17.3334 5.33333 19.5201 4 22.0001 4ZM17.2453 24.8051C18.4207 24.0647 19.4801 23.3273 20.4733 22.5372C24.445 19.3773 26.6667 15.9247 26.6667 12C26.6667 8.85435 24.6174 6.66667 22.0001 6.66667C20.5655 6.66667 19.0125 7.42548 17.8857 8.55228L16.0001 10.4379L14.1145 8.55228C12.9877 7.42548 11.4346 6.66667 10.0001 6.66667C7.41216 6.66667 5.33341 8.87533 5.33341 12C5.33341 15.9247 7.55511 19.3773 11.5269 22.5372C12.5201 23.3273 13.5794 24.0647 14.7549 24.8051C15.1529 25.0559 15.5482 25.2972 16.0001 25.5669C16.4519 25.2972 16.8473 25.0559 17.2453 24.8051Z" fill="#EF6C74"/>
<path d="M17.2453 24.8051C18.4207 24.0647 19.4801 23.3273 20.4733 22.5372C24.445 19.3773 26.6667 15.9247 26.6667 12C26.6667 8.85435 24.6174 6.66667 22.0001 6.66667C20.5655 6.66667 19.0125 7.42548 17.8857 8.55228L16.0001 10.4379L14.1145 8.55228C12.9877 7.42548 11.4346 6.66667 10.0001 6.66667C7.41216 6.66667 5.33341 8.87533 5.33341 12C5.33341 15.9247 7.55511 19.3773 11.5269 22.5372C12.5201 23.3273 13.5794 24.0647 14.7549 24.8051C15.1529 25.0559 15.5482 25.2972 16.0001 25.5669C16.4519 25.2972 16.8473 25.0559 17.2453 24.8051Z" fill="#EF6C74"/>
</svg>
