<svg width="32" height="32" viewBox="0 0 32 32" fill="none" xmlns="http://www.w3.org/2000/svg">
<path d="M24.4844 20.7131L22.5988 18.8275L24.4844 16.9419C27.0879 14.3384 27.0879 10.1173 24.4844 7.51383C21.8809 4.91032 17.6597 4.91032 15.0563 7.51383L13.1707 9.39944L11.2851 7.51383L13.1707 5.6282C16.8156 1.98331 22.7251 1.98331 26.37 5.6282C30.0149 9.27309 30.0149 15.1826 26.37 18.8275L24.4844 20.7131ZM20.7131 24.4844L18.8275 26.37C15.1827 30.0148 9.27309 30.0148 5.6282 26.37C1.98331 22.7251 1.98331 16.8155 5.6282 13.1707L7.51381 11.2851L9.39944 13.1707L7.51381 15.0563C4.91032 17.6598 4.91032 21.8808 7.51381 24.4844C10.1173 27.0879 14.3384 27.0879 16.9419 24.4844L18.8275 22.5987L20.7131 24.4844ZM19.7703 10.3423L21.656 12.2279L12.2279 21.6559L10.3422 19.7703L19.7703 10.3423Z" fill="#FF8812"/>
</svg>
