<svg width="113" height="116" viewBox="0 0 113 116" fill="none" xmlns="http://www.w3.org/2000/svg">
<g filter="url(#filter0_d_28_810)">
<path fill-rule="evenodd" clip-rule="evenodd" d="M35.8333 41.5157C35.8275 37.2523 37.3783 33.1334 40.1944 29.9325C43.0106 26.7316 46.8984 24.6687 51.1278 24.1314C55.3572 23.5941 59.6373 24.6192 63.1644 27.0143C66.6915 29.4094 69.2229 33.0097 70.2833 37.1391C70.4635 37.7644 70.8804 38.2948 71.4454 38.6176C72.0104 38.9404 72.679 39.0302 73.3092 38.8679C73.9394 38.7056 74.4814 38.3039 74.8201 37.7483C75.1589 37.1927 75.2677 36.5269 75.1233 35.8924C73.7578 30.5861 70.5028 25.9604 65.9692 22.8833C61.4356 19.8062 55.935 18.4891 50.4993 19.1792C45.0637 19.8694 40.0668 22.5193 36.446 26.6317C32.8252 30.7442 30.8295 36.0365 30.8333 41.5157V48.3657C27.1167 48.6424 24.7 49.3424 22.93 51.1124C20 54.0391 20 58.7557 20 68.1824C20 77.6091 20 82.3257 22.93 85.2524C25.8567 88.1824 30.5733 88.1824 40 88.1824H66.6667C76.0933 88.1824 80.81 88.1824 83.7367 85.2524C86.6667 82.3257 86.6667 77.6091 86.6667 68.1824C86.6667 58.7557 86.6667 54.0391 83.7367 51.1124C80.81 48.1824 76.0933 48.1824 66.6667 48.1824H40C38.4933 48.1824 37.11 48.1824 35.8333 48.1957V41.5157ZM60 68.1824C60 69.9505 59.2976 71.6462 58.0474 72.8965C56.7971 74.1467 55.1014 74.8491 53.3333 74.8491C51.5652 74.8491 49.8695 74.1467 48.6193 72.8965C47.369 71.6462 46.6667 69.9505 46.6667 68.1824C46.6667 66.4143 47.369 64.7186 48.6193 63.4684C49.8695 62.2181 51.5652 61.5157 53.3333 61.5157C55.1014 61.5157 56.7971 62.2181 58.0474 63.4684C59.2976 64.7186 60 66.4143 60 68.1824Z" fill="white"/>
</g>
<defs>
<filter id="filter0_d_28_810" x="0" y="0" width="112.667" height="115.183" filterUnits="userSpaceOnUse" color-interpolation-filters="sRGB">
<feFlood flood-opacity="0" result="BackgroundImageFix"/>
<feColorMatrix in="SourceAlpha" type="matrix" values="0 0 0 0 0 0 0 0 0 0 0 0 0 0 0 0 0 0 127 0" result="hardAlpha"/>
<feOffset dx="3" dy="4"/>
<feGaussianBlur stdDeviation="11.5"/>
<feComposite in2="hardAlpha" operator="out"/>
<feColorMatrix type="matrix" values="0 0 0 0 0 0 0 0 0 1 0 0 0 0 0.94 0 0 0 0.5 0"/>
<feBlend mode="normal" in2="BackgroundImageFix" result="effect1_dropShadow_28_810"/>
<feBlend mode="normal" in="SourceGraphic" in2="effect1_dropShadow_28_810" result="shape"/>
</filter>
</defs>
</svg>
