<svg width="44" height="39" viewBox="0 0 44 39" fill="none" xmlns="http://www.w3.org/2000/svg">
<g id="Group 16">
<g id="Group">
<g id="Group_2">
<g id="Group_3">
<path id="Vector" d="M21.9677 37.4697C9.18303 37.4697 0.908691 31.824 0.908691 23.0959C0.908691 19.8512 2.14172 16.7363 4.51045 14.0757C3.50455 8.88427 5.38656 4.24441 9.05323 3.23857C9.53995 3.10878 10.0267 3.04389 10.5134 3.04389C12.947 3.04389 15.478 4.69866 17.2302 7.42418C17.3276 7.39173 17.4249 7.39173 17.5223 7.35928L17.5872 6.90503C17.6196 6.58057 17.8143 6.32099 18.1063 6.15876L27.3217 1.454C27.4839 1.35666 27.6786 1.32422 27.8733 1.32422C28.2951 1.32422 28.6845 1.55134 28.9116 1.90826C29.1388 2.26517 29.1388 2.71942 28.9441 3.07633L26.6078 7.32684C26.6403 7.32684 26.7051 7.32684 26.7376 7.35928C28.4898 4.63377 31.0208 2.97899 33.4544 2.97899C33.9411 2.97899 34.4279 3.04389 34.9146 3.17367C38.5813 4.21196 40.4633 8.81938 39.4574 14.0108C41.8261 16.6715 43.0591 19.7863 43.0591 23.031C43.0267 31.8565 34.7523 37.4697 21.9677 37.4697Z" fill="#FEFAEE"/>
<g id="Group_4">
<path id="Vector_2" d="M27.8732 2.33085C28.0354 2.33085 28.1652 2.52553 28.1003 2.68776L25.115 8.13879C25.8289 8.23613 26.5428 8.33347 27.2242 8.46326C28.8142 5.73774 31.1829 3.98563 33.4543 3.98563C33.8437 3.98563 34.2655 4.05052 34.6549 4.14786C37.8997 5.05637 39.5221 9.56644 38.4189 14.3685C40.7227 16.8345 42.0855 19.852 42.0855 23.0967C42.0855 31.4679 33.8112 36.4971 22 36.4971C10.1563 36.4971 1.91445 31.4679 1.91445 23.0967C1.91445 19.852 3.27729 16.8345 5.58112 14.3685C4.47788 9.56644 6.1003 5.05637 9.34514 4.14786C9.73452 4.05052 10.1563 3.98563 10.5457 3.98563C12.8496 3.98563 15.2183 5.73774 16.7758 8.46326C17.295 8.36592 17.8466 8.26858 18.3982 8.20368L18.528 7.03561L27.7434 2.33085C27.7758 2.33085 27.8407 2.33085 27.8732 2.33085ZM27.8732 0.416504C27.5487 0.416504 27.1917 0.513843 26.8997 0.64363L17.6844 5.34838C17.4897 5.44572 17.3274 5.57551 17.1976 5.7053C15.3481 3.40159 12.9469 2.10373 10.5457 2.10373C9.96165 2.10373 9.37758 2.16862 8.82596 2.33085C4.80236 3.46648 2.62832 8.30103 3.53687 13.8169C1.23304 16.5749 0 19.7871 0 23.0967C0 27.8339 2.23894 31.7924 6.48968 34.5503C10.3835 37.0812 15.7375 38.4115 22 38.4115C28.2625 38.4115 33.6165 37.0812 37.5103 34.5503C41.7611 31.7924 44 27.8339 44 23.0967C44 19.7547 42.7994 16.5749 40.4631 13.8169C41.3717 8.30103 39.1976 3.46648 35.174 2.33085C34.6224 2.16862 34.0383 2.10373 33.4543 2.10373C32.2861 2.10373 31.118 2.42819 29.9823 3.01223C30.0796 2.49308 30.0147 1.94149 29.7227 1.48724C29.3333 0.805863 28.6195 0.416504 27.8732 0.416504Z" fill="black"/>
</g>
</g>
<g id="Group_5">
<path id="Vector_3" d="M20.8037 14.0111C20.7388 14.0111 20.7064 13.9786 20.6415 13.9462C20.5441 13.8813 20.5117 13.7515 20.5441 13.6542L21.9718 10.1824L18.5648 10.4744C18.4999 10.4744 18.435 10.4419 18.3701 10.4095C18.3052 10.3446 18.3052 10.2797 18.3052 10.1824L18.6946 7.13239C18.6946 7.03505 18.7595 6.97016 18.8244 6.93771L27.8774 2.3303C27.9099 2.29785 27.9424 2.29785 28.0072 2.29785C28.0721 2.29785 28.137 2.3303 28.2019 2.36274C28.2668 2.46008 28.2993 2.55742 28.2344 2.65476L25.1518 8.30047L26.1577 9.56589C26.255 9.66323 26.2226 9.85791 26.1252 9.9228L20.9984 13.9137C20.9011 13.9786 20.8362 14.0111 20.8037 14.0111Z" fill="#FFD81F"/>
<path id="Vector_4" d="M27.9738 2.55821L24.7938 8.3337L25.8971 9.76135L20.8027 13.7523L22.3927 9.89114L18.5962 10.2156L18.9856 7.16562L27.9738 2.55821ZM27.9738 2.03906H27.9413C27.8764 2.03906 27.8115 2.07151 27.7466 2.10396L18.726 6.67893C18.5637 6.74382 18.4664 6.90605 18.434 7.06828L18.0446 10.1183C18.0121 10.2805 18.077 10.4427 18.1744 10.5401C18.2717 10.6374 18.4015 10.7023 18.5637 10.7023H18.5962L21.549 10.4427L20.2835 13.5252C20.1862 13.7523 20.2511 13.9794 20.4458 14.1416C20.5431 14.2065 20.6404 14.239 20.7702 14.239C20.8676 14.239 20.9974 14.2065 21.0947 14.1416L26.2216 10.1507C26.4487 9.98848 26.4812 9.66401 26.3189 9.43689L25.4428 8.30125L28.4281 2.85023C28.4605 2.78533 28.493 2.68799 28.493 2.59065C28.493 2.26619 28.2658 2.03906 27.9738 2.03906Z" fill="#FFA01F"/>
</g>
<g id="Group_6">
<path id="Vector_5" d="M15.5516 21.6626C16.3304 21.6626 17.0767 21.7924 17.7257 22.0519C17.823 21.695 17.8879 21.3057 17.8879 20.8839C17.8879 19.1317 16.8495 17.7041 15.5516 17.7041C14.2537 17.7041 13.2153 19.1317 13.2153 20.8839C13.2153 21.3057 13.2802 21.695 13.3776 22.0519C14.059 21.7924 14.7728 21.6626 15.5516 21.6626Z" fill="#29180E"/>
<path id="Vector_6" d="M28.3988 21.6626C29.1775 21.6626 29.9238 21.7924 30.5728 22.0519C30.6702 21.695 30.7351 21.3057 30.7351 20.8839C30.7351 19.1317 29.6967 17.7041 28.3988 17.7041C27.1009 17.7041 26.0625 19.1317 26.0625 20.8839C26.0625 21.3057 26.1274 21.695 26.2247 22.0519C26.8737 21.7924 27.62 21.6626 28.3988 21.6626Z" fill="#29180E"/>
</g>
<g id="Group_7">
<path id="Vector_7" d="M21.9699 22.6402C22.6508 22.6402 23.2029 22.2043 23.2029 21.6668C23.2029 21.1292 22.6508 20.6934 21.9699 20.6934C21.2889 20.6934 20.7368 21.1292 20.7368 21.6668C20.7368 22.2043 21.2889 22.6402 21.9699 22.6402Z" fill="#29180E"/>
</g>
<g id="Group_8">
<path id="Vector_8" d="M24.1782 25.0758C23.5292 25.0758 22.7829 24.6216 22.2637 24.2647C22.069 24.1349 21.8419 24.1349 21.6472 24.2647C21.128 24.6216 20.3817 25.0758 19.7327 25.0758C19.1811 25.0758 18.6295 24.9136 18.1752 24.6216C18.0454 24.5242 18.013 24.362 18.1103 24.2322C18.2077 24.1024 18.3699 24.07 18.4997 24.1673C18.8242 24.3944 19.2785 24.5242 19.7327 24.5242C20.1221 24.5242 20.6737 24.2647 21.3227 23.8104C21.7121 23.5508 22.2313 23.5508 22.6206 23.8104C23.2696 24.2647 23.8212 24.5242 24.2106 24.5242C24.6649 24.5242 25.0867 24.3944 25.4436 24.1673C25.5734 24.07 25.7681 24.1024 25.833 24.2322C25.9304 24.362 25.8979 24.5567 25.7681 24.6216C25.3138 24.9136 24.7622 25.0758 24.1782 25.0758Z" fill="#29180E"/>
</g>
<g id="Group_9">
<path id="Vector_9" d="M21.9766 24.173C21.8144 24.173 21.6846 24.0432 21.6846 23.8809V22.648C21.6846 22.4857 21.8144 22.356 21.9766 22.356C22.1388 22.356 22.2686 22.4857 22.2686 22.648V23.8809C22.2686 24.0432 22.1388 24.173 21.9766 24.173Z" fill="#29180E"/>
</g>
<g id="Group_10">
<path id="Vector_10" d="M9.45029 12.1953C9.06091 12.1953 8.57419 12.0655 8.44439 11.0597C8.3146 9.92407 9.12581 7.7177 10.0019 7.36079C10.0993 7.32835 10.2615 7.2959 10.4237 7.2959C11.5594 7.2959 13.3116 8.30174 13.4739 9.30759C13.6361 10.3783 13.0845 10.7028 11.4621 11.514L11.1701 11.6437C10.4237 12.0007 9.87212 12.1953 9.45029 12.1953Z" fill="#FFD81F" stroke="#FFA01F" stroke-width="1.17117" stroke-miterlimit="10"/>
<path id="Vector_11" d="M34.4985 12.1953C34.0767 12.1953 33.4926 12.0331 32.7788 11.6437L32.4867 11.514C30.8643 10.7028 30.3127 10.3783 30.4749 9.30759C30.6371 8.30174 32.3894 7.2959 33.5251 7.2959C33.6873 7.2959 33.8171 7.32835 33.9469 7.36079C34.823 7.7177 35.6342 9.92407 35.5044 11.0597C35.4071 12.0655 34.9203 12.1953 34.4985 12.1953Z" fill="#FFD81F" stroke="#FFA01F" stroke-width="1.17117" stroke-miterlimit="10"/>
</g>
<path id="Vector_12" d="M27.9788 2.55762L24.085 7.39216L24.8313 8.33311L27.9788 2.55762Z" fill="#FFA01F"/>
<g id="Group_11">
<path id="Vector_13" d="M10.1339 26.6325C11.8005 26.6325 13.1516 25.9352 13.1516 25.075C13.1516 24.2149 11.8005 23.5176 10.1339 23.5176C8.46729 23.5176 7.11621 24.2149 7.11621 25.075C7.11621 25.9352 8.46729 26.6325 10.1339 26.6325Z" fill="#FDCDA3"/>
<path id="Vector_14" d="M33.8522 26.6325C35.5188 26.6325 36.8699 25.9352 36.8699 25.075C36.8699 24.2149 35.5188 23.5176 33.8522 23.5176C32.1855 23.5176 30.8345 24.2149 30.8345 25.075C30.8345 25.9352 32.1855 26.6325 33.8522 26.6325Z" fill="#FDCDA3"/>
</g>
</g>
<g id="Group_12">
<path id="Vector_15" d="M24.2832 7.06786C23.9587 7.1652 23.7316 7.13275 23.6018 6.90563C23.472 6.6785 23.5044 6.45137 23.7316 6.1918C24.413 5.47798 25.1269 4.76415 25.8083 4.05033C25.8732 3.98543 25.9381 3.95299 26.003 3.88809C26.3275 3.66097 26.5221 3.66097 26.8142 3.95299C26.9115 4.24501 26.8142 4.47213 26.6195 4.66681C26.295 4.99128 26.003 5.31574 25.6785 5.67265C25.1918 6.12691 24.7375 6.58116 24.2832 7.06786Z" fill="#FEFEFE"/>
<path id="Vector_16" d="M20.8434 8.39781C20.9732 8.39781 21.2004 8.36536 21.3951 8.33291C21.7196 8.33291 21.9142 8.4627 21.9791 8.72227C22.0116 9.01429 21.8818 9.24142 21.5249 9.30631C21.2653 9.3712 21.0057 9.3712 20.7461 9.3712C20.519 9.40365 20.2918 9.40365 20.0322 9.40365C19.578 9.46854 19.2859 9.17652 19.3184 8.72227C19.3508 8.26802 19.4157 7.81377 19.5455 7.39196C19.6429 7.0675 19.9024 6.90526 20.162 6.97016C20.4541 7.03505 20.5839 7.29462 20.519 7.65153C20.4865 7.81377 20.4541 7.976 20.4216 8.10579C20.3567 8.26802 20.4216 8.33291 20.5839 8.33291C20.6488 8.39781 20.7137 8.39781 20.8434 8.39781Z" fill="#FEFEFE"/>
<path id="Vector_17" d="M22.9179 8.43066C23.2099 8.43066 23.4046 8.62534 23.4046 8.91736C23.4046 9.17694 23.1775 9.40406 22.9179 9.40406C22.6583 9.40406 22.4312 9.17694 22.4312 8.91736C22.4636 8.65779 22.6583 8.43066 22.9179 8.43066Z" fill="#FEFEFC"/>
</g>
</g>
</g>
</svg>
