<svg width="32" height="32" viewBox="0 0 32 32" fill="none" xmlns="http://www.w3.org/2000/svg">
<g id="Group 33846">
<circle id="Ellipse 100" cx="16" cy="16" r="16" fill="#FED73A"/>
<path id="Vector" d="M23.6192 14.5074C23.6192 11.9695 21.6258 9.9043 19.1793 9.9043C17.9703 9.9043 16.827 10.4261 16.0012 11.3143C15.1711 10.4261 14.0279 9.9043 12.8209 9.9043C10.3737 9.9043 8.38107 11.9681 8.38107 14.5074C8.38107 14.5929 8.388 14.6697 8.39631 14.7309C8.39424 14.7525 8.39285 14.772 8.39285 14.7942C8.39285 15.2434 8.50232 15.7362 8.71642 16.2628C8.72404 16.2817 8.73027 16.2998 8.7372 16.3167C10.0904 19.5589 15.2993 23.2886 15.521 23.461C15.6596 23.5674 15.8217 23.6186 15.9873 23.6186C16.1536 23.6186 16.3185 23.564 16.4578 23.4563C16.6476 23.3082 21.0888 20.1144 22.8536 17.091C22.9208 16.9894 22.9707 16.8904 23.0164 16.8049C23.0295 16.7779 23.042 16.751 23.0573 16.7241C23.0697 16.7021 23.0783 16.6882 23.0829 16.6823C23.1896 16.4769 23.2734 16.285 23.3393 16.0992C23.5222 15.6198 23.6129 15.1942 23.6129 14.7956C23.6129 14.7653 23.6115 14.737 23.6102 14.7148C23.6129 14.6622 23.6192 14.5915 23.6192 14.5074Z" fill="white"/>
</g>
</svg>
