<svg width="22" height="20" viewBox="0 0 22 20" fill="none" xmlns="http://www.w3.org/2000/svg">
<path d="M19 0C20.6569 0 22 1.34315 22 3V5.00195C21.9852 5.00162 21.9699 5 21.9551 5C20.8754 5.00026 20.0003 5.87543 20 6.95508C20 8.03494 20.8753 8.91087 21.9551 8.91113C21.9699 8.91113 21.9852 8.90853 22 8.9082V17C22 18.6569 20.6569 20 19 20H3C1.34315 20 6.44266e-08 18.6569 0 17V8.91016L0.00195312 8.91113C1.08198 8.91113 1.95801 8.0351 1.95801 6.95508C1.95775 5.87527 1.08182 5 0.00195312 5H0V3C0 1.34315 1.34315 4.83191e-08 3 0H19Z" fill="url(#paint0_linear_14016_2073)"/>
<path d="M11.6875 8.72727H16.5L10.3125 17V11.2727H5.5L11.6875 3V8.72727Z" fill="white"/>
<defs>
<linearGradient id="paint0_linear_14016_2073" x1="0" y1="0" x2="24.097" y2="2.96665" gradientUnits="userSpaceOnUse">
<stop stop-color="#36D95F"/>
<stop offset="1" stop-color="#81E639"/>
</linearGradient>
</defs>
</svg>
