<svg width="22" height="20" viewBox="0 0 22 20" fill="none" xmlns="http://www.w3.org/2000/svg">
<path d="M19 0C20.6569 0 22 1.34315 22 3V5.00195C21.9852 5.00162 21.9699 5 21.9551 5C20.8754 5.00026 20.0003 5.87543 20 6.95508C20 8.03494 20.8753 8.91087 21.9551 8.91113C21.9699 8.91113 21.9852 8.90853 22 8.9082V17C22 18.6569 20.6569 20 19 20H3C1.34315 20 6.44266e-08 18.6569 0 17V8.91016L0.00195312 8.91113C1.08198 8.91113 1.95801 8.0351 1.95801 6.95508C1.95775 5.87527 1.08182 5 0.00195312 5H0V3C0 1.34315 1.34315 4.83191e-08 3 0H19Z" fill="url(#paint0_linear_14016_2062)"/>
<path d="M8.82422 7.38672V7.38574L13.6611 12.2227V12.2236L17.5625 16.125L16.6875 17L12.9453 13.2578L10.624 16.6123V11.0439H6.29297L8.1084 8.4209L4.4375 4.75L5.3125 3.875L8.82422 7.38672ZM16.1924 8.56836L14.5186 10.9854L12.1016 8.56836H16.1924ZM11.8613 8.32812L9.68066 6.14746L11.8613 2.99902V8.32812Z" fill="white"/>
<defs>
<linearGradient id="paint0_linear_14016_2062" x1="0" y1="0" x2="24.097" y2="2.96665" gradientUnits="userSpaceOnUse">
<stop stop-color="#FF2626"/>
<stop offset="1" stop-color="#FF860D"/>
</linearGradient>
</defs>
</svg>
