<svg width="64" height="64" viewBox="0 0 64 64" fill="none" xmlns="http://www.w3.org/2000/svg">
<path d="M13.3333 58.6667C11.8667 58.6667 10.6107 58.1441 9.56534 57.0988C8.52 56.0534 7.99823 54.7983 8 53.3334V21.3334C8 19.8668 8.52267 18.6107 9.568 17.5654C10.6133 16.5201 11.8684 15.9983 13.3333 16.0001H18.6667C18.6667 12.3112 19.9671 9.16631 22.568 6.56542C25.1689 3.96453 28.3129 2.66497 32 2.66675C35.6889 2.66675 38.8338 3.96719 41.4347 6.56808C44.0356 9.16897 45.3351 12.313 45.3333 16.0001H50.6667C52.1333 16.0001 53.3893 16.5227 54.4347 17.5681C55.48 18.6134 56.0018 19.8685 56 21.3334V53.3334C56 54.8001 55.4773 56.0561 54.432 57.1014C53.3867 58.1468 52.1316 58.6685 50.6667 58.6667H13.3333ZM32 37.3334C35.6889 37.3334 38.8338 36.033 41.4347 33.4321C44.0356 30.8312 45.3351 27.6872 45.3333 24.0001H40C40 26.2223 39.2222 28.1112 37.6667 29.6668C36.1111 31.2223 34.2222 32.0001 32 32.0001C29.7778 32.0001 27.8889 31.2223 26.3333 29.6668C24.7778 28.1112 24 26.2223 24 24.0001H18.6667C18.6667 27.689 19.9671 30.8339 22.568 33.4348C25.1689 36.0356 28.3129 37.3352 32 37.3334ZM24 16.0001H40C40 13.7779 39.2222 11.889 37.6667 10.3334C36.1111 8.77786 34.2222 8.00008 32 8.00008C29.7778 8.00008 27.8889 8.77786 26.3333 10.3334C24.7778 11.889 24 13.7779 24 16.0001Z" fill="#FEA021"/>
</svg>
