<svg width="25" height="25" viewBox="0 0 25 25" fill="none" xmlns="http://www.w3.org/2000/svg">
<path d="M12.5 25C19.4036 25 25 19.4036 25 12.5C25 5.59644 19.4036 0 12.5 0C5.59644 0 0 5.59644 0 12.5C0 19.4036 5.59644 25 12.5 25Z" fill="#FFD81F"/>
<path d="M7.56505 18.8409C7.24983 18.8409 7.02157 18.7539 6.84766 18.58C6.68461 18.4061 6.59766 18.1561 6.59766 17.8517V7.85175C6.59766 7.52566 6.68461 7.28653 6.85853 7.11262C7.03244 6.9387 7.28244 6.85175 7.58679 6.85175C7.85853 6.85175 8.08679 6.90609 8.23896 7.01479C8.402 7.12348 8.54331 7.2974 8.68461 7.55827L12.7933 15.1561H12.2607L16.3694 7.55827C16.4998 7.30827 16.6411 7.12348 16.8042 7.01479C16.9564 6.90609 17.1737 6.85175 17.4564 6.85175C17.7716 6.85175 17.9998 6.9387 18.1737 7.11262C18.3368 7.28653 18.4237 7.53653 18.4237 7.85175V17.8517C18.4237 18.167 18.3477 18.4061 18.1846 18.58C18.0216 18.7539 17.7824 18.8409 17.4564 18.8409C17.1411 18.8409 16.9129 18.7539 16.739 18.58C16.5759 18.4061 16.489 18.1561 16.489 17.8517V10.1452H16.8585L13.3694 16.5148C13.2607 16.6996 13.1411 16.8409 13.0216 16.9278C12.902 17.0148 12.7281 17.0583 12.5216 17.0583C12.315 17.0583 12.1411 17.0148 12.0107 16.917C11.8803 16.8191 11.7607 16.6887 11.6629 16.5148L8.13027 10.1235H8.53244V17.8409C8.53244 18.1561 8.45635 18.3952 8.29331 18.5691C8.1194 18.7539 7.88026 18.8409 7.56505 18.8409Z" fill="black"/>
<path d="M7.45627 12.8509C7.45627 13.2965 7.0867 13.6661 6.64105 13.6661H5.3367C4.89105 13.6661 4.52148 13.2965 4.52148 12.8509C4.52148 12.4052 4.89105 12.0357 5.3367 12.0357H6.64105C7.0867 12.0357 7.45627 12.3944 7.45627 12.8509Z" fill="black"/>
<path d="M20.5002 12.8509C20.5002 13.2965 20.1306 13.6661 19.685 13.6661H18.3806C17.935 13.6661 17.5654 13.2965 17.5654 12.8509C17.5654 12.4052 17.935 12.0357 18.3806 12.0357H19.685C20.1306 12.0357 20.5002 12.3944 20.5002 12.8509Z" fill="black"/>
</svg>
