<svg width="24" height="24" viewBox="0 0 24 24" fill="none" xmlns="http://www.w3.org/2000/svg">
<rect width="24" height="24" rx="12" fill="#FEA021"/>
<path d="M11.0337 7.7998H7.08002L12.0064 16.3198H15.96L15.3442 15.2548L11.0337 7.7998Z" fill="#FFD489"/>
<path d="M17.0337 7.7998H13.08L18.0064 16.3198H21.96L21.3442 15.2548L17.0337 7.7998Z" fill="#FFD489"/>
<path d="M7.06092 7.7998L2.15997 16.3198H6.09322C6.09322 16.3198 10.3816 8.69269 10.6508 8.33625C10.92 7.9798 11.185 8.22558 11.46 8.5198L11.04 7.7998H7.06092Z" fill="white"/>
<path d="M13.0609 7.7998L8.15997 16.3198H12.0932C12.0932 16.3198 16.3816 8.69269 16.6508 8.33625C16.92 7.9798 17.185 8.22558 17.46 8.5198L17.04 7.7998H13.0609Z" fill="white"/>
</svg>
