<svg width="41" height="41" viewBox="0 0 41 41" fill="none" xmlns="http://www.w3.org/2000/svg">
<path id="Union" fill-rule="evenodd" clip-rule="evenodd" d="M40.5 20.207C40.5 31.2527 31.5457 40.207 20.5 40.207C9.45431 40.207 0.5 31.2527 0.5 20.207C0.5 9.16134 9.45431 0.207031 20.5 0.207031C31.5457 0.207031 40.5 9.16134 40.5 20.207ZM11.4527 29.9273C11.731 30.2056 12.0962 30.3447 12.6006 30.3447C13.1049 30.3447 13.4875 30.2056 13.7658 29.9099C14.0266 29.6317 14.1484 29.2491 14.1484 28.7447V17.5611L19.1571 26.623C19.3136 26.9012 19.5049 27.1099 19.7136 27.2665C19.9223 27.423 20.2006 27.4925 20.531 27.4925C20.8614 27.4925 21.1397 27.423 21.331 27.2838C21.5223 27.1447 21.7136 26.9186 21.8875 26.623L26.8788 17.5111V28.7621C26.8788 29.2491 27.018 29.6491 27.2788 29.9273C27.5571 30.2056 27.9223 30.3447 28.4266 30.3447C28.9484 30.3447 29.331 30.2056 29.5919 29.9273C29.8527 29.6491 29.9745 29.2665 29.9745 28.7621V22.0687H31.9909C32.704 22.0687 33.2953 21.4774 33.2953 20.7643C33.2953 20.0339 32.704 19.46 31.9909 19.46H29.9745V12.7621C29.9745 12.2578 29.8353 11.8578 29.5745 11.5795C29.2962 11.3012 28.931 11.1621 28.4266 11.1621C27.9745 11.1621 27.6266 11.2491 27.3832 11.423C27.1223 11.5969 26.8962 11.8925 26.6875 12.2925L20.5397 23.6611L14.3919 12.2925C14.1658 11.8752 13.9397 11.5969 13.6788 11.423C13.4353 11.2491 13.0701 11.1621 12.6353 11.1621C12.1484 11.1621 11.7484 11.3012 11.4701 11.5795C11.1919 11.8578 11.0527 12.2404 11.0527 12.7621V19.46H9.03677C8.32373 19.46 7.73242 20.0513 7.73242 20.7643C7.73242 21.4774 8.32373 22.0687 9.03677 22.0687H11.0527V28.7621C11.0527 29.2491 11.1919 29.6491 11.4527 29.9273Z" fill="url(#paint0_linear_5269_19)"/>
<defs>
<linearGradient id="paint0_linear_5269_19" x1="20.5" y1="0.207031" x2="20.5" y2="40.207" gradientUnits="userSpaceOnUse">
<stop stop-color="white"/>
<stop offset="1" stop-color="white"/>
</linearGradient>
</defs>
</svg>
