<svg width="40" height="40" viewBox="0 0 40 40" fill="none" xmlns="http://www.w3.org/2000/svg">
<path d="M33.3659 18.333V32.9997C33.3659 34.1042 32.4705 34.9997 31.3659 34.9997H8.69922C7.59465 34.9997 6.69922 34.1042 6.69922 32.9997V18.333" stroke="#999999" stroke-width="3" stroke-linecap="round" stroke-linejoin="round"/>
<path d="M4.86831 11.4805C3.59369 14.7814 6.05228 18.3333 9.59072 18.3333C12.3521 18.3333 14.6061 16.0947 14.6061 13.3333C14.6061 16.0947 16.8446 18.3333 19.6061 18.3333H20.4547C23.2161 18.3333 25.4547 16.0947 25.4547 13.3333C25.4547 16.0947 27.7096 18.3333 30.471 18.3333C34.0113 18.3333 36.4722 14.7793 35.1966 11.4769L32.6945 5H7.37074L4.86831 11.4805Z" stroke="#999999" stroke-width="3" stroke-linejoin="round"/>
</svg>
