<svg width="49" height="48" viewBox="0 0 49 48" fill="none" xmlns="http://www.w3.org/2000/svg">
<path d="M29.1055 42.0947V42.0938V42.0947ZM27.9639 41.9541H27.9648H27.9639ZM28.5703 6.36035C28.6857 6.34622 28.8031 6.36529 28.9082 6.41504C29.0132 6.46476 29.1019 6.5435 29.1641 6.6416C29.2262 6.73986 29.2598 6.85446 29.2598 6.9707V41.1221L29.2539 41.21C29.2417 41.2954 29.2105 41.3777 29.1641 41.4512C29.1019 41.5494 29.0133 41.629 28.9082 41.6787C28.8032 41.7284 28.6856 41.7466 28.5703 41.7324C28.4551 41.7182 28.3457 41.6712 28.2559 41.5977L16.8799 32.2871L16.7529 32.1826H8.22754C7.77978 32.1825 7.34982 32.0051 7.0332 31.6885C6.71661 31.3719 6.53913 30.9419 6.53906 30.4941V17.5986C6.53917 17.151 6.71666 16.7209 7.0332 16.4043C7.34981 16.0878 7.77986 15.9102 8.22754 15.9102H16.75L16.8779 15.8066L28.2559 6.49512L28.3271 6.44531C28.4011 6.40049 28.4839 6.37102 28.5703 6.36035ZM17.9561 19.2871H9.91699V28.8057H17.9551L25.8818 35.292V12.8008L17.9561 19.2871ZM38.7852 33.2178C38.7035 33.2985 38.6209 33.3785 38.5371 33.457L38.2832 33.6885C38.369 33.6122 38.4534 33.5345 38.5371 33.4561L38.7852 33.2178ZM37.4092 14.2734C38.8356 15.3942 40.0008 16.8146 40.8203 18.4365C41.6991 20.1757 42.1569 22.0973 42.1553 24.0459C42.1552 27.7113 40.569 31.0061 38.0439 33.2832L35.6514 30.8916C36.5653 30.1007 37.3145 29.1336 37.8496 28.0459C38.4234 26.8793 38.7383 25.6032 38.7744 24.3057L38.7773 24.0459C38.7771 21.0134 37.2867 18.3296 34.9971 16.6865L37.4092 14.2734ZM35.6855 30.2363C35.4576 30.4558 35.2178 30.6636 34.9658 30.8574C35.2178 30.6637 35.4577 30.4557 35.6855 30.2363ZM36.0264 29.8896C35.9631 29.9578 35.8965 30.0227 35.8311 30.0889C35.8965 30.0227 35.9631 29.9578 36.0264 29.8896ZM36.3428 29.5273C36.2773 29.6064 36.209 29.6831 36.1406 29.7598C36.209 29.6831 36.2773 29.6064 36.3428 29.5273ZM36.6338 29.1543C36.5732 29.2363 36.5107 29.3167 36.4473 29.3965C36.5107 29.3167 36.5732 29.2363 36.6338 29.1543ZM36.9072 28.7627C36.8544 28.8432 36.7996 28.9223 36.7441 29.001C36.7996 28.9223 36.8544 28.8432 36.9072 28.7627ZM37.165 28.3447C37.1173 28.4274 37.068 28.5089 37.0176 28.5898C37.068 28.5089 37.1173 28.4274 37.165 28.3447ZM37.6289 27.418C37.568 27.5609 37.5043 27.7029 37.4355 27.8428L37.3242 28.0625C37.2992 28.1098 37.271 28.1553 37.2451 28.2021C37.3106 28.0836 37.3756 27.9646 37.4355 27.8428C37.5043 27.703 37.568 27.5609 37.6289 27.418ZM37.8086 26.96C37.7775 27.0463 37.7429 27.1314 37.709 27.2168C37.7429 27.1314 37.7775 27.0463 37.8086 26.96ZM37.9551 26.5137C37.9271 26.6072 37.8954 26.6994 37.8643 26.792C37.8954 26.6994 37.9271 26.6072 37.9551 26.5137ZM38.0762 26.0645C38.0581 26.1395 38.0367 26.2136 38.0166 26.2881C38.0367 26.2136 38.0581 26.1395 38.0762 26.0645ZM38.1768 25.583C38.1617 25.666 38.1444 25.7485 38.127 25.8311C38.1444 25.7485 38.1617 25.666 38.1768 25.583ZM38.2471 25.1279C38.2367 25.2102 38.2237 25.2921 38.2109 25.374C38.2237 25.2921 38.2367 25.2102 38.2471 25.1279ZM38.293 24.6621C38.2879 24.7329 38.2812 24.8034 38.2744 24.874C38.2812 24.8034 38.2879 24.7329 38.293 24.6621ZM38.3174 24.0469L38.3135 24.293C38.3125 24.3284 38.3081 24.364 38.3066 24.3994C38.3114 24.282 38.3175 24.1646 38.3174 24.0469ZM35.5508 17.7305V17.7295V17.7305ZM27.9648 6.13965L27.9639 6.13867L27.9648 6.13965Z" fill="#585654"/>
</svg>
