<svg width="179" height="32" viewBox="0 0 179 32" fill="none" xmlns="http://www.w3.org/2000/svg">
<path d="M8.83424 0.726562L15.4837 19.077L22.1687 0.726562H30.9198V25.0867H24.9591V7.91441H24.6741L18.3928 25.0867H12.1115L5.83012 7.91441H5.59264V25.0867H0V0.726562H8.83424Z" fill="white"/>
<path d="M53.8611 6.98455C55.844 8.76961 57.1382 11.4472 57.1382 15.2672V17.1713H41.097C41.2158 18.2304 41.7026 19.0397 42.3913 19.6466C43.448 20.6224 45.4309 21.027 47.1288 21.027C49.4798 21.027 51.5814 20.8604 54.0154 20.0512L55.1553 23.8236C52.5669 25.0018 49.8835 25.454 47.0101 25.454C43.4005 25.454 40.0403 24.4425 38.1762 22.7288C36.0745 20.8247 34.8516 18.0995 34.8516 14.934C34.8516 11.5662 35.9914 8.96002 37.9743 7.13926C39.9216 5.38989 42.6762 4.41406 46.0008 4.41406C49.3254 4.41406 51.9969 5.27089 53.8611 6.97265V6.98455ZM42.4744 10.0311C41.7501 10.7213 41.2158 11.6614 40.9308 12.8753H51.1777C50.9758 11.5781 50.4534 10.5547 49.6341 9.91205C48.7436 9.18613 47.5325 8.85291 46.0721 8.85291C44.6116 8.85291 43.4005 9.22183 42.4625 10.0311H42.4744Z" fill="white"/>
<path d="M59 5.35518L62.4433 5.03387L63.1795 0H68.202V4.79586H76.181V8.8539L68.202 9.17522V17.7435C68.202 18.6717 68.4038 19.3739 68.855 19.8975C69.3775 20.4687 70.1967 20.7543 71.3247 20.7543C73.2245 20.7543 74.6018 20.4687 76.5966 19.6952L77.9739 23.1939C75.6704 24.7767 73.3195 25.4669 70.0305 25.4669C67.359 25.4669 65.3286 24.741 64.0344 23.3129C62.8945 22.0515 62.3365 20.2664 62.3365 18.0291V9.25852H59.0119V5.35518H59Z" fill="white"/>
<path d="M99.8637 19.2063C99.8637 21.1936 100.066 22.2885 100.79 24.0735L97.5483 25.454C96.6578 24.9304 95.9216 24.2758 95.3161 23.4666C93.0482 24.7638 91.0654 25.454 88.2632 25.454C85.4611 25.454 83.1576 25.0018 81.4122 23.7522C79.833 22.6098 78.8594 20.908 78.8594 18.3137C78.8594 15.7195 80.118 14.0891 81.9821 12.9467C83.7631 11.9351 86.1497 11.4472 88.5838 11.4472C90.6498 11.4472 92.1933 11.6495 94.01 12.0184V11.2449C94.01 10.5904 93.6894 10.0311 93.1195 9.69784C92.1458 9.04332 90.4836 8.88862 88.5838 8.88862C86.2685 8.88862 84.1312 9.17423 81.6971 9.86445L80.6879 6.04442C83.8462 4.83058 86.1972 4.41406 89.8424 4.41406C92.9176 4.41406 95.9216 4.90198 97.7858 6.56804C99.08 7.71048 99.8518 9.36463 99.8518 11.5662V19.1944L99.8637 19.2063ZM85.841 16.3978C85.2354 16.7667 84.7843 17.3736 84.7843 18.2661C84.7843 19.1587 85.1523 19.7299 85.6748 20.1345C86.4465 20.7057 87.622 20.908 88.9519 20.908C90.9348 20.908 92.5614 20.6224 94.0219 20.0512V16.0765C91.7065 15.8385 90.531 15.7909 88.5125 15.7909C87.5864 15.7909 86.6128 15.9575 85.841 16.3978Z" fill="white"/>
<path d="M111.167 0.726562V9.78277H115.75L121.996 0.726562H128.847L120.701 11.8891L129.334 25.0867H122.328L115.726 14.4477H111.191V25.0867H104.945V0.726562H111.191H111.167Z" fill="white"/>
<path d="M149.22 6.98455C151.203 8.76961 152.498 11.4472 152.498 15.2672V17.1713H136.456C136.575 18.2304 137.062 19.0397 137.751 19.6466C138.807 20.6224 140.79 21.027 142.488 21.027C144.839 21.027 146.941 20.8604 149.375 20.0512L150.515 23.8236C147.926 25.0018 145.243 25.454 142.369 25.454C138.76 25.454 135.4 24.4425 133.536 22.7288C131.434 20.8247 130.211 18.0995 130.211 14.934C130.211 11.5662 131.351 8.96002 133.334 7.13926C135.281 5.38989 138.036 4.41406 141.36 4.41406C144.685 4.41406 147.356 5.27089 149.22 6.97265V6.98455ZM137.834 10.0311C137.109 10.7213 136.575 11.6614 136.29 12.8753H146.537C146.335 11.5781 145.813 10.5547 144.993 9.91205C144.103 9.18613 142.892 8.85291 141.431 8.85291C139.971 8.85291 138.76 9.22183 137.822 10.0311H137.834Z" fill="white"/>
<path d="M153.352 4.79688H159.633L165.914 19.8271H166.365L171.922 4.79688H178.084L168.68 27.4553C167.992 29.2046 167.018 30.2995 165.926 31.0254C164.786 31.7513 163.456 32.0012 162.079 32.0012C160.903 32.0012 159.775 31.7989 158.671 31.3467L159.193 27.5743C160.048 27.6933 160.654 27.7766 161.342 27.7766C161.829 27.7766 162.435 27.61 162.803 27.3243C163.207 27.003 163.527 26.6341 163.777 25.8249L164.014 25.099H162.554L153.352 4.79688Z" fill="white"/>
</svg>
