<svg width="64" height="64" viewBox="0 0 64 64" fill="none" xmlns="http://www.w3.org/2000/svg">
<g clip-path="url(#clip0_13075_2285)">
<path d="M54.1313 0H9.86869C4.41836 0 0 4.41836 0 9.86869V54.1313C0 59.5816 4.41836 64 9.86869 64H54.1313C59.5816 64 64 59.5816 64 54.1313V9.86869C64 4.41836 59.5816 0 54.1313 0Z" fill="black"/>
<path d="M54.2478 31.9994H49.4553C47.954 31.9994 46.741 30.7818 46.741 29.285V24.4926C46.741 23.2109 45.7019 22.1719 44.4203 22.1719H39.2296C37.948 22.1719 36.9089 23.2109 36.9089 24.4926V29.285C36.9089 30.7864 35.6914 31.9994 34.1946 31.9994H29.7958C28.2944 31.9994 27.0814 30.7818 27.0814 29.285V24.4926C27.0814 23.2109 26.0424 22.1719 24.7607 22.1719H19.5701C18.2884 22.1719 17.2494 23.2109 17.2494 24.4926V29.285C17.2494 30.7864 16.0318 31.9994 14.535 31.9994H9.74257C8.46093 31.9994 7.42188 33.0384 7.42188 34.3201V39.5107C7.42188 40.7924 8.46093 41.8314 9.74257 41.8314H14.9332C16.2149 41.8314 17.2539 40.7924 17.2539 39.5107V34.7183C17.2539 33.2215 18.4669 32.0085 19.9637 32.0039H24.3717C25.8684 32.0039 27.0814 33.2215 27.0814 34.7183V39.5107C27.0814 40.7924 28.1205 41.8314 29.4021 41.8314H34.5928C35.8745 41.8314 36.9135 40.7924 36.9135 39.5107V34.7183C36.9135 33.2215 38.1265 32.0085 39.6233 32.0039H44.0312C45.528 32.0039 46.741 33.2215 46.741 34.7183V39.5107C46.741 40.7924 47.78 41.8314 49.0617 41.8314H54.2524C55.534 41.8314 56.5731 40.7924 56.5731 39.5107V34.3201C56.5731 33.0384 55.534 31.9994 54.2524 31.9994H54.2478Z" fill="white"/>
</g>
<defs>
<clipPath id="clip0_13075_2285">
<rect width="64" height="64" rx="32" fill="white"/>
</clipPath>
</defs>
</svg>
