<svg width="64" height="64" viewBox="0 0 64 64" fill="none" xmlns="http://www.w3.org/2000/svg">
<path d="M54.132 0H9.86797C4.41804 0 0 4.41804 0 9.86797V54.132C0 59.582 4.41804 64 9.86797 64H54.132C59.582 64 64 59.582 64 54.132V9.86797C64 4.41804 59.582 0 54.132 0Z" fill="white"/>
<path d="M54.6067 31.9928H49.7336C48.2053 31.9928 46.9798 30.7527 46.9798 29.2386V24.3648C46.9798 23.0671 45.9273 22 44.6153 22H39.3385C38.0409 22 36.9741 23.0526 36.9741 24.3648V29.2386C36.9741 30.7671 35.7341 31.9928 34.2203 31.9928H29.7509C28.2226 31.9928 26.9971 30.7527 26.9971 29.2386V24.3648C26.9971 23.0671 25.9446 22 24.6326 22H19.3558C18.0582 22 16.9914 23.0526 16.9914 24.3648V29.2386C16.9914 30.7671 15.7514 31.9928 14.2376 31.9928H9.36448C8.0669 31.9928 7 33.0454 7 34.3576V39.6352C7 40.9329 8.05248 42 9.36448 42H14.6413C15.9389 42 17.0058 40.9474 17.0058 39.6352V34.7614C17.0058 33.2329 18.2457 32.0072 19.7595 32.0072H24.2434C25.7716 32.0072 26.9971 33.2473 26.9971 34.7614V39.6352C26.9971 40.9329 28.0496 42 29.3616 42H34.6384C35.936 42 37.0029 40.9474 37.0029 39.6352V34.7614C37.0029 33.2329 38.2428 32.0072 39.7566 32.0072H44.2405C45.7687 32.0072 46.9942 33.2473 46.9942 34.7614V39.6352C46.9942 40.9329 48.0467 42 49.3587 42H54.6355C55.9331 42 57 40.9474 57 39.6352V34.3576C57 33.0598 55.9475 31.9928 54.6355 31.9928H54.6067Z" fill="black"/>
</svg>
