<?xml version="1.0" standalone="no"?><!DOCTYPE svg PUBLIC "-//W3C//DTD SVG 1.1//EN" "http://www.w3.org/Graphics/SVG/1.1/DTD/svg11.dtd"><svg t="1732689321798" class="icon" viewBox="0 0 1024 1024" version="1.1" xmlns="http://www.w3.org/2000/svg" p-id="8820" width="48" height="48" xmlns:xlink="http://www.w3.org/1999/xlink"><path d="M928 76.8h-832c-19.2 0-32 12.8-32 32v582.4c0 19.2 12.8 32 32 32H256c19.2 0 32-12.8 32-32s-12.8-32-32-32H128V140.8h768v518.4H512c-19.2 0-32 12.8-32 32v192H339.2c-19.2 0-32 12.8-32 32s12.8 32 32 32h371.2c19.2 0 32-12.8 32-32s-12.8-32-32-32H544v-160h384c19.2 0 32-12.8 32-32V108.8c0-19.2-12.8-32-32-32z" p-id="8821"></path><path d="M236.8 396.8c0 19.2 12.8 32 32 32H704L595.2 531.2c-12.8 12.8-12.8 32 0 44.8 6.4 6.4 12.8 6.4 25.6 6.4 6.4 0 19.2 0 25.6-6.4l160-160s6.4-6.4 6.4-12.8V384v-6.4c0-6.4-6.4-12.8-6.4-12.8L640 217.6c-12.8-12.8-32-12.8-44.8 0-12.8 12.8-12.8 32 0 44.8L704 364.8H268.8c-19.2 0-32 12.8-32 32z" p-id="8822"></path></svg>