<svg width="40" height="40" viewBox="0 0 40 40" fill="none" xmlns="http://www.w3.org/2000/svg">
<path d="M35.6013 20.7075C35.9919 20.317 35.9919 19.6838 35.6013 19.2933L26.6704 10.3624C26.2799 9.97186 25.6467 9.97186 25.2562 10.3624L24.3134 11.3052C23.9229 11.6957 23.9229 12.3289 24.3134 12.7194L30.8873 19.2933C31.2779 19.6838 31.2779 20.317 30.8873 20.7075L24.3134 27.2815C23.9229 27.672 23.9229 28.3052 24.3134 28.6957L25.2562 29.6385C25.6467 30.029 26.2799 30.029 26.6704 29.6385L35.6013 20.7075ZM26.1848 20.7075C26.5754 20.317 26.5754 19.6838 26.1848 19.2933L17.2539 10.3624C16.8634 9.97186 16.2302 9.97186 15.8397 10.3624L14.8969 11.3052C14.5064 11.6957 14.5064 12.3289 14.8969 12.7194L21.4708 19.2933C21.8614 19.6838 21.8614 20.317 21.4708 20.7075L14.8969 27.2815C14.5064 27.672 14.5064 28.3052 14.8969 28.6957L15.8397 29.6385C16.2302 30.029 16.8634 30.029 17.2539 29.6385L26.1848 20.7075Z" fill="#FF8812"/>
<path d="M16.9951 20.7075C17.3856 20.317 17.3856 19.6838 16.9951 19.2933L8.06411 10.3624C7.67358 9.97186 7.04042 9.97186 6.64989 10.3624L5.7071 11.3052C5.31658 11.6957 5.31658 12.3289 5.70711 12.7194L12.2811 19.2933C12.6716 19.6838 12.6716 20.317 12.2811 20.7075L5.70711 27.2815C5.31658 27.672 5.31658 28.3052 5.70711 28.6957L6.64989 29.6385C7.04042 30.029 7.67358 30.029 8.06411 29.6385L16.9951 20.7075Z" fill="#FF8812"/>
</svg>
