<svg width="32" height="24" viewBox="0 0 32 24" fill="none" xmlns="http://www.w3.org/2000/svg">
<g clip-path="url(#clip0_7410_2669)">
<rect width="32" height="24" fill="white"/>
<path fill-rule="evenodd" clip-rule="evenodd" d="M0 0H32V24H0V0Z" fill="#F7FCFF"/>
<rect x="0.0273438" y="5" width="32" height="2.9" fill="#E31D1C"/>
<rect x="0.0273438" y="10.2002" width="32" height="2.9" fill="#E31D1C"/>
<rect x="0.111328" y="15.2002" width="32" height="2.5" fill="#E31D1C"/>
<rect x="0.111328" y="20.2002" width="32" height="2.7" fill="#E31D1C"/>
<path fill-rule="evenodd" clip-rule="evenodd" d="M0 0H32V2.5H0V0Z" fill="#E31D1C"/>
<path fill-rule="evenodd" clip-rule="evenodd" d="M0 0H16V12H0V0Z" fill="#3D58DB"/>
<path fill-rule="evenodd" clip-rule="evenodd" d="M3.59375 6.20265C3.59375 7.57887 4.24197 8.88028 5.56072 8.88028C7.5393 8.88028 7.92423 8.45846 8.84748 7.87648C9.06576 8.36676 8.3295 10.4649 5.53372 10.4649C3.29746 10.4198 1.49023 8.6233 1.49023 6.20265C1.49023 3.42413 3.53381 1.92358 5.4776 1.94057C7.19363 1.94057 9.01366 2.91433 8.95788 4.15655C8.14934 3.36671 7.27139 3.36671 5.80991 3.36671C4.34842 3.36671 3.59375 4.82625 3.59375 6.20265Z" fill="#FECA00"/>
<path fill-rule="evenodd" clip-rule="evenodd" d="M11 7.2998L10.0729 8.65297L10.1183 7.01333L8.57295 7.56316L9.57342 6.26333L8 5.7998L9.57342 5.33628L8.57295 4.03645L10.1183 4.58628L10.0729 2.94664L11 4.2998L11.9271 2.94664L11.8817 4.58628L13.4271 4.03645L12.4266 5.33628L14 5.7998L12.4266 6.26333L13.4271 7.56316L11.8817 7.01333L11.9271 8.65297L11 7.2998Z" fill="#FECA00"/>
</g>
<defs>
<clipPath id="clip0_7410_2669">
<rect width="32" height="24" fill="white"/>
</clipPath>
</defs>
</svg>
