<svg width="36" height="39" viewBox="0 0 36 39" fill="none" xmlns="http://www.w3.org/2000/svg">
<path d="M20.161 7.83314L9.65084 13.839H1.83282V24.8359H9.65084L20.161 30.8417V7.83314ZM21.9939 7.83314V30.8417C21.9939 31.854 21.1733 32.6745 20.161 32.6745C19.8421 32.6745 19.5286 32.5913 19.2517 32.4331L9.16411 26.6687H1.83282C0.820582 26.6687 0 25.8481 0 24.8359V13.839C0 12.8267 0.820582 12.0061 1.83282 12.0061H9.16411L19.2517 6.2418C20.1306 5.73959 21.2502 6.04493 21.7524 6.9238C21.9106 7.20074 21.9939 7.51417 21.9939 7.83314Z" fill="#FEA021"/>
<path d="M7.00103 32.1669H8.76125L7.66156 26.6684H5.90133L7.00103 32.1669ZM10.9969 12.0059V26.6684L9.53065 26.6684L10.5585 31.8075C10.757 32.8 10.1133 33.7656 9.1207 33.9641C9.00235 33.9878 8.88195 33.9997 8.76125 33.9997H7.00103C6.12735 33.9997 5.37514 33.3831 5.2038 32.5263L3.66565 24.8356H9.16412V12.0059H10.9969Z" fill="#FEA021"/>
<rect x="24.1716" y="4.24219" width="6" height="2" rx="1" transform="rotate(-45 24.1716 4.24219)" fill="#FEA021"/>
<rect x="27" y="12" width="6" height="2" rx="1" transform="rotate(-30 27 12)" fill="#FEA021"/>
<rect x="30" y="18" width="6" height="2" rx="1" fill="#FEA021"/>
<rect x="28" y="24" width="6" height="2" rx="1" transform="rotate(30 28 24)" fill="#FEA021"/>
<rect x="25.5858" y="33" width="6" height="2" rx="1" transform="rotate(45 25.5858 33)" fill="#FEA021"/>
</svg>
