<svg width="57" height="56" viewBox="0 0 57 56" fill="none" xmlns="http://www.w3.org/2000/svg">
<g clip-path="url(#clip0_6367_2943)">
<path d="M33.3281 49.1113L33.3271 49.1104L33.3281 49.1113ZM33.8232 48.6855C33.7932 48.7294 33.7608 48.7711 33.7256 48.8105C33.732 48.8034 33.7399 48.7974 33.7461 48.79L33.8232 48.6855ZM32.7041 7.42188C32.8386 7.4054 32.9751 7.42738 33.0977 7.48535C33.2202 7.54342 33.324 7.63538 33.3965 7.75C33.4689 7.86457 33.5078 7.99728 33.5078 8.13281V47.9766L33.501 48.0791C33.4867 48.1789 33.4508 48.2755 33.3965 48.3613C33.324 48.4758 33.2201 48.568 33.0977 48.626C32.9752 48.6839 32.8385 48.705 32.7041 48.6885C32.5695 48.6719 32.4418 48.6172 32.3369 48.5312L19.0645 37.6699L18.917 37.5479H8.96973C8.4475 37.5476 7.94644 37.34 7.57715 36.9707C7.20788 36.6014 7.00013 36.1004 7 35.5781V20.5332C7 20.0108 7.20784 19.5091 7.57715 19.1396C7.94642 18.7705 8.44759 18.5627 8.96973 18.5625H18.9141L19.0625 18.4414L32.3369 7.5791L32.4199 7.52051C32.5062 7.46815 32.6031 7.4343 32.7041 7.42188ZM20.3213 22.5029H10.9414V33.6074H20.3203L29.5674 41.1748V14.9355L20.3213 22.5029ZM40.166 36.002L43.7314 39.5664C43.9363 39.3938 44.1367 39.2163 44.332 39.0332C44.1366 39.2164 43.9364 39.3947 43.7314 39.5674L40.166 36.002ZM43.0156 16.6533C44.6796 17.9607 46.039 19.6177 46.9951 21.5098C48.0204 23.5388 48.5546 25.7813 48.5527 28.0547C48.5526 32.331 46.7018 36.1744 43.7559 38.8311L40.9658 36.041C42.032 35.1183 42.905 33.9905 43.5293 32.7217C44.1989 31.3606 44.5663 29.8713 44.6084 28.3574L44.6123 28.0547C44.6121 24.5166 42.8727 21.3846 40.2012 19.4678L43.0156 16.6533ZM40.6113 35.6377C40.5926 35.6539 40.5735 35.6695 40.5547 35.6855C40.5735 35.6695 40.5926 35.6539 40.6113 35.6377ZM40.999 35.2832C40.9813 35.3003 40.9632 35.317 40.9453 35.334C40.9632 35.317 40.9813 35.3003 40.999 35.2832ZM41.373 34.9043C41.3622 34.9159 41.3507 34.9269 41.3398 34.9385C41.3507 34.9269 41.3622 34.9159 41.373 34.9043ZM41.7402 34.4883C41.7241 34.5076 41.7077 34.5267 41.6914 34.5459C41.7077 34.5267 41.7241 34.5076 41.7402 34.4883ZM42.0879 34.0498C42.0673 34.0774 42.0462 34.1045 42.0254 34.1318C42.0462 34.1045 42.0673 34.0774 42.0879 34.0498ZM42.4092 33.5908C42.3844 33.6282 42.3602 33.666 42.335 33.7031C42.3602 33.666 42.3844 33.6282 42.4092 33.5908ZM43.2783 31.9736C43.2699 31.9935 43.2615 32.0134 43.2529 32.0332C43.2615 32.0134 43.2699 31.9935 43.2783 31.9736ZM43.4736 31.4775C43.4687 31.4912 43.464 31.5049 43.459 31.5186C43.464 31.5049 43.4687 31.4912 43.4736 31.4775ZM43.6523 30.9365C43.6422 30.9705 43.6316 31.0043 43.6211 31.0381C43.6316 31.0043 43.6422 30.9705 43.6523 30.9365ZM43.7891 30.4326C43.7835 30.4554 43.7782 30.4782 43.7725 30.501C43.7782 30.4782 43.7835 30.4554 43.7891 30.4326ZM43.9014 29.9121C43.8979 29.9307 43.8942 29.9492 43.8906 29.9678C43.8942 29.9492 43.8979 29.9307 43.9014 29.9121ZM43.9873 29.3721C43.9845 29.3935 43.9825 29.4151 43.9795 29.4365C43.9825 29.4151 43.9845 29.3935 43.9873 29.3721ZM46.8271 20.1143C47.0595 20.4883 47.2762 20.8729 47.4756 21.2676C47.6085 21.5306 47.7327 21.7978 47.8496 22.0674C47.7327 21.7977 47.6076 21.5307 47.4746 21.2676C47.4083 21.1363 47.3405 21.006 47.2705 20.877C47.2002 20.7475 47.1277 20.6194 47.0537 20.4922L46.8271 20.1143ZM40.6152 20.4785V20.4775C40.9295 20.75 41.2268 21.0415 41.5049 21.3506V21.3516C41.2268 21.0425 40.9295 20.751 40.6152 20.4785ZM39.624 19.7197V19.7207V19.7197ZM31.9971 7.16309H31.9961H31.9971ZM42.9688 15.9414V15.9424V15.9414ZM44.3242 17.0674H44.3252H44.3242ZM33.3271 7H33.3281H33.3271Z" fill="#2E2008"/>
</g>
<defs>
<clipPath id="clip0_6367_2943">
<rect width="56" height="56" fill="white" transform="translate(0.25)"/>
</clipPath>
</defs>
</svg>
