<svg width="28" height="28" viewBox="0 0 28 28" fill="none" xmlns="http://www.w3.org/2000/svg">
<path d="M17.7344 19.1719H24.5341" stroke="#2E2008" stroke-width="2" stroke-linecap="round" stroke-linejoin="round"/>
<path d="M21.6992 21.9094L24.5325 19.1774L21.6994 16.4453" stroke="#2E2008" stroke-width="2" stroke-linecap="round" stroke-linejoin="round"/>
<path d="M24.5326 14.8037V6.0611C24.5326 5.15579 23.7715 4.42188 22.8327 4.42188H4.69994C3.76109 4.42188 3 5.15579 3 6.0611V21.3606C3 22.2659 3.76109 22.9998 4.69994 22.9998H16.2995" stroke="#2E2008" stroke-width="2" stroke-linecap="round" stroke-linejoin="round"/>
<path d="M9.56241 21.5123C9.2844 21.5123 9.04952 21.4246 8.85779 21.2492C8.66606 21.0738 8.5702 20.8546 8.5702 20.5915V19.6181L9.00159 19.9733C8.35929 19.947 7.80327 19.8724 7.33353 19.7496C6.86378 19.6269 6.48032 19.5041 6.18314 19.3813C5.93389 19.2761 5.75653 19.127 5.65108 18.9341C5.55522 18.7412 5.51687 18.5439 5.53604 18.3422C5.5648 18.1405 5.64629 17.9563 5.7805 17.7897C5.91471 17.6231 6.08727 17.5135 6.29818 17.4609C6.51867 17.3995 6.77271 17.4258 7.06031 17.5398C7.25204 17.6362 7.53964 17.7371 7.9231 17.8423C8.31615 17.9388 8.80027 17.987 9.37547 17.987C9.7781 17.987 10.0945 17.9519 10.3245 17.8818C10.5642 17.8116 10.732 17.7196 10.8278 17.6056C10.9333 17.4828 10.986 17.3512 10.986 17.2109C10.986 17.0794 10.9477 16.9698 10.871 16.8821C10.8039 16.7856 10.6888 16.7023 10.5259 16.6322C10.3629 16.5532 10.1376 16.4831 9.85 16.4217L8.22508 16.106C7.33353 15.9218 6.66726 15.6149 6.22628 15.1852C5.79488 14.7468 5.57918 14.1811 5.57918 13.4884C5.57918 12.9622 5.71819 12.4931 5.9962 12.0809C6.2838 11.66 6.68164 11.318 7.18973 11.0549C7.7074 10.7918 8.31136 10.6252 9.00159 10.555L8.5702 10.7787V9.89734C8.5702 9.63426 8.66606 9.41503 8.85779 9.23964C9.04952 9.06426 9.2844 8.97656 9.56241 8.97656C9.85 8.97656 10.0897 9.06426 10.2814 9.23964C10.4731 9.41503 10.569 9.63426 10.569 9.89734V10.7787L10.1376 10.5287C10.5019 10.5375 10.8949 10.5945 11.3168 10.6997C11.7386 10.7962 12.1076 10.9321 12.424 11.1075C12.6445 11.2127 12.7979 11.3574 12.8842 11.5416C12.98 11.7257 13.0136 11.9143 12.9848 12.1072C12.9656 12.2914 12.8889 12.458 12.7547 12.6071C12.6301 12.7561 12.4576 12.857 12.2371 12.9096C12.0262 12.9534 11.7721 12.9184 11.4749 12.8044C11.2544 12.7167 11.0052 12.6465 10.7272 12.5939C10.4588 12.5325 10.1136 12.5018 9.69183 12.5018C9.18374 12.5018 8.79069 12.5851 8.51268 12.7517C8.24425 12.9184 8.11004 13.1332 8.11004 13.3963C8.11004 13.5717 8.18673 13.7208 8.34012 13.8435C8.50309 13.9575 8.79548 14.0584 9.21729 14.1461L10.8566 14.4749C11.7673 14.6591 12.4384 14.966 12.8698 15.3957C13.3108 15.8166 13.5312 16.3647 13.5312 17.0399C13.5312 17.5661 13.3922 18.0309 13.1142 18.4342C12.8362 18.8376 12.448 19.1665 11.9495 19.4208C11.4605 19.6751 10.8901 19.8417 10.2383 19.9206L10.569 19.605V20.5915C10.569 20.8546 10.4731 21.0738 10.2814 21.2492C10.0993 21.4246 9.85959 21.5123 9.56241 21.5123Z" fill="#2E2008"/>
</svg>
