<svg width="44" height="44" viewBox="0 0 44 44" fill="none" xmlns="http://www.w3.org/2000/svg">
<path d="M38.9395 11.333C39.8438 11.333 40.636 11.9403 40.8711 12.8135L43.4883 22.5352C43.8304 23.8059 42.8736 25.0555 41.5576 25.0557H39.9443V39C39.9443 41.2091 38.1535 43 35.9443 43H8.05469C5.84576 42.9998 4.05469 41.209 4.05469 39V25.0557H2.44238C1.12641 25.0556 0.169587 23.8059 0.511719 22.5352L3.12891 12.8135C3.36401 11.9403 4.15623 11.333 5.06055 11.333H38.9395ZM7.64453 36.4531C7.6446 37.5576 8.54001 38.4531 9.64453 38.4531H34.3555C35.46 38.4531 36.3554 37.5576 36.3555 36.4531V25.0557H7.64453V36.4531ZM24.2227 27.167C25.327 27.1672 26.2227 28.0625 26.2227 29.167V30.4443C26.2227 31.5488 25.3271 32.4441 24.2227 32.4443H12.3887C11.2841 32.4443 10.3887 31.5489 10.3887 30.4443V29.167C10.3887 28.0624 11.2841 27.167 12.3887 27.167H24.2227ZM37.9443 5C39.0489 5 39.9443 5.89543 39.9443 7V7.22266C39.9441 8.32703 39.0488 9.22266 37.9443 9.22266H6.05469C4.95047 9.22241 4.05492 8.32687 4.05469 7.22266V7C4.05469 5.89558 4.95033 5.00025 6.05469 5H37.9443Z" fill="#FF8812"/>
</svg>
