<svg width="28" height="28" viewBox="0 0 28 28" fill="none" xmlns="http://www.w3.org/2000/svg">
<g id="Frame 34099">
<g id="Group 33885">
<g id="Group">
<path id="Vector" d="M17.7344 19.1721H24.5341" stroke="#2E2008" stroke-width="2" stroke-linecap="round" stroke-linejoin="round"/>
<path id="Vector_2" d="M21.6992 21.9097L24.5325 19.1776L21.6994 16.4456" stroke="#2E2008" stroke-width="2" stroke-linecap="round" stroke-linejoin="round"/>
<path id="Vector_3" d="M24.5326 14.8039V6.06135C24.5326 5.15603 23.7715 4.42212 22.8327 4.42212H4.69994C3.76109 4.42212 3 5.15603 3 6.06135V21.3608C3 22.2662 3.76109 23.0001 4.69994 23.0001H16.2995" stroke="#2E2008" stroke-width="2" stroke-linecap="round" stroke-linejoin="round"/>
</g>
<path id="$" d="M9.56241 21.5125C9.2844 21.5125 9.04952 21.4248 8.85779 21.2494C8.66606 21.0741 8.5702 20.8548 8.5702 20.5917V19.6184L9.00159 19.9735C8.35929 19.9472 7.80327 19.8727 7.33353 19.7499C6.86378 19.6271 6.48032 19.5043 6.18314 19.3816C5.93389 19.2763 5.75653 19.1273 5.65108 18.9343C5.55522 18.7414 5.51687 18.5441 5.53604 18.3424C5.5648 18.1407 5.64629 17.9566 5.7805 17.79C5.91471 17.6233 6.08727 17.5137 6.29818 17.4611C6.51867 17.3997 6.77271 17.426 7.06031 17.54C7.25204 17.6365 7.53964 17.7373 7.9231 17.8426C8.31615 17.939 8.80027 17.9873 9.37547 17.9873C9.7781 17.9873 10.0945 17.9522 10.3245 17.882C10.5642 17.8119 10.732 17.7198 10.8278 17.6058C10.9333 17.483 10.986 17.3515 10.986 17.2112C10.986 17.0796 10.9477 16.97 10.871 16.8823C10.8039 16.7859 10.6888 16.7026 10.5259 16.6324C10.3629 16.5535 10.1376 16.4833 9.85 16.4219L8.22508 16.1062C7.33353 15.9221 6.66726 15.6152 6.22628 15.1855C5.79488 14.747 5.57918 14.1814 5.57918 13.4886C5.57918 12.9625 5.71819 12.4933 5.9962 12.0811C6.2838 11.6602 6.68164 11.3182 7.18973 11.0551C7.7074 10.7921 8.31136 10.6254 9.00159 10.5553L8.5702 10.7789V9.89758C8.5702 9.6345 8.66606 9.41527 8.85779 9.23989C9.04952 9.0645 9.2844 8.97681 9.56241 8.97681C9.85 8.97681 10.0897 9.0645 10.2814 9.23989C10.4731 9.41527 10.569 9.6345 10.569 9.89758V10.7789L10.1376 10.529C10.5019 10.5377 10.8949 10.5947 11.3168 10.7C11.7386 10.7964 12.1076 10.9324 12.424 11.1077C12.6445 11.213 12.7979 11.3577 12.8842 11.5418C12.98 11.726 13.0136 11.9145 12.9848 12.1074C12.9656 12.2916 12.8889 12.4582 12.7547 12.6073C12.6301 12.7564 12.4576 12.8572 12.2371 12.9098C12.0262 12.9537 11.7721 12.9186 11.4749 12.8046C11.2544 12.7169 11.0052 12.6468 10.7272 12.5941C10.4588 12.5328 10.1136 12.5021 9.69183 12.5021C9.18374 12.5021 8.79069 12.5854 8.51268 12.752C8.24425 12.9186 8.11004 13.1335 8.11004 13.3965C8.11004 13.5719 8.18673 13.721 8.34012 13.8438C8.50309 13.9578 8.79548 14.0586 9.21729 14.1463L10.8566 14.4752C11.7673 14.6593 12.4384 14.9662 12.8698 15.3959C13.3108 15.8169 13.5312 16.3649 13.5312 17.0402C13.5312 17.5663 13.3922 18.0311 13.1142 18.4345C12.8362 18.8379 12.448 19.1667 11.9495 19.421C11.4605 19.6754 10.8901 19.842 10.2383 19.9209L10.569 19.6052V20.5917C10.569 20.8548 10.4731 21.0741 10.2814 21.2494C10.0993 21.4248 9.85959 21.5125 9.56241 21.5125Z" fill="#2E2008"/>
</g>
</g>
</svg>
