<svg width="32" height="28" viewBox="0 0 32 28" fill="none" xmlns="http://www.w3.org/2000/svg">
<g id="&#231;&#186;&#191;&#228;&#184;&#139;">
<path id="Vector" d="M20.8824 21.647H30.0589" stroke="white" stroke-width="2" stroke-linecap="round" stroke-linejoin="round"/>
<path id="Vector_2" d="M26.2354 25.4703L30.0589 21.6468L26.2357 17.8232" stroke="white" stroke-width="2" stroke-linecap="round" stroke-linejoin="round"/>
<path id="Vector_3" d="M30.0588 15.5294V3.29412C30.0588 2.02711 29.0317 1 27.7647 1H3.29412C2.02711 1 1 2.02711 1 3.29412V24.7059C1 25.9729 2.02711 27 3.29412 27H18.9481" stroke="white" stroke-width="2" stroke-linecap="round" stroke-linejoin="round"/>
<path id="$" d="M11.3687 23.9408C10.9701 23.9408 10.6333 23.8124 10.3584 23.5557C10.0835 23.2989 9.94606 22.9779 9.94606 22.5928V21.1677L10.5646 21.6876C9.64366 21.6491 8.84642 21.54 8.17289 21.3602C7.49936 21.1805 6.94955 21.0008 6.52344 20.821C6.16605 20.667 5.91176 20.4487 5.76056 20.1662C5.62311 19.8838 5.56813 19.5949 5.59562 19.2996C5.63685 19.0043 5.75369 18.7347 5.94613 18.4908C6.13856 18.2469 6.38598 18.0864 6.68838 18.0093C7.00453 17.9195 7.36878 17.958 7.78115 18.1249C8.05606 18.2661 8.46842 18.4138 9.01824 18.5678C9.5818 18.7091 10.2759 18.7797 11.1007 18.7797C11.678 18.7797 12.1316 18.7283 12.4615 18.6256C12.8051 18.5229 13.0457 18.3881 13.1831 18.2212C13.3343 18.0414 13.4099 17.8489 13.4099 17.6434C13.4099 17.4509 13.3549 17.2904 13.245 17.162C13.1487 17.0208 12.9838 16.8988 12.7501 16.7961C12.5165 16.6805 12.1934 16.5778 11.7811 16.488L9.45122 16.0258C8.17289 15.7562 7.21758 15.3068 6.58529 14.6777C5.96675 14.0358 5.65747 13.2077 5.65747 12.1934C5.65747 11.4231 5.85678 10.7362 6.2554 10.1328C6.66776 9.51654 7.2382 9.01583 7.96671 8.63067C8.70897 8.2455 9.57493 8.00157 10.5646 7.89886L9.94606 8.22625V6.93596C9.94606 6.55079 10.0835 6.22983 10.3584 5.97305C10.6333 5.71628 10.9701 5.58789 11.3687 5.58789C11.7811 5.58789 12.1247 5.71628 12.3996 5.97305C12.6745 6.22983 12.812 6.55079 12.812 6.93596V8.22625L12.1934 7.86034C12.7158 7.87318 13.2793 7.95663 13.8841 8.1107C14.4889 8.25192 15.0181 8.45092 15.4717 8.7077C15.7879 8.86176 16.0078 9.0736 16.1315 9.34321C16.269 9.61283 16.3171 9.88886 16.2758 10.1713C16.2484 10.4409 16.1384 10.6849 15.946 10.9031C15.7673 11.1214 15.5198 11.269 15.2037 11.3461C14.9013 11.4102 14.537 11.3589 14.1109 11.192C13.7948 11.0636 13.4374 10.9609 13.0388 10.8839C12.6539 10.794 12.1591 10.7491 11.5543 10.7491C10.8258 10.7491 10.2622 10.871 9.86358 11.115C9.47871 11.3589 9.28627 11.6734 9.28627 12.0586C9.28627 12.3154 9.39624 12.5336 9.61617 12.7134C9.84984 12.8803 10.2691 13.0279 10.8739 13.1563L13.2243 13.6378C14.5302 13.9074 15.4924 14.3567 16.1109 14.9858C16.7432 15.6021 17.0593 16.4045 17.0593 17.3931C17.0593 18.1634 16.86 18.8439 16.4614 19.4344C16.0628 20.025 15.5061 20.5065 14.7913 20.8788C14.0903 21.2511 13.2725 21.4951 12.3378 21.6106L12.812 21.1484V22.5928C12.812 22.9779 12.6745 23.2989 12.3996 23.5557C12.1385 23.8124 11.7948 23.9408 11.3687 23.9408Z" fill="white"/>
</g>
</svg>
