<svg width="28" height="28" viewBox="0 0 28 28" fill="none" xmlns="http://www.w3.org/2000/svg">
<g id="Group 17">
<g id="Group">
<path id="Vector" d="M17.6775 18.5273H22.8514" stroke="white" stroke-width="2" stroke-linecap="round" stroke-linejoin="round"/>
<path id="Vector_2" d="M20.6957 20.6827L22.8515 18.5269L20.6959 16.3711" stroke="white" stroke-width="2" stroke-linecap="round" stroke-linejoin="round"/>
<path id="Vector_3" d="M22.8515 15.0778V8.17922C22.8515 7.46485 22.2724 6.88574 21.558 6.88574H7.76089C7.04652 6.88574 6.46741 7.46485 6.46741 8.17922V20.2517C6.46741 20.9661 7.04652 21.5452 7.76089 21.5452H16.587" stroke="white" stroke-width="2" stroke-linecap="round" stroke-linejoin="round"/>
</g>
<path id="$" d="M12.3132 19.8205C12.0885 19.8205 11.8986 19.7481 11.7436 19.6033C11.5886 19.4585 11.5111 19.2776 11.5111 19.0604V18.2569L11.8598 18.5501C11.3406 18.5284 10.8911 18.4668 10.5113 18.3655C10.1316 18.2641 9.82157 18.1628 9.58132 18.0615C9.37982 17.9746 9.23645 17.8515 9.1512 17.6923C9.0737 17.533 9.0427 17.3702 9.0582 17.2037C9.08145 17.0372 9.14732 16.8852 9.25582 16.7476C9.36432 16.6101 9.50382 16.5196 9.67432 16.4762C9.85257 16.4255 10.0579 16.4472 10.2904 16.5413C10.4454 16.6209 10.678 16.7042 10.988 16.7911C11.3057 16.8707 11.6971 16.9105 12.1621 16.9105C12.4876 16.9105 12.7433 16.8815 12.9293 16.8236C13.1231 16.7657 13.2587 16.6897 13.3362 16.5956C13.4215 16.4943 13.4641 16.3857 13.4641 16.2699C13.4641 16.1613 13.4331 16.0708 13.3711 15.9984C13.3168 15.9188 13.2238 15.85 13.0921 15.7921C12.9603 15.727 12.7782 15.669 12.5457 15.6184L11.2321 15.3578C10.5113 15.2058 9.9727 14.9524 9.6162 14.5977C9.26745 14.2358 9.09307 13.7689 9.09307 13.197C9.09307 12.7627 9.20545 12.3754 9.4302 12.0352C9.6627 11.6877 9.98432 11.4054 10.3951 11.1882C10.8136 10.9711 11.3018 10.8335 11.8598 10.7756L11.5111 10.9602V10.2327C11.5111 10.0156 11.5886 9.8346 11.7436 9.68982C11.8986 9.54504 12.0885 9.47266 12.3132 9.47266C12.5457 9.47266 12.7395 9.54504 12.8945 9.68982C13.0495 9.8346 13.127 10.0156 13.127 10.2327V10.9602L12.7782 10.7539C13.0727 10.7612 13.3905 10.8082 13.7315 10.8951C14.0725 10.9747 14.3708 11.0869 14.6266 11.2317C14.8048 11.3185 14.9288 11.438 14.9986 11.59C15.0761 11.742 15.1032 11.8976 15.08 12.0569C15.0645 12.2089 15.0025 12.3464 14.894 12.4695C14.7932 12.5926 14.6537 12.6758 14.4755 12.7192C14.305 12.7554 14.0996 12.7265 13.8593 12.6324C13.6811 12.56 13.4796 12.5021 13.2548 12.4587C13.0378 12.408 12.7588 12.3826 12.4178 12.3826C12.0071 12.3826 11.6893 12.4514 11.4646 12.5889C11.2476 12.7265 11.1391 12.9038 11.1391 13.121C11.1391 13.2658 11.2011 13.3888 11.3251 13.4902C11.4568 13.5843 11.6932 13.6675 12.0342 13.7399L13.3595 14.0114C14.0957 14.1634 14.6382 14.4167 14.987 14.7714C15.3435 15.1189 15.5217 15.5713 15.5217 16.1287C15.5217 16.563 15.4093 16.9467 15.1846 17.2797C14.9598 17.6127 14.646 17.8841 14.243 18.094C13.8477 18.304 13.3866 18.4415 12.8596 18.5066L13.127 18.246V19.0604C13.127 19.2776 13.0495 19.4585 12.8945 19.6033C12.7472 19.7481 12.5535 19.8205 12.3132 19.8205Z" fill="white"/>
</g>
</svg>
