<svg width="46" height="46" viewBox="0 0 46 46" fill="none" xmlns="http://www.w3.org/2000/svg">
<path d="M23 46C35.7025 46 46 35.7025 46 23C46 10.2975 35.7025 0 23 0C10.2975 0 0 10.2975 0 23C0 35.7025 10.2975 46 23 46Z" fill="#FFD81F"/>
<path d="M21.7053 10.3354C22.1014 10.1154 22.547 10 23 10C23.453 10 23.8986 10.1154 24.2947 10.3354L34.3147 15.9007C34.5224 16.0162 34.6955 16.1852 34.816 16.3901C34.9365 16.595 35 16.8283 35 17.066V28.046C34.9999 28.5216 34.8726 28.9884 34.6314 29.3982C34.3902 29.808 34.0437 30.1458 33.628 30.3767L24.2947 35.5634C23.8986 35.7833 23.453 35.8987 23 35.8987C22.547 35.8987 22.1014 35.7833 21.7053 35.5634L12.372 30.3767C11.9565 30.1459 11.6102 29.8083 11.369 29.3988C11.1277 28.9892 11.0004 28.5227 11 28.0474V17.066C11 16.8283 11.0635 16.595 11.184 16.3901C11.3045 16.1852 11.4776 16.0162 11.6853 15.9007L21.7053 10.3354Z" stroke="black" stroke-width="3" stroke-linecap="round" stroke-linejoin="round"/>
<path d="M11 16.2822L23 22.9489M23 22.9489L35 16.2822M23 22.9489V36.2822" stroke="black" stroke-width="3" stroke-linejoin="round"/>
<path d="M17 19.6154L29 12.9487M15 23.3861L19 25.6154" stroke="black" stroke-width="3" stroke-linecap="round" stroke-linejoin="round"/>
</svg>
