<svg width="32" height="32" viewBox="0 0 32 32" fill="none" xmlns="http://www.w3.org/2000/svg">
<path d="M24.08 3.77326C22.5467 2.74659 20.8 2.01326 18.9333 1.62659C18.1067 1.46659 17.3333 2.09326 17.3333 2.94659C17.3333 3.55993 17.7467 4.11993 18.3467 4.23993C19.9067 4.54659 21.36 5.17326 22.6267 6.02659C23.1467 6.37326 23.8267 6.27993 24.2667 5.83993C24.88 5.23993 24.7867 4.23993 24.08 3.77326ZM14.6667 2.94659C14.6667 2.09326 13.8933 1.46659 13.0667 1.62659C11.2 2.01326 9.45333 2.74659 7.92 3.77326C7.22667 4.23993 7.13333 5.23993 7.72 5.82659C8.16 6.26659 8.84 6.35993 9.36 6.01326C10.64 5.15993 12.08 4.54659 13.64 4.22659C14.2533 4.11993 14.6667 3.55993 14.6667 2.94659ZM5.84 7.71993C5.70072 7.58007 5.53213 7.47288 5.3464 7.40609C5.16067 7.33931 4.96242 7.31459 4.76597 7.33372C4.56953 7.35286 4.37978 7.41537 4.21042 7.51674C4.04107 7.61811 3.89634 7.75582 3.78667 7.91993C2.73829 9.47691 2.0087 11.2261 1.64 13.0666C1.60045 13.2603 1.60449 13.4605 1.65183 13.6524C1.69916 13.8444 1.78861 14.0235 1.91368 14.1766C2.03876 14.3298 2.19634 14.4532 2.375 14.538C2.55366 14.6227 2.74893 14.6666 2.94667 14.6666C3.56 14.6666 4.12 14.2533 4.24 13.6533C4.54667 12.0933 5.17333 10.6399 6.02667 9.35993C6.36 8.85326 6.26667 8.15993 5.84 7.71993ZM29.0533 14.6666C29.2511 14.6666 29.4463 14.6227 29.625 14.538C29.8037 14.4532 29.9612 14.3298 30.0863 14.1766C30.2114 14.0235 30.3008 13.8444 30.3482 13.6524C30.3955 13.4605 30.3995 13.2603 30.36 13.0666C29.9733 11.1999 29.24 9.46659 28.2133 7.91993C27.7467 7.22659 26.7467 7.11993 26.16 7.71993C25.72 8.15993 25.6267 8.83993 25.9733 9.35993C26.8267 10.6399 27.44 12.0933 27.76 13.6533C27.88 14.2533 28.44 14.6666 29.0533 14.6666ZM10.6667 16.6133L13.92 18.0933L15.3867 21.3333C15.4397 21.4497 15.5251 21.5483 15.6327 21.6175C15.7402 21.6867 15.8654 21.7235 15.9933 21.7235C16.1212 21.7235 16.2464 21.6867 16.354 21.6175C16.4616 21.5483 16.547 21.4497 16.6 21.3333L18.08 18.0799L21.3333 16.6133C21.4497 16.5602 21.5484 16.4748 21.6176 16.3673C21.6868 16.2597 21.7236 16.1345 21.7236 16.0066C21.7236 15.8787 21.6868 15.7535 21.6176 15.6459C21.5484 15.5383 21.4497 15.453 21.3333 15.3999L18.08 13.9199L16.6133 10.6666C16.5603 10.5502 16.4749 10.4515 16.3673 10.3823C16.2598 10.3131 16.1346 10.2763 16.0067 10.2763C15.8788 10.2763 15.7536 10.3131 15.646 10.3823C15.5384 10.4515 15.453 10.5502 15.4 10.6666L13.92 13.9199L10.6667 15.3866C10.1467 15.6266 10.1467 16.3733 10.6667 16.6133Z" fill="#D9D9D9"/>
<path d="M16 28C14.0309 27.9996 12.0925 27.5125 10.3571 26.582C8.6218 25.6515 7.14335 24.3065 6.05333 22.6667H8C8.73333 22.6667 9.33333 22.0667 9.33333 21.3333C9.33333 20.6 8.73333 20 8 20H2.66667C1.93333 20 1.33333 20.6 1.33333 21.3333V26.6667C1.33333 27.4 1.93333 28 2.66667 28C3.4 28 4 27.4 4 26.6667V24.4C6.65333 28.1867 11.0267 30.6667 16 30.6667C21.9333 30.6667 27.0267 27.1467 29.3333 22.0933C29.413 21.9127 29.452 21.7168 29.4475 21.5194C29.443 21.322 29.3952 21.128 29.3074 20.9512C29.2196 20.7744 29.094 20.619 28.9395 20.4961C28.785 20.3732 28.6054 20.2858 28.4133 20.24C27.8133 20.1067 27.1733 20.3867 26.92 20.96C25.0267 25.1067 20.8533 28 16 28Z" fill="#D9D9D9"/>
</svg>
