<svg width="32" height="32" viewBox="0 0 32 32" fill="none" xmlns="http://www.w3.org/2000/svg">
<path d="M10.6667 22.6667H17.3333C17.7111 22.6667 18.028 22.5387 18.284 22.2827C18.54 22.0267 18.6676 21.7102 18.6667 21.3333C18.6667 20.9556 18.5387 20.6387 18.2827 20.3827C18.0267 20.1267 17.7102 19.9991 17.3333 20H10.6667C10.2889 20 9.972 20.128 9.716 20.384C9.46 20.64 9.33245 20.9564 9.33333 21.3333C9.33333 21.7111 9.46133 22.028 9.71733 22.284C9.97333 22.54 10.2898 22.6676 10.6667 22.6667ZM10.6667 17.3333H21.3333C21.7111 17.3333 22.028 17.2053 22.284 16.9493C22.54 16.6933 22.6676 16.3769 22.6667 16C22.6667 15.6222 22.5387 15.3053 22.2827 15.0493C22.0267 14.7933 21.7102 14.6658 21.3333 14.6667H10.6667C10.2889 14.6667 9.972 14.7947 9.716 15.0507C9.46 15.3067 9.33245 15.6231 9.33333 16C9.33333 16.3778 9.46133 16.6947 9.71733 16.9507C9.97333 17.2067 10.2898 17.3342 10.6667 17.3333ZM10.6667 12H21.3333C21.7111 12 22.028 11.872 22.284 11.616C22.54 11.36 22.6676 11.0436 22.6667 10.6667C22.6667 10.2889 22.5387 9.972 22.2827 9.716C22.0267 9.46 21.7102 9.33245 21.3333 9.33334H10.6667C10.2889 9.33334 9.972 9.46134 9.716 9.71734C9.46 9.97334 9.33245 10.2898 9.33333 10.6667C9.33333 11.0444 9.46133 11.3613 9.71733 11.6173C9.97333 11.8733 10.2898 12.0009 10.6667 12ZM6.66667 28C5.93333 28 5.30533 27.7387 4.78267 27.216C4.26 26.6933 3.99911 26.0658 4 25.3333V6.66667C4 5.93334 4.26133 5.30534 4.784 4.78267C5.30667 4.26 5.93422 3.99911 6.66667 4H25.3333C26.0667 4 26.6947 4.26134 27.2173 4.784C27.74 5.30667 28.0009 5.93422 28 6.66667V25.3333C28 26.0667 27.7387 26.6947 27.216 27.2173C26.6933 27.74 26.0658 28.0009 25.3333 28H6.66667Z" fill="#D9D9D9"/>
</svg>
