<svg width="50" height="50" viewBox="0 0 50 50" fill="none" xmlns="http://www.w3.org/2000/svg">
<g filter="url(#filter0_dii_2229_8027)">
<path d="M25 44C35.4937 44 44 35.4937 44 25C44 14.5063 35.4937 6 25 6C14.5063 6 6 14.5063 6 25C6 35.4937 14.5063 44 25 44Z" fill="url(#paint0_linear_2229_8027)"/>
<path d="M25 44C35.4937 44 44 35.4937 44 25C44 14.5063 35.4937 6 25 6C14.5063 6 6 14.5063 6 25C6 35.4937 14.5063 44 25 44Z" stroke="#2E2008" stroke-width="3" stroke-linejoin="round"/>
</g>
<g clip-path="url(#clip0_2229_8027)">
<g filter="url(#filter1_di_2229_8027)">
<path d="M31.5547 30.2578C31.8424 30.2578 32.0838 30.1603 32.2788 29.9653C32.4738 29.7703 32.571 29.5293 32.5703 29.2422C32.5703 28.9544 32.4728 28.713 32.2778 28.518C32.0828 28.323 31.8418 28.2259 31.5547 28.2266C31.2669 28.2266 31.0255 28.3241 30.8305 28.5191C30.6355 28.7141 30.5384 28.9551 30.5391 29.2422C30.5391 29.5299 30.6366 29.7713 30.8316 29.9663C31.0266 30.1613 31.2676 30.2585 31.5547 30.2578ZM23.9375 31.7812C22.0247 31.7812 20.349 31.3452 18.9102 30.4731C17.4714 29.601 16.3457 28.5475 15.5332 27.3125L20.002 22.8437L22.6172 25.0781C22.7188 25.1628 22.8288 25.2264 22.9473 25.2691C23.0658 25.3117 23.1927 25.3242 23.3281 25.3066C23.4466 25.3066 23.5651 25.2813 23.6836 25.2305C23.8021 25.1797 23.9036 25.112 23.9883 25.0273L28 21.041V21.625C28 21.9128 28.0975 22.1541 28.2925 22.3491C28.4875 22.5441 28.7285 22.6413 29.0156 22.6406C29.3034 22.6406 29.5448 22.5431 29.7398 22.3481C29.9348 22.1531 30.0319 21.9121 30.0312 21.625V18.5781C30.0312 18.2904 29.9338 18.049 29.7387 17.854C29.5437 17.659 29.3027 17.5618 29.0156 17.5625H25.9688C25.681 17.5625 25.4396 17.66 25.2446 17.855C25.0496 18.05 24.9524 18.291 24.9531 18.5781C24.9531 18.8659 25.0506 19.1073 25.2456 19.3023C25.4406 19.4973 25.6817 19.5944 25.9688 19.5938H26.5527L23.2266 22.9199L20.5859 20.7109C20.4844 20.6263 20.3743 20.5627 20.2559 20.52C20.1374 20.4773 20.0189 20.4564 19.9004 20.457C19.765 20.474 19.638 20.5078 19.5195 20.5586C19.401 20.6094 19.2995 20.6771 19.2148 20.7617L14.5176 25.459C14.0436 24.2741 13.7826 22.9792 13.7812 21.625C13.7812 20.2201 14.048 18.8997 14.5816 17.6641C15.1151 16.4284 15.8386 15.3535 16.752 14.4395C17.666 13.5254 18.7409 12.8019 19.9766 12.2691C21.2122 11.7362 22.5326 11.4694 23.9375 11.4688C25.3424 11.4688 26.6628 11.7355 27.8984 12.2691C29.1341 12.8026 30.209 13.5261 31.123 14.4395C32.0371 15.3535 32.7609 16.4284 33.2945 17.6641C33.828 18.8997 34.0944 20.2201 34.0938 21.625V29.75C34.0938 30.3086 33.8947 30.787 33.4966 31.1851C33.0984 31.5832 32.6204 31.7819 32.0625 31.7812H23.9375Z" fill="url(#paint1_radial_2229_8027)"/>
<path d="M32.0613 32.7812C32.8876 32.7823 33.6196 32.4762 34.2037 31.8922C34.7877 31.3082 35.0938 30.5762 35.0938 29.75V21.6255C35.0938 21.6253 35.0938 21.6252 35.0938 21.625C35.0944 20.0898 34.8025 18.634 34.2125 17.2677C33.631 15.9209 32.8372 14.7394 31.8302 13.7323L31.8299 13.7321C30.8229 12.7258 29.6415 11.9324 28.2948 11.351C26.9285 10.761 25.4727 10.4688 23.9375 10.4687L23.937 10.4688C22.4022 10.4695 20.9467 10.7617 19.5806 11.3508L19.9766 12.2691L19.5806 11.3508C18.2336 11.9317 17.052 12.7252 16.0448 13.7323L16.0446 13.7326C15.0383 14.7396 14.2449 15.921 13.6635 17.2677C13.0735 18.634 12.7812 20.0898 12.7812 21.625L12.7813 21.626C12.7827 23.1088 13.0687 24.5293 13.5891 25.8304L14.1523 27.2384L15.2247 26.1661L19.9127 21.4781C19.913 21.478 19.9132 21.4778 19.9135 21.4777L19.9133 21.4774L19.9135 21.4777C19.9197 21.475 19.9265 21.4724 19.9336 21.4699C19.937 21.4722 19.9409 21.4751 19.9454 21.4788C19.9455 21.4789 19.9456 21.4791 19.9458 21.4792L22.5849 23.6869L23.2867 24.274L23.9337 23.627L27.2598 20.3009L28.9669 18.5938H26.5527L25.9688 18.5937L25.9664 18.5938C25.9613 18.5938 25.9571 18.5936 25.9536 18.5934C25.9533 18.5895 25.9531 18.5844 25.9531 18.5781L25.9531 18.5758C25.9531 18.5707 25.9532 18.5665 25.9534 18.563C25.9574 18.5627 25.9625 18.5625 25.9688 18.5625L29.0156 18.5625L29.018 18.5625C29.023 18.5625 29.0273 18.5626 29.0308 18.5628C29.031 18.5668 29.0312 18.5719 29.0312 18.5781L29.0312 21.625L29.0313 21.6274C29.0313 21.6324 29.0311 21.6367 29.0309 21.6401C29.027 21.6404 29.0219 21.6406 29.0156 21.6406L29.0133 21.6406C29.0082 21.6406 29.004 21.6405 29.0005 21.6403C29.0002 21.6363 29 21.6313 29 21.625V21.041V18.6376L27.2951 20.3317L23.2949 24.3066H23.2634L23.255 24.3077L20.6515 22.0835L19.9486 21.4829L19.2948 22.1366L14.8261 26.6054L14.25 27.1815L14.6978 27.8621C15.6026 29.2374 16.8435 30.3899 18.3918 31.3283C20.0074 32.3075 21.8675 32.7812 23.9375 32.7812H32.0613ZM32.0613 32.7812L32.0625 31.7812M32.0613 32.7812H32.0625V31.7812M32.0625 31.7812C32.6204 31.7819 33.0984 31.5832 33.4966 31.1851C33.8947 30.787 34.0938 30.3086 34.0938 29.75V21.625M32.0625 31.7812H23.9375C22.0247 31.7812 20.349 31.3452 18.9102 30.4731C17.4714 29.601 16.3457 28.5475 15.5332 27.3125L34.0938 21.625M34.0938 21.625C34.0944 20.2201 33.828 18.8997 33.2945 17.6641L34.0938 21.625ZM14.5176 25.459L13.8105 24.7519L14.1602 24.4021C14.2607 24.7628 14.3802 25.1155 14.5176 25.459ZM14.5176 25.459L15.4461 25.0876C15.3926 24.9539 15.3421 24.8186 15.2947 24.6819L14.5176 25.459ZM20.0171 21.3909L19.9979 21.2367L19.9004 20.457L19.9604 21.4616C19.9594 21.4619 19.9583 21.4622 19.9573 21.4624L20.0171 21.3909ZM20.0171 21.3909L20.0174 21.3932L20.5859 20.7109L20.0171 21.3909ZM31.5547 29.2266L31.557 29.2266C31.5621 29.2265 31.5664 29.2267 31.5698 29.2269C31.5701 29.2309 31.5703 29.2359 31.5703 29.2422L31.5703 29.2445C31.5703 29.2496 31.5702 29.2539 31.57 29.2573C31.566 29.2576 31.5609 29.2578 31.5547 29.2578L31.5523 29.2578C31.5473 29.2578 31.543 29.2577 31.5396 29.2575C31.5393 29.2535 31.5391 29.2484 31.5391 29.2422L31.5391 29.2398C31.539 29.2348 31.5392 29.2305 31.5394 29.2271C31.5434 29.2268 31.5484 29.2266 31.5547 29.2266ZM25.5862 20.5603C25.711 20.5828 25.8392 20.594 25.9697 20.5938C25.9702 20.5938 25.9706 20.5937 25.9711 20.5937L25.9701 20.1764L25.9688 20.1777L25.5862 20.5603Z" stroke="#2E2008" stroke-width="2"/>
</g>
</g>
<defs>
<filter id="filter0_dii_2229_8027" x="4.5" y="4.5" width="43" height="43" filterUnits="userSpaceOnUse" color-interpolation-filters="sRGB">
<feFlood flood-opacity="0" result="BackgroundImageFix"/>
<feColorMatrix in="SourceAlpha" type="matrix" values="0 0 0 0 0 0 0 0 0 0 0 0 0 0 0 0 0 0 127 0" result="hardAlpha"/>
<feOffset dx="2" dy="2"/>
<feComposite in2="hardAlpha" operator="out"/>
<feColorMatrix type="matrix" values="0 0 0 0 0.180392 0 0 0 0 0.12549 0 0 0 0 0.0313726 0 0 0 1 0"/>
<feBlend mode="normal" in2="BackgroundImageFix" result="effect1_dropShadow_2229_8027"/>
<feBlend mode="normal" in="SourceGraphic" in2="effect1_dropShadow_2229_8027" result="shape"/>
<feColorMatrix in="SourceAlpha" type="matrix" values="0 0 0 0 0 0 0 0 0 0 0 0 0 0 0 0 0 0 127 0" result="hardAlpha"/>
<feOffset dx="6" dy="2"/>
<feComposite in2="hardAlpha" operator="arithmetic" k2="-1" k3="1"/>
<feColorMatrix type="matrix" values="0 0 0 0 0.229167 0 0 0 0 0.5375 0 0 0 0 1 0 0 0 0.56 0"/>
<feBlend mode="normal" in2="shape" result="effect2_innerShadow_2229_8027"/>
<feColorMatrix in="SourceAlpha" type="matrix" values="0 0 0 0 0 0 0 0 0 0 0 0 0 0 0 0 0 0 127 0" result="hardAlpha"/>
<feOffset dx="-4.0625" dy="-2.8125"/>
<feComposite in2="hardAlpha" operator="arithmetic" k2="-1" k3="1"/>
<feColorMatrix type="matrix" values="0 0 0 0 0.00746524 0 0 0 0 0.629323 0 0 0 0 0.895833 0 0 0 1 0"/>
<feBlend mode="normal" in2="effect2_innerShadow_2229_8027" result="effect3_innerShadow_2229_8027"/>
</filter>
<filter id="filter1_di_2229_8027" x="11.7812" y="9.46875" width="26.3125" height="26.3125" filterUnits="userSpaceOnUse" color-interpolation-filters="sRGB">
<feFlood flood-opacity="0" result="BackgroundImageFix"/>
<feColorMatrix in="SourceAlpha" type="matrix" values="0 0 0 0 0 0 0 0 0 0 0 0 0 0 0 0 0 0 127 0" result="hardAlpha"/>
<feOffset dx="2" dy="2"/>
<feComposite in2="hardAlpha" operator="out"/>
<feColorMatrix type="matrix" values="0 0 0 0 0.180392 0 0 0 0 0.12549 0 0 0 0 0.0313726 0 0 0 1 0"/>
<feBlend mode="normal" in2="BackgroundImageFix" result="effect1_dropShadow_2229_8027"/>
<feBlend mode="normal" in="SourceGraphic" in2="effect1_dropShadow_2229_8027" result="shape"/>
<feColorMatrix in="SourceAlpha" type="matrix" values="0 0 0 0 0 0 0 0 0 0 0 0 0 0 0 0 0 0 127 0" result="hardAlpha"/>
<feOffset dx="-3.125" dy="-3.125"/>
<feComposite in2="hardAlpha" operator="arithmetic" k2="-1" k3="1"/>
<feColorMatrix type="matrix" values="0 0 0 0 0.0922396 0 0 0 0 0.544775 0 0 0 0 0.9625 0 0 0 0.4 0"/>
<feBlend mode="normal" in2="shape" result="effect2_innerShadow_2229_8027"/>
</filter>
<linearGradient id="paint0_linear_2229_8027" x1="39.3578" y1="12.2698" x2="14.6801" y2="21.3655" gradientUnits="userSpaceOnUse">
<stop offset="0.0104167" stop-color="#187EF5"/>
<stop offset="0.442708" stop-color="#0047FF"/>
<stop offset="0.984375" stop-color="#67A4FF"/>
</linearGradient>
<radialGradient id="paint1_radial_2229_8027" cx="0" cy="0" r="1" gradientUnits="userSpaceOnUse" gradientTransform="translate(25.9688 21.625) rotate(90) scale(10.3567 12.4281)">
<stop offset="0.182292" stop-color="#C7D4FF"/>
<stop offset="1" stop-color="white"/>
</radialGradient>
<clipPath id="clip0_2229_8027">
<rect width="25.9375" height="27.5" fill="white" transform="translate(11.75 9.4375)"/>
</clipPath>
</defs>
</svg>
