<svg width="32" height="32" viewBox="0 0 32 32" fill="none" xmlns="http://www.w3.org/2000/svg">
<g id="Frame">
<path id="Vector" d="M25.3332 6.66675L6.6665 25.3334" stroke="#8D8D8D" stroke-width="3" stroke-linecap="round" stroke-linejoin="round"/>
<path id="Vector_2" d="M21.8973 17.3333H25.9998C27.1044 17.3333 27.9998 18.2287 27.9998 19.3333V25.9999C27.9998 27.1045 27.1044 27.9999 25.9998 27.9999H16.6665C15.5619 27.9999 14.6665 27.1045 14.6665 25.9999V24.0999" stroke="#8D8D8D" stroke-width="3" stroke-linecap="round" stroke-linejoin="round"/>
<g id="Group 229">
<path id="Vector_3" d="M8 2.46094V15.9994" stroke="#8D8D8D" stroke-width="3" stroke-linecap="round" stroke-linejoin="round"/>
<path id="Vector_4" d="M11.3846 3.69165C11.3846 3.69165 8.29865 3.69165 6.76923 3.69165C5.23982 3.69165 4 4.93147 4 6.46088C4 7.9903 5.23982 9.23011 6.76923 9.23011" stroke="#8D8D8D" stroke-width="3" stroke-linecap="round" stroke-linejoin="round"/>
<path id="Vector_5" d="M4.61523 14.7687C4.61523 14.7687 7.7012 14.7687 9.23062 14.7687C10.76 14.7687 11.9999 13.5289 11.9999 11.9995C11.9999 10.47 10.76 9.23022 9.23062 9.23022H6.76908" stroke="#8D8D8D" stroke-width="3" stroke-linecap="round" stroke-linejoin="round"/>
</g>
</g>
</svg>
