<svg width="46" height="46" viewBox="0 0 46 46" fill="none" xmlns="http://www.w3.org/2000/svg">
<path d="M23 46C35.7025 46 46 35.7025 46 23C46 10.2975 35.7025 0 23 0C10.2975 0 0 10.2975 0 23C0 35.7025 10.2975 46 23 46Z" fill="#FFD81F"/>
<path d="M27.3333 30H35.3333" stroke="black" stroke-width="3" stroke-linecap="round" stroke-linejoin="round"/>
<path d="M32 33.3332L35.3333 29.9998L32.0003 26.6665" stroke="black" stroke-width="3" stroke-linecap="round" stroke-linejoin="round"/>
<path d="M35.3333 24.6667V14C35.3333 12.8954 34.4379 12 33.3333 12H12C10.8954 12 10 12.8954 10 14V32.6667C10 33.7713 10.8954 34.6667 12 34.6667H25.6471" stroke="black" stroke-width="3" stroke-linecap="round" stroke-linejoin="round"/>
<path d="M19.0389 32C18.6914 32 18.3978 31.8881 18.1582 31.6642C17.9185 31.4404 17.7987 31.1605 17.7987 30.8248V29.5824L18.3379 30.0357C17.5351 30.0021 16.84 29.907 16.2528 29.7503C15.6657 29.5936 15.1863 29.4369 14.8149 29.2802C14.5033 29.1459 14.2816 28.9556 14.1498 28.7093C14.03 28.4631 13.982 28.2113 14.006 27.9538C14.0419 27.6964 14.1438 27.4614 14.3116 27.2487C14.4793 27.036 14.695 26.8961 14.9587 26.829C15.2343 26.7506 15.5518 26.7842 15.9113 26.9297C16.151 27.0528 16.5105 27.1815 16.9898 27.3158C17.4811 27.439 18.0863 27.5005 18.8053 27.5005C19.3086 27.5005 19.704 27.4558 19.9916 27.3662C20.2912 27.2767 20.5009 27.1591 20.6207 27.0136C20.7525 26.8569 20.8185 26.6891 20.8185 26.51C20.8185 26.3421 20.7705 26.2022 20.6747 26.0902C20.5908 25.9671 20.447 25.8608 20.2433 25.7712C20.0395 25.6705 19.7579 25.581 19.3984 25.5026L17.3673 25.0997C16.2528 24.8646 15.42 24.4729 14.8688 23.9244C14.3295 23.3648 14.0599 22.6429 14.0599 21.7587C14.0599 21.0871 14.2337 20.4883 14.5812 19.9622C14.9407 19.425 15.438 18.9885 16.0731 18.6527C16.7202 18.3169 17.4751 18.1042 18.3379 18.0147L17.7987 18.3001V17.1752C17.7987 16.8395 17.9185 16.5596 18.1582 16.3358C18.3978 16.1119 18.6914 16 19.0389 16C19.3984 16 19.698 16.1119 19.9377 16.3358C20.1774 16.5596 20.2972 16.8395 20.2972 17.1752V18.3001L19.7579 17.9811C20.2133 17.9923 20.7046 18.0651 21.2319 18.1994C21.7591 18.3225 22.2205 18.496 22.6159 18.7198C22.8916 18.8541 23.0833 19.0388 23.1911 19.2739C23.311 19.5089 23.3529 19.7496 23.317 19.9958C23.293 20.2308 23.1971 20.4435 23.0294 20.6338C22.8736 20.8241 22.6579 20.9528 22.3823 21.0199C22.1186 21.0759 21.8011 21.0311 21.4296 20.8856C21.154 20.7737 20.8424 20.6842 20.4949 20.617C20.1594 20.5386 19.728 20.4995 19.2007 20.4995C18.5656 20.4995 18.0743 20.6058 17.7268 20.8185C17.3913 21.0311 17.2235 21.3054 17.2235 21.6411C17.2235 21.865 17.3194 22.0553 17.5111 22.212C17.7148 22.3575 18.0803 22.4862 18.6075 22.5981L20.6567 23.0178C21.7951 23.2529 22.6339 23.6446 23.1732 24.1931C23.7244 24.7303 24 25.4299 24 26.2917C24 26.9633 23.8262 27.5565 23.4787 28.0714C23.1312 28.5862 22.6459 29.0059 22.0228 29.3305C21.4116 29.6551 20.6986 29.8678 19.8838 29.9685L20.2972 29.5656V30.8248C20.2972 31.1605 20.1774 31.4404 19.9377 31.6642C19.71 31.8881 19.4104 32 19.0389 32Z" fill="black"/>
</svg>
