<svg width="48" height="48" viewBox="0 0 48 48" fill="none" xmlns="http://www.w3.org/2000/svg">
<path d="M10.0078 18.0059C11.1124 18.0059 12.0078 18.9013 12.0078 20.0058C15.2774 20.0058 18.2851 21.1266 20.6679 23.0048L25.0079 23.0058C27.6731 23.0058 30.0677 24.1644 31.7157 26.0052L38.0079 26.0058C41.9925 26.0058 45.4327 28.3364 47.0401 31.7086C42.3105 37.9498 34.6517 42.0058 26.0079 42.0058C20.4265 42.0058 15.7074 40.7994 11.8861 38.69C11.6092 39.457 10.8726 40.0058 10.0078 40.0058H4.00781C2.90325 40.0058 2.00781 39.1104 2.00781 38.0058V20.0058C2.00781 18.9013 2.90325 18.0059 4.00781 18.0059H10.0078ZM12.0098 24.0058L12.0078 34.0498L12.0985 34.1148C15.6862 36.6356 20.3641 38.0058 26.0079 38.0058C32.0159 38.0058 37.6051 35.6946 41.6781 31.747L41.9439 31.4798L41.7055 31.279C40.7775 30.553 39.6391 30.1026 38.4179 30.0196L38.0079 30.0058H33.7849C33.9309 30.649 34.0079 31.3184 34.0079 32.0058V34.0058H16.0078V30.0058L29.5879 30.0038L29.5191 29.8468C28.7581 28.2596 27.1841 27.1364 25.3367 27.0164L25.0079 27.0058L19.149 27.0056C17.3345 25.1548 14.8063 24.0064 12.0098 24.0058ZM8.00781 22.0058H6.00781V36.0058H8.00781V22.0058ZM36.0079 10.0059C39.3214 10.0059 42.0079 12.6921 42.0079 16.0059C42.0079 19.3196 39.3214 22.0058 36.0079 22.0058C32.694 22.0058 30.0079 19.3196 30.0079 16.0059C30.0079 12.6921 32.694 10.0059 36.0079 10.0059ZM36.0079 14.0059C34.9033 14.0059 34.0079 14.9013 34.0079 16.0059C34.0079 17.1104 34.9033 18.0059 36.0079 18.0059C37.1124 18.0059 38.0079 17.1104 38.0079 16.0059C38.0079 14.9013 37.1124 14.0059 36.0079 14.0059ZM22.0079 4.00586C25.3215 4.00586 28.0079 6.69214 28.0079 10.0059C28.0079 13.3196 25.3215 16.0059 22.0079 16.0059C18.6941 16.0059 16.0078 13.3196 16.0078 10.0059C16.0078 6.69214 18.6941 4.00586 22.0079 4.00586ZM22.0079 8.00586C20.9033 8.00586 20.0079 8.90128 20.0079 10.0059C20.0079 11.1104 20.9033 12.0059 22.0079 12.0059C23.1125 12.0059 24.0079 11.1104 24.0079 10.0059C24.0079 8.90128 23.1125 8.00586 22.0079 8.00586Z" fill="#585654"/>
</svg>
