<svg width="49" height="48" viewBox="0 0 49 48" fill="none" xmlns="http://www.w3.org/2000/svg">
<g clip-path="url(#clip0_6499_6260)">
<path d="M40.75 44H8.75C8.21957 44 7.71086 43.7893 7.33579 43.4142C6.96071 43.0391 6.75 42.5304 6.75 42V6C6.75 5.46957 6.96071 4.96086 7.33579 4.58579C7.71086 4.21071 8.21957 4 8.75 4H40.75C41.2804 4 41.7891 4.21071 42.1642 4.58579C42.5393 4.96086 42.75 5.46957 42.75 6V42C42.75 42.5304 42.5393 43.0391 42.1642 43.4142C41.7891 43.7893 41.2804 44 40.75 44ZM38.75 40V8H10.75V40H38.75ZM16.75 14H32.75V18H16.75V14ZM16.75 22H32.75V26H16.75V22ZM16.75 30H26.75V34H16.75V30Z" fill="#585654"/>
</g>
<defs>
<clipPath id="clip0_6499_6260">
<rect width="48" height="48" fill="white" transform="translate(0.75)"/>
</clipPath>
</defs>
</svg>
