<svg width="37" height="33" viewBox="0 0 37 33" fill="none" xmlns="http://www.w3.org/2000/svg">
<path d="M35.5549 22.8996C34.9085 21.8601 33.988 21.0189 32.8945 20.4687C30.5971 19.3429 28.1828 18.4735 25.6951 17.8762C25.0367 17.7225 24.3737 17.5891 23.7073 17.4764C23.1951 17.3897 23.0569 16.5587 23.4844 16.2635C23.9269 15.9581 24.3426 15.6133 24.7262 15.2328C25.5872 14.4256 26.2707 13.448 26.7331 12.3622C27.1955 11.2763 27.4268 10.1061 27.4121 8.92596C27.4256 7.74727 27.1938 6.57865 26.7314 5.49436C26.269 4.41007 25.5861 3.43381 24.7262 2.62761C23.8833 1.77772 22.8773 1.10697 21.7687 0.655627C20.66 0.204288 19.4716 -0.0183179 18.2748 0.00117839C17.078 -0.0183179 15.8896 0.204288 14.7809 0.655627C13.6723 1.10697 12.6664 1.77772 11.8235 2.62761C10.9635 3.43381 10.2806 4.41007 9.81824 5.49436C9.35584 6.57865 9.12403 7.74727 9.13753 8.92596C9.12285 10.1061 9.35408 11.2763 9.81651 12.3622C10.2789 13.448 10.9624 14.4256 11.8235 15.2328C12.2086 15.6146 12.6258 15.9605 13.0699 16.2672C13.4967 16.5618 13.3585 17.3883 12.8471 17.4748C12.1791 17.5879 11.5145 17.7218 10.8545 17.8762C8.36683 18.4735 5.95251 19.3429 3.65517 20.4687C2.5625 21.0169 1.64418 21.8587 1.00323 22.8996C0.337684 23.9393 -0.0108193 25.1502 0.000256002 26.3845V28.6319C0.000256002 30.841 1.79112 32.6319 4.00026 32.6319H32.5494C34.7585 32.6319 36.5494 30.841 36.5494 28.6319V26.3845C36.5581 25.1517 36.213 23.9422 35.5549 22.8996Z" fill="url(#paint0_linear_5675_3674)"/>
<defs>
<linearGradient id="paint0_linear_5675_3674" x1="10.6247" y1="1.2758" x2="31.0242" y2="33.575" gradientUnits="userSpaceOnUse">
<stop stop-color="#FECD21"/>
<stop offset="1" stop-color="#FE7121"/>
</linearGradient>
</defs>
</svg>
