<svg width="49" height="48" viewBox="0 0 49 48" fill="none" xmlns="http://www.w3.org/2000/svg">
<path d="M24.2579 44.0058C13.2121 44.0058 4.25781 35.0516 4.25781 24.0058C4.25781 12.9602 13.2121 4.00586 24.2579 4.00586C35.3035 4.00586 44.2579 12.9602 44.2579 24.0058C44.2579 35.0516 35.3035 44.0058 24.2579 44.0058ZM24.2579 40.0058C33.0945 40.0058 40.2579 32.8424 40.2579 24.0058C40.2579 15.1693 33.0945 8.00586 24.2579 8.00586C15.4213 8.00586 8.25781 15.1693 8.25781 24.0058C8.25781 32.8424 15.4213 40.0058 24.2579 40.0058ZM18.2578 16.0059H30.2579L35.2579 23.0058L24.2563 34.0058L13.2578 23.0058L18.2578 16.0059ZM20.3179 20.0058L18.4778 22.5858L24.2563 28.3658L30.0379 22.5858L28.1979 20.0058H20.3179Z" fill="#585654"/>
</svg>
