<svg width="32" height="32" viewBox="0 0 32 32" fill="none" xmlns="http://www.w3.org/2000/svg">
<path d="M16 1.33325L26.9559 3.76789C27.566 3.90347 28 4.44455 28 5.06948V18.3851C28 21.0599 26.6632 23.5578 24.4376 25.0415L16 30.6666L7.5624 25.0415C5.33681 23.5578 4 21.0599 4 18.3851V5.06948C4 4.44455 4.43404 3.90347 5.04409 3.76789L16 1.33325ZM16 4.06497L6.66667 6.13904V18.3851C6.66667 20.1683 7.55787 21.8335 9.0416 22.8227L16 27.4617L22.9584 22.8227C24.4421 21.8335 25.3333 20.1683 25.3333 18.3851V6.13904L16 4.06497ZM21.9365 10.9624L23.8221 12.848L15.3368 21.3333L9.67999 15.6765L11.5656 13.7907L15.3359 17.5611L21.9365 10.9624Z" fill="#07C160"/>
</svg>
