<svg width="51" height="44" viewBox="0 0 51 44" fill="none" xmlns="http://www.w3.org/2000/svg">
<path d="M15.2162 20.6414C15.5897 21.0107 15.9866 21.3539 16.4041 21.6691C15.7806 21.7836 15.1599 21.9132 14.5424 22.0577L14.5424 22.0577L14.5368 22.059C11.5387 22.7788 8.629 23.8266 5.86026 25.1834L5.86024 25.1834L5.85188 25.1876C4.40287 25.9145 3.18467 27.0301 2.33337 28.4096C1.44958 29.7933 0.986465 31.4039 1.0003 33.0457V36.3914C1.0003 39.1528 3.23888 41.3914 6.0003 41.3914H31.9931C33.7604 42.4151 35.8132 43.001 38 43.001C44.6274 43.001 50 37.6284 50 31.001C50 24.3736 44.6274 19.001 38 19.001C35.6072 19.001 33.3766 19.7021 31.5044 20.9095C31.5992 20.8217 31.6926 20.7323 31.7845 20.6413C32.894 19.5985 33.7749 18.3368 34.3715 16.9359C34.9684 15.5343 35.2677 14.0241 35.2504 12.5009C35.2661 10.9795 34.9661 9.47141 34.3693 8.07185C33.7733 6.67419 32.8942 5.41523 31.7875 4.3743C30.7036 3.28483 29.4114 2.42468 27.9879 1.84516C26.5638 1.26539 25.0376 0.97841 23.5003 1.00127C21.963 0.97841 20.4368 1.26539 19.0127 1.84516C17.5892 2.42469 16.297 3.28485 15.2131 4.37431C14.1064 5.41525 13.2273 6.6742 12.6313 8.07184C12.0345 9.47141 11.7345 10.9795 11.7502 12.5009C11.7329 14.0241 12.0322 15.5343 12.6291 16.9359C13.2257 18.3369 14.1067 19.5986 15.2162 20.6414Z" stroke="black" stroke-width="2" stroke-miterlimit="10" stroke-linejoin="round"/>
<path d="M43.8303 28.9414C43.0698 27.7183 41.9868 26.7287 40.7003 26.0814C37.9975 24.7569 35.157 23.7341 32.2303 23.0314C31.3419 22.8239 30.4467 22.648 29.5462 22.5041C29.0333 22.4221 28.9011 21.6092 29.338 21.3282C29.9682 20.9229 30.5558 20.4517 31.0903 19.9214C32.1033 18.9718 32.9074 17.8216 33.4515 16.5441C33.9955 15.2666 34.2676 13.8898 34.2503 12.5014C34.2662 11.1147 33.9935 9.73978 33.4495 8.46412C32.9054 7.18845 32.102 6.03988 31.0903 5.09139C30.0987 4.09149 28.9151 3.30234 27.6108 2.77134C26.3065 2.24035 24.9084 1.97845 23.5003 2.00139C22.0922 1.97845 20.6941 2.24035 19.3898 2.77134C18.0855 3.30234 16.902 4.09149 15.9103 5.09139C14.8986 6.03988 14.0952 7.18845 13.5511 8.46412C13.0071 9.73978 12.7344 11.1147 12.7503 12.5014C12.733 13.8898 13.0051 15.2666 13.5491 16.5441C14.0932 17.8216 14.8973 18.9718 15.9103 19.9214C16.4461 20.4525 17.0348 20.9247 17.666 21.3312C18.102 21.612 17.9698 22.4207 17.4577 22.5026C16.5561 22.6468 15.6598 22.8232 14.7703 23.0314C11.8436 23.7341 9.00312 24.7569 6.3003 26.0814C5.01478 26.7263 3.93438 27.7167 3.1803 28.9414C2.39729 30.1645 1.98727 31.5891 2.0003 33.0414V36.3914C2.0003 38.6005 3.79116 40.3914 6.0003 40.3914H41.0003C43.2094 40.3914 45.0003 38.6005 45.0003 36.3914V33.0414C45.0106 31.5909 44.6046 30.168 43.8303 28.9414Z" fill="url(#paint0_linear_5360_14449)"/>
<path d="M38 42.001C44.0751 42.001 49 37.0761 49 31.001C49 24.9258 44.0751 20.001 38 20.001C31.9249 20.001 27 24.9258 27 31.001C27 37.0761 31.9249 42.001 38 42.001Z" fill="url(#paint1_linear_5360_14449)"/>
<defs>
<linearGradient id="paint0_linear_5360_14449" x1="14.5" y1="3.50098" x2="38.5" y2="41.501" gradientUnits="userSpaceOnUse">
<stop stop-color="#FECD21"/>
<stop offset="1" stop-color="#FE7121"/>
</linearGradient>
<linearGradient id="paint1_linear_5360_14449" x1="31.5" y1="22.501" x2="42" y2="41.001" gradientUnits="userSpaceOnUse">
<stop stop-color="#E7F07D"/>
<stop offset="1" stop-color="#6BED9F"/>
</linearGradient>
</defs>
</svg>
