<svg width="40" height="40" viewBox="0 0 40 40" fill="none" xmlns="http://www.w3.org/2000/svg">
<path d="M32.7181 18.7941L19.163 37.3863C18.3125 38.5382 16.452 37.9623 16.452 36.5404V24.9855C16.452 24.1756 15.7787 23.5277 14.9636 23.5277H9.4884C8.6556 23.5277 8 22.8797 8 22.0698C8 21.7638 8.0886 21.4759 8.2835 21.2239L21.8209 2.61367C22.6714 1.46178 24.5319 2.03772 24.5319 3.45959V15.0145C24.5319 15.8244 25.2052 16.4723 26.0203 16.4723H31.4955C32.7181 16.4903 33.4268 17.8222 32.7181 18.7941Z" fill="#FFB43B" fill-opacity="0.48"/>
<path d="M32.7181 16.7941L19.163 35.3863C18.3125 36.5382 16.452 35.9623 16.452 34.5404V22.9855C16.452 22.1756 15.7787 21.5277 14.9636 21.5277H9.4884C8.6556 21.5277 8 20.8797 8 20.0698C8 19.7638 8.0886 19.4759 8.2835 19.2239L21.8209 0.613667C22.6714 -0.538223 24.5319 0.0377218 24.5319 1.45959V13.0145C24.5319 13.8244 25.2052 14.4723 26.0203 14.4723H31.4955C32.7181 14.4903 33.4268 15.8222 32.7181 16.7941Z" fill="url(#paint0_linear_11977_6529)"/>
<defs>
<linearGradient id="paint0_linear_11977_6529" x1="33" y1="36" x2="5.87867" y2="34.3238" gradientUnits="userSpaceOnUse">
<stop stop-color="#FEA021"/>
<stop offset="1" stop-color="#FFC350"/>
</linearGradient>
</defs>
</svg>
