<svg width="36" height="36" viewBox="0 0 36 36" fill="none" xmlns="http://www.w3.org/2000/svg">
<g id="Group 33840">
<g id="Replay">
<path id="&#229;&#144;&#136;&#229;&#185;&#182;&#229;&#189;&#162;&#231;&#138;&#182;" d="M20.734 3.16064L26.416 6.94864C26.9782 7.32349 26.9782 8.1497 26.416 8.52455L20.734 12.3125C20.1046 12.7321 19.2617 12.281 19.2617 11.5246L19.2617 8.0985C14.3867 7.65229 9.63263 10.509 7.87957 15.3255C5.79262 21.0593 8.74902 27.3993 14.4829 29.4863C20.2167 31.5732 26.5567 28.6168 28.6437 22.883C28.8569 22.2971 29.0193 21.7007 29.1307 21.0978C29.1372 21.0629 29.1444 21.0284 29.1524 20.9942C29.162 20.9087 29.1818 20.823 29.2125 20.7385C29.4212 20.1652 30.0552 19.8695 30.6286 20.0782C31.202 20.2869 31.4976 20.9209 31.2889 21.4943C31.1711 22.2161 30.9776 22.9313 30.7201 23.6387C28.2157 30.5193 20.6077 34.067 13.7271 31.5627C6.8465 29.0583 3.29883 21.4503 5.80316 14.5697C7.88285 8.85581 13.4821 5.44038 19.2617 5.88058L19.2617 3.94859C19.2617 3.19223 20.1046 2.74108 20.734 3.16064Z" fill="#87837E"/>
</g>
</g>
</svg>
