<svg width="60" height="32" viewBox="0 0 60 32" fill="none" xmlns="http://www.w3.org/2000/svg">
<path opacity="0.72" d="M12.9375 12.0909C12.9375 12.6432 13.3852 13.0909 13.9375 13.0909H21.1041C21.9083 13.0909 22.3835 13.9919 21.9295 14.6556L11.8878 29.3322C11.3326 30.1436 10.0625 29.7507 10.0625 28.7675V19.9091C10.0625 19.3568 9.61478 18.9091 9.0625 18.9091H1.89586C1.0917 18.9091 0.616455 18.0081 1.07054 17.3444L11.1122 2.66782C11.6674 1.85638 12.9375 2.2493 12.9375 3.2325V12.0909Z" fill="white"/>
<path opacity="0.64" d="M36.5625 12.8182C36.5625 13.3705 37.0102 13.8182 37.5625 13.8182H42.1196C42.9207 13.8182 43.3966 14.7131 42.9488 15.3772L36.2666 25.2873C35.715 26.1054 34.4375 25.7149 34.4375 24.7282V19.1818C34.4375 18.6295 33.9898 18.1818 33.4375 18.1818H28.8804C28.0793 18.1818 27.6034 17.2869 28.0512 16.6228L34.7334 6.71271C35.285 5.89462 36.5625 6.28508 36.5625 7.27178V12.8182Z" fill="white"/>
<path opacity="0.48" d="M54.75 13.5455C54.75 14.0977 55.1977 14.5455 55.75 14.5455H58.0574C58.8706 14.5455 59.3438 15.4646 58.8712 16.1265L55.0639 21.4594C54.4985 22.2512 53.25 21.8513 53.25 20.8783V18.4545C53.25 17.9023 52.8023 17.4545 52.25 17.4545H49.9426C49.1294 17.4545 48.6562 16.5354 49.1288 15.8735L52.9361 10.5406C53.5015 9.74878 54.75 10.1487 54.75 11.1217V13.5455Z" fill="white"/>
</svg>
