<svg width="96" height="96" viewBox="0 0 96 96" fill="none" xmlns="http://www.w3.org/2000/svg">
<g filter="url(#filter0_bd_5207_9025)">
<path d="M10.498 38.4138C10.498 45.7073 13.3954 52.702 18.5526 57.8593C23.7099 63.0165 30.7046 65.9138 37.998 65.9138C41.6094 65.9138 45.1854 65.2025 48.5218 63.8205C51.8583 62.4385 54.8899 60.4129 57.4435 57.8593C62.6007 52.702 65.498 45.7073 65.498 38.4138C65.498 31.1204 62.6007 24.1256 57.4435 18.9684C52.2862 13.8111 45.2915 10.9138 37.998 10.9138C34.3867 10.9138 30.8107 11.6251 27.4743 13.0071C24.1378 14.3891 21.1062 16.4148 18.5526 18.9684C15.999 21.522 13.9734 24.5536 12.5914 27.89C11.2094 31.2265 10.498 34.8025 10.498 38.4138ZM32.498 27.078C32.498 26.1871 33.5752 25.741 34.2052 26.3709L45.5409 37.7067C45.9315 38.0972 45.9315 38.7304 45.5409 39.1209L34.2052 50.4567C33.5752 51.0867 32.498 50.6405 32.498 49.7496V27.078Z" fill="#F5F8FF" fill-opacity="0.6" shape-rendering="crispEdges"/>
</g>
<defs>
<filter id="filter0_bd_5207_9025" x="-9.50195" y="-9.08618" width="105" height="105" filterUnits="userSpaceOnUse" color-interpolation-filters="sRGB">
<feFlood flood-opacity="0" result="BackgroundImageFix"/>
<feGaussianBlur in="BackgroundImageFix" stdDeviation="10"/>
<feComposite in2="SourceAlpha" operator="in" result="effect1_backgroundBlur_5207_9025"/>
<feColorMatrix in="SourceAlpha" type="matrix" values="0 0 0 0 0 0 0 0 0 0 0 0 0 0 0 0 0 0 127 0" result="hardAlpha"/>
<feOffset dx="10" dy="10"/>
<feGaussianBlur stdDeviation="10"/>
<feComposite in2="hardAlpha" operator="out"/>
<feColorMatrix type="matrix" values="0 0 0 0 0.470833 0 0 0 0 0.470833 0 0 0 0 0.470833 0 0 0 0.1 0"/>
<feBlend mode="normal" in2="effect1_backgroundBlur_5207_9025" result="effect2_dropShadow_5207_9025"/>
<feBlend mode="normal" in="SourceGraphic" in2="effect2_dropShadow_5207_9025" result="shape"/>
</filter>
</defs>
</svg>
