<svg width="48" height="48" viewBox="0 0 48 48" fill="none" xmlns="http://www.w3.org/2000/svg">
<path d="M24 2L40.4338 5.65196C41.349 5.85532 42 6.66694 42 7.60434V27.5778C42 31.59 39.9948 35.3368 36.6564 37.5624L24 46L11.3436 37.5624C8.00522 35.3368 6 31.59 6 27.5778V7.60434C6 6.66694 6.65106 5.85532 7.56614 5.65196L24 2ZM24 6.09758L10 9.20868V27.5778C10 30.2526 11.3368 32.7504 13.5624 34.2342L24 41.1926L34.4376 34.2342C36.6632 32.7504 38 30.2526 38 27.5778V9.20868L24 6.09758ZM24 14C26.2092 14 28 15.7909 28 18C28 19.4797 27.1966 20.7716 26.0022 21.4636L26 30H22L21.9998 21.4648C20.8044 20.7732 20 19.4805 20 18C20 15.7909 21.7908 14 24 14Z" fill="#585654"/>
</svg>
