<svg width="48" height="48" viewBox="0 0 48 48" fill="none" xmlns="http://www.w3.org/2000/svg">
<path d="M11.1701 14.4283C8.708 14.4283 6.70599 12.4263 6.70599 9.96414C6.70599 7.50621 8.7295 5.5 11.1701 5.5C13.6192 5.5 15.66 7.51455 15.66 9.96414C15.66 12.4179 13.6407 14.4283 11.1701 14.4283Z" stroke="#666666" stroke-width="3"/>
<path d="M37.4947 14.4283C35.0325 14.4283 33.0305 12.4263 33.0305 9.96414C33.0305 7.50201 35.0325 5.5 37.4947 5.5C39.9568 5.5 41.9588 7.50201 41.9588 9.96414C41.9588 12.4263 39.9568 14.4283 37.4947 14.4283Z" stroke="#666666" stroke-width="3"/>
<path d="M11.7455 37.2554C8.38685 33.8968 6.5 29.3415 6.5 24.5917C6.5 19.8419 8.38685 15.2867 11.7455 11.928C15.1041 8.56941 19.6594 6.68256 24.4092 6.68256C29.159 6.68256 33.7142 8.56941 37.0729 11.928C40.4315 15.2867 42.3183 19.8419 42.3183 24.5917C42.3183 29.3415 40.4315 33.8968 37.0729 37.2554C33.7142 40.614 29.159 42.5009 24.4092 42.5009C19.6594 42.5009 15.1041 40.614 11.7455 37.2554Z" fill="white" stroke="#666666" stroke-width="3"/>
<mask id="mask0_179_6971" style="mask-type:alpha" maskUnits="userSpaceOnUse" x="9" y="9" width="31" height="31">
<path fill-rule="evenodd" clip-rule="evenodd" d="M9.75604 24.591C9.75604 16.5188 16.3372 9.93768 24.4093 9.93768C32.5072 9.93768 39.0626 16.5188 39.0626 24.591C39.0626 32.6631 32.4815 39.2442 24.4093 39.2442C16.3372 39.2442 9.75604 32.6631 9.75604 24.591Z" fill="url(#paint0_linear_179_6971)"/>
</mask>
<g mask="url(#mask0_179_6971)">
<path d="M24.4086 13.133C23.7402 13.133 23.2004 12.5931 23.2004 11.9247V10.1766C23.2004 9.50824 23.7402 8.96838 24.4086 8.96838C25.077 8.96838 25.6169 9.50824 25.6169 10.1766V11.9247C25.6169 12.5931 25.077 13.133 24.4086 13.133Z" fill="#666666"/>
<path d="M24.4086 40.3925C23.7402 40.3925 23.2004 39.8526 23.2004 39.1842V37.4361C23.2004 36.7677 23.7402 36.2278 24.4086 36.2278C25.077 36.2278 25.6169 36.7677 25.6169 37.4361V39.1842C25.6169 39.8526 25.077 40.3925 24.4086 40.3925Z" fill="#666666"/>
<path d="M11.8967 25.6467H10.1486C9.48017 25.6467 8.94031 25.1069 8.94031 24.4385C8.94031 23.7701 9.48017 23.2302 10.1486 23.2302H11.8967C12.5651 23.2302 13.1049 23.7701 13.1049 24.4385C13.1049 25.1069 12.5651 25.6467 11.8967 25.6467Z" fill="#666666"/>
<path d="M38.6696 25.6467H36.9215C36.2531 25.6467 35.7132 25.1069 35.7132 24.4385C35.7132 23.7701 36.2531 23.2302 36.9215 23.2302H38.6696C39.338 23.2302 39.8778 23.7701 39.8778 24.4385C39.8778 25.1069 39.338 25.6467 38.6696 25.6467Z" fill="#666666"/>
</g>
<path d="M26.8187 18.5L23.8948 22.0457L22.4892 23.75H22.026H20.8896L22.1127 18.5H26.8187ZM25.052 24.5H26.0034L23.526 27.6578V25.25V24.5H25.052Z" fill="#666666" stroke="#666666" stroke-width="3"/>
<defs>
<linearGradient id="paint0_linear_179_6971" x1="31.8281" y1="12.2701" x2="17.5192" y2="37.25" gradientUnits="userSpaceOnUse">
<stop stop-color="#FF5E83"/>
<stop offset="1" stop-color="#DB758D"/>
</linearGradient>
</defs>
</svg>
