<svg width="48" height="49" viewBox="0 0 48 49" fill="none" xmlns="http://www.w3.org/2000/svg">
<path d="M2.66699 11V8.33333C2.66699 6.91885 3.2289 5.56229 4.22909 4.5621C5.22928 3.5619 6.58584 3 8.00033 3H13.3337M2.66699 37.6667V40.3333C2.66699 41.7478 3.2289 43.1044 4.22909 44.1046C5.22928 45.1048 6.58584 45.6667 8.00033 45.6667H13.3337M34.667 3H40.0003C41.4148 3 42.7714 3.5619 43.7716 4.5621C44.7718 5.56229 45.3337 6.91885 45.3337 8.33333V11M34.667 45.6667H40.0003C41.4148 45.6667 42.7714 45.1048 43.7716 44.1046C44.7718 43.1044 45.3337 41.7478 45.3337 40.3333V37.6667M5.33366 24.3333H42.667" stroke="#2E2008" stroke-width="5.33333" stroke-linecap="round" stroke-linejoin="round"/>
</svg>
