<svg width="40" height="40" viewBox="0 0 40 40" fill="none" xmlns="http://www.w3.org/2000/svg">
<path d="M30.0517 27.6947L36.011 33.654C36.6619 34.3049 36.6619 35.3601 36.011 36.011C35.3601 36.6619 34.3049 36.6619 33.654 36.011L27.6947 30.0517C25.1282 32.105 21.8733 33.3333 18.3333 33.3333C10.0533 33.3333 3.33334 26.6133 3.33334 18.3333C3.33334 10.0533 10.0533 3.33334 18.3333 3.33334C26.6133 3.33334 33.3333 10.0533 33.3333 18.3333C33.3333 21.8733 32.105 25.1282 30.0517 27.6947ZM26.7078 26.458C28.7458 24.3577 30 21.4927 30 18.3333C30 11.8875 24.7792 6.66668 18.3333 6.66668C11.8875 6.66668 6.66668 11.8875 6.66668 18.3333C6.66668 24.7792 11.8875 30 18.3333 30C21.4927 30 24.3577 28.7458 26.458 26.7078L26.7078 26.458Z" fill="url(#paint0_linear_1_443)"/>
<defs>
<linearGradient id="paint0_linear_1_443" x1="37.1895" y1="37.1895" x2="0.609973" y2="33.9341" gradientUnits="userSpaceOnUse">
<stop stop-color="#FEA021"/>
<stop offset="1" stop-color="#FFC350"/>
</linearGradient>
</defs>
</svg>
