<svg width="40" height="40" viewBox="0 0 40 40" fill="none" xmlns="http://www.w3.org/2000/svg">
<path fill-rule="evenodd" clip-rule="evenodd" d="M4 19.998C4 11.1766 11.1766 4 19.998 4C28.8194 4 35.996 11.1806 35.996 19.998C35.996 28.8234 28.8194 36 19.998 36C11.1766 36 4 28.8234 4 19.998Z" fill="url(#paint0_linear_1_377)"/>
<path d="M20.5672 17.5878C20.9124 17.5878 21.1922 17.3079 21.1922 16.9628V14.5089C21.1922 13.9521 21.8654 13.6732 22.2591 14.0669L27.5581 19.3659C27.8021 19.6099 27.8021 20.0057 27.5581 20.2498L22.2591 25.5487C21.8654 25.9424 21.1922 25.6636 21.1922 25.1067V22.6011C21.1922 22.2559 20.9124 21.9761 20.5672 21.9761H13C12.6548 21.9761 12.375 21.6962 12.375 21.3511V18.2128C12.375 17.8676 12.6548 17.5878 13 17.5878H20.5672Z" fill="url(#paint1_radial_1_377)"/>
<defs>
<linearGradient id="paint0_linear_1_377" x1="30.1873" y1="31.2503" x2="8.62129" y2="8.65739" gradientUnits="userSpaceOnUse">
<stop stop-color="#1EE5B6"/>
<stop offset="1" stop-color="#69FFDB"/>
</linearGradient>
<radialGradient id="paint1_radial_1_377" cx="0" cy="0" r="1" gradientUnits="userSpaceOnUse" gradientTransform="translate(18.625 19.8078) rotate(90) scale(6.94219 9.56005)">
<stop stop-color="white"/>
<stop offset="0.817708" stop-color="white"/>
</radialGradient>
</defs>
</svg>
