<svg width="49" height="48" viewBox="0 0 49 48" fill="none" xmlns="http://www.w3.org/2000/svg">
<path d="M10.2578 18.0051C11.3624 18.0051 12.2578 18.9005 12.2578 20.0052C15.5274 20.0052 18.5351 21.126 20.9179 23.0042L25.2579 23.0052C27.9221 23.0052 30.3159 24.1628 31.9639 26.0026L38.2579 26.0052C42.2425 26.0052 45.6827 28.3356 47.2901 31.708C42.5605 37.9492 34.9017 42.0052 26.2579 42.0052C20.6765 42.0052 15.9574 40.7986 12.1361 38.6892C11.8592 39.4564 11.1226 40.0052 10.2578 40.0052H4.25781C3.15325 40.0052 2.25781 39.1098 2.25781 38.0052V20.0052C2.25781 18.9005 3.15325 18.0051 4.25781 18.0051H10.2578ZM12.2598 24.0052L12.2578 34.0474L12.3485 34.1142C15.9362 36.635 20.6141 38.0052 26.2579 38.0052C32.2659 38.0052 37.8551 35.6938 41.9281 31.7462L42.1939 31.4792L41.9555 31.2784C41.0275 30.5524 39.8891 30.1018 38.6679 30.019L38.2579 30.0052L34.0345 30.0032C34.1807 30.647 34.2579 31.317 34.2579 32.0052V34.0052H16.2578V30.0052L29.8379 30.0032L29.7691 29.8462C29.0081 28.259 27.4341 27.1358 25.5867 27.0158L25.2579 27.0052L19.399 27.0048C17.5845 25.1542 15.0563 24.0058 12.2598 24.0052ZM8.25781 22.0052H6.25781V36.0052H8.25781V22.0052ZM27.5507 7.15587L28.2573 7.86341L28.9649 7.15587C30.9175 5.20325 34.0834 5.20325 36.036 7.15587C37.9886 9.10849 37.9886 12.2743 36.036 14.2269L28.2579 22.0052L20.4797 14.2269C18.527 12.2743 18.527 9.10849 20.4797 7.15587C22.4323 5.20325 25.5981 5.20325 27.5507 7.15587ZM23.3081 9.98429C22.9609 10.3314 22.9225 10.8703 23.1909 11.2585L23.3059 11.3964L28.2559 16.3471L33.2077 11.3985C33.5547 11.0514 33.5933 10.5125 33.3233 10.1228L33.2077 9.98429C32.8605 9.63717 32.3217 9.59859 31.9315 9.86889L31.7929 9.98473L28.2547 13.522L24.7201 9.98215L24.5839 9.86859C24.1941 9.59859 23.6553 9.63717 23.3081 9.98429Z" fill="#585654"/>
</svg>
