<svg width="64" height="64" viewBox="0 0 64 64" fill="none" xmlns="http://www.w3.org/2000/svg">
<circle cx="32" cy="32" r="32" fill="url(#paint0_linear_15592_6703)"/>
<circle cx="32" cy="32" r="32" fill="url(#paint1_linear_15592_6703)"/>
<path d="M44.5713 25.6673H46.2526C48.0016 25.6673 49.4193 27.0851 49.4193 28.834V35.1673C49.4193 36.9163 48.0016 38.334 46.2526 38.334H44.5713C43.7921 44.5823 38.462 49.4173 32.0026 49.4173V46.2506C37.2493 46.2506 41.5026 41.9973 41.5026 36.7507V27.2507C41.5026 22.0039 37.2493 17.7507 32.0026 17.7507C26.7559 17.7507 22.5026 22.0039 22.5026 27.2507V38.334H17.7526C16.0037 38.334 14.5859 36.9163 14.5859 35.1673V28.834C14.5859 27.0851 16.0037 25.6673 17.7526 25.6673H19.4339C20.2131 19.419 25.5432 14.584 32.0026 14.584C38.462 14.584 43.7921 19.419 44.5713 25.6673ZM17.7526 28.834V35.1673H19.3359V28.834H17.7526ZM44.6693 28.834V35.1673H46.2526V28.834H44.6693ZM25.2884 37.9934L26.9669 35.3078C28.4268 36.2221 30.153 36.7507 32.0026 36.7507C33.8523 36.7507 35.5784 36.2221 37.0382 35.3078L38.7169 37.9934C36.7703 39.2126 34.4688 39.9173 32.0026 39.9173C29.5364 39.9173 27.2349 39.2126 25.2884 37.9934Z" fill="#2E2008"/>
<defs>
<linearGradient id="paint0_linear_15592_6703" x1="8.96" y1="56.96" x2="53.12" y2="7.68" gradientUnits="userSpaceOnUse">
<stop stop-color="#FED73A"/>
<stop offset="1" stop-color="#FFEDA6"/>
</linearGradient>
<linearGradient id="paint1_linear_15592_6703" x1="6.15385" y1="64" x2="50.208" y2="10.7478" gradientUnits="userSpaceOnUse">
<stop stop-color="#FFA224"/>
<stop offset="1" stop-color="#FFD81F"/>
</linearGradient>
</defs>
</svg>
