<svg width="48" height="48" viewBox="0 0 48 48" fill="none" xmlns="http://www.w3.org/2000/svg">
<path d="M39.8762 16H42C44.2092 16 46 17.7909 46 20V28C46 30.2092 44.2092 32 42 32H39.8762C38.892 39.8926 32.1592 46 24 46V42C30.6274 42 36 36.6274 36 30V18C36 11.3726 30.6274 6 24 6C17.3726 6 12 11.3726 12 18V32H6C3.79086 32 2 30.2092 2 28V20C2 17.7909 3.79086 16 6 16H8.12378C9.10798 8.10738 15.8408 2 24 2C32.1592 2 38.892 8.10738 39.8762 16ZM6 20V28H8V20H6ZM40 20V28H42V20H40ZM15.5189 31.5698L17.6392 28.1774C19.4832 29.3324 21.6636 30 24 30C26.3364 30 28.5168 29.3324 30.3608 28.1774L32.4812 31.5698C30.0224 33.1098 27.1152 34 24 34C20.8848 34 17.9776 33.1098 15.5189 31.5698Z" fill="#585654"/>
</svg>
