<svg width="24" height="24" viewBox="0 0 24 24" fill="none" xmlns="http://www.w3.org/2000/svg">
<path d="M19.9378 7.99941H20.9998C21.5302 7.99941 22.0389 8.21013 22.414 8.5852C22.789 8.96027 22.9998 9.46898 22.9998 9.99941V13.9994C22.9998 14.5298 22.789 15.0386 22.414 15.4136C22.0389 15.7887 21.5302 15.9994 20.9998 15.9994H19.9378C19.694 17.9327 18.753 19.7106 17.2915 20.9994C15.83 22.2882 13.9484 22.9994 11.9998 22.9994V20.9994C13.5911 20.9994 15.1172 20.3673 16.2424 19.2421C17.3676 18.1168 17.9998 16.5907 17.9998 14.9994V8.99941C17.9998 7.40811 17.3676 5.88199 16.2424 4.75677C15.1172 3.63155 13.5911 2.99941 11.9998 2.99941C10.4085 2.99941 8.88233 3.63155 7.75712 4.75677C6.6319 5.88199 5.99976 7.40811 5.99976 8.99941V15.9994H2.99976C2.46932 15.9994 1.96062 15.7887 1.58554 15.4136C1.21047 15.0386 0.999756 14.5298 0.999756 13.9994V9.99941C0.999756 9.46898 1.21047 8.96027 1.58554 8.5852C1.96062 8.21013 2.46932 7.99941 2.99976 7.99941H4.06176C4.30579 6.06631 5.24684 4.28869 6.70833 3.00009C8.16982 1.71149 10.0513 1.00049 11.9998 1.00049C13.9482 1.00049 15.8297 1.71149 17.2912 3.00009C18.7527 4.28869 19.6937 6.06631 19.9378 7.99941ZM2.99976 9.99941V13.9994H3.99976V9.99941H2.99976ZM19.9998 9.99941V13.9994H20.9998V9.99941H19.9998ZM7.75976 15.7844L8.81976 14.0884C9.77283 14.6854 10.8751 15.0012 11.9998 14.9994C13.1244 15.0012 14.2267 14.6854 15.1798 14.0884L16.2398 15.7844C14.969 16.5806 13.4993 17.0017 11.9998 16.9994C10.5002 17.0018 9.03047 16.5806 7.75976 15.7844Z" fill="#2E2008"/>
</svg>
