<svg width="32" height="24" viewBox="0 0 32 24" fill="none" xmlns="http://www.w3.org/2000/svg">
<g clip-path="url(#clip0_7410_2604)">
<path d="M0 0H32V24H0V0Z" fill="white"/>
<path fill-rule="evenodd" clip-rule="evenodd" d="M0 0V24H32V0H0Z" fill="#F7FCFF"/>
<mask id="mask0_7410_2604" style="mask-type:luminance" maskUnits="userSpaceOnUse" x="0" y="0" width="32" height="24">
<path fill-rule="evenodd" clip-rule="evenodd" d="M0 0V24H32V0H0Z" fill="white"/>
</mask>
<g mask="url(#mask0_7410_2604)">
<path fill-rule="evenodd" clip-rule="evenodd" d="M0 0V12H32V0H0Z" fill="#E31D1C"/>
<path d="M3.85156 6.37435C3.85156 2.15879 7.4958 1.84797 8.86914 2.19564C8.86225 2.19833 6.04297 3.29904 6.04297 6.37435C6.04311 9.44526 8.85454 10.5833 8.86914 10.5892C7.44077 11.3842 3.85169 10.5897 3.85156 6.37435ZM10.79 8.3724H11.7031L11.0293 9.12533L11.2324 10.0804L10.4033 9.59115L9.59277 10.0804L9.77832 9.12533L9.10254 8.41146L10.0166 8.3724L10.4033 7.4808L10.79 8.3724ZM13.7363 8.31771H14.6494L13.9756 9.07064L14.1787 10.0257L13.3496 9.53646L12.5391 10.0257L12.7246 9.07064L12.0488 8.35677L12.9629 8.31771L13.3496 7.42611L13.7363 8.31771ZM9.75684 6.00424H10.6699L9.99609 6.75717L10.1992 7.71224L9.37012 7.22299L8.55957 7.71224L8.74512 6.75717L8.06934 6.04232L8.9834 6.00424L9.37012 5.11166L9.75684 6.00424ZM15.1152 5.96029H16.0283L15.3545 6.71322L15.5576 7.6683L14.7285 7.17904L13.918 7.6683L14.1035 6.71322L13.4277 5.99838L14.3418 5.96029L14.7285 5.06869L15.1152 5.96029ZM12.4854 4.06185H13.3975L12.7236 4.81478L12.9268 5.76986L12.0986 5.2806L11.2881 5.76986L11.4727 4.81478L10.7979 4.09994L11.7119 4.06185L12.0986 3.17025L12.4854 4.06185Z" fill="#F1F9FF"/>
</g>
</g>
<path d="M31.75 0.25V23.75H0.25V0.25H31.75Z" stroke="#D9D9D9" stroke-width="0.5"/>
<defs>
<clipPath id="clip0_7410_2604">
<path d="M0 0H32V24H0V0Z" fill="white"/>
</clipPath>
</defs>
</svg>
