<svg width="40" height="40" viewBox="0 0 40 40" fill="none" xmlns="http://www.w3.org/2000/svg">
<path d="M35 10H22.5333C21.3311 10 20.178 10.4683 19.3278 11.3017C18.4777 12.1352 18 13.2657 18 14.4444V20" stroke="#585654" stroke-width="3.5" stroke-linecap="round" stroke-linejoin="round"/>
<path d="M28 17L35 10L28 3" stroke="#585654" stroke-width="3.5" stroke-linecap="round" stroke-linejoin="round"/>
<path d="M30 23.2V34.7C30 35.31 29.7606 35.8951 29.3344 36.3264C28.9082 36.7577 28.33 37 27.7273 37H7.27273C6.66997 37 6.09188 36.7577 5.66567 36.3264C5.23945 35.8951 5 35.31 5 34.7V16.3C5 15.69 5.23945 15.105 5.66567 14.6737C6.09188 14.2423 6.66997 14 7.27273 14H10.6818" stroke="#585654" stroke-width="3.5" stroke-linecap="round" stroke-linejoin="round"/>
</svg>
