<svg width="120" height="120" viewBox="0 0 120 120" fill="none" xmlns="http://www.w3.org/2000/svg">
<path d="M101.085 14.1299C103.373 14.6384 105 16.6674 105 19.0107V68.9443C105 78.9748 99.9866 88.3422 91.6406 93.9062L60 115L28.3594 93.9062C20.0134 88.3422 15 78.9748 15 68.9443V19.0107C15.0001 16.6674 16.6275 14.6384 18.915 14.1299L60 5L101.085 14.1299ZM25 23.0215V68.9443C25 75.6313 28.3422 81.8764 33.9062 85.5859L60 102.981L86.0938 85.5859C91.6578 81.8764 95 75.6313 95 68.9443V23.0215L60 15.2441L25 23.0215ZM73.002 40.7559C75.0629 38.6858 78.4123 38.7146 80.4355 40.8184L80.5322 40.9199C82.5092 42.9775 82.4793 46.245 80.4688 48.2646L58.1465 70.6875C56.1106 72.7325 52.8112 72.7325 50.7754 70.6875L47.1152 67.0117L39.5215 59.3838C37.4814 57.3346 37.4899 54.0118 39.5342 51.9668C41.5532 49.9516 44.8067 49.9344 46.8467 51.9287L53.1514 58.0938H53.1465C53.8769 58.8063 55.04 58.7972 55.7578 58.0762L73.002 40.7559Z" fill="#07C160"/>
</svg>
