<svg width="120" height="120" viewBox="0 0 120 120" fill="none" xmlns="http://www.w3.org/2000/svg">
<path d="M101.085 14.1299C103.373 14.6384 105 16.6674 105 19.0107V68.9443C105 78.9748 99.9866 88.3422 91.6406 93.9062L60 115L28.3594 93.9062C20.0134 88.3422 15 78.9748 15 68.9443V19.0107C15 16.6674 16.6275 14.6384 18.915 14.1299L60 5L101.085 14.1299ZM25 23.0215V68.9443C25 75.6313 28.3422 81.8764 33.9062 85.5859L60 102.981L86.0938 85.5859C91.6578 81.8764 95 75.6313 95 68.9443V23.0215L60 15.2441L25 23.0215ZM51.1299 65.3799C51.1299 70.1998 55.0599 74.1298 59.8799 74.1299C64.6999 74.1299 68.6299 70.2099 68.6299 65.3799V58.75H76.7598V65.3799C76.7598 74.6899 69.1899 82.2598 59.8799 82.2598C50.57 82.2597 43.0001 74.69 43 65.3701V58.75H51.1299V65.3799ZM59.8906 41.4199C62.1326 41.4201 63.95 43.2375 63.9502 45.4795V64.79C63.9501 67.0322 62.1327 68.8494 59.8906 68.8496H59.8799C57.6378 68.8494 55.8204 67.0321 55.8203 64.79V45.4795C55.8205 43.2376 57.6379 41.4202 59.8799 41.4199H59.8906ZM59.8799 28C69.1898 28 76.7597 35.5699 76.7598 44.8799V51.5098H68.6299V44.8799C68.6298 40.0599 64.6998 36.1299 59.8799 36.1299C55.06 36.1299 51.1299 40.05 51.1299 44.8799V51.5098H43V44.8799C43.0001 35.57 50.57 28.0001 59.8799 28Z" fill="#07C160"/>
</svg>
