<svg width="48" height="48" viewBox="0 0 48 48" fill="none" xmlns="http://www.w3.org/2000/svg">
<path d="M22.3167 4.5426L24.0042 4.54682H38.3273C38.6766 4.54682 39.0172 4.6552 39.3023 4.85702C39.5874 5.05883 39.8028 5.34413 39.9189 5.67356L39.9259 5.69404L43.3986 15.9693C43.4659 16.1544 43.5002 16.3499 43.5 16.5468V41.7656C43.5 42.6975 42.7445 43.4531 41.8125 43.4531H6.09375C5.16178 43.4531 4.40625 42.6975 4.40625 41.7656V16.5468C4.40625 16.3439 4.44206 16.1494 4.50769 15.9693L7.98028 5.69404C8.09211 5.36315 8.30385 5.07511 8.5863 4.86966C8.86876 4.6642 9.20801 4.55145 9.55725 4.54696L9.57895 4.54682H22.3167V4.5426H22.3167ZM40.125 18.2343H7.78125V40.0781H40.125V18.2343ZM22.3083 7.92182H10.7899L8.44528 14.8593H22.2911L22.3083 7.92182ZM37.1163 7.92182H25.6833L25.6661 14.8593H39.4609L37.1163 7.92182Z" fill="#585654"/>
<path d="M16.7344 33.75C16.7344 32.7921 17.5109 32.0156 18.4688 32.0156H36.375C37.3329 32.0156 38.1094 32.7921 38.1094 33.75V33.75C38.1094 34.7079 37.3329 35.4844 36.375 35.4844H18.4687C17.5109 35.4844 16.7344 34.7079 16.7344 33.75V33.75ZM36.3281 25.8281C37.286 25.8281 38.0625 26.6046 38.0625 27.5625V27.5625C38.0625 28.5204 37.286 29.2969 36.3281 29.2969H28.3594C27.4015 29.2969 26.625 28.5204 26.625 27.5625V27.5625C26.625 26.6046 27.4015 25.8281 28.3594 25.8281H36.3281Z" fill="#585654"/>
</svg>
