<svg width="49" height="48" viewBox="0 0 49 48" fill="none" xmlns="http://www.w3.org/2000/svg">
<g clip-path="url(#clip0_6733_2190)">
<path d="M18.18 36C17.9422 37.6686 17.1104 39.1954 15.8374 40.2999C14.5643 41.4044 12.9354 42.0125 11.25 42.0125C9.56456 42.0125 7.93571 41.4044 6.66264 40.2999C5.38957 39.1954 4.55776 37.6686 4.32 36H2.25V12C2.25 11.4696 2.46071 10.9609 2.83579 10.5858C3.21086 10.2107 3.71957 10 4.25 10H32.25C32.7804 10 33.2891 10.2107 33.6642 10.5858C34.0393 10.9609 34.25 11.4696 34.25 12V16H40.25L46.25 24.112V36H42.18C41.9422 37.6686 41.1104 39.1954 39.8374 40.2999C38.5643 41.4044 36.9354 42.0125 35.25 42.0125C33.5646 42.0125 31.9357 41.4044 30.6626 40.2999C29.3896 39.1954 28.5578 37.6686 28.32 36H18.18ZM30.25 14H6.25V30.1C7.03912 29.2944 8.0112 28.6914 9.08351 28.3422C10.1558 27.9931 11.2966 27.9082 12.4088 28.0948C13.5209 28.2814 14.5715 28.7339 15.4712 29.4138C16.3709 30.0937 17.093 30.981 17.576 32H28.924C29.26 31.294 29.71 30.652 30.25 30.1V14ZM34.25 26H42.25V25.43L38.234 20H34.25V26ZM35.25 38C36.0459 38 36.8092 37.6838 37.372 37.121C37.9348 36.5582 38.251 35.7949 38.251 34.999C38.251 34.2031 37.9348 33.4398 37.372 32.877C36.8092 32.3142 36.0459 31.998 35.25 31.998C34.4541 31.998 33.6908 32.3142 33.128 32.877C32.5652 33.4398 32.249 34.2031 32.249 34.999C32.249 35.7949 32.5652 36.5582 33.128 37.121C33.6908 37.6838 34.4541 38 35.25 38ZM14.25 35C14.25 34.606 14.1724 34.2159 14.0216 33.8519C13.8709 33.488 13.6499 33.1573 13.3713 32.8787C13.0927 32.6001 12.762 32.3791 12.3981 32.2284C12.0341 32.0776 11.644 32 11.25 32C10.856 32 10.4659 32.0776 10.1019 32.2284C9.73797 32.3791 9.40726 32.6001 9.12868 32.8787C8.8501 33.1573 8.62913 33.488 8.47836 33.8519C8.3276 34.2159 8.25 34.606 8.25 35C8.25 35.7956 8.56607 36.5587 9.12868 37.1213C9.69129 37.6839 10.4544 38 11.25 38C12.0456 38 12.8087 37.6839 13.3713 37.1213C13.9339 36.5587 14.25 35.7956 14.25 35Z" fill="#585654"/>
</g>
<defs>
<clipPath id="clip0_6733_2190">
<rect width="48" height="48" fill="white" transform="translate(0.25)"/>
</clipPath>
</defs>
</svg>
