<svg width="49" height="48" viewBox="0 0 49 48" fill="none" xmlns="http://www.w3.org/2000/svg">
<path d="M42.75 23.2916V42C42.75 43.1046 41.8546 44 40.75 44H8.75C7.64544 44 6.75 43.1046 6.75 42V23.2916C5.50528 21.8814 4.75 20.0288 4.75 18V6C4.75 4.89544 5.64544 4 6.75 4H42.75C43.8546 4 44.75 4.89544 44.75 6V18C44.75 20.0288 43.9948 21.8814 42.75 23.2916ZM38.75 25.748C38.1108 25.9124 37.4406 26 36.75 26C34.3606 26 32.2158 24.9524 30.75 23.2916C29.2842 24.9524 27.1394 26 24.75 26C22.3606 26 20.2159 24.9524 18.75 23.2916C17.2841 24.9524 15.1394 26 12.75 26C12.0594 26 11.3892 25.9124 10.75 25.748V40H38.75V25.748ZM28.75 18C28.75 16.8954 29.6454 16 30.75 16C31.8546 16 32.75 16.8954 32.75 18C32.75 20.2092 34.5408 22 36.75 22C38.9592 22 40.75 20.2092 40.75 18V8H8.75V18C8.75 20.2092 10.5409 22 12.75 22C14.9591 22 16.75 20.2092 16.75 18C16.75 16.8954 17.6454 16 18.75 16C19.8546 16 20.75 16.8954 20.75 18C20.75 20.2092 22.5408 22 24.75 22C26.9592 22 28.75 20.2092 28.75 18Z" fill="#585654"/>
</svg>
