<svg width="57" height="56" viewBox="0 0 57 56" fill="none" xmlns="http://www.w3.org/2000/svg">
<path d="M46.293 27V44C46.293 46.2091 44.5021 48 42.293 48H16.293C14.0838 48 12.293 46.2091 12.293 44V27" stroke="#2E2008" stroke-width="4" stroke-linecap="round" stroke-linejoin="round"/>
<path d="M9.72178 18.2626C8.11876 22.4713 11.2108 27 15.6609 27C19.1338 27 21.9684 24.1458 21.9684 20.625C21.9684 24.1458 24.7837 27 28.2566 27H29.3239C32.7968 27 35.6121 24.1458 35.6121 20.625C35.6121 24.1458 38.4479 27 41.9207 27C46.3732 27 49.4682 22.4686 47.8638 18.2581L45.6986 12.5757C45.1076 11.0248 43.6204 10 41.9607 10H15.6257C13.9659 10 12.4785 11.0251 11.8877 12.5762L9.72178 18.2626Z" stroke="#2E2008" stroke-width="4" stroke-linejoin="round"/>
</svg>
