<svg width="44" height="44" viewBox="0 0 44 44" fill="none" xmlns="http://www.w3.org/2000/svg">
<g id="material-symbols:local-mall-outline-rounded">
<path id="Vector" d="M35.8889 43H7.11111C5.98056 43 5.01239 42.608 4.20661 41.824C3.40084 41.04 2.99863 40.0987 3 39V15C3 13.9 3.40289 12.958 4.20867 12.174C5.01445 11.39 5.98193 10.9987 7.11111 11H11.2222C11.2222 8.23333 12.2247 5.87467 14.2295 3.924C16.2344 1.97333 18.6579 0.998668 21.5 1C24.3435 1 26.7677 1.97533 28.7726 3.926C30.7774 5.87667 31.7791 8.23467 31.7778 11H35.8889C37.0194 11 37.9876 11.392 38.7934 12.176C39.5992 12.96 40.0014 13.9013 40 15V39C40 40.1 39.5971 41.042 38.7913 41.826C37.9856 42.61 37.0181 43.0013 35.8889 43ZM15.3333 11H27.6667C27.6667 9.33333 27.0671 7.91667 25.8681 6.75C24.669 5.58333 23.213 5 21.5 5C19.787 5 18.331 5.58333 17.1319 6.75C15.9329 7.91667 15.3333 9.33333 15.3333 11ZM35.8889 39V15H7.11111V39H35.8889ZM21.5 27C24.0352 27 26.3306 26.1833 28.3861 24.55C30.4417 22.9167 31.4523 21.0833 31.4181 19.05C31.4181 18.4833 31.2296 18 30.8528 17.6C30.4759 17.2 29.9963 17 29.4139 17C28.9343 17 28.506 17.15 28.1292 17.45C27.7523 17.75 27.4782 18.2 27.3069 18.8C26.9301 20.0667 26.1935 21.0833 25.0972 21.85C24.0009 22.6167 22.8019 23 21.5 23C20.1981 23 18.9909 22.6167 17.8781 21.85C16.7654 21.0833 16.037 20.0667 15.6931 18.8C15.5218 18.1667 15.2648 17.708 14.9222 17.424C14.5796 17.14 14.1685 16.9987 13.6889 17C13.1065 17 12.6186 17.2 12.2253 17.6C11.832 18 11.6347 18.4833 11.6333 19.05C11.6333 21.0833 12.644 22.9167 14.6653 24.55C16.6866 26.1833 18.9648 27 21.5 27Z" fill="#FB1A18"/>
</g>
</svg>
