<svg width="64" height="64" viewBox="0 0 64 64" fill="none" xmlns="http://www.w3.org/2000/svg">
<circle cx="32" cy="32" r="32" fill="url(#paint0_linear_15592_6714)"/>
<circle cx="32" cy="32" r="32" fill="url(#paint1_linear_15592_6714)"/>
<path d="M47.3698 44.4453V47.5564H16.2587V44.4453H17.8142V33.9332C15.9383 32.6775 14.7031 30.539 14.7031 28.112C14.7031 26.8253 15.0522 25.5861 15.6881 24.5303L19.9069 17.2231C20.1848 16.7418 20.6983 16.4453 21.2541 16.4453H42.3744C42.9301 16.4453 43.4437 16.7418 43.7215 17.2231L47.9259 24.5058C48.5763 25.5861 48.9253 26.8253 48.9253 28.112C48.9253 30.539 47.6902 32.6775 45.8142 33.9332V44.4453H47.3698ZM22.1521 19.5564L18.368 26.1103C18.0073 26.7095 17.8142 27.3947 17.8142 28.112C17.8142 30.2597 19.5554 32.0009 21.7031 32.0009C23.3068 32.0009 24.7282 31.0213 25.3148 29.5579C25.8369 28.2554 27.6805 28.2554 28.2026 29.5579C28.7891 31.0213 30.2105 32.0009 31.8142 32.0009C33.418 32.0009 34.8393 31.0213 35.4259 29.5579C35.948 28.2554 37.7916 28.2554 38.3137 29.5579C38.9003 31.0213 40.3216 32.0009 41.9253 32.0009C44.0731 32.0009 45.8142 30.2597 45.8142 28.112C45.8142 27.3947 45.6212 26.7095 45.246 26.0858L41.4763 19.5564H22.1521Z" fill="black"/>
<defs>
<linearGradient id="paint0_linear_15592_6714" x1="8.96" y1="56.96" x2="53.12" y2="7.68" gradientUnits="userSpaceOnUse">
<stop stop-color="#FED73A"/>
<stop offset="1" stop-color="#FFEDA6"/>
</linearGradient>
<linearGradient id="paint1_linear_15592_6714" x1="6.15385" y1="64" x2="50.208" y2="10.7478" gradientUnits="userSpaceOnUse">
<stop stop-color="#FFA224"/>
<stop offset="1" stop-color="#FFD81F"/>
</linearGradient>
</defs>
</svg>
