<svg width="28" height="28" viewBox="0 0 28 28" fill="none" xmlns="http://www.w3.org/2000/svg">
<path d="M2.33317 10.5H5.83317V24.5H2.33317C1.68884 24.5 1.1665 23.9777 1.1665 23.3333V11.6666C1.1665 11.0223 1.68884 10.5 2.33317 10.5ZM8.50821 8.99159L15.9755 1.52438C16.1807 1.3191 16.5057 1.29601 16.7379 1.47019L17.7326 2.2162C18.2981 2.64031 18.5529 3.36295 18.3785 4.04794L17.0329 9.3333H24.4998C25.7885 9.3333 26.8332 10.378 26.8332 11.6666V14.1217C26.8332 14.4265 26.7734 14.7283 26.6575 15.0101L23.0473 23.7775C22.8673 24.2146 22.4413 24.5 21.9685 24.5H9.33317C8.68884 24.5 8.1665 23.9777 8.1665 23.3333V9.81655C8.1665 9.50713 8.28942 9.21039 8.50821 8.99159Z" fill="url(#paint0_linear_260_474)"/>
<defs>
<linearGradient id="paint0_linear_260_474" x1="26.8332" y1="24.5" x2="-0.848161" y2="21.7682" gradientUnits="userSpaceOnUse">
<stop stop-color="#FEA021"/>
<stop offset="1" stop-color="#FFC350"/>
</linearGradient>
</defs>
</svg>
