<svg width="48" height="48" viewBox="0 0 48 48" fill="none" xmlns="http://www.w3.org/2000/svg">
<path fill-rule="evenodd" clip-rule="evenodd" d="M36.5775 10.8C37.6925 10.8 38.6645 11.5495 38.9349 12.6179L40.4623 18.652C40.8733 19.5127 41.0903 20.4573 41.0903 21.4286C41.0903 23.466 40.1433 25.2849 38.6603 26.4794V40.2C38.6603 41.1941 37.8443 42 36.8378 42H11.3228C10.3163 42 9.50031 41.1941 9.50031 40.2V26.4794C8.01732 25.2849 7.07031 23.466 7.07031 21.4286C7.07031 20.4573 7.2873 19.5127 7.69835 18.652L9.22572 12.6179C9.49616 11.5495 10.4681 10.8 11.5832 10.8H36.5775ZM29.2875 25.4274C28.0806 26.9582 26.1969 27.9429 24.0803 27.9429C21.9638 27.9429 20.0801 26.9582 18.8732 25.4274C17.6663 26.9582 15.7826 27.9429 13.666 27.9429C13.0653 27.9429 12.4834 27.8635 11.9303 27.7149V39.6H36.2303V27.7149C35.6773 27.8635 35.0953 27.9429 34.4946 27.9429C32.378 27.9429 30.4943 26.9582 29.2875 25.4274ZM36.5775 13.2H11.5832L9.99121 19.4892L9.97426 19.5208C9.67155 20.091 9.50031 20.7401 9.50031 21.4286C9.50031 23.7008 11.3654 25.5429 13.666 25.5429C15.9437 25.5429 17.7944 23.7375 17.8312 21.4966L17.8317 21.4286H19.9146L19.9152 21.4966C19.9519 23.7375 21.8027 25.5429 24.0803 25.5429C26.358 25.5429 28.2087 23.7375 28.2455 21.4966L28.246 21.4286H30.3289L30.3294 21.4966C30.3662 23.7375 32.2169 25.5429 34.4946 25.5429C36.7953 25.5429 38.6603 23.7008 38.6603 21.4286C38.6603 20.7401 38.4891 20.091 38.1864 19.5208L38.1694 19.4892L36.5775 13.2ZM36.2303 6C36.9013 6 37.4453 6.53726 37.4453 7.2C37.4453 7.86274 36.9013 8.4 36.2303 8.4H11.9303C11.2593 8.4 10.7153 7.86274 10.7153 7.2C10.7153 6.53726 11.2593 6 11.9303 6H36.2303Z" fill="#585654"/>
</svg>
