<svg width="48" height="48" viewBox="0 0 48 48" fill="none" xmlns="http://www.w3.org/2000/svg">
<g clip-path="url(#clip0_6421_12030)">
<path d="M40.0391 22V42H8.03906V22" stroke="#666666" stroke-width="3" stroke-linecap="round" stroke-linejoin="round"/>
<path d="M5.84275 13.7766C4.3132 17.7377 7.26351 22 11.5096 22C14.8233 22 17.528 19.3137 17.528 16C17.528 19.3137 20.2143 22 23.528 22H24.5464C27.8601 22 30.5464 19.3137 30.5464 16C30.5464 19.3137 33.2522 22 36.5659 22C40.8143 22 43.7674 17.7352 42.2366 13.7723L39.2341 6H8.84567L5.84275 13.7766Z" stroke="#666666" stroke-width="3" stroke-linejoin="round"/>
<path d="M43.4747 42.0272C44.5057 42.9456 46.0859 42.8544 47.0043 41.8234C47.9227 40.7924 47.8315 39.2121 46.8005 38.2937L6.76437 2.62967C5.73339 1.71128 4.15311 1.80255 3.23471 2.83352C2.31632 3.8645 2.40759 5.44478 3.43857 6.36318L43.4747 42.0272Z" fill="#666666" stroke="white" stroke-width="2"/>
</g>
<defs>
<clipPath id="clip0_6421_12030">
<rect width="48" height="48" fill="white"/>
</clipPath>
</defs>
</svg>
