<svg width="32" height="32" viewBox="0 0 32 32" fill="none" xmlns="http://www.w3.org/2000/svg">
<path fill-rule="evenodd" clip-rule="evenodd" d="M24.3824 7.2C25.1257 7.2 25.7737 7.69968 25.954 8.41194L26.9722 12.4347C27.2463 13.0085 27.3909 13.6382 27.3909 14.2857C27.3909 15.644 26.7596 16.8566 25.7709 17.653V26.8C25.7709 27.4627 25.227 28 24.5559 28H7.54594C6.87491 28 6.33094 27.4627 6.33094 26.8V17.653C5.34228 16.8566 4.71094 15.644 4.71094 14.2857C4.71094 13.6382 4.8556 13.0085 5.12963 12.4347L6.14788 8.41194C6.32817 7.69968 6.97614 7.2 7.71951 7.2H24.3824ZM19.5224 16.9516C18.7178 17.9721 17.462 18.6286 16.0509 18.6286C14.6399 18.6286 13.3841 17.9721 12.5795 16.9516C11.7749 17.9721 10.5191 18.6286 9.10808 18.6286C8.70761 18.6286 8.31964 18.5757 7.95094 18.4766V26.4H24.1509V18.4766C23.7822 18.5757 23.3943 18.6286 22.9938 18.6286C21.5828 18.6286 20.327 17.9721 19.5224 16.9516ZM24.3824 8.8H7.71951L6.6582 12.9928L6.6469 13.0139C6.4451 13.394 6.33094 13.8267 6.33094 14.2857C6.33094 15.8006 7.57431 17.0286 9.10808 17.0286C10.6265 17.0286 11.8603 15.825 11.8848 14.3311L11.8852 14.2857H13.2738L13.2742 14.3311C13.2987 15.825 14.5325 17.0286 16.0509 17.0286C17.5694 17.0286 18.8032 15.825 18.8277 14.3311L18.8281 14.2857H20.2166L20.217 14.3311C20.2415 15.825 21.4754 17.0286 22.9938 17.0286C24.5276 17.0286 25.7709 15.8006 25.7709 14.2857C25.7709 13.8267 25.6568 13.394 25.455 13.0139L25.4437 12.9928L24.3824 8.8ZM24.1509 4C24.5983 4 24.9609 4.35817 24.9609 4.8C24.9609 5.24183 24.5983 5.6 24.1509 5.6H7.95094C7.50359 5.6 7.14094 5.24183 7.14094 4.8C7.14094 4.35817 7.50359 4 7.95094 4H24.1509Z" fill="#999999"/>
</svg>
