<svg width="49" height="48" viewBox="0 0 49 48" fill="none" xmlns="http://www.w3.org/2000/svg">
<path d="M24.75 22C30.2728 22 34.75 26.4772 34.75 32V44H30.75V32C30.75 28.8046 28.2522 26.1926 25.1026 26.0102L24.75 26C21.5546 26 18.9427 28.4978 18.7602 31.6474L18.75 32V44H14.75V32C14.75 26.4772 19.2272 22 24.75 22ZM11.75 28C12.3077 28 12.8502 28.0652 13.3702 28.1884C13.034 29.188 12.8275 30.244 12.7679 31.3386L12.75 32L12.7514 32.1712C12.5251 32.0912 12.2864 32.0374 12.0389 32.0138L11.75 32C10.1906 32 8.9091 33.1898 8.76374 34.711L8.75 35V44H4.75V35C4.75 31.134 7.884 28 11.75 28ZM37.75 28C41.616 28 44.75 31.134 44.75 35V44H40.75V35C40.75 33.4406 39.5602 32.1592 38.039 32.0138L37.75 32C37.3996 32 37.0632 32.06 36.7506 32.1704L36.75 32C36.75 30.6686 36.5332 29.388 36.133 28.1912C36.6498 28.0652 37.1922 28 37.75 28ZM11.75 16C14.5114 16 16.75 18.2386 16.75 21C16.75 23.7614 14.5114 26 11.75 26C8.98858 26 6.75 23.7614 6.75 21C6.75 18.2386 8.98858 16 11.75 16ZM37.75 16C40.5114 16 42.75 18.2386 42.75 21C42.75 23.7614 40.5114 26 37.75 26C34.9886 26 32.75 23.7614 32.75 21C32.75 18.2386 34.9886 16 37.75 16ZM11.75 20C11.1977 20 10.75 20.4478 10.75 21C10.75 21.5522 11.1977 22 11.75 22C12.3023 22 12.75 21.5522 12.75 21C12.75 20.4478 12.3023 20 11.75 20ZM37.75 20C37.1978 20 36.75 20.4478 36.75 21C36.75 21.5522 37.1978 22 37.75 22C38.3022 22 38.75 21.5522 38.75 21C38.75 20.4478 38.3022 20 37.75 20ZM24.75 4C29.1682 4 32.75 7.58172 32.75 12C32.75 16.4183 29.1682 20 24.75 20C20.3317 20 16.75 16.4183 16.75 12C16.75 7.58172 20.3317 4 24.75 4ZM24.75 8C22.5408 8 20.75 9.79086 20.75 12C20.75 14.2091 22.5408 16 24.75 16C26.9592 16 28.75 14.2091 28.75 12C28.75 9.79086 26.9592 8 24.75 8Z" fill="#585654"/>
</svg>
