<svg width="44" height="44" viewBox="0 0 44 44" fill="none" xmlns="http://www.w3.org/2000/svg">
<rect width="44" height="44" rx="8" fill="#FF8812"/>
<path d="M34.9773 32.4V35H8.80844V32.4H10.1169V23.6149C8.53892 22.5655 7.5 20.7783 7.5 18.75C7.5 17.6747 7.79365 16.6391 8.32853 15.7567L11.8771 9.65C12.1109 9.24778 12.5428 9 13.0103 9H30.7755C31.2428 9 31.6749 9.24778 31.9086 9.65L35.445 15.7362C35.9921 16.6391 36.2857 17.6747 36.2857 18.75C36.2857 20.7783 35.2468 22.5655 33.6688 23.6149V32.4H34.9773ZM13.7657 11.6L10.5827 17.0772C10.2792 17.578 10.1169 18.1506 10.1169 18.75C10.1169 20.5449 11.5814 22 13.388 22C14.7369 22 15.9325 21.1814 16.4259 19.9583C16.865 18.8699 18.4158 18.8699 18.8549 19.9583C19.3483 21.1814 20.5439 22 21.8929 22C23.2419 22 24.4374 21.1814 24.9308 19.9583C25.3699 18.8699 26.9207 18.8699 27.3598 19.9583C27.8532 21.1814 29.0487 22 30.3977 22C32.2043 22 33.6688 20.5449 33.6688 18.75C33.6688 18.1506 33.5065 17.578 33.1909 17.0567L30.02 11.6H13.7657Z" fill="white"/>
</svg>
