<svg width="48" height="48" viewBox="0 0 48 48" fill="none" xmlns="http://www.w3.org/2000/svg">
<path d="M4 10C4 8.89543 4.89543 8 6 8H42C43.1046 8 44 8.89543 44 10V38C44 39.1046 43.1046 40 42 40H6C4.89543 40 4 39.1046 4 38V10Z" stroke="#666666" stroke-width="3" stroke-linejoin="round"/>
<path d="M4 16H44" stroke="#666666" stroke-width="3" stroke-linecap="round" stroke-linejoin="round"/>
<path d="M32 34L38 34" stroke="#666666" stroke-width="3" stroke-linecap="round" stroke-linejoin="round"/>
<path d="M44 10V26" stroke="#666666" stroke-width="3" stroke-linecap="round" stroke-linejoin="round"/>
<path d="M4 10V26" stroke="#666666" stroke-width="3" stroke-linecap="round" stroke-linejoin="round"/>
<path d="M11.4087 34.4278C11.0556 34.4278 10.8 34.3304 10.6052 34.1357C10.4226 33.9409 10.3252 33.6609 10.3252 33.32V22.12C10.3252 21.7548 10.4226 21.487 10.6174 21.2922C10.8122 21.0974 11.0922 21 11.433 21C11.7374 21 11.993 21.0609 12.1635 21.1826C12.3461 21.3043 12.5043 21.4991 12.6626 21.7913L17.2643 30.3009H16.6678L21.2695 21.7913C21.4156 21.5113 21.5739 21.3043 21.7565 21.1826C21.9269 21.0609 22.1704 21 22.4869 21C22.84 21 23.0956 21.0974 23.2904 21.2922C23.473 21.487 23.5704 21.767 23.5704 22.12V33.32C23.5704 33.673 23.4852 33.9409 23.3026 34.1357C23.12 34.3304 22.8522 34.4278 22.4869 34.4278C22.1339 34.4278 21.8782 34.3304 21.6835 34.1357C21.5008 33.9409 21.4035 33.6609 21.4035 33.32V24.6887H21.8174L17.9095 31.8226C17.7878 32.0296 17.6539 32.1878 17.52 32.2852C17.3861 32.3826 17.1913 32.4313 16.96 32.4313C16.7287 32.4313 16.5339 32.3826 16.3878 32.273C16.2417 32.1635 16.1078 32.0174 15.9982 31.8226L12.0417 24.6643H12.4922V33.3078C12.4922 33.6609 12.4069 33.9287 12.2243 34.1235C12.0295 34.3304 11.7617 34.4278 11.4087 34.4278Z" fill="#666666" stroke="#666666"/>
<path d="M11.287 27.7216C11.287 28.2208 10.873 28.6347 10.3739 28.6347H8.91304C8.41391 28.6347 8 28.2208 8 27.7216C8 27.2225 8.41391 26.8086 8.91304 26.8086H10.3739C10.873 26.8086 11.287 27.2103 11.287 27.7216Z" fill="#666666" stroke="#666666"/>
<path d="M25.8954 27.7216C25.8954 28.2208 25.4814 28.6347 24.9823 28.6347H23.5214C23.0223 28.6347 22.6084 28.2208 22.6084 27.7216C22.6084 27.2225 23.0223 26.8086 23.5214 26.8086H24.9823C25.4814 26.8086 25.8954 27.2103 25.8954 27.7216Z" fill="#666666" stroke="#666666"/>
</svg>
