<svg width="80" height="80" viewBox="0 0 80 80" fill="none" xmlns="http://www.w3.org/2000/svg">
<g clip-path="url(#clip0_454_4195)">
<path d="M39.9989 4.44336C32.9667 4.44336 26.0924 6.52866 20.2453 10.4356C14.3982 14.3424 9.841 19.8955 7.14988 26.3924C4.45876 32.8893 3.75465 40.0384 5.12657 46.9355C6.49848 53.8326 9.88482 60.168 14.8574 65.1405C19.8299 70.113 26.1653 73.4994 33.0624 74.8713C39.9595 76.2432 47.1085 75.5391 53.6055 72.848C60.1024 70.1569 65.6554 65.5996 69.5623 59.7525C73.4692 53.9054 75.5545 47.0311 75.5545 39.9989C75.5545 30.569 71.8085 21.5253 65.1405 14.8573C58.4725 8.18938 49.4289 4.44336 39.9989 4.44336ZM63.2212 28.0656L34.0212 57.2434L16.7767 39.9989C16.1873 39.4095 15.8562 38.6102 15.8562 37.7767C15.8562 36.9432 16.1873 36.1438 16.7767 35.5545C17.3661 34.9651 18.1654 34.634 18.9989 34.634C19.8324 34.634 20.6318 34.9651 21.2212 35.5545L34.0656 48.3989L58.8212 23.6656C59.113 23.3738 59.4594 23.1423 59.8407 22.9843C60.222 22.8264 60.6307 22.7451 61.0434 22.7451C61.4561 22.7451 61.8647 22.8264 62.246 22.9843C62.6273 23.1423 62.9738 23.3738 63.2656 23.6656C63.5574 23.9574 63.7889 24.3039 63.9469 24.6851C64.1048 25.0664 64.1861 25.4751 64.1861 25.8878C64.1861 26.3005 64.1048 26.7092 63.9469 27.0905C63.7889 27.4718 63.5574 27.8182 63.2656 28.11L63.2212 28.0656Z" fill="url(#paint0_linear_454_4195)"/>
</g>
<defs>
<linearGradient id="paint0_linear_454_4195" x1="39.9989" y1="4.44336" x2="39.9989" y2="75.5545" gradientUnits="userSpaceOnUse">
<stop stop-color="#FBB23C"/>
<stop offset="0.255208" stop-color="#FBB43F"/>
<stop offset="1" stop-color="#FEA021"/>
</linearGradient>
<clipPath id="clip0_454_4195">
<rect width="80" height="80" fill="white"/>
</clipPath>
</defs>
</svg>
