<svg width="80" height="80" viewBox="0 0 80 80" fill="none" xmlns="http://www.w3.org/2000/svg">
<rect width="80" height="80" fill="white"/>
<rect x="6" y="6" width="68" height="68" rx="34" fill="#07C160"/>
<path fill-rule="evenodd" clip-rule="evenodd" d="M49.8344 30.69C51.1361 29.3883 53.2467 29.3883 54.5484 30.69C55.8502 31.9918 55.8502 34.1023 54.5484 35.4041L40.4063 49.5462C39.1045 50.848 36.994 50.848 35.6922 49.5462C34.3905 48.2445 34.3905 46.1339 35.6922 44.8322L49.8344 30.69Z" fill="white"/>
<path fill-rule="evenodd" clip-rule="evenodd" d="M39.5453 44.8324C40.8471 46.1342 40.8471 48.2447 39.5453 49.5465C38.2436 50.8482 36.133 50.8482 34.8313 49.5465L27.7602 42.4754C26.4585 41.1737 26.4585 39.0631 27.7602 37.7614C29.062 36.4596 31.1725 36.4596 32.4743 37.7614L39.5453 44.8324Z" fill="white"/>
</svg>
