<svg width="33" height="32" viewBox="0 0 33 32" fill="none" xmlns="http://www.w3.org/2000/svg">
<g id="Frame 1045">
<path id="Subtract" fill-rule="evenodd" clip-rule="evenodd" d="M26.3995 25.8995C23.866 28.433 20.366 30 16.5 30C12.634 30 9.13404 28.433 6.6005 25.8995C4.06701 23.366 2.5 19.866 2.5 16C2.5 12.134 4.06701 8.63404 6.6005 6.1005C9.13404 3.56701 12.634 2 16.5 2C20.366 2 23.866 3.56701 26.3995 6.1005C28.933 8.63404 30.5 12.134 30.5 16C30.5 19.866 28.933 23.366 26.3995 25.8995ZM16.5 6.2C17.2732 6.2 17.9 6.8268 17.9 7.6V18.8C17.9 19.5732 17.2732 20.2 16.5 20.2C15.7268 20.2 15.1 19.5732 15.1 18.8V7.6C15.1 6.8268 15.7268 6.2 16.5 6.2ZM16.5 25.1C17.4665 25.1 18.25 24.3165 18.25 23.35C18.25 22.3835 17.4665 21.6 16.5 21.6C15.5335 21.6 14.75 22.3835 14.75 23.35C14.75 24.3165 15.5335 25.1 16.5 25.1Z" fill="#FFD81F"/>
</g>
</svg>
