<svg width="32" height="32" viewBox="0 0 32 32" fill="none" xmlns="http://www.w3.org/2000/svg">
<path d="M15.9974 29.3327C8.6336 29.3327 2.66406 23.3631 2.66406 15.9993C2.66406 8.63555 8.6336 2.66602 15.9974 2.66602C23.3611 2.66602 29.3307 8.63555 29.3307 15.9993C29.3307 23.3631 23.3611 29.3327 15.9974 29.3327ZM15.9974 26.666C21.8885 26.666 26.6641 21.8904 26.6641 15.9993C26.6641 10.1083 21.8885 5.33268 15.9974 5.33268C10.1064 5.33268 5.33073 10.1083 5.33073 15.9993C5.33073 21.8904 10.1064 26.666 15.9974 26.666ZM14.6641 9.33268H17.3307V11.9993H14.6641V9.33268ZM14.6641 14.666H17.3307V22.666H14.6641V14.666Z" fill="#999999"/>
</svg>
