<svg width="48" height="48" viewBox="0 0 48 48" fill="none" xmlns="http://www.w3.org/2000/svg">
<circle cx="24" cy="24" r="23" fill="#FEA021" stroke="black" stroke-width="2"/>
<path fill-rule="evenodd" clip-rule="evenodd" d="M23.846 10C26.6399 10 28.988 11.331 30.2848 13.6516C31.5908 15.9838 31.5998 18.8505 30.3076 20.9573C29.3838 22.4636 28.376 23.3487 27.5613 24.063C26.3897 25.0915 25.9051 25.5169 25.9051 27.783C25.9051 29.0685 24.8607 30.1128 23.5752 30.1128C23.5752 30.1128 21.2454 30.0787 21.2454 27.783C21.2454 23.4533 23.0428 21.831 24.4898 20.5592C25.1815 19.9518 25.7798 19.4262 26.3374 18.5184C26.6809 17.9587 26.7287 16.8393 26.219 15.9269C25.7504 15.0874 24.9495 14.6596 23.846 14.6596C21.853 14.6596 21.159 15.4241 20.6447 17.2488C19.6869 20.6503 15.3925 18.8664 16.0727 16.3638C17.1602 12.3549 19.6254 10 23.846 10Z" fill="white"/>
<path fill-rule="evenodd" clip-rule="evenodd" d="M20.894 35.1051C20.894 33.5602 22.1455 32.3089 23.6903 32.3089C25.2329 32.3089 26.4843 33.5602 26.4843 35.1051C26.4843 36.6499 25.2329 37.9014 23.6903 37.9014C22.1455 37.9014 20.894 36.6499 20.894 35.1051Z" fill="white"/>
</svg>
