<svg width="30" height="30" viewBox="0 0 30 30" fill="none" xmlns="http://www.w3.org/2000/svg">
<rect y="0.392578" width="29.2148" height="29.2148" rx="14.6074" fill="#FF8812"/>
<path fill-rule="evenodd" clip-rule="evenodd" d="M13.1055 10.0584C13.1055 9.22792 13.7787 8.55469 14.6092 8.55469C15.4396 8.55469 16.1129 9.22792 16.1129 10.0584C16.1129 10.8889 15.4396 11.5621 14.6092 11.5621C13.7787 11.5621 13.1055 10.8889 13.1055 10.0584Z" fill="white"/>
<path fill-rule="evenodd" clip-rule="evenodd" d="M16.1133 19.5119C16.1133 20.3424 15.44 21.0156 14.6096 21.0156C13.7791 21.0156 13.1059 20.3424 13.1059 19.5119L13.1059 14.3564C13.1059 13.5259 13.7791 12.8527 14.6096 12.8527C15.44 12.8527 16.1133 13.5259 16.1133 14.3564L16.1133 19.5119Z" fill="white"/>
</svg>
