<svg xmlns="http://www.w3.org/2000/svg" width="32" height="32" viewBox="0 0 32 32" fill="none">
  <path d="M16.0003 29.3327C8.63653 29.3327 2.66699 23.3631 2.66699 15.9993C2.66699 8.63555 8.63653 2.66602 16.0003 2.66602C23.3641 2.66602 29.3337 8.63555 29.3337 15.9993C29.3337 23.3631 23.3641 29.3327 16.0003 29.3327ZM16.0003 26.666C21.8914 26.666 26.667 21.8904 26.667 15.9993C26.667 10.1083 21.8914 5.33268 16.0003 5.33268C10.1093 5.33268 5.33366 10.1083 5.33366 15.9993C5.33366 21.8904 10.1093 26.666 16.0003 26.666ZM14.667 9.33268H17.3337V11.9993H14.667V9.33268ZM14.667 14.666H17.3337V22.666H14.667V14.666Z" fill="#2E2008"/>
</svg>