<svg width="44" height="45" viewBox="0 0 44 45" fill="none" xmlns="http://www.w3.org/2000/svg">
<g id="Frame">
<path id="Vector" d="M22 38.9141C20.0444 38.9141 18.1958 38.5932 16.4542 37.9516C14.7125 37.3099 13.1389 36.4238 11.7333 35.2932L9.39583 37.6307C9.02917 37.9974 8.60139 38.1734 8.1125 38.1587C7.62361 38.1441 7.19583 37.9528 6.82917 37.5849C6.4625 37.2182 6.27917 36.7831 6.27917 36.2796C6.27917 35.776 6.4625 35.3403 6.82917 34.9724L9.12083 32.6807C7.99028 31.2752 7.10417 29.6942 6.4625 27.9379C5.82083 26.1816 5.5 24.3403 5.5 22.4141C5.5 17.8307 7.11211 13.9349 10.3363 10.7266C13.5606 7.51823 17.4484 5.91406 22 5.91406H34.8333C35.8417 5.91406 36.7052 6.2734 37.4238 6.99206C38.1425 7.71073 38.5012 8.57362 38.5 9.58073V22.4141C38.5 26.9668 36.8958 30.8553 33.6875 34.0796C30.4792 37.3038 26.5833 38.9153 22 38.9141Z" fill="url(#paint0_linear_5266_5774)" stroke="black" stroke-width="1.76"/>
<path id="Vector_2" d="M17 12.4141V23.9641H20.3V33.4141L28 20.8141H23.6L26.9 12.4141H17Z" fill="url(#paint1_linear_5266_5774)"/>
</g>
<defs>
<linearGradient id="paint0_linear_5266_5774" x1="22" y1="5.91406" x2="22" y2="38.9141" gradientUnits="userSpaceOnUse">
<stop stop-color="#04FC65"/>
<stop offset="1" stop-color="#C097F8"/>
</linearGradient>
<linearGradient id="paint1_linear_5266_5774" x1="22.5" y1="12.4141" x2="22.5" y2="33.4141" gradientUnits="userSpaceOnUse">
<stop stop-color="white"/>
<stop offset="0.96875" stop-color="#7BFFE7"/>
</linearGradient>
</defs>
</svg>
