<svg width="40" height="40" viewBox="0 0 40 40" fill="none" xmlns="http://www.w3.org/2000/svg">
<path d="M34.5198 31.5249C34.5198 31.2655 34.4167 31.0167 34.2333 30.8333C34.0499 30.6499 33.8012 30.5469 33.5418 30.5469H8.15178C7.89275 30.5474 7.6445 30.6507 7.46152 30.834C7.27855 31.0174 7.17578 31.2658 7.17578 31.5249V33.4769C7.17578 33.7359 7.27855 33.9844 7.46152 34.1677C7.6445 34.3511 7.89275 34.4543 8.15178 34.4549H33.5418C33.8012 34.4549 34.0499 34.3518 34.2333 34.1684C34.4167 33.985 34.5198 33.7363 34.5198 33.4769V31.5249Z" fill="#6EDBFF"/>
<path d="M25.7698 31.5249C25.7698 31.2655 25.6667 31.0167 25.4833 30.8333C25.2999 30.6499 25.0512 30.5469 24.7918 30.5469H8.15178C7.89275 30.5474 7.6445 30.6507 7.46152 30.834C7.27855 31.0174 7.17578 31.2658 7.17578 31.5249V33.4769C7.17578 33.7359 7.27855 33.9844 7.46152 34.1677C7.6445 34.3511 7.89275 34.4543 8.15178 34.4549H24.7918C25.0512 34.4549 25.2999 34.3518 25.4833 34.1684C25.6667 33.985 25.7698 33.7363 25.7698 33.4769V31.5249Z" fill="#96E5FF"/>
<path d="M14.2417 31.5249C14.2417 31.3963 14.2163 31.2689 14.1671 31.1501C14.1178 31.0314 14.0456 30.9235 13.9545 30.8326C13.8635 30.7418 13.7555 30.6698 13.6366 30.6207C13.5177 30.5717 13.3903 30.5466 13.2617 30.5469H6.15569C5.89665 30.5474 5.64841 30.6507 5.46543 30.834C5.28245 31.0174 5.17969 31.2658 5.17969 31.5249V33.4769C5.17969 33.7359 5.28245 33.9844 5.46543 34.1677C5.64841 34.3511 5.89665 34.4543 6.15569 34.4549H13.2657C13.5247 34.4543 13.773 34.3511 13.9559 34.1677C14.1389 33.9844 14.2417 33.7359 14.2417 33.4769V31.5249Z" fill="#CEF3FF"/>
<path d="M6.28693 22.3591C6.34019 22.1873 6.43334 22.0305 6.55877 21.9016C6.68421 21.7727 6.83836 21.6753 7.00864 21.6174C7.17892 21.5595 7.36049 21.5426 7.53851 21.5683C7.71653 21.594 7.88595 21.6614 8.03293 21.7651L11.3929 24.1331C11.5896 24.2722 11.7371 24.47 11.8144 24.6982C11.8916 24.9263 11.8946 25.1731 11.8229 25.4031L10.6029 29.3291C10.5493 29.5004 10.4561 29.6566 10.3307 29.7851C10.2053 29.9135 10.0513 30.0105 9.88136 30.0682C9.71138 30.1259 9.53019 30.1427 9.35252 30.1171C9.17485 30.0915 9.00573 30.0244 8.85893 29.9211L5.49893 27.5531C5.30192 27.4142 5.15397 27.2165 5.07636 26.9884C4.99874 26.7602 4.99544 26.5133 5.06693 26.2831L6.28693 22.3571V22.3591Z" fill="#6851FF"/>
<path d="M33.6029 22.3599C33.5496 22.1884 33.4565 22.032 33.3312 21.9033C33.2059 21.7746 33.052 21.6774 32.882 21.6195C32.712 21.5616 32.5307 21.5446 32.3529 21.5701C32.1751 21.5955 32.0059 21.6626 31.8589 21.7659L28.4989 24.1339C28.3019 24.2727 28.154 24.4704 28.0764 24.6986C27.9987 24.9268 27.9954 25.1737 28.0669 25.4039L29.2869 29.3299C29.3404 29.5015 29.4337 29.6581 29.5593 29.7867C29.6848 29.9154 29.839 30.0126 30.0092 30.0703C30.1795 30.128 30.361 30.1447 30.5389 30.1189C30.7168 30.0931 30.8861 30.0256 31.0329 29.9219L34.3929 27.5539C34.5896 27.4148 34.7371 27.2169 34.8144 26.9888C34.8916 26.7606 34.8946 26.5139 34.8229 26.2839L33.6029 22.3579V22.3599Z" fill="#1B00CB"/>
<path d="M18.1755 8.57828C18.3648 8.26309 18.6325 8.00226 18.9525 7.82118C19.2725 7.64009 19.6339 7.54492 20.0015 7.54492C20.3692 7.54492 20.7306 7.64009 21.0506 7.82118C21.3706 8.00226 21.6382 8.26309 21.8275 8.57828L27.8135 18.5163L35.4175 13.7803C35.5673 13.688 35.7413 13.6431 35.917 13.6514C36.0926 13.6596 36.2617 13.7206 36.4021 13.8265C36.5425 13.9323 36.6477 14.0781 36.704 14.2447C36.7603 14.4113 36.765 14.591 36.7175 14.7603L32.1895 30.5483H7.81354L3.28354 14.7603C3.23511 14.5906 3.23921 14.4101 3.29529 14.2428C3.35137 14.0754 3.4568 13.929 3.59772 13.8227C3.73863 13.7164 3.90842 13.6553 4.08474 13.6474C4.26107 13.6394 4.43566 13.6851 4.58554 13.7783L12.1895 18.5143L18.1755 8.57428V8.57828Z" fill="#6CC9FF"/>
<path d="M6.82311 27.1043L3.28311 14.7623C3.23509 14.5929 3.23939 14.4129 3.29543 14.2459C3.35148 14.0789 3.45666 13.9328 3.5972 13.8266C3.73774 13.7205 3.90706 13.6593 4.08299 13.651C4.25892 13.6427 4.43325 13.6878 4.58311 13.7803L12.1871 18.5163L18.1731 8.57633C18.3624 8.26113 18.6301 8.00031 18.9501 7.81922C19.27 7.63814 19.6314 7.54297 19.9991 7.54297C20.3668 7.54297 20.7282 7.63814 21.0482 7.81922C21.3682 8.00031 21.6358 8.26113 21.8251 8.57633L27.7091 18.3483L27.5191 21.3283C27.5186 22.9444 26.8764 24.4941 25.7336 25.6368C24.5909 26.7796 23.0412 27.4218 21.4251 27.4223H8.76911C8.10911 27.4223 7.44911 27.3163 6.82311 27.1043Z" fill="#B2ECFF"/>
<path d="M27.711 18.3452L27.521 21.3272C27.5205 22.9433 26.8783 24.493 25.7356 25.6357C24.5928 26.7785 23.0431 27.4207 21.427 27.4212H19.707V7.56522C20.1207 7.50773 20.5421 7.57299 20.919 7.7529C21.2959 7.93281 21.6116 8.21944 21.827 8.57722L27.711 18.3452Z" fill="#6EDBFF"/>
<path d="M18.9622 18.3803C19.0437 18.2574 19.1544 18.1565 19.2844 18.0867C19.4144 18.017 19.5597 17.9805 19.7072 17.9805C19.8547 17.9805 20 18.017 20.1299 18.0867C20.2599 18.1565 20.3706 18.2574 20.4522 18.3803L22.5022 21.4563C22.6006 21.6034 22.6531 21.7763 22.6531 21.9533C22.6531 22.1302 22.6006 22.3032 22.5022 22.4503L20.4522 25.5243C20.3706 25.6472 20.2599 25.7481 20.1299 25.8178C20 25.8876 19.8547 25.9241 19.7072 25.9241C19.5597 25.9241 19.4144 25.8876 19.2844 25.8178C19.1544 25.7481 19.0437 25.6472 18.9622 25.5243L16.9122 22.4503C16.8141 22.3031 16.7617 22.1302 16.7617 21.9533C16.7617 21.7764 16.8141 21.6035 16.9122 21.4563L18.9622 18.3823V18.3803Z" fill="#8B32FF"/>
<path d="M17.7682 21.7953C17.7165 21.7945 17.6661 21.7795 17.6224 21.7519C17.5788 21.7243 17.5436 21.6851 17.5209 21.6387C17.4981 21.5923 17.4886 21.5406 17.4934 21.4891C17.4982 21.4377 17.5172 21.3886 17.5482 21.3473L19.2042 19.1713C19.24 19.1257 19.2891 19.0925 19.3447 19.076C19.4002 19.0595 19.4595 19.0607 19.5144 19.0794C19.5692 19.098 19.6169 19.1332 19.6509 19.1801C19.6849 19.227 19.7035 19.2833 19.7042 19.3413V21.5173C19.7045 21.5539 19.6975 21.5903 19.6836 21.6243C19.6698 21.6582 19.6493 21.6891 19.6235 21.7151C19.5977 21.7412 19.5669 21.7618 19.5331 21.7759C19.4992 21.79 19.4629 21.7973 19.4262 21.7973H17.7682V21.7953Z" fill="white" fill-opacity="0.4"/>
</svg>
