<svg width="30" height="29" viewBox="0 0 30 29" fill="none" xmlns="http://www.w3.org/2000/svg">
<path d="M29.3749 11.0063C29.2229 10.5405 28.9374 10.1295 28.5538 9.82463C28.1702 9.51972 27.7055 9.33426 27.2174 9.29129L20.0924 8.67504L17.3049 2.03254C17.1131 1.58082 16.7927 1.19553 16.3835 0.924676C15.9742 0.653825 15.4944 0.509399 15.0036 0.509399C14.5129 0.509399 14.033 0.653825 13.6238 0.924676C13.2146 1.19553 12.8941 1.58082 12.7024 2.03254L9.91114 8.67504L2.78614 9.29129C2.29537 9.33193 1.82754 9.5166 1.44134 9.82213C1.05513 10.1277 0.767766 10.5404 0.61529 11.0087C0.462814 11.4769 0.452021 11.9798 0.584265 12.4541C0.716509 12.9285 0.985899 13.3532 1.35864 13.675L6.77363 18.4L5.14863 25.43C5.03719 25.9087 5.06933 26.4097 5.24102 26.8702C5.41272 27.3308 5.71636 27.7305 6.11398 28.0194C6.5116 28.3083 6.98557 28.4736 7.47662 28.4946C7.96768 28.5156 8.45403 28.3914 8.87489 28.1375L14.9999 24.4175L21.1249 28.1375C21.5457 28.391 22.0319 28.5149 22.5227 28.4937C23.0136 28.4725 23.4873 28.3071 23.8847 28.0183C24.2821 27.7294 24.5855 27.3299 24.7572 26.8696C24.9289 26.4093 24.9611 25.9086 24.8499 25.43L23.2249 18.4L28.6399 13.675C29.0116 13.3521 29.2797 12.9265 29.4105 12.4517C29.5412 11.9769 29.5288 11.4741 29.3749 11.0063ZM21.0311 16.3338C20.6883 16.632 20.4333 17.0181 20.2934 17.4504C20.1536 17.8827 20.1342 18.345 20.2374 18.7875L21.6611 24.9525L16.2936 21.6925C15.9038 21.4552 15.4563 21.3296 14.9999 21.3296C14.5435 21.3296 14.0959 21.4552 13.7061 21.6925L8.33863 24.9525L9.76239 18.7875C9.86556 18.345 9.84618 17.8827 9.70633 17.4504C9.56648 17.0181 9.31144 16.632 8.96864 16.3338L4.20739 12.18L10.4749 11.6375C10.9287 11.5987 11.3632 11.4361 11.7311 11.1674C12.0989 10.8987 12.386 10.5343 12.5611 10.1138L14.9999 4.30254L17.4386 10.1138C17.6137 10.5343 17.9008 10.8987 18.2687 11.1674C18.6365 11.4361 19.071 11.5987 19.5249 11.6375L25.7924 12.18L21.0311 16.3338Z" fill="#D9D9D9"/>
</svg>
