<svg width="28" height="28" viewBox="0 0 28 28" fill="none" xmlns="http://www.w3.org/2000/svg">
<g clip-path="url(#clip0_14202_3346)">
<path fill-rule="evenodd" clip-rule="evenodd" d="M20.3245 3.5C20.7033 3.49996 21.0764 3.59214 21.4115 3.76858C21.7467 3.94501 22.0339 4.2004 22.2483 4.51267L22.3498 4.676L26.2395 11.48C26.477 11.8953 26.581 12.3735 26.5376 12.85C26.4942 13.3264 26.3054 13.778 25.9968 14.1435L25.8638 14.287L15.0336 25.1172C14.7796 25.3711 14.4408 25.5224 14.0821 25.542C13.7234 25.5616 13.3702 25.4481 13.09 25.2233L12.971 25.1183L2.14082 14.287C1.80251 13.9488 1.57631 13.5149 1.49284 13.0439C1.40936 12.5729 1.47266 12.0877 1.67415 11.6538L1.76515 11.4788L5.65365 4.67483C5.84158 4.34592 6.10678 4.06771 6.42631 3.86424C6.74585 3.66077 7.11012 3.53816 7.48765 3.507L7.67782 3.5H20.3245ZM8.50965 10.8418C8.29093 11.0606 8.16806 11.3573 8.16806 11.6667C8.16806 11.976 8.29093 12.2727 8.50965 12.4915L12.9698 16.9517C13.1052 17.0871 13.266 17.1946 13.443 17.2679C13.6199 17.3412 13.8096 17.3789 14.0011 17.3789C14.1927 17.3789 14.3824 17.3412 14.5593 17.2679C14.7363 17.1946 14.8971 17.0871 15.0325 16.9517L19.4926 12.4915C19.6041 12.3839 19.693 12.2551 19.7541 12.1128C19.8152 11.9705 19.8474 11.8174 19.8488 11.6625C19.8501 11.5076 19.8206 11.3539 19.7619 11.2106C19.7033 11.0672 19.6167 10.9369 19.5071 10.8274C19.3976 10.7178 19.2673 10.6312 19.1239 10.5725C18.9805 10.5139 18.8269 10.4844 18.672 10.4857C18.5171 10.4871 18.364 10.5192 18.2217 10.5804C18.0793 10.6415 17.9506 10.7304 17.843 10.8418L14.0011 14.6837L10.1593 10.8418C9.94053 10.6231 9.64384 10.5002 9.33448 10.5002C9.02512 10.5002 8.72843 10.6231 8.50965 10.8418Z" fill="black"/>
</g>
<defs>
<clipPath id="clip0_14202_3346">
<rect width="28" height="28" fill="white"/>
</clipPath>
</defs>
</svg>
