<svg width="30" height="26" viewBox="0 0 30 26" fill="none" xmlns="http://www.w3.org/2000/svg">
<path d="M14.6667 5.66732C18.3467 5.66732 21.3333 8.65399 21.3333 12.334C21.3333 13.2007 21.16 14.014 20.8533 14.774L24.7467 18.6673C26.76 16.9873 28.3467 14.814 29.32 12.334C27.0133 6.48065 21.32 2.33398 14.6533 2.33398C12.7867 2.33398 11 2.66732 9.34667 3.26732L12.2267 6.14732C12.9867 5.84065 13.8 5.66732 14.6667 5.66732ZM1.33333 2.02732L4.37333 5.06732L4.98667 5.68065C2.75808 7.41132 1.03576 9.70929 0 12.334C2.30667 18.1873 8 22.334 14.6667 22.334C16.7333 22.334 18.7067 21.934 20.5067 21.214L21.0667 21.774L24.9733 25.6673L26.6667 23.974L3.02667 0.333984L1.33333 2.02732ZM8.70667 9.40065L10.7733 11.4673C10.7067 11.7473 10.6667 12.0407 10.6667 12.334C10.6667 14.5473 12.4533 16.334 14.6667 16.334C14.96 16.334 15.2533 16.294 15.5333 16.2273L17.6 18.294C16.7067 18.734 15.72 19.0007 14.6667 19.0007C10.9867 19.0007 8 16.014 8 12.334C8 11.2807 8.26667 10.294 8.70667 9.40065ZM14.4533 8.36065L18.6533 12.5607L18.68 12.3473C18.68 10.134 16.8933 8.34732 14.68 8.34732L14.4533 8.36065Z" fill="#585654"/>
</svg>
