<svg width="33" height="32" viewBox="0 0 33 32" fill="none" xmlns="http://www.w3.org/2000/svg">
<g opacity="0.5">
<path d="M16.5 9.33333C20.18 9.33333 23.1666 12.32 23.1666 16C23.1666 16.8667 22.9933 17.68 22.6866 18.44L26.58 22.3333C28.5933 20.6533 30.18 18.48 31.1533 16C28.8466 10.1467 23.1533 6 16.4866 6C14.62 6 12.8333 6.33333 11.18 6.93333L14.06 9.81333C14.82 9.50667 15.6333 9.33333 16.5 9.33333ZM3.16665 5.69333L6.20665 8.73333L6.81998 9.34667C4.5914 11.0773 2.86907 13.3753 1.83331 16C4.13998 21.8533 9.83331 26 16.5 26C18.5666 26 20.54 25.6 22.34 24.88L22.9 25.44L26.8066 29.3333L28.5 27.64L4.85998 4L3.16665 5.69333ZM10.54 13.0667L12.6066 15.1333C12.54 15.4133 12.5 15.7067 12.5 16C12.5 18.2133 14.2866 20 16.5 20C16.7933 20 17.0866 19.96 17.3666 19.8933L19.4333 21.96C18.54 22.4 17.5533 22.6667 16.5 22.6667C12.82 22.6667 9.83331 19.68 9.83331 16C9.83331 14.9467 10.1 13.96 10.54 13.0667ZM16.2866 12.0267L20.4866 16.2267L20.5133 16.0133C20.5133 13.8 18.7266 12.0133 16.5133 12.0133L16.2866 12.0267Z" fill="#2E2008"/>
</g>
</svg>
