<svg width="49" height="48" viewBox="0 0 49 48" fill="none" xmlns="http://www.w3.org/2000/svg">
<path d="M4.75781 19V8C4.75781 6.89542 5.65325 6 6.75781 6H42.7579C43.8624 6 44.7579 6.89542 44.7579 8V19C41.9965 19 39.7579 21.2386 39.7579 24C39.7579 26.7614 41.9965 29 44.7579 29V40C44.7579 41.1046 43.8624 42 42.7579 42H6.75781C5.65325 42 4.75781 41.1046 4.75781 40V29C7.51923 29 9.75781 26.7614 9.75781 24C9.75781 21.2386 7.51923 19 4.75781 19ZM8.75781 15.9355C11.7213 17.4082 13.7578 20.4662 13.7578 24C13.7578 27.5336 11.7213 30.5918 8.75781 32.0644V38H40.7579V32.0644C37.7944 30.5918 35.7579 27.5336 35.7579 24C35.7579 20.4662 37.7944 17.4082 40.7579 15.9355V10H8.75781V15.9355ZM18.7578 18H30.7579V22H18.7578V18ZM18.7578 26H30.7579V30H18.7578V26Z" fill="#585654"/>
</svg>
