<svg width="24" height="24" viewBox="0 0 24 24" fill="none" xmlns="http://www.w3.org/2000/svg">
<path d="M2.00391 9.5V4C2.00391 3.44771 2.45163 3 3.00391 3H21.0039C21.5562 3 22.0039 3.44771 22.0039 4V9.5C20.6232 9.5 19.5039 10.6193 19.5039 12C19.5039 13.3807 20.6232 14.5 22.0039 14.5V20C22.0039 20.5523 21.5562 21 21.0039 21H3.00391C2.45163 21 2.00391 20.5523 2.00391 20V14.5C3.38462 14.5 4.50391 13.3807 4.50391 12C4.50391 10.6193 3.38462 9.5 2.00391 9.5ZM4.00391 7.96776C5.48563 8.70411 6.50391 10.2331 6.50391 12C6.50391 13.7668 5.48563 15.2959 4.00391 16.0322V19H20.0039V16.0322C18.5222 15.2959 17.5039 13.7668 17.5039 12C17.5039 10.2331 18.5222 8.70411 20.0039 7.96776V5H4.00391V7.96776ZM9.00391 9H15.0039V11H9.00391V9ZM9.00391 13H15.0039V15H9.00391V13Z" fill="url(#paint0_linear_10298_8842)"/>
<defs>
<linearGradient id="paint0_linear_10298_8842" x1="2.00391" y1="3" x2="2.00391" y2="21" gradientUnits="userSpaceOnUse">
<stop stop-color="#DDC450"/>
<stop offset="1" stop-color="#B68235"/>
</linearGradient>
</defs>
</svg>
