<svg width="48" height="45" viewBox="0 0 48 45" fill="none" xmlns="http://www.w3.org/2000/svg">
<path d="M32.8421 26.25C33.9368 26.25 34.8421 25.8958 35.5579 25.1875C36.2737 24.4792 36.6316 23.5833 36.6316 22.5C36.6316 21.4167 36.2737 20.5208 35.5579 19.8125C34.8421 19.1042 33.9368 18.75 32.8421 18.75C31.7474 18.75 30.8421 19.1042 30.1263 19.8125C29.4105 20.5208 29.0526 21.4167 29.0526 22.5C29.0526 23.5833 29.4105 24.4792 30.1263 25.1875C30.8421 25.8958 31.7474 26.25 32.8421 26.25ZM25.2632 35C23.8737 35 22.6838 34.51 21.6935 33.53C20.7032 32.55 20.2088 31.3733 20.2105 30V15C20.2105 13.625 20.7057 12.4475 21.696 11.4675C22.6863 10.4875 23.8754 9.99834 25.2632 10H42.9474C44.3368 10 45.5267 10.49 46.517 11.47C47.5074 12.45 48.0017 13.6267 48 15V30C48 31.375 47.5048 32.5525 46.5145 33.5325C45.5242 34.5125 44.3352 35.0017 42.9474 35H25.2632ZM5.05263 45C3.66316 45 2.47327 44.51 1.48295 43.53C0.492635 42.55 -0.00167992 41.3733 4.28916e-06 40V5C4.28916e-06 3.625 0.495162 2.4475 1.48548 1.4675C2.47579 0.487504 3.66485 -0.00166242 5.05263 4.24448e-06H40.421C41.8105 4.24448e-06 43.0004 0.490004 43.9907 1.47C44.981 2.45 45.4754 3.62667 45.4737 5H25.2632C22.2737 5 19.8417 5.9275 17.9672 7.7825C16.0926 9.6375 15.1562 12.0433 15.1579 15V30C15.1579 32.9583 16.0952 35.365 17.9697 37.22C19.8442 39.075 22.2754 40.0017 25.2632 40H45.4737C45.4737 41.375 44.9785 42.5525 43.9882 43.5325C42.9979 44.5125 41.8088 45.0017 40.421 45H5.05263Z" fill="#FEA021"/>
</svg>
