<svg width="32" height="32" viewBox="0 0 32 32" fill="none" xmlns="http://www.w3.org/2000/svg">
<g id="Frame">
<path id="Vector" d="M15.9998 29.3334C23.3636 29.3334 29.3332 23.3639 29.3332 16.0001C29.3332 8.63628 23.3636 2.66675 15.9998 2.66675C8.63604 2.66675 2.6665 8.63628 2.6665 16.0001C2.6665 23.3639 8.63604 29.3334 15.9998 29.3334Z" stroke="#8D8D8D" stroke-width="3" stroke-linejoin="round"/>
<path id="Vector_2" d="M19.7712 15.0571L16.9428 12.2287C16.4221 11.708 15.5779 11.708 15.0572 12.2287L12.2288 15.0571C11.7081 15.5778 11.7081 16.422 12.2288 16.9427L15.0572 19.7712C15.5779 20.2919 16.4221 20.2919 16.9428 19.7712L19.7712 16.9427C20.2919 16.422 20.2919 15.5778 19.7712 15.0571Z" stroke="#8D8D8D" stroke-width="3" stroke-linejoin="round"/>
</g>
</svg>
