<svg width="32" height="32" viewBox="0 0 32 32" fill="none" xmlns="http://www.w3.org/2000/svg">
<path fill-rule="evenodd" clip-rule="evenodd" d="M25.8995 25.8995C23.366 28.433 19.866 30 16 30C12.134 30 8.63404 28.433 6.1005 25.8995C3.56701 23.366 2 19.866 2 16C2 12.134 3.56701 8.63404 6.1005 6.1005C8.63404 3.56701 12.134 2 16 2C19.866 2 23.366 3.56701 25.8995 6.1005C28.433 8.63404 30 12.134 30 16C30 19.866 28.433 23.366 25.8995 25.8995ZM16 6.2C16.7732 6.2 17.4 6.8268 17.4 7.6V18.8C17.4 19.5732 16.7732 20.2 16 20.2C15.2268 20.2 14.6 19.5732 14.6 18.8V7.6C14.6 6.8268 15.2268 6.2 16 6.2ZM16 25.1C16.9665 25.1 17.75 24.3165 17.75 23.35C17.75 22.3835 16.9665 21.6 16 21.6C15.0335 21.6 14.25 22.3835 14.25 23.35C14.25 24.3165 15.0335 25.1 16 25.1Z" fill="#FBA923"/>
</svg>
