<svg width="182" height="27" viewBox="0 0 182 27" fill="none" xmlns="http://www.w3.org/2000/svg">
<path d="M16.429 6.74H9.55302L9.22902 9.476H2.38902L3.25302 3.32H23.737L22.009 15.632H7.64502L6.99702 20.42H19.993L21.541 19.052L20.857 23.84H2.82102C2.12502 23.84 1.57302 23.612 1.16502 23.156C0.757016 22.676 0.601016 22.088 0.697016 21.392L1.99302 12.212H15.637L16.429 6.74ZM56.585 1.088L53.3811 23.948C53.285 24.644 52.973 25.22 52.445 25.676C51.917 26.108 51.305 26.324 50.609 26.324H44.201L47.369 23.012L49.961 4.508H34.049L29.801 26.324H23.645L28.289 2.384L27.173 1.088H56.585ZM47.045 15.452L45.929 23.336H32.249L33.365 15.452H47.045ZM37.721 11.348L37.937 9.98H34.157L34.517 7.244H38.297L38.513 5.876H44.669L44.453 7.244H48.197L47.837 9.98H44.093L43.877 11.348H47.621L47.261 14.084H33.581L33.941 11.348H37.721ZM41.537 20.6L41.897 18.188H37.793L37.433 20.6H41.537ZM59.7862 15.452L60.4702 10.664H57.0502L61.4062 1.448L60.5422 0.403999H68.7502L68.1022 1.772H87.0022L86.5342 5.192H78.3262L77.8582 8.612H85.3822L84.8782 12.032H77.3542L76.8862 15.452H86.4622L85.9942 18.872H76.3822L75.3382 26.324H68.4982L69.5422 18.872H55.8982L56.3662 15.452H59.7862ZM64.8622 8.612H71.0182L71.4862 5.192H66.4822L64.8622 8.612ZM66.5902 15.452H70.0462L70.5142 12.032H67.0942L66.5902 15.452Z" fill="#B37936"/>
<path d="M93.8034 8.972L94.0914 11.78L95.3154 8.936L95.7834 5.552H89.6274L90.1314 2.132H101.039L100.067 9.008L95.9994 16.928L98.0874 26.216H93.6234L92.9034 22.94L91.1034 26.288H85.9554L90.9234 16.82L89.2314 8.972L89.5914 6.56H94.1634L93.8034 8.972ZM109.787 15.164H111.299L116.411 26.252H110.399L107.447 19.844L104.279 26.216H98.3754L107.303 8.576H113.063L109.787 15.164ZM109.355 3.032H119.615L119.075 6.884L117.743 10.592H112.991L114.503 6.488H107.663L105.647 10.664H100.103L104.207 1.376L103.343 0.403999H110.651L109.355 3.032ZM139.485 10.952H148.881L148.377 14.372H138.981L137.685 23.768C137.565 24.464 137.241 25.04 136.713 25.496C136.185 25.928 135.573 26.144 134.877 26.144H127.749L130.953 22.796L132.141 14.372H120.405L120.909 10.952L123.933 2.492L123.105 1.16H149.673L149.169 4.58H129.333L127.317 10.952H132.609L133.293 6.308H140.133L139.485 10.952ZM148.269 25.28H142.149L140.097 16.028H146.217L148.269 25.28ZM124.581 25.28H118.461L123.033 16.064H129.189L124.581 25.28ZM172.71 3.176H181.71L178.794 23.948C178.674 24.644 178.35 25.22 177.822 25.676C177.294 26.108 176.682 26.324 175.986 26.324H170.766L174.006 22.976L176.31 6.596H171.414L170.406 9.332H164.934L167.778 1.52L166.878 0.439999H173.718L172.71 3.176ZM165.438 1.088L162.738 20.204H160.434L159.354 17.756L161.226 4.508H155.898L154.026 17.756L152.19 20.204H149.922L152.622 1.088H165.438ZM160.29 5.588L158.454 18.584L162.414 26.252H157.338L156.186 23.228L154.314 26.252H149.094L154.746 18.116L156.474 5.588H160.29ZM174.186 12.968L173.862 21.824H170.406L170.442 20.384L163.386 21.572L163.854 18.152L166.878 10.448H170.838L168.426 17.432L170.586 17.036L170.73 12.968H174.186Z" fill="#E62A2D"/>
</svg>
