<svg width="40" height="40" viewBox="0 0 40 40" fill="none" xmlns="http://www.w3.org/2000/svg">
<path d="M19.999 30.002C22.7657 30.002 25.1244 29.0266 27.075 27.076C29.0257 25.1253 30.0004 22.7673 29.999 20.002C29.999 17.2353 29.0237 14.8766 27.073 12.926C25.1224 10.9753 22.7644 10.0006 19.999 10.002C17.2324 10.002 14.8737 10.9773 12.923 12.928C10.9724 14.8786 9.99769 17.2366 9.99902 20.002C9.99902 22.7686 10.9744 25.1273 12.925 27.078C14.8757 29.0286 17.2337 30.0033 19.999 30.002ZM19.999 40.002C17.2324 40.002 14.6324 39.4766 12.199 38.426C9.76569 37.3753 7.64902 35.9506 5.84902 34.152C4.04902 32.352 2.62436 30.2353 1.57502 27.802C0.52569 25.3686 0.000356771 22.7686 -0.000976562 20.002C-0.000976562 17.2353 0.524357 14.6353 1.57502 12.202C2.62569 9.76862 4.05036 7.65195 5.84902 5.85195C7.64902 4.05195 9.76569 2.62729 12.199 1.57795C14.6324 0.52862 17.2324 0.00328646 19.999 0.00195312C22.7657 0.00195312 25.3657 0.527287 27.799 1.57795C30.2324 2.62862 32.349 4.05329 34.149 5.85195C35.949 7.65195 37.3744 9.76862 38.425 12.202C39.4757 14.6353 40.0004 17.2353 39.999 20.002C39.999 22.7686 39.4737 25.3686 38.423 27.802C37.3724 30.2353 35.9477 32.352 34.149 34.152C32.349 35.952 30.2324 37.3773 27.799 38.428C25.3657 39.4786 22.7657 40.0033 19.999 40.002ZM19.999 36.002C24.4657 36.002 28.249 34.452 31.349 31.352C34.449 28.252 35.999 24.4686 35.999 20.002C35.999 15.5353 34.449 11.752 31.349 8.65195C28.249 5.55195 24.4657 4.00195 19.999 4.00195C15.5324 4.00195 11.749 5.55195 8.64902 8.65195C5.54902 11.752 3.99902 15.5353 3.99902 20.002C3.99902 24.4686 5.54902 28.252 8.64902 31.352C11.749 34.452 15.5324 36.002 19.999 36.002Z" fill="#FEA021"/>
</svg>
